<svg xmlns="http://www.w3.org/2000/svg" xmlns:xlink="http://www.w3.org/1999/xlink" viewBox="0 0 119.87 123.74"><defs><style>.cls-1{isolation:isolate;}.cls-2{fill:#e3e5ef;}.cls-2,.cls-34,.cls-37{mix-blend-mode:multiply;}.cls-3{fill:#764655;}.cls-4{fill:#fff;}.cls-5{fill:#f8c6c7;}.cls-6{fill:#495556;}.cls-7{fill:#dde9f7;}.cls-8{fill:url(#_ÂÁ_Ï_ÌÌ_È_ËÂÌÚ_7);}.cls-9{fill:#bcd1da;}.cls-10{fill:#667071;}.cls-11{fill:#f0999b;}.cls-12{fill:#f08dab;}.cls-13{fill:#ef7e9e;}.cls-14{fill:url(#_ÂÁ_Ï_ÌÌ_È_ËÂÌÚ_6);}.cls-15{fill:url(#_ÂÁ_Ï_ÌÌ_È_ËÂÌÚ_25);}.cls-16{fill:#e38181;}.cls-17{fill:#f5aeb9;}.cls-18{fill:#ef819e;}.cls-19{fill:url(#_ÂÁ_Ï_ÌÌ_È_ËÂÌÚ_7-2);}.cls-20{fill:url(#_ÂÁ_Ï_ÌÌ_È_ËÂÌÚ_6-2);}.cls-21{fill:url(#_ÂÁ_Ï_ÌÌ_È_ËÂÌÚ_25-2);}.cls-22{fill:#76767d;}.cls-23{fill:#5c5c64;}.cls-24{fill:#c5c9d8;}.cls-25{fill:#dadbe6;}.cls-26{fill:#2e2d38;}.cls-27{fill:#4c4b54;}.cls-28{fill:#43424c;}.cls-29{fill:#393942;}.cls-30{fill:#252430;}.cls-31{fill:url(#_ÂÁ_Ï_ÌÌ_È_ËÂÌÚ_7-3);}.cls-32{fill:#8e8e8e;}.cls-33{fill:url(#_ÂÁ_Ï_ÌÌ_È_ËÂÌÚ_7-4);}.cls-35{fill:#e6e8f3;}.cls-36{fill:#e7f0fb;}.cls-37{fill:#e6eaf3;}.cls-38{fill:#845b36;}.cls-39{fill:#f5e09d;}.cls-40{fill:#c2a570;}.cls-41{fill:#e2ccbd;}.cls-42{fill:#896c4d;}.cls-43{fill:#f6e8df;}.cls-44{fill:#9a6c61;}.cls-45{fill:#58575f;}.cls-46{fill:#b7bbc9;}.cls-47{fill:url(#_ÂÁ_Ï_ÌÌ_È_ËÂÌÚ_17);}.cls-48{fill:#f1f1f6;}.cls-49{fill:#69575d;}.cls-50{fill:#f3f5fa;}.cls-51{fill:#62c2db;}.cls-52{fill:url(#_ÂÁ_Ï_ÌÌ_È_ËÂÌÚ_17-2);}.cls-53{fill:#544146;}.cls-54{fill:#5e4d53;}.cls-55{fill:#58454b;}.cls-56{fill:#65555a;}.cls-57{fill:url(#_ÂÁ_Ï_ÌÌ_È_ËÂÌÚ_7-5);}.cls-58{fill:#f193ae;}.cls-59{fill:#f29599;}.cls-60{fill:url(#_ÂÁ_Ï_ÌÌ_È_ËÂÌÚ_6-3);}.cls-61{fill:url(#_ÂÁ_Ï_ÌÌ_È_ËÂÌÚ_25-3);}.cls-62{fill:url(#_ÂÁ_Ï_ÌÌ_È_ËÂÌÚ_3);}.cls-63{fill:#505b5c;}.cls-64{fill:#636c6d;}.cls-65{fill:#798282;}.cls-66{fill:url(#_ÂÁ_Ï_ÌÌ_È_ËÂÌÚ_7-6);}.cls-67{fill:url(#_ÂÁ_Ï_ÌÌ_È_ËÂÌÚ_3-2);}.cls-68{fill:url(#_ÂÁ_Ï_ÌÌ_È_ËÂÌÚ_3-3);}.cls-69{fill:url(#_ÂÁ_Ï_ÌÌ_È_ËÂÌÚ_3-4);}.cls-70{fill:url(#_ÂÁ_Ï_ÌÌ_È_ËÂÌÚ_42);}.cls-71{fill:url(#_ÂÁ_Ï_ÌÌ_È_ËÂÌÚ_3-5);}</style><linearGradient id="_ÂÁ_Ï_ÌÌ_È_ËÂÌÚ_7" x1="8.09" y1="12.7" x2="12.12" y2="9.75" gradientUnits="userSpaceOnUse"><stop offset="0.12" stop-color="#f8c6c7"/><stop offset="0.97" stop-color="#f4abb7"/></linearGradient><linearGradient id="_ÂÁ_Ï_ÌÌ_È_ËÂÌÚ_6" x1="15.34" y1="9.25" x2="16.64" y2="9.68" gradientUnits="userSpaceOnUse"><stop offset="0.12" stop-color="#f8c6c7"/><stop offset="0.99" stop-color="#fbdada"/></linearGradient><linearGradient id="_ÂÁ_Ï_ÌÌ_È_ËÂÌÚ_25" x1="15.08" y1="9.22" x2="16.72" y2="9.54" gradientUnits="userSpaceOnUse"><stop offset="0.01" stop-color="#f9cacb"/><stop offset="0.88" stop-color="#fbdbdb"/></linearGradient><linearGradient id="_ÂÁ_Ï_ÌÌ_È_ËÂÌÚ_7-2" x1="76.14" y1="16.13" x2="80.18" y2="13.44" xlink:href="#_ÂÁ_Ï_ÌÌ_È_ËÂÌÚ_7"/><linearGradient id="_ÂÁ_Ï_ÌÌ_È_ËÂÌÚ_6-2" x1="83.44" y1="12.78" x2="84.86" y2="12.78" xlink:href="#_ÂÁ_Ï_ÌÌ_È_ËÂÌÚ_6"/><linearGradient id="_ÂÁ_Ï_ÌÌ_È_ËÂÌÚ_25-2" x1="83.44" y1="12.81" x2="84.94" y2="12.81" xlink:href="#_ÂÁ_Ï_ÌÌ_È_ËÂÌÚ_25"/><linearGradient id="_ÂÁ_Ï_ÌÌ_È_ËÂÌÚ_7-3" x1="13653.73" y1="91.8" x2="13660.05" y2="91.8" gradientTransform="matrix(-1, 0, 0, 1, 13729.88, 0)" xlink:href="#_ÂÁ_Ï_ÌÌ_È_ËÂÌÚ_7"/><linearGradient id="_ÂÁ_Ï_ÌÌ_È_ËÂÌÚ_7-4" x1="-11288.63" y1="93.68" x2="-11282.99" y2="93.68" gradientTransform="translate(11355.79)" xlink:href="#_ÂÁ_Ï_ÌÌ_È_ËÂÌÚ_7"/><linearGradient id="_ÂÁ_Ï_ÌÌ_È_ËÂÌÚ_17" x1="55.29" y1="64" x2="77.35" y2="64" gradientUnits="userSpaceOnUse"><stop offset="0.24" stop-color="#c8cad3"/><stop offset="0.38" stop-color="#c8cad3"/><stop offset="0.44" stop-color="#caccd5"/><stop offset="0.47" stop-color="#d2d3db"/><stop offset="0.47" stop-color="#d5d5dd"/><stop offset="0.73" stop-color="#d5d5dd"/><stop offset="0.89" stop-color="#d5d5dd"/></linearGradient><linearGradient id="_ÂÁ_Ï_ÌÌ_È_ËÂÌÚ_17-2" x1="63.87" y1="68.74" x2="89.81" y2="68.74" xlink:href="#_ÂÁ_Ï_ÌÌ_È_ËÂÌÚ_17"/><linearGradient id="_ÂÁ_Ï_ÌÌ_È_ËÂÌÚ_7-5" x1="2343.03" y1="38.56" x2="2348.87" y2="38.56" gradientTransform="matrix(-1, 0, 0, 1, 2405.69, 0)" xlink:href="#_ÂÁ_Ï_ÌÌ_È_ËÂÌÚ_7"/><linearGradient id="_ÂÁ_Ï_ÌÌ_È_ËÂÌÚ_6-3" x1="64.17" y1="37.76" x2="65.72" y2="37.76" xlink:href="#_ÂÁ_Ï_ÌÌ_È_ËÂÌÚ_6"/><linearGradient id="_ÂÁ_Ï_ÌÌ_È_ËÂÌÚ_25-3" x1="64.15" y1="37.79" x2="65.81" y2="37.79" xlink:href="#_ÂÁ_Ï_ÌÌ_È_ËÂÌÚ_25"/><linearGradient id="_ÂÁ_Ï_ÌÌ_È_ËÂÌÚ_3" x1="2350.54" y1="60.09" x2="2355.49" y2="60.09" gradientTransform="matrix(-1, 0, 0, 1, 2405.69, 0)" gradientUnits="userSpaceOnUse"><stop offset="0.12" stop-color="#f3a2b4"/><stop offset="0.99" stop-color="#f4abb7"/></linearGradient><linearGradient id="_ÂÁ_Ï_ÌÌ_È_ËÂÌÚ_7-6" x1="2368.08" y1="38.2" x2="2376.3" y2="38.2" gradientTransform="matrix(-1, 0, 0, 1, 2405.69, 0)" xlink:href="#_ÂÁ_Ï_ÌÌ_È_ËÂÌÚ_7"/><linearGradient id="_ÂÁ_Ï_ÌÌ_È_ËÂÌÚ_3-2" x1="2384.8" y1="79.19" x2="2386.23" y2="79.19" xlink:href="#_ÂÁ_Ï_ÌÌ_È_ËÂÌÚ_3"/><linearGradient id="_ÂÁ_Ï_ÌÌ_È_ËÂÌÚ_3-3" x1="2386.13" y1="78.46" x2="2389.62" y2="78.46" xlink:href="#_ÂÁ_Ï_ÌÌ_È_ËÂÌÚ_3"/><linearGradient id="_ÂÁ_Ï_ÌÌ_È_ËÂÌÚ_3-4" x1="2387.16" y1="77.18" x2="2390.1" y2="77.18" xlink:href="#_ÂÁ_Ï_ÌÌ_È_ËÂÌÚ_3"/><linearGradient id="_ÂÁ_Ï_ÌÌ_È_ËÂÌÚ_42" x1="2370.92" y1="36.35" x2="2369.87" y2="37.04" gradientTransform="matrix(-1, 0, 0, 1, 2405.69, 0)" gradientUnits="userSpaceOnUse"><stop offset="0.29" stop-color="#f9cecf"/><stop offset="1" stop-color="#f8c6c7"/></linearGradient><linearGradient id="_ÂÁ_Ï_ÌÌ_È_ËÂÌÚ_3-5" x1="2369.27" y1="36.7" x2="2370.33" y2="36.7" xlink:href="#_ÂÁ_Ï_ÌÌ_È_ËÂÌÚ_3"/></defs><g class="cls-1"><g id="Layer_1" data-name="Layer 1"><polygon class="cls-2" points="90.91 73.47 32.8 107.02 61.75 123.74 119.87 90.19 90.91 73.47"/><path class="cls-2" d="M34.58,113.11c-5.7,3.3-15,3.28-20.71,0s-5.77-8.67-.07-12,15-3.28,20.72,0S40.28,109.82,34.58,113.11Z"/><ellipse class="cls-2" cx="12.66" cy="82.5" rx="7.31" ry="12.66" transform="translate(-69.91 94.71) rotate(-89.69)"/><path class="cls-3" d="M7.62,7.8a13,13,0,0,1-.48,2.59,13.48,13.48,0,0,0-.39,3.68c.21.53,1.06-.72,1.58-2.44a5,5,0,0,0-.2-3.27Z"/><path class="cls-4" d="M15.49,12.06c1.54,0,2.86.53,4,3.83s3.71,7.48,4.2,11-.16,4.42-1.3,4.79S19,28.36,17,22.62A25,25,0,0,1,15.49,12.06Z"/><path class="cls-5" d="M15,58.8c-.17,5.15-2,15.51-1.91,18s4,4.2,4.62,5,1.13,1.79,1,2.25a1.68,1.68,0,0,1-2.22.7c-1.23-.45-3.35-2.4-4.12-2.68s-2.51-.35-3.62-1.67.81-2.87.85-4.42-.12-10.1-.06-11.69,2.23-11.88,2.23-11.88Z"/><path class="cls-5" d="M12.29,61.54C11.28,65.6,8.7,72.69,8.54,75s-.18,4.36.84,5.7,2.76,2.53,3.19,3.17,1.22,1.29,1.11,2.14-2.46,1.07-3.68.55a8.52,8.52,0,0,1-3.58-2.51,12,12,0,0,1-2-3,3.27,3.27,0,0,1,.17-1.64,7.73,7.73,0,0,0,.3-2.08,55.58,55.58,0,0,1-.13-9.44A20.65,20.65,0,0,1,7.49,61Z"/><path class="cls-6" d="M18.19,30.81A41.32,41.32,0,0,1,19.74,38c.23,2.5-.1,19.74.64,22.82-5.38,3.08-4.63,1.75-6.89,3.3a9.08,9.08,0,0,1-7.37,1.61c-1.5-.61-2.09-2.16-2.28-4.23S2.65,51.7,2.15,46.07,2.2,37,5.44,32.32,18.19,30.81,18.19,30.81Z"/><path class="cls-7" d="M8.61,11.76c1.15-1,4.43,0,5.67-.1s3.36,2.13,3.6,2.57a20.09,20.09,0,0,1,1.35,3.93c.48,2.18,1.08,11-.07,12.85S18,32.47,18,32.47a27.43,27.43,0,0,1-6.86,1.3c-4.22.33-5.54-.27-6.3-1.3A13.9,13.9,0,0,1,3,27.32c-.52-2.47-1-8.44-1.11-9.6s1.56-2.54,2.29-3.24,2.68-1.9,2.91-2.16A5.6,5.6,0,0,1,8.61,11.76Z"/><path class="cls-8" d="M14,13.06A3.26,3.26,0,0,0,13.41,15a1.08,1.08,0,0,1-1.14,1.1,4.52,4.52,0,0,1-3.85-1.55C7.29,13,7.93,12.91,8.14,12A6.36,6.36,0,0,0,8.3,9c-.18-1.66-.52-2.91.1-3.29S14,13.06,14,13.06Z"/><path class="cls-9" d="M6.56,20.87c1,.34,1.17-1,1.17-1l-.08-1.22a26.82,26.82,0,0,1,1.19,4.39,23.1,23.1,0,0,0,1.91,5.39,6.35,6.35,0,0,1,.76,3.31c-.16.76-2.95.07-2.95.07L4.84,21.22Z"/><path class="cls-9" d="M16.55,15.94a1.83,1.83,0,0,1-1.08-.4,6.36,6.36,0,0,1-1-.92c-.22-.26-.75,0-.53.89a10.41,10.41,0,0,0,1.74,3c.66.88.76,1.67,1.2,2.27a8.91,8.91,0,0,1,1.15,2c.08.38.62,2.19.63,2.36s.07,2.18.17,2.8.49,2.51.49,2.51.62-6.72.21-8.67,0-3.13-1.14-4.22A18.1,18.1,0,0,0,16.55,15.94Z"/><path class="cls-5" d="M19.32,34.28a2.94,2.94,0,0,0,1.22-.74c.42-.48.75-.88,1-1.27s.7-.58.68-1-1.48-1.14-2.12-1.17-1.38.85-1.59,1.15-.55.8-.55.8Z"/><path class="cls-4" d="M18.52,20.16a1.21,1.21,0,0,1,1.21-1.44c.71-.08,1.43-.39,1.8.75s2.5,6.23,2.7,7.07.65,4.33-1.79,5.43a3.34,3.34,0,0,1-3-1.26C18.85,29.93,18.52,20.16,18.52,20.16Z"/><path class="cls-5" d="M16.5,15.15c.13.21.64.26.86.47s.67.43.93.8a3.26,3.26,0,0,0-.92-1l-.44-.29Z"/><path class="cls-5" d="M18.73,18c.32,0,.55.47,1.11.39.34-.07.08.16,0,.2a.57.57,0,0,1-.41,0,1.86,1.86,0,0,1-.56-.27,2.44,2.44,0,0,1-.66.19,1,1,0,0,1-.54-.26l-.44-.38a3.53,3.53,0,0,0,1,.34A.79.79,0,0,0,18.73,18Z"/><path class="cls-10" d="M6.64,65.84l-.24,0c.3-2.65-.13-8.48-.48-13.16-.15-2.08-.3-4-.36-5.46a39.08,39.08,0,0,1,1.51-11.4v0l.24.06v0A39.05,39.05,0,0,0,5.8,47.18c.06,1.41.21,3.37.36,5.45C6.51,57.32,6.94,63.17,6.64,65.84Z"/><path class="cls-4" d="M3.76,16.46c1.66-.15,2.62.58,4.07,5.77,1.35,4.81,2.89,9.46,2.89,9.46s1.54,3.44-2.09,4.38C7,36.31,7,35.63,5.22,32.64a28.5,28.5,0,0,1-3.81-13.5A2.62,2.62,0,0,1,3.76,16.46Z"/><path class="cls-4" d="M18.42,31.56a2.33,2.33,0,0,1,1.25,2.34A2.21,2.21,0,0,1,18.73,35s-4.05,2.48-10.65,1.16L7.45,36A2.46,2.46,0,0,1,7.87,33a4,4,0,0,1,3.44-1.32,36.69,36.69,0,0,0,4.79,0C17.71,31.63,18.42,31.56,18.42,31.56Z"/><path class="cls-5" d="M20.16,13.77a12.11,12.11,0,0,1,.4,1.27c.05.33.26,2.7.35,3s.45,1.66.48,1.82a1.28,1.28,0,0,1-1.41.91c-.95-.13-1.3-.5-1.46-.87a8.48,8.48,0,0,0-.4-1.23c-.15-.18-.47-.31-1.15-1s-.87-.94-.93-1.17a15.12,15.12,0,0,0-.92-1.77c-.18-.28-.44-.71-.48-.78s.15-.82.66-.5a2,2,0,0,1,.7.84c.12.17.45,1,.75,1s.17-.85.13-1a13.2,13.2,0,0,0-.52-1.54c-.08-.11-.94-1.43-.95-1.48s.43-.28.58-.24.06-.33.2-.45.54-1.17,1-.36S18.46,12,18.56,12.1a4.19,4.19,0,0,1,.23.39,3.79,3.79,0,0,0-.21-.74,1,1,0,0,1-.11-.85c.13-.22.45-.21.52-.06s.93,2.14,1,2.3A2.61,2.61,0,0,1,20.16,13.77Z"/><path class="cls-11" d="M16.66,10.15a6.49,6.49,0,0,0,.21,1c.15.3.81,1.57.92,1.67a7.64,7.64,0,0,1,.45.63l-.3-.29a14.28,14.28,0,0,1-.85-1.4l-.41-.88-.22-.72,0,.79a.87.87,0,0,0,0,.55c.13.22.46.74.55.93l.42.77c.07.12.17.24.15.27s-.13.2-.13.2a2.17,2.17,0,0,1-.13-.5,3.23,3.23,0,0,0-.52-.91c-.12-.17-.42-.74-.46-.82a2.17,2.17,0,0,1-.44-1C15.9,10,16.44,9.75,16.66,10.15Z"/><path class="cls-11" d="M18.62,11.83A4.66,4.66,0,0,1,19,13.1a5.35,5.35,0,0,0,.33,1A6.86,6.86,0,0,1,19,13.5a4,4,0,0,1-.17-1Z"/><path class="cls-5" d="M16.05,2.7a4.67,4.67,0,0,1,1.18,2.7,12.05,12.05,0,0,1-.07,2.23,6.22,6.22,0,0,1-.24,2.44c-.35.9-1.82,3.75-2.33,3.88a7.32,7.32,0,0,1-5.06-2.47C8,9.54,8.52,5,8.62,4.19s1.75-1.57,3.76-1.86A7.92,7.92,0,0,1,16.05,2.7Z"/><path class="cls-12" d="M13.62,12.05a1.12,1.12,0,0,0,1.29.45,1.23,1.23,0,0,0,1-.91s-.59.25-.76.3S13.62,12.05,13.62,12.05Z"/><path class="cls-13" d="M13.62,12.05a2.82,2.82,0,0,0,1,0,3.73,3.73,0,0,1,.55-.11,1.15,1.15,0,0,0,.68-.4c-.24-.08-.58.15-.69.19s-.32,0-.42,0A6.22,6.22,0,0,0,13.62,12.05Z"/><path class="cls-14" d="M15.73,7.47c-.14.58.66,2.81.69,3.16s-1.66.33-1.66.33Z"/><path class="cls-15" d="M14.89,11h-.14v-.16a3.6,3.6,0,0,0,1.56-.21s0,0,0,0a5.65,5.65,0,0,0-.21-.82,7.24,7.24,0,0,1-.47-2.37l.16,0a7.58,7.58,0,0,0,.47,2.28,7.06,7.06,0,0,1,.22.86.17.17,0,0,1-.06.15C16.22,11,15.27,11,14.89,11Z"/><path class="cls-3" d="M14.87,7.56a3.18,3.18,0,0,0-.72-.21,6.48,6.48,0,0,0-.77-.08c-.25,0-.51,0-.77,0l-.78,0v0l.78-.11c.26,0,.51-.08.78-.1a7,7,0,0,1,.8,0,2.86,2.86,0,0,1,.8.17Z"/><path class="cls-3" d="M16.24,7l.55-.28a1,1,0,0,0,.44-.39l.07,0a1.21,1.21,0,0,1-.41.51,6,6,0,0,1-.5.38Z"/><path class="cls-16" d="M13,8.37a.35.35,0,0,0,.37.33.36.36,0,0,0,.33-.38A.35.35,0,0,0,13.33,8,.33.33,0,0,0,13,8.37Z"/><path class="cls-16" d="M16.16,7.66a.29.29,0,0,0,.09.4.3.3,0,0,0,.39-.14.29.29,0,0,0-.09-.4A.29.29,0,0,0,16.16,7.66Z"/><path class="cls-3" d="M10.35.36c1.32-.18,2.13-1.08,4.86.9a4.92,4.92,0,0,1,2.06,3.3,1.68,1.68,0,0,1-.06.65S17,4,16.53,3.89s-2.33.6-3.05.2c-1.24.42-1.51.74-1.72,1.15S10.19,7,10.07,7.35,9.35,7.79,9.43,9v.59a3.3,3.3,0,0,1-.07-1,.77.77,0,0,0-.53-.95c-.36-.14-.55,0-.68.34S8.65,9.3,8,9.06,6.9,7.93,6.82,6.19,7.24.76,10.35.36Z"/><path class="cls-5" d="M8.74,8.3a3.06,3.06,0,0,0-.28-1c-.19-.39-.51-.71-.94-.58s-.67.92-.33,1.66.42.91.85,1.11.54.39.78.16,0-.87-.07-1A.72.72,0,0,1,8.74,8.3Z"/><path class="cls-17" d="M8.45,8.09a.9.9,0,0,0-.37-.9c-.47-.33-.78-.06-.82.11a1.58,1.58,0,0,0,.29,1.26c.42.57.83.66,1,.49s-.15-.42-.21-.6S8.45,8.09,8.45,8.09Z"/><path class="cls-18" d="M10,84.5c1.47,0,1.81-.49,2-.8s-.45-.87-.45-.87l1.06.57s1.68,2.41,1.57,2.94-1.21,1.58-4.14.6a5.75,5.75,0,0,1-3.69-3s-1.71-1.32-1.83-1.86a4.47,4.47,0,0,1,0-1.35l1.32.9Z"/><path class="cls-18" d="M16.61,80.57a1.37,1.37,0,0,1-.05,1.48,2.81,2.81,0,0,1-3.08.28c-1.05-.66-2.64-1.14-3-1.38a11.14,11.14,0,0,1-2.29-1.74c-.18-.38-.45-.57-.31.45s2,2,2.76,2.14A5,5,0,0,1,13,82.91c.62.62,4.05,2.7,5.23,2.11,1.42-.71.21-2.8-.37-3.39A14.06,14.06,0,0,0,16.61,80.57Z"/><path class="cls-4" d="M83,16s.22,2.79.53,5.89a56.41,56.41,0,0,0,1.11,7.93,3,3,0,0,0,1,1.33c1.26,1,3.13,1.11,3-.87q0-.16,0-.36h0a88.61,88.61,0,0,0-2.78-12.3A3.41,3.41,0,0,0,83,16Z"/><path class="cls-4" d="M89.85,45.6a2.5,2.5,0,0,0,.35,0,17,17,0,0,0,2.13-.63s-.89-5.1-1.85-9.59a36.07,36.07,0,0,0-2-6.87l-.51-.12s-.39.35-1.45-.08c-.83-.33-1.63-.15-1.84,1.59C84.15,33.8,88.4,41.81,89.85,45.6Z"/><path class="cls-5" d="M89.86,45.3A5.34,5.34,0,0,1,90,46.68a1.35,1.35,0,0,0,.38.91c.32.27,1.26.87,1.41,1s.26.33.53.36h.07c.32,0,.39-.13.51-.36s0-.35,0-.35l.08-.08.39.16a12.25,12.25,0,0,0,1.58.54,11.39,11.39,0,0,0,1.77.62c.55,0,.55-.16.55-.16l.09.05a1.53,1.53,0,0,0,.47.17c.24,0,.4,0,.43-.17S98.14,49.1,98,49L98,49a.14.14,0,0,0,.1-.06.43.43,0,0,0,.05-.16.28.28,0,0,0-.14-.31l-.13-.1a.16.16,0,0,0,0-.07.43.43,0,0,0,0-.36c-.07-.07-.82-.27-1.12-.39s-3.91-2.15-4.15-2.34a.92.92,0,0,1-.36-.49S89.67,44.8,89.86,45.3Z"/><path class="cls-9" d="M84.64,29.86c-.49,3.94,3.76,12,5.21,15.74a2.5,2.5,0,0,0,.35,0c-.3-.66-2-5.3-2.68-7s-2.06-5-2.06-6.2a5,5,0,0,1,.17-1.14c.25-1,.69-2,.85-2.92A29.69,29.69,0,0,0,86.12,20a14.78,14.78,0,0,0-2.59,1.94A56.41,56.41,0,0,0,84.64,29.86Z"/><path class="cls-5" d="M98,49,98,49a.14.14,0,0,0,.1-.06,4.9,4.9,0,0,1-1.3-.5l-2.32-1.3-1-.49c.08,0,1.57,1,2.09,1.26l1.76,1A2.21,2.21,0,0,0,98,49Z"/><path class="cls-5" d="M97.27,49.29l.09.05v-.21c0-.13-.15-.22-.23-.26s-1-.35-1-.35l-2-1c.1.06,1.79,1,2,1.13s.78.23.92.28S97.35,49.21,97.27,49.29Z"/><path class="cls-5" d="M98,48.43l-.13-.1a.16.16,0,0,0,0-.07,5.18,5.18,0,0,1-1.52-.61l-2.31-1.21,2.3,1.3,1.26.59S97.83,48.4,98,48.43Z"/><path class="cls-5" d="M91.66,46.74l.21.46c.15.32.46.49.79.79s0,.76-.11.84a1,1,0,0,1-.25.09h.07c.32,0,.39-.13.51-.36s0-.35,0-.35l.08-.08.39.16a12.25,12.25,0,0,0,1.58.54,11.39,11.39,0,0,0,1.77.62c.55,0,.55-.16.55-.16s-.29,0-.61,0a5.89,5.89,0,0,1-1.15-.4c-.45-.15-2.3-.93-2.51-1s-.86-.58-.86-.58Z"/><path class="cls-5" d="M73.57,57.09c-.71,6.36-.28,6.47-1.71,7.47s-5.66,2.73-7.22,4.26-3,3.7-3.55,4.19-2.15,2.1-2.5,2.48-1.06.76-1.57.39a1.94,1.94,0,0,1-.75-1.45,3.29,3.29,0,0,1,.63-2.07,5.17,5.17,0,0,0,1.22-2.51A6.33,6.33,0,0,1,59,67.13a1.69,1.69,0,0,1,1.61-.72c.24,0,.42.7.38.78a28.69,28.69,0,0,1,3-4.56c1.21-1.22,3.87-1.55,4.6-3S73.57,57.09,73.57,57.09Z"/><path class="cls-5" d="M75.44,58.28c-.79,5.9-4.18,15.45-4.3,17.25a3.45,3.45,0,0,0,1.59,3,20.86,20.86,0,0,1,2.43,1.83,2.72,2.72,0,0,1,.78,1.57,1.92,1.92,0,0,1-1.09,1.59,3.8,3.8,0,0,1-2.81-1c-.81-.75-1.48-1.87-2.2-2.38s-2-.65-2.8-1.38a1.9,1.9,0,0,1-.3-2.19,8.69,8.69,0,0,0,1-1.76,31.08,31.08,0,0,0,.74-6.5c.08-3.54,2.38-11.06,2.38-11.06Z"/><path class="cls-5" d="M74.17,79.26c.48.31,2.3,2.29,2,3.54S73,83.19,72,82.7s-1.38-1.8-2.16-2.4-1.54-.52-2.46-.82-.86-.6-1-.9a4.09,4.09,0,0,1,.15-1.87,1.23,1.23,0,0,1,.47-.58s-.48.66.52,1.42S70.18,79,71.06,80a2.27,2.27,0,0,0,2.77.45c.42-.38-.16-1.3-.16-1.3Z"/><path class="cls-5" d="M59.87,74.19c.79-.59-1.55,1.86-2.85,1.94s-1-1.82-1-2.67.93-2,1.55-3.08.74-2.91,1-3.35,1.5-1.33,2.14-.69c-1.09.45-1.91,1.09-2.26,3.1s-1.44,4-.75,4.7S58.67,75.11,59.87,74.19Z"/><path class="cls-6" d="M81.52,36c-.16,1-.35,3.38-.52,5.81a54.1,54.1,0,0,1-1.51,9.81c-1,3.72-2.09,8.48-2.13,8.85A2,2,0,0,1,76,61.9a5.3,5.3,0,0,0-2.48,1.16c-.77.67-4.23,1-6.13.12s-2-1.65-2.5-3.16a13.9,13.9,0,0,1-1.14-3.84c-.08-1.35.77-1.14.71-3.22s-.73-7.47-.24-11.6,3.25-7.35,5.11-8.27S81.52,36,81.52,36Z"/><path class="cls-7" d="M80.7,15.2c1.92.4,4.33.92,5,2.81a27.13,27.13,0,0,1,.67,9.31C86,30.13,84,32.61,82.89,34.9s-1,1.83-2,2.38-2.23.85-5.5.73A6.22,6.22,0,0,1,70,34.59c-.73-1.19-1.1-13.92-.86-14.62s3.39-2.81,5.07-3.76a10.62,10.62,0,0,1,3-1.19Z"/><path class="cls-19" d="M82.28,16a11.48,11.48,0,0,0-1,2.7c-.16.51-.93,1-2.11.86A2.86,2.86,0,0,1,76.61,17c-.11-1.52.32-2.18.29-3.76a21.64,21.64,0,0,1,.66-4.31C77.57,8.84,82.28,16,82.28,16Z"/><path class="cls-4" d="M82.09,16.84a11.55,11.55,0,0,1,0,2.12c-.1.56-.13,2.05-.21,2.21s-.81-.82-.81-.82l-.55-.54,0-.35a2.66,2.66,0,0,0,.63-.74,4.81,4.81,0,0,0,.66-1.67C81.78,16.64,82.09,16.84,82.09,16.84Z"/><path class="cls-10" d="M66.22,62.21,66,62.09c.63-1.13.85-5.08.64-11.74a30,30,0,0,1,1.26-8.72,10,10,0,0,1,1.21-2.42,11.46,11.46,0,0,0,1.59-3.51l.24.06a11.57,11.57,0,0,1-1.63,3.58,10.63,10.63,0,0,0-1.18,2.36,29.88,29.88,0,0,0-1.24,8.64C67.1,57.05,66.87,61,66.22,62.21Z"/><path class="cls-9" d="M73.17,23A11.77,11.77,0,0,1,74,26.68c.09,1.07-.34,1.68-.15,3a31.79,31.79,0,0,1-.45,5.09,9.23,9.23,0,0,1-1.51,2.88s-.81-4.58-1.07-8.15S71.2,17.83,73.17,23Z"/><path class="cls-5" d="M84.35,6.69c1.09.48,1,1.08,1.16,2.24a5.53,5.53,0,0,1,.08,1.81,4.69,4.69,0,0,0-.11,1.3A9.38,9.38,0,0,1,83,17.16c-1.24.29-4.59-1.41-5.17-2.4a5.09,5.09,0,0,1-.53-2.67c0-.55.08-3.44.46-4S82.87,6.05,84.35,6.69Z"/><path class="cls-5" d="M77.23,11.8a1,1,0,0,0-.5-1.28c-.57-.26-1-.06-.92.93A2,2,0,0,0,76.6,13c.34.29.54.42.74.23s0-.76,0-.79A.81.81,0,0,1,77.23,11.8Z"/><path class="cls-5" d="M77.11,11.66c0-.35-.21-.87-.66-.93s-.57.17-.55.47a1.88,1.88,0,0,0,.41,1,1,1,0,0,0,.8.45c.15-.05-.08-.33-.09-.6a.74.74,0,0,1,.06-.37Z"/><path class="cls-20" d="M84.28,11c-.27.85.51,2.74.58,3.16s-1.42.39-1.42.39Z"/><path class="cls-21" d="M83.55,14.64h-.11v-.17a2.52,2.52,0,0,0,1.3-.22.07.07,0,0,0,0-.07,3.76,3.76,0,0,0-.17-.61A5.45,5.45,0,0,1,84.2,11l.15,0a5.78,5.78,0,0,0,.41,2.5,5.9,5.9,0,0,1,.18.62.24.24,0,0,1-.07.21C84.65,14.61,83.86,14.64,83.55,14.64Z"/><path class="cls-3" d="M83.58,11.26A3.43,3.43,0,0,0,82.07,11c-.19,0-1.44.19-1.49.19l0-.13s1.29-.15,1.48-.19a3.51,3.51,0,0,1,1.61.3Z"/><path class="cls-3" d="M84.57,11.15l0-.05,0-.07a4.21,4.21,0,0,1,.94-.48,1.56,1.56,0,0,0,.21-.06l0,.13a.87.87,0,0,1-.25.06A9.13,9.13,0,0,0,84.57,11.15Z"/><path class="cls-12" d="M84.17,15.47a.83.83,0,0,1-.69.57,1.72,1.72,0,0,1-1.2-.31l1.23-.13Z"/><path class="cls-13" d="M82.28,15.73a2.62,2.62,0,0,0,1.12,0c.36-.12.32,0,.58-.11a.57.57,0,0,0,.19-.15,1,1,0,0,0-.39-.05,2.15,2.15,0,0,1-.25.06c-.08,0-.16,0-.3,0A3.68,3.68,0,0,0,82.28,15.73Z"/><circle class="cls-16" cx="82.03" cy="11.94" r="0.34"/><path class="cls-16" d="M84.6,11.39a.28.28,0,1,0,.45.3.28.28,0,1,0-.45-.3Z"/><path class="cls-4" d="M76.9,13.72c-.54.23-.73.22-1,.8s-.79.9-.7,1.66a7,7,0,0,0,1.7,3.07c.91,1.05,2.25,2,2.44,2.47a4,4,0,0,0,1.29-2.09c0-.24-.88-.46-1.46-.93a13.63,13.63,0,0,1-2.12-2.49c-.39-.64-.38-.74-.38-.74Z"/><path class="cls-4" d="M80.31,37.7l-.21-.12a16,16,0,0,0,1.27-10c-.3-1.49-.67-3.78-.86-5.32a9.87,9.87,0,0,1-.13-2.65l.23.08a10,10,0,0,0,.15,2.54c.18,1.54.55,3.82.85,5.3A16.26,16.26,0,0,1,80.31,37.7Z"/><path class="cls-5" d="M79.52,39.41l0,.08a.87.87,0,0,0,.18-.66,4.37,4.37,0,0,1-.25-1.19,1.32,1.32,0,0,0-.06.81s.17.54.09.68a.84.84,0,0,1-.28.32A2.11,2.11,0,0,0,79.52,39.41Z"/><path class="cls-3" d="M84.5,7.28c-1.29.38-2-.4-3.23,0a2.65,2.65,0,0,0-2,1.61c-.48.93-1.12,1.36-1.24,2.11A19.53,19.53,0,0,1,78,13a10.89,10.89,0,0,1-.49,1.55,14.92,14.92,0,0,0,.33-2,1.73,1.73,0,0,0-.53-1.35c-.21-.06-.65-1.17-1.14-.64a5.94,5.94,0,0,0-.26,1.3s-.92.22-1-2.52.92-5.13,3.46-5.88a4.64,4.64,0,0,1,4.5.54,6.88,6.88,0,0,1,2.44,2.54,2.65,2.65,0,0,1,.26,1.71C85.28,7.18,85.11,7.1,84.5,7.28Z"/><path class="cls-4" d="M70.53,20c1.62.12,2.78,1.86,2.62,6.5S72.78,37,71,37.41c-1,.23-2.28.68-2.73-1a41.84,41.84,0,0,1-.5-5.79,26.52,26.52,0,0,1,.61-8.76C69.06,19.57,70.53,20,70.53,20Z"/><path class="cls-4" d="M70,35.07c1.34-.63,2.71-.82,3.14-.45s6.15,2.36,6.71,2.63a1.41,1.41,0,0,1-.94,2.44c-1.83.26-8.4-.79-10.07-2.14S70,35.07,70,35.07Z"/><path class="cls-5" d="M78.12,38.37c0,.37.16,1,.62,1.06a3.55,3.55,0,0,0,.44,0,2.11,2.11,0,0,0,.34,0l0,.08a1.13,1.13,0,0,0,0,.18c0,.07.25.26.63.19a.92.92,0,0,0,.58-.4h0a2.73,2.73,0,0,0,.78.37,3.64,3.64,0,0,1,1.24.55,7,7,0,0,0,1.77.69c.25,0,.37.31,1,.53.36.13.49,0,.53-.11a1,1,0,0,0,0-.34c0-.23-.62-.53-.67-.56h0s.66,0,1.22,0a4.72,4.72,0,0,0,1.12-.16.23.23,0,0,0,.15-.3.4.4,0,0,0-.15-.18c-.23-.17-.9-.09-1-.09s-.63-.08-.63-.08l.25-.22c.21-.18.52-.44.73-.64.37-.36.74-.27.69-.64a.31.31,0,0,0-.42-.26l0-.18c0-.18-.17-.24-.41-.23a6.41,6.41,0,0,0-1.29.61,5.2,5.2,0,0,1-1,.11,4.44,4.44,0,0,1-1.18-.14c-.27,0-.3-.23-.82-.4-.3-.1-.59-.13-.84-.19a1.22,1.22,0,0,1-.46-.21l-.08-.07a1.7,1.7,0,0,0-.83-.36c-.23,0-.57.28-.67.3a3.75,3.75,0,0,1-.47-.05,1.81,1.81,0,0,0-.46.14A1.28,1.28,0,0,0,78.12,38.37Z"/><path class="cls-11" d="M85.24,39.58l-.71-.09a2.5,2.5,0,0,0,.53.15c.28,0,.93.09.93.09l.25-.22C85.89,39.55,85.24,39.58,85.24,39.58Z"/><path class="cls-11" d="M86.54,40.54a4.72,4.72,0,0,0,1.12-.16.23.23,0,0,0,.15-.3c-.06.15-.28.2-.47.22a17.12,17.12,0,0,1-1.79.13,4.49,4.49,0,0,1-.84-.33l-.34-.16s-.48-.13-.31,0l1.26.68S86,40.59,86.54,40.54Z"/><path class="cls-11" d="M86,38.9A15,15,0,0,0,87.24,38l0-.18c0,.19-.32.17-.35.22s-1.17.65-1.35.76a5.1,5.1,0,0,1-1.24.13l-.51-.13.35.19a6.07,6.07,0,0,0,1.38,0c.24-.12,1.33-.82,1.33-.82l.25-.06L86,38.83l-.88.46-.61.13h.23a1.36,1.36,0,0,0,.38-.05A10.12,10.12,0,0,0,86,38.9Z"/><path class="cls-11" d="M83.34,39.36l.24.08-.34-.55a2.23,2.23,0,0,0-.64-.46,1.92,1.92,0,0,1-.66-.45c-.21-.24-.29-.29-.24-.43a1.22,1.22,0,0,1-.46-.21l-.08-.07a2.71,2.71,0,0,0,0,.29c0,.3.44.45.47.48a3,3,0,0,0,.48.5c.18.1.32.07.57.2A3.59,3.59,0,0,1,83.34,39.36Z"/><path class="cls-11" d="M80.68,39.46a2.73,2.73,0,0,0,.78.37,3.64,3.64,0,0,1,1.24.55,7,7,0,0,0,1.77.69c.25,0,.37.31,1,.53.36.13.49,0,.53-.11a.55.55,0,0,1-.36,0c-.2-.07-1.13-.52-1.53-.71s-1.64-.87-2-1.06-.92-.48-1-.74.07-1,0-.85-.4.52-.38.73A4.08,4.08,0,0,1,80.68,39.46Z"/><path class="cls-2" d="M63.05,79.38c-6.51-3.77-17.12-3.75-23.68,0s-6.59,9.91-.07,13.67,17.12,3.75,23.68,0S69.57,83.14,63.05,79.38Z"/><path class="cls-22" d="M53.75,75.85a.53.53,0,0,1,.55-.06h0l.7.32-.83,2.26L53.4,78h0a.76.76,0,0,1-.34-.63A1.74,1.74,0,0,1,53.75,75.85Z"/><path class="cls-23" d="M54.45,76.17c.44-.27.84,0,.89.56a1.74,1.74,0,0,1-.69,1.55c-.44.27-.84,0-.89-.57A1.74,1.74,0,0,1,54.45,76.17Z"/><path class="cls-22" d="M37.81,90.48a2,2,0,0,1,.91-1.57.67.67,0,0,1,.65-.06h0l.82.53-1.34,2.18-.77-.49h0A.64.64,0,0,1,37.81,90.48Z"/><path class="cls-23" d="M38.61,91c0,.58.41.81.91.52a2,2,0,0,0,.91-1.57c0-.57-.41-.8-.91-.51A2,2,0,0,0,38.61,91Z"/><path class="cls-22" d="M64.91,85.41A1,1,0,0,1,67,85.34h0V86h-.17a1.06,1.06,0,0,1-.88.47,1,1,0,0,1-.87-.47h-.18Z"/><path class="cls-23" d="M64.91,86a1.05,1.05,0,1,0,1-1A1,1,0,0,0,64.91,86Z"/><path class="cls-22" d="M38.52,79.43h0a.66.66,0,0,1,.64.06,2,2,0,0,1,.91,1.57.64.64,0,0,1-.24.57h0l-.74.52-1.28-2.22Z"/><path class="cls-23" d="M37.53,80.52a2,2,0,0,0,.91,1.57c.5.29.91,0,.91-.52A2,2,0,0,0,38.44,80C37.94,79.71,37.53,79.94,37.53,80.52Z"/><path class="cls-22" d="M55,92.48h0s.07,0,.11.14a6.78,6.78,0,0,1,.19,1.62c0,.4,0,.62-.1.61h0L54,95l-.21-2.39Z"/><path class="cls-23" d="M53.9,92.76a6.31,6.31,0,0,1,.2,1.62c0,.58-.09.79-.19.47a6.31,6.31,0,0,1-.2-1.62C53.71,92.65,53.8,92.44,53.9,92.76Z"/><polygon class="cls-24" points="51.54 82.84 42.61 85.49 42.75 85.4 38.56 89.69 37.99 89.13 42.18 84.83 42.23 84.78 42.33 84.74 50.81 80.88 51.54 82.84"/><polygon class="cls-24" points="50.8 82.86 42.29 78.94 42.54 78.96 38.34 80.11 38.13 79.33 42.33 78.18 42.44 78.15 42.58 78.19 51.55 80.86 50.8 82.86"/><polygon class="cls-24" points="50.17 81.47 53.05 75.86 53.17 75.62 53.39 75.6 54.47 75.52 54.53 76.32 53.45 76.4 53.8 76.15 52.18 82.25 50.17 81.47"/><polygon class="cls-24" points="51.18 80.73 61.58 81.47 61.7 81.48 61.77 81.52 66.78 84.26 66.39 84.97 61.39 82.23 61.58 82.28 51.17 82.99 51.18 80.73"/><polygon class="cls-24" points="52.29 81.42 54.23 87.43 54.27 87.55 54.27 87.57 54.99 93.2 54.21 93.36 52.7 87.88 52.74 88.02 50.06 82.3 52.29 81.42"/><path class="cls-24" d="M49.2,83.27a4.37,4.37,0,0,0,3.94,0,1.2,1.2,0,0,0,0-2.28,4.37,4.37,0,0,0-3.94,0A1.2,1.2,0,0,0,49.2,83.27Z"/><path class="cls-25" d="M49.2,82.26a4.34,4.34,0,0,0,3.94,0c1.09-.63,1.1-1.64,0-2.27a4.34,4.34,0,0,0-3.94,0A1.2,1.2,0,0,0,49.2,82.26Z"/><path class="cls-22" d="M49.37,80.88h0V77.82h.41l.12-.08a2.82,2.82,0,0,1,2.56,0l.13.08H53v3.06h0a.91.91,0,0,1-.53.74,2.85,2.85,0,0,1-2.56,0A.89.89,0,0,1,49.37,80.88Z"/><path class="cls-23" d="M49.89,78.56a2.82,2.82,0,0,0,2.56,0,.78.78,0,0,0,0-1.48,2.85,2.85,0,0,0-2.56,0A.78.78,0,0,0,49.89,78.56Z"/><path class="cls-24" d="M49.65,77.58h0v-4.5H50l.1-.07a2.41,2.41,0,0,1,2.16,0l.1.07h.34v4.5h0a.76.76,0,0,1-.45.62,2.36,2.36,0,0,1-2.15,0A.75.75,0,0,1,49.65,77.58Z"/><path class="cls-25" d="M50.1,73.7a2.39,2.39,0,0,0,2.15,0,.66.66,0,0,0,0-1.25,2.38,2.38,0,0,0-2.16,0A.65.65,0,0,0,50.1,73.7Z"/><path class="cls-24" d="M57.49,60.13l-.83-.25c.14-.44,1.34-4.29,2.44-5.17s6.65,1.74,9.87,3.37l-.39.77c-3.77-1.91-8.27-3.78-8.95-3.46C59,55.92,58,58.58,57.49,60.13Z"/><path class="cls-26" d="M56.47,35.84S53.83,34,52.32,34.47c-1.54.25-12.83,7.64-12.28,9.72,1,3.62.16,3.65-.32,25.24a6,6,0,0,0,2.77,3.28c2.31,1.4,6.81-4.15,6.81-4.15Z"/><path class="cls-26" d="M42.53,69.38l12.71-7.19c.83-.48,1.44-1.82,1.43-1L55,38.6c-.16-3.11-2.27-4.52-3.1-4L39.22,41.75a3.39,3.39,0,0,0-1.36,3l.71,6.92.59.81.56,6.89c.36,2.15,0,2.75,0,4.93l0,5.16C39.8,70.59,41.7,69.86,42.53,69.38Z"/><polygon class="cls-26" points="40.15 59.78 55.88 50.85 55.8 43.05 39.22 51.52 40.15 59.78"/><polygon class="cls-26" points="42.83 62.34 56.47 54.44 55.88 50.85 40.15 59.78 42.83 62.34"/><path class="cls-23" d="M41.73,52.44l15.73-8.93c2-1.36-.09-6.45-.09-6.45-.72-1.59-1.58-1.66-2.41-1.18L41.71,43.35c-.84.48,0,1.51.19,2.73A20,20,0,0,1,41.73,52.44Z"/><path class="cls-27" d="M41.81,60.24l15.73-8.93s1.88-4.65-.08-7.8L41.73,52.44C43.65,55.54,41.87,60.11,41.81,60.24Z"/><path class="cls-28" d="M57.54,51.32h0c1.34,3.55,1.67,4.42,1.17,8.18l-.3,2.2L42.68,70.63l.29-2.2c.51-3.76.18-4.63-1.16-8.19h0Z"/><path class="cls-29" d="M57.55,51.31s.18.8-5.78,4.15S42,60.52,42,60.52l-.17-.28Z"/><path class="cls-30" d="M42.68,70.63s-.18-.8,5.77-4.14,9.8-5.07,9.8-5.07l.16.28Z"/><path class="cls-29" d="M42.28,72.2h0a.93.93,0,0,0,.56.76l9.49,5.48a4.67,4.67,0,0,0,1.76.56,5.28,5.28,0,0,0,1.32,0,3.18,3.18,0,0,0,1.09-.36l13.59-7.87a1.25,1.25,0,0,0,.72-1,14.45,14.45,0,0,0,0-3,2.58,2.58,0,0,0-.22-.71,1.74,1.74,0,0,0-.47-.58h0a8.18,8.18,0,0,0-1.13-.7,35.1,35.1,0,0,0-7.89-2.84,15,15,0,0,0-2.69-.22L43.49,70.15l-1,.54A8,8,0,0,0,42.28,72.2Z"/><path class="cls-30" d="M42.53,70.69l.13-.18a16.82,16.82,0,0,1,2.66.22,34.05,34.05,0,0,1,7.88,2.84,6.78,6.78,0,0,1,1.18.75h0a2.41,2.41,0,0,0,1.87.3c.48-.07,12.76-7.16,13.86-7.84.41-.26.51-.51.47-.73a2.58,2.58,0,0,1,.22.71,14.45,14.45,0,0,1,0,3,1.25,1.25,0,0,1-.72,1L56.5,78.63a3.5,3.5,0,0,1-1.36.39H55a5.32,5.32,0,0,1-.89,0,4.67,4.67,0,0,1-1.76-.56L42.84,73a.93.93,0,0,1-.56-.76h0A8,8,0,0,1,42.53,70.69Z"/><path class="cls-30" d="M58.79,52.8l1.21.37a1.81,1.81,0,0,1,1,.16l1.18.54C65.7,55,70.58,56.6,70.64,57a4.43,4.43,0,0,1,0,1.08v.05h0a.82.82,0,0,1-.43.51,2,2,0,0,1-1.83.08l-9.27-4.22a.61.61,0,0,1-.28-.3.3.3,0,0,1,0-.1A1.94,1.94,0,0,1,58.79,52.8Z"/><path class="cls-23" d="M70.32,56.48,61,52.26a2,2,0,0,0-1.82.08h0c-.54.31-.6.78-.13,1l9.27,4.23a2.08,2.08,0,0,0,1.83-.08C70.73,57.23,70.79,56.75,70.32,56.48Z"/><path class="cls-31" d="M71.28,87.49s-1.57,1.06-1.45,1.83S72.27,95,73.7,95.7c3,1.46,2.58-1.46,2.14-2.11s-2-2.2-1.86-3.54C74.22,88.24,71.28,87.49,71.28,87.49Z"/><path class="cls-32" d="M71.11,91.8s-.54.11-.59.51l-.28,1.89s-.37.15-.56,0a2,2,0,0,1-.41-.62s.07-3,0-3.59S71.11,91.8,71.11,91.8Z"/><path class="cls-18" d="M69.82,88.18a29.16,29.16,0,0,1,2.42,4.47c.64,1.74,1.45,2.51,2.12,2.56,1.06.08,1.81-.49,1.65-1l-.17-.57s2.37,3.14,1.82,4.88-5-1.25-5.61-2.26c-.23-.38-.48-3-1-3.82s-1.52-.6-1.75-2.14S69.82,88.18,69.82,88.18Z"/><path class="cls-32" d="M70.94,92c.54.81,1,3.6,1.26,4,.57.93,4.47,3.54,5.46,2.44v0c-.56,1.74-5-1.25-5.61-2.26-.23-.38-.48-3-1-3.82s-1.57-.62-1.7-1.89A9.42,9.42,0,0,1,70.94,92Z"/><path class="cls-32" d="M68.43,92.76s-.75-.26-.76.14,0,2.9,0,2.9a.37.37,0,0,1-.38.07c-.2-.09-.47-.57-.47-.57s-.21-2.45-.17-3.07S68.43,92.76,68.43,92.76Z"/><path class="cls-33" d="M68.37,89.24a3.11,3.11,0,0,0-1.21,2.07c0,1.17,1.24,6,2.71,6.6s3-.3,2.92-1-1.33-2.84-1.63-4.52S68.37,89.24,68.37,89.24Z"/><path class="cls-18" d="M71.2,91.7a31,31,0,0,1,1.47,3.64c.93,3.19.82,4.56.56,5.3s-2.51,0-4-1.4c-1.78-1.59-.9-3.36-2-5.23a3.68,3.68,0,0,1-.6-2.47,1.94,1.94,0,0,1,1.12-1.65,2.77,2.77,0,0,0-.47,2.22,12.08,12.08,0,0,0,.4,1.39c.59,1.29.65,2.54,1.53,3.5s3.43.48,3.38,0a21.67,21.67,0,0,0-1.14-3.47A4.65,4.65,0,0,1,71.2,91.7Z"/><path class="cls-32" d="M67.31,93.88c1,1.87.12,3.52,1.9,5.1,1.44,1.28,3.58,2.1,4.06,1.55,0,0,0,.07,0,.11-.27.77-2.51,0-4-1.4-1.78-1.59-.9-3.36-2-5.23a2.89,2.89,0,0,1-.58-1.56C66.84,92.87,67.14,93.58,67.31,93.88Z"/><g class="cls-34"><path class="cls-35" d="M65.59,75.38a16.32,16.32,0,0,1-14.77,0c-4.09-2.36-4.12-6.18,0-8.53a16.35,16.35,0,0,1,14.77,0C69.63,69.21,69.66,73,65.59,75.38Z"/></g><path class="cls-36" d="M61.48,57.8S75.93,70.07,75.93,72s-1.81,16.77-1.71,17.94-3.12.74-3.36-.4S69.46,77,69.46,77l-17-13.17Z"/><path class="cls-37" d="M69.46,77s1.16,11.39,1.4,12.52c.09.47.71.83,1.39,1,0-1.51.4-5,.68-7,.47-3.19-.89-6.93-1-8.13-.18-2.86-7.61-6-7.61-6s-.42,1.15-1,2.92Z"/><path class="cls-36" d="M67.47,90.63s-2.68-10.85-2.21-11.82.07-1.09.07-1.09-1.25-.73-6-1.47c-4.59-1.2-8.55-3.46-9.63-5-2.07-2.88-1-6.79-.48-7.86s8.1,0,9.51,1.41,13.1,6.83,12.77,10.81A138.63,138.63,0,0,0,71,91.16C69.37,93.18,67.47,90.63,67.47,90.63Z"/><path class="cls-24" d="M41.23,69.25c-.32.24-.64-.24-.64-.51a2.94,2.94,0,0,1,.26-.92c.18-.5.37-1,.57-1.48a6.26,6.26,0,0,1,1.45-2.45c.41-.33,1.14-.16,1.59-.06a16.36,16.36,0,0,1,2.65.85c1.14.44,2.25.94,3.35,1.46L52,66.9c.13.07.64.23.7.36s-.43.58-.62.59-.66-.27-.92-.39c-.68-.33-1.36-.65-2-1C47.92,66,46.69,65.42,45.42,65a9.69,9.69,0,0,0-1.3-.38,1.27,1.27,0,0,0-.72,0c-.25.12-.46.6-.58.83-.24.44-.44.9-.64,1.36s-.41,1-.59,1.57l-.24.72A.38.38,0,0,1,41.23,69.25Z"/><path class="cls-30" d="M42.73,61.57l1.2.38a1.86,1.86,0,0,1,1,.16l1.18.54c3.47,1.11,8.36,2.73,8.41,3.1a4.43,4.43,0,0,1,0,1.08v0h0a.81.81,0,0,1-.43.51,2,2,0,0,1-1.83.08L43,63.24a.6.6,0,0,1-.28-.29.3.3,0,0,1,0-.1A1.93,1.93,0,0,1,42.73,61.57Z"/><path class="cls-23" d="M54.25,65.26,45,61a2,2,0,0,0-1.83.08h0c-.54.31-.6.78-.13,1.05l9.27,4.22a2,2,0,0,0,1.83-.07C54.66,66,54.72,65.53,54.25,65.26Z"/><polygon class="cls-38" points="95.04 79.1 93.11 77.98 92.9 76.99 92.65 75.74 88.48 55.24 90.06 53.94 94.59 76.85 95.04 79.1"/><polygon class="cls-39" points="94.18 76.61 85.69 81.51 84.76 80.96 93.23 76.07 94.18 76.61"/><polygon class="cls-40" points="91.24 55.88 90.82 58.38 86.61 83.97 84.96 84.92 84.96 84.92 89.66 56.41 90.82 56.02 91.24 55.88"/><polygon class="cls-38" points="84.96 84.92 83.03 83.8 87.72 55.29 89.66 56.41 84.96 84.92"/><polygon class="cls-40" points="96.69 78.15 96.69 78.15 95.04 79.1 90.82 58.38 90.41 56.35 90.82 56.02 91.99 55.06 96.69 78.15"/><polygon class="cls-40" points="94.42 77.86 93.4 78.45 85.69 82.9 85.69 81.51 92.64 77.5 94.18 76.61 94.42 77.86"/><polygon class="cls-38" points="89.47 79.59 109.97 91.43 109.97 92.45 89.47 80.62 89.47 79.59"/><polygon class="cls-40" points="90.39 79.06 110.89 90.9 109.97 91.43 89.47 79.59 90.39 79.06"/><polygon class="cls-38" points="116.17 91.3 114.24 90.19 114.04 89.19 113.79 87.94 109.62 67.44 111.2 66.15 115.73 89.05 116.17 91.3"/><polygon class="cls-39" points="115.31 88.81 106.83 93.71 105.89 93.17 114.36 88.27 115.31 88.81"/><polygon class="cls-40" points="112.37 68.08 111.96 70.58 107.75 96.17 106.1 97.12 106.09 97.12 110.79 68.61 111.96 68.22 112.37 68.08"/><polygon class="cls-38" points="106.09 97.12 104.16 96.01 108.86 67.5 110.79 68.61 106.09 97.12"/><polygon class="cls-40" points="117.83 90.35 117.83 90.35 116.17 91.3 111.96 70.58 111.55 68.56 111.96 68.22 113.13 67.26 117.83 90.35"/><polygon class="cls-40" points="115.56 90.06 114.53 90.66 106.83 95.1 106.83 93.71 113.77 89.7 115.31 88.81 115.56 90.06"/><polygon class="cls-38" points="48.71 103.61 46.78 102.5 46.58 101.5 46.32 100.26 42.15 79.75 43.73 78.46 48.27 101.37 48.71 103.61"/><polygon class="cls-39" points="47.85 101.13 39.37 106.02 38.43 105.48 46.9 100.59 47.85 101.13"/><polygon class="cls-40" points="44.91 80.39 44.5 82.89 40.28 108.48 38.63 109.43 38.63 109.43 43.33 80.92 44.5 80.53 44.91 80.39"/><polygon class="cls-38" points="38.63 109.43 36.7 108.32 41.4 79.81 43.33 80.92 38.63 109.43"/><polygon class="cls-40" points="50.36 102.66 50.36 102.66 48.71 103.61 44.5 82.89 44.08 80.87 44.5 80.53 45.67 79.58 50.36 102.66"/><polygon class="cls-40" points="48.1 102.38 47.07 102.97 39.37 107.42 39.37 106.02 46.31 102.02 47.85 101.13 48.1 102.38"/><polygon class="cls-38" points="43.14 104.11 63.64 115.94 63.64 116.97 43.14 105.13 43.14 104.11"/><polygon class="cls-40" points="44.06 103.58 64.56 115.41 63.64 115.94 43.14 104.11 44.06 103.58"/><polygon class="cls-38" points="69.85 115.82 67.92 114.7 67.71 113.7 67.46 112.46 63.29 91.95 64.87 90.66 69.4 113.57 69.85 115.82"/><polygon class="cls-39" points="68.98 113.33 60.5 118.23 59.57 117.68 68.04 112.79 68.98 113.33"/><polygon class="cls-40" points="66.05 92.59 65.63 95.1 61.42 120.68 59.77 121.64 59.77 121.64 64.46 93.13 65.63 92.73 66.05 92.59"/><polygon class="cls-38" points="59.77 121.64 57.84 120.52 62.53 92.01 64.46 93.13 59.77 121.64"/><polygon class="cls-40" points="71.5 114.86 71.5 114.86 69.85 115.82 65.63 95.1 65.22 93.07 65.63 92.73 66.8 91.78 71.5 114.86"/><polygon class="cls-40" points="69.23 114.58 68.2 115.17 60.5 119.62 60.5 118.23 67.44 114.22 68.98 113.33 69.23 114.58"/><polygon class="cls-41" points="119.87 60.69 61.75 94.24 61.75 102.54 119.87 68.99 119.87 60.69"/><polygon class="cls-42" points="118.6 62.56 63.02 94.66 63.02 100.66 118.6 68.57 118.6 62.56"/><polygon class="cls-40" points="118.26 62.8 63.04 94.68 63.04 100.19 118.26 68.32 118.26 62.8"/><polygon class="cls-43" points="90.91 43.97 32.8 77.52 61.75 94.24 119.87 60.69 90.91 43.97"/><polygon class="cls-44" points="32.8 77.52 61.75 94.24 61.75 102.54 32.8 85.82 32.8 77.52"/><path class="cls-45" d="M102.58,68.58a.34.34,0,0,1,0,.14,0,0,0,0,1,0,0,1,1,0,0,1-.08.14.75.75,0,0,1-.17.19l-.16.15h0l-.18.12-.05,0a3.28,3.28,0,0,1-1,.33h0l-.12,0h-.88l-.23,0h0a3.22,3.22,0,0,1-.63-.15l-.29-.11,0,0-.15-.08h0a1,1,0,0,1,0-2,3.79,3.79,0,0,1,3.44,0A1.12,1.12,0,0,1,102.58,68.58Z"/><path class="cls-44" d="M98.45,68.26a3.79,3.79,0,0,1,3.44,0,1.6,1.6,0,0,1,.59.56c.29-.49.09-1.06-.59-1.45a3.79,3.79,0,0,0-3.44,0c-.67.38-.86.94-.58,1.43A1.61,1.61,0,0,1,98.45,68.26Z"/><path class="cls-2" d="M64,70.84l-8.73-5a.25.25,0,0,1,0-.47l12.54-7.24a.91.91,0,0,1,.82,0l8.72,5c.23.13.23.34,0,.47L64.82,70.84A.89.89,0,0,1,64,70.84Z"/><path class="cls-46" d="M77.35,63.24h0V62.9H77l-8.35-4.82a.87.87,0,0,0-.8,0l-12.19,7H55.3v.34h0a.26.26,0,0,0,.16.24L64,70.61a.9.9,0,0,0,.8,0l12.38-7.15a.26.26,0,0,0,.16-.23Z"/><path class="cls-47" d="M64,70.27l-8.55-4.93a.25.25,0,0,1,0-.47l12.38-7.14a.87.87,0,0,1,.8,0l8.55,4.93c.22.13.22.34,0,.46L64.81,70.27A.87.87,0,0,1,64,70.27Z"/><path class="cls-48" d="M77.12,63,64.73,70.17a.76.76,0,0,1-.66,0l-8.54-4.94c-.19-.1-.19-.27,0-.38l12.4-7.15a.7.7,0,0,1,.66,0l8.54,4.93C77.31,62.74,77.31,62.91,77.12,63Z"/><path class="cls-49" d="M76,62.33,63.51,69.55a.19.19,0,0,1-.18,0l-7.67-4.43s0-.07,0-.1l12.52-7.23a.19.19,0,0,1,.18,0L76,62.22A.06.06,0,0,1,76,62.33Z"/><path class="cls-50" d="M64,68.85,63.7,69a.15.15,0,0,1-.13,0l-.29-.16-.06,0,.32.19.1,0,.1,0,.29-.18ZM56.57,65s0,0,0,0l.3-.17-.06,0-.27.15a.1.1,0,0,0,0,.08s0,0,0,.07l.34.2.06,0L56.58,65Zm18.57-2.62-.29-.17-.06,0,.32.19a0,0,0,0,1,0,0l0,0-.3.17.07,0,.26-.16a.07.07,0,0,0,0-.14Zm-7.18-4-.3.17.06,0,.27-.16h.13l.33.2.07,0-.37-.21A.21.21,0,0,0,68,58.29Z"/><path class="cls-51" d="M70.17,66.31l0,0a0,0,0,0,1,0,0l.5.28a0,0,0,0,1,0,0l0,0h0l-.49-.28s0,0,0,0Z"/><path class="cls-49" d="M65,69.78l-.09,0a.81.81,0,0,1-.74,0l0,0c-.19-.11-.17-.3,0-.42l.09,0a.81.81,0,0,1,.74,0l.05,0C65.2,69.46,65.18,69.66,65,69.78Z"/><path class="cls-49" d="M76.66,63l-.08,0a.83.83,0,0,1-.75,0l0,0c-.19-.11-.16-.3.06-.43l.08,0a.83.83,0,0,1,.75,0l0,0C76.9,62.71,76.88,62.9,76.66,63Z"/><path class="cls-2" d="M70.93,76.7l-7.07-4.08a.25.25,0,0,1,0-.47L81.94,61.71a.89.89,0,0,1,.81,0l7.07,4.09c.23.13.23.34,0,.47L71.75,76.7A.91.91,0,0,1,70.93,76.7Z"/><path class="cls-46" d="M89.81,65.91h0v-.34h-.36l-6.7-3.87a.93.93,0,0,0-.8,0L64.23,71.93h-.35v.34h0a.28.28,0,0,0,.16.24l6.89,4a.87.87,0,0,0,.8,0L89.65,66.14a.28.28,0,0,0,.16-.23Z"/><path class="cls-52" d="M70.93,76.13l-6.89-4c-.22-.13-.22-.33,0-.46L82,61.35a.87.87,0,0,1,.8,0l6.89,4c.23.13.23.34,0,.46L71.73,76.14A.9.9,0,0,1,70.93,76.13Z"/><path class="cls-48" d="M89.58,65.68,71.66,76A.7.7,0,0,1,71,76l-6.89-4c-.19-.11-.19-.28,0-.38L82,61.32a.7.7,0,0,1,.66,0l6.89,4C89.76,65.41,89.76,65.58,89.58,65.68Z"/><path class="cls-53" d="M87.81,65.26v-.09h-.08L87,64.73a.28.28,0,0,0-.28,0l-.77.45h-.07v.09h0a.09.09,0,0,0,.06.08l.78.45a.3.3,0,0,0,.29,0l.78-.45A.12.12,0,0,0,87.81,65.26Z"/><path class="cls-53" d="M82.85,62.4v-.09h-.08L82,61.86a.37.37,0,0,0-.29,0l-.77.45h-.07v.09h0a.1.1,0,0,0,.05.08l.79.46a.37.37,0,0,0,.29,0l.78-.46A.09.09,0,0,0,82.85,62.4Z"/><path class="cls-53" d="M81.62,63.11V63h-.07l-.78-.45a.34.34,0,0,0-.28,0l-.77.45h-.07v.09h0a.1.1,0,0,0,.06.07l.79.46a.34.34,0,0,0,.28,0l.78-.46A.09.09,0,0,0,81.62,63.11Z"/><path class="cls-53" d="M80.4,63.82v-.09h-.08l-.77-.44a.3.3,0,0,0-.29,0l-.77.45h-.07v.08h0s0,.05,0,.08l.79.45a.37.37,0,0,0,.29,0l.78-.45A.12.12,0,0,0,80.4,63.82Z"/><path class="cls-53" d="M79.17,64.53v-.09H79.1L78.32,64A.28.28,0,0,0,78,64l-.77.45H77.2v.08h0a.09.09,0,0,0,.06.08l.79.45a.28.28,0,0,0,.28,0l.78-.45A.12.12,0,0,0,79.17,64.53Z"/><path class="cls-53" d="M86.58,66v-.09h-.07l-.77-.45a.3.3,0,0,0-.29,0l-.77.45h-.07V66h0a.16.16,0,0,0,.06.08l.79.45a.28.28,0,0,0,.28,0l.79-.45S86.59,66,86.58,66Z"/><path class="cls-53" d="M84.66,65.67v-.09h-.08l-.77-.45a.31.31,0,0,0-.28,0l-.77.45h-.07v.09h0a.09.09,0,0,0,.06.08l.78.45a.3.3,0,0,0,.29,0l.78-.45A.09.09,0,0,0,84.66,65.67Z"/><path class="cls-53" d="M83.44,66.38v-.09h-.08l-.77-.45a.37.37,0,0,0-.29,0l-.77.45h-.07v.09h0a.16.16,0,0,0,.06.08l.79.46a.34.34,0,0,0,.28,0l.79-.46A.09.09,0,0,0,83.44,66.38Z"/><path class="cls-53" d="M82.8,65.3v-.09h-.08L82,64.77a.28.28,0,0,0-.28,0l-.78.44h-.06v.08h0s0,0,.06.07l.78.46a.37.37,0,0,0,.29,0l.78-.46A.09.09,0,0,0,82.8,65.3Z"/><path class="cls-53" d="M81.55,64.58v-.09h-.08L80.7,64a.34.34,0,0,0-.28,0l-.78.45h-.06v.09h0a.1.1,0,0,0,.06.07l.78.46a.37.37,0,0,0,.29,0l.78-.46A.09.09,0,0,0,81.55,64.58Z"/><path class="cls-53" d="M80.32,65.29V65.2h-.07l-.77-.44a.3.3,0,0,0-.29,0l-.77.45h-.07v.08h0a.21.21,0,0,0,.06.08l.79.45a.34.34,0,0,0,.28,0l.79-.45A.11.11,0,0,0,80.32,65.29Z"/><path class="cls-53" d="M79.1,66v-.09H79l-.77-.44a.28.28,0,0,0-.28,0l-.77.45h-.07V66h0a.09.09,0,0,0,.06.08l.78.45a.3.3,0,0,0,.29,0l.78-.45A.12.12,0,0,0,79.1,66Z"/><path class="cls-53" d="M77.87,66.72v-.1H77.8L77,66.18a.3.3,0,0,0-.29,0l-.77.45H75.9v.09h0a.16.16,0,0,0,.06.08l.79.45a.28.28,0,0,0,.28,0l.79-.45A.08.08,0,0,0,77.87,66.72Z"/><path class="cls-53" d="M76.65,67.43v-.09h-.08l-.77-.45a.34.34,0,0,0-.28,0l-.77.45h-.07v.09h0a.09.09,0,0,0,.06.08l.78.45a.33.33,0,0,0,.29,0l.78-.46A.09.09,0,0,0,76.65,67.43Z"/><path class="cls-53" d="M75.42,68.14v-.09h-.07l-.77-.45a.37.37,0,0,0-.29,0l-.77.45h-.07v.09h0a.19.19,0,0,0,.06.07l.79.46a.34.34,0,0,0,.28,0l.79-.46A.08.08,0,0,0,75.42,68.14Z"/><path class="cls-53" d="M74.2,68.85v-.09h-.08l-.77-.44a.28.28,0,0,0-.28,0l-.77.44h-.07v.09h0s0,0,.06.07l.78.46a.37.37,0,0,0,.29,0l.78-.46A.09.09,0,0,0,74.2,68.85Z"/><path class="cls-53" d="M73,69.56v-.09H72.9L72.13,69a.3.3,0,0,0-.29,0l-.77.45H71v.08h0a.21.21,0,0,0,.06.08l.79.45a.28.28,0,0,0,.28,0l.79-.45A.11.11,0,0,0,73,69.56Z"/><path class="cls-53" d="M69.78,70.28v.09h.07l.77.44a.3.3,0,0,0,.29,0l.77-.45h.07v-.08h0a.09.09,0,0,0-.06-.08l-.79-.45a.28.28,0,0,0-.28,0l-.78.45A.12.12,0,0,0,69.78,70.28Z"/><path class="cls-53" d="M70.44,69.61v-.09h-.08l-.77-.45a.34.34,0,0,0-.28,0l-.78.45h-.06v.09h0a.1.1,0,0,0,.06.07l.78.46a.37.37,0,0,0,.29,0l.78-.46A.09.09,0,0,0,70.44,69.61Z"/><path class="cls-53" d="M69.21,70.32v-.09h-.07l-.77-.45a.37.37,0,0,0-.29,0l-.77.45h-.07v.09h0s0,0,.06.07l.79.46a.34.34,0,0,0,.28,0l.78-.46A.09.09,0,0,0,69.21,70.32Z"/><path class="cls-53" d="M66.73,71.76v-.09h-.07l-.77-.44a.3.3,0,0,0-.29,0l-.77.45h-.07v.08h0s0,0,.06.08l.79.45a.28.28,0,0,0,.28,0l.78-.45A.12.12,0,0,0,66.73,71.76Z"/><path class="cls-53" d="M68,72.32l-.77-.45a.37.37,0,0,0-.29,0l-.11.07h0l-.66.38H66.1v0l0,0H66v.08h0a.1.1,0,0,0,0,.08l.79.45a.3.3,0,0,0,.29,0l.89-.52s.06,0,0-.08v-.09Z"/><path class="cls-53" d="M70.52,71V70.9h-.07l-.77-.45a.33.33,0,0,0-.29,0l-.77.45h-.07V71h0a.16.16,0,0,0,.06.08l.79.45a.28.28,0,0,0,.28,0l.79-.45S70.53,71,70.52,71Z"/><path class="cls-53" d="M69.3,71.7v-.09h-.08l-.77-.45a.34.34,0,0,0-.28,0l-.77.45h-.07v.09h0a.09.09,0,0,0,.06.08l.78.46a.37.37,0,0,0,.29,0l.78-.46A.09.09,0,0,0,69.3,71.7Z"/><path class="cls-53" d="M81.57,66v-.09H81.5l-.77-.44a.3.3,0,0,0-.29,0l-.77.45H79.6V66h0a.12.12,0,0,0,.06.08l.79.45a.28.28,0,0,0,.28,0l.79-.45A.14.14,0,0,0,81.57,66Z"/><path class="cls-53" d="M80.35,66.73v-.1h-.08l-.77-.44a.28.28,0,0,0-.28,0l-.78.45h-.06v.09h0a.09.09,0,0,0,.06.08l.78.45a.3.3,0,0,0,.29,0l.78-.45A.09.09,0,0,0,80.35,66.73Z"/><path class="cls-53" d="M79.12,67.44v-.09h-.07l-.77-.45a.37.37,0,0,0-.29,0l-.77.45h-.07v.09h0a.12.12,0,0,0,.06.08L78,68a.28.28,0,0,0,.28,0l.79-.45A.1.1,0,0,0,79.12,67.44Z"/><path class="cls-53" d="M77.9,68.15v-.09h-.08l-.77-.45a.34.34,0,0,0-.28,0l-.78.45h-.06v.09h0a.1.1,0,0,0,.06.07l.78.46a.37.37,0,0,0,.29,0l.78-.46A.09.09,0,0,0,77.9,68.15Z"/><path class="cls-53" d="M76.67,68.86v-.09H76.6l-.77-.45a.37.37,0,0,0-.29,0l-.77.45H74.7v.09h0a.19.19,0,0,0,.06.07l.79.46a.34.34,0,0,0,.28,0l.79-.46A.1.1,0,0,0,76.67,68.86Z"/><path class="cls-53" d="M75.45,69.57v-.09h-.08L74.6,69a.28.28,0,0,0-.28,0l-.78.45h-.06v.08h0s0,0,.06.08l.78.45a.3.3,0,0,0,.29,0l.78-.45A.12.12,0,0,0,75.45,69.57Z"/><path class="cls-53" d="M74.22,70.28v-.09h-.07l-.77-.44a.3.3,0,0,0-.29,0l-.77.45h-.07v.09h0a.16.16,0,0,0,.06.08l.79.45a.28.28,0,0,0,.28,0l.79-.45A.14.14,0,0,0,74.22,70.28Z"/><path class="cls-53" d="M73,71v-.09h-.08l-.77-.45a.28.28,0,0,0-.28,0l-.77.45H71V71h0a.09.09,0,0,0,.06.08l.78.45a.3.3,0,0,0,.29,0l.78-.45A.09.09,0,0,0,73,71Z"/><path class="cls-53" d="M71.77,71.71v-.09H71.7l-.77-.45a.37.37,0,0,0-.29,0l-.77.45H69.8v.09h0a.16.16,0,0,0,.06.08l.79.46a.34.34,0,0,0,.28,0l.79-.46A.08.08,0,0,0,71.77,71.71Z"/><path class="cls-53" d="M82.21,67.09V67h-.08l-.77-.45a.34.34,0,0,0-.28,0l-.77.45h-.07v.09h0a.1.1,0,0,0,.06.07l.78.46a.37.37,0,0,0,.29,0l.78-.46A.09.09,0,0,0,82.21,67.09Z"/><path class="cls-53" d="M81,67.8v-.09h-.08l-.77-.44a.3.3,0,0,0-.29,0l-.77.45H79v.08h0a.21.21,0,0,0,.06.08l.79.45a.3.3,0,0,0,.29,0l.78-.45A.12.12,0,0,0,81,67.8Z"/><path class="cls-53" d="M79.76,68.51v-.09h-.08L78.91,68a.28.28,0,0,0-.28,0l-.77.45h-.07v.08h0a.09.09,0,0,0,.06.08l.79.45a.28.28,0,0,0,.28,0l.78-.45A.12.12,0,0,0,79.76,68.51Z"/><path class="cls-53" d="M78.54,69.23v-.1h-.08l-.77-.44a.3.3,0,0,0-.29,0l-.77.45h-.07v.09h0a.1.1,0,0,0,.05.08l.79.45a.3.3,0,0,0,.29,0l.78-.45A.09.09,0,0,0,78.54,69.23Z"/><path class="cls-53" d="M77.31,69.94v-.09h-.07l-.78-.45a.34.34,0,0,0-.28,0l-.77.45h-.07v.09h0a.09.09,0,0,0,.06.08l.79.46a.34.34,0,0,0,.28,0l.78-.46A.09.09,0,0,0,77.31,69.94Z"/><path class="cls-53" d="M76.09,70.65v-.09H76l-.77-.45a.37.37,0,0,0-.29,0l-.77.45h-.07v.09h0a.1.1,0,0,0,0,.07l.79.46a.37.37,0,0,0,.29,0l.78-.46A.09.09,0,0,0,76.09,70.65Z"/><path class="cls-53" d="M74.86,71.36v-.09h-.07L74,70.83a.28.28,0,0,0-.28,0l-.77.44h-.07v.09h0s0,0,.06.07l.79.46a.34.34,0,0,0,.28,0l.78-.46A.09.09,0,0,0,74.86,71.36Z"/><path class="cls-53" d="M73.64,72.07V72h-.08l-.77-.44a.3.3,0,0,0-.29,0l-.77.45h-.07v.08h0a.1.1,0,0,0,0,.08l.79.45a.3.3,0,0,0,.29,0l.78-.45A.12.12,0,0,0,73.64,72.07Z"/><path class="cls-53" d="M72.41,72.79v-.1h-.07l-.78-.44a.28.28,0,0,0-.28,0l-.77.45h-.07v.09h0a.09.09,0,0,0,.06.08l.79.45a.28.28,0,0,0,.28,0l.78-.45A.09.09,0,0,0,72.41,72.79Z"/><path class="cls-53" d="M85.36,66.69V66.6h-.08l-.77-.45a.34.34,0,0,0-.28,0l-.77.45h-.07v.09h0a.09.09,0,0,0,.06.08l.78.46a.37.37,0,0,0,.29,0l.78-.46A.09.09,0,0,0,85.36,66.69Z"/><path class="cls-53" d="M84.14,67.4v-.09h-.08l-.77-.45a.37.37,0,0,0-.29,0l-.77.45h-.07v.09h0a.19.19,0,0,0,.06.07l.79.46a.37.37,0,0,0,.29,0l.78-.46A.09.09,0,0,0,84.14,67.4Z"/><path class="cls-53" d="M82.91,68.11V68h-.08l-.77-.44a.28.28,0,0,0-.28,0L81,68h-.07v.08h0s0,0,.06.07l.79.46a.34.34,0,0,0,.28,0l.78-.46A.09.09,0,0,0,82.91,68.11Z"/><path class="cls-53" d="M81.69,68.82v-.09h-.08l-.77-.44a.3.3,0,0,0-.29,0l-.77.45h-.07v.08h0a.1.1,0,0,0,0,.08l.79.45a.3.3,0,0,0,.29,0l.78-.45A.12.12,0,0,0,81.69,68.82Z"/><path class="cls-53" d="M80.46,69.54v-.1h-.07L79.61,69a.28.28,0,0,0-.28,0l-.77.45h-.07v.09h0a.09.09,0,0,0,.06.08l.79.45a.28.28,0,0,0,.28,0l.78-.45A.09.09,0,0,0,80.46,69.54Z"/><path class="cls-53" d="M79.24,70.25v-.09h-.08l-.77-.45a.37.37,0,0,0-.29,0l-.77.45h-.07v.09h0a.1.1,0,0,0,0,.08l.79.45a.3.3,0,0,0,.29,0l.78-.45A.09.09,0,0,0,79.24,70.25Z"/><path class="cls-53" d="M78,71v-.09h-.07l-.78-.45a.34.34,0,0,0-.28,0l-.77.45H76V71h0a.1.1,0,0,0,.06.07l.79.46a.34.34,0,0,0,.28,0L78,71A.09.09,0,0,0,78,71Z"/><path class="cls-53" d="M76.79,71.67v-.09h-.08l-.77-.45a.37.37,0,0,0-.29,0l-.77.45h-.07v.09h0s0,0,.05.07l.79.46a.37.37,0,0,0,.29,0l.78-.46A.09.09,0,0,0,76.79,71.67Z"/><path class="cls-53" d="M75.56,72.38v-.09h-.07l-.78-.44a.28.28,0,0,0-.28,0l-.77.45h-.07v.08h0s0,0,.06.08l.79.45a.28.28,0,0,0,.28,0l.78-.45A.12.12,0,0,0,75.56,72.38Z"/><path class="cls-53" d="M74.34,73.1V73h-.08l-.77-.44a.28.28,0,0,0-.28,0l-.78.45h-.07v.09h0a.1.1,0,0,0,0,.08l.79.45a.3.3,0,0,0,.29,0l.78-.45A.09.09,0,0,0,74.34,73.1Z"/><path class="cls-53" d="M73.11,73.81v-.09H73l-.78-.45a.31.31,0,0,0-.28,0l-.77.45h-.07v.09h0a.09.09,0,0,0,.06.08l.79.45a.28.28,0,0,0,.28,0l.78-.45A.09.09,0,0,0,73.11,73.81Z"/><path class="cls-53" d="M71.89,74.42h-.08L71,74a.37.37,0,0,0-.29,0l-1,.56h-.07v.08h0s0,0,0,.07l.79.46a.37.37,0,0,0,.29,0l1-.57a.1.1,0,0,0,.06-.09h0Z"/><path class="cls-53" d="M78,65.24v-.09h-.08l-.77-.44a.41.41,0,0,0-.22,0l-.06,0-.78.45H76v0l-5.44,3.16h0l-.77.45h-.07v.09h0s0,0,0,0h0l.79.45s0,0,.06,0h.08a.23.23,0,0,0,.14,0L71.6,69h0l6.29-3.65A.11.11,0,0,0,78,65.24Z"/><path class="cls-53" d="M87.05,66.47h0v-.09H87l-.21-.12a.34.34,0,0,0-.28,0l-.73.42-.11,0v.09a.09.09,0,0,0,.06.08l.21.12a.28.28,0,0,0,.28,0l.79-.45a.1.1,0,0,0,0-.08Z"/><path class="cls-53" d="M85.83,67.18h0v-.09h-.06L85.56,67a.37.37,0,0,0-.29,0l-.72.42-.12,0v.1a.19.19,0,0,0,.06.07l.21.13a.37.37,0,0,0,.29,0l.78-.46a.09.09,0,0,0,.06-.08Z"/><path class="cls-53" d="M84.6,67.89h0V67.8h-.06l-.21-.12a.28.28,0,0,0-.28,0l-.73.42-.11,0v.1s0,0,.06.08l.21.12a.34.34,0,0,0,.28,0l.79-.46a.1.1,0,0,0,0-.08Z"/><path class="cls-53" d="M83.38,68.6h0v-.09l0,0h0l-.21-.12a.3.3,0,0,0-.29,0l-.72.42-.12,0v.09A.16.16,0,0,0,82,69l.21.12a.33.33,0,0,0,.29,0l.78-.45a.12.12,0,0,0,.06-.09Z"/><path class="cls-53" d="M82.15,69.32h0v-.08h-.06l-.21-.12a.28.28,0,0,0-.28,0l-.73.42-.11,0v.09a.09.09,0,0,0,.06.08l.21.12a.28.28,0,0,0,.28,0l.79-.45s.05-.05.05-.08Z"/><path class="cls-53" d="M80.93,70h0v-.09h-.06l-.21-.12a.37.37,0,0,0-.29,0l-.72.42-.12,0v.09a.16.16,0,0,0,.06.08l.21.12a.3.3,0,0,0,.29,0l.78-.45a.09.09,0,0,0,.06-.08Z"/><path class="cls-53" d="M79.7,70.74h0v-.09h-.06l-.21-.13a.34.34,0,0,0-.28,0l-.73.42-.11,0v.09a.09.09,0,0,0,.06.08l.21.12a.28.28,0,0,0,.28,0l.79-.45a.1.1,0,0,0,0-.08Z"/><path class="cls-53" d="M78.48,71.45h0v-.09h-.06l-.21-.12a.3.3,0,0,0-.29,0l-.72.42-.12,0v.1a.19.19,0,0,0,.06.07l.21.13a.37.37,0,0,0,.29,0l.78-.46a.09.09,0,0,0,.06-.08Z"/><path class="cls-53" d="M77.25,72.16h0v-.09l0,0h0L77,72a.28.28,0,0,0-.28,0l-.73.42-.11,0v.1s0,0,.06.08l.21.12a.37.37,0,0,0,.29,0l.78-.46a.1.1,0,0,0,0-.08Z"/><path class="cls-53" d="M76,72.88h0v-.08H76l-.21-.12a.3.3,0,0,0-.29,0l-.72.42-.12,0v.09a.16.16,0,0,0,.06.08l.21.12a.3.3,0,0,0,.29,0L76,73s.06,0,.06-.08Z"/><path class="cls-53" d="M74.8,73.59h0V73.5h0l-.22-.12a.31.31,0,0,0-.28,0l-.72.42-.12,0v.09a.09.09,0,0,0,.06.08l.21.12a.3.3,0,0,0,.29,0l.78-.45a.1.1,0,0,0,0-.08Z"/><path class="cls-53" d="M73.58,74.3h0v-.09h-.06l-.21-.12a.37.37,0,0,0-.29,0l-.72.42-.12,0v.09a.16.16,0,0,0,.06.08l.22.12a.28.28,0,0,0,.28,0l.78-.45a.09.09,0,0,0,.06-.08Z"/><path class="cls-53" d="M72.35,75h0v-.09h0l-.22-.13a.34.34,0,0,0-.28,0l-.72.42-.12,0v.1a.1.1,0,0,0,.06.07l.21.13a.37.37,0,0,0,.29,0l.78-.46a.08.08,0,0,0,0-.08Z"/><path class="cls-53" d="M86.57,64.46h-.06L85.72,64a.34.34,0,0,0-.28,0L84,64.86h-.07V65h0A.1.1,0,0,0,84,65l.79.46a.37.37,0,0,0,.29,0l1.47-.86a.09.09,0,0,0,.06-.08h0Z"/><path class="cls-53" d="M85.33,63.74h-.06l-.79-.45a.28.28,0,0,0-.28,0l-2,1.18-.11,0v.08h0a.09.09,0,0,0,.06.08l.79.46a.34.34,0,0,0,.28,0l2.09-1.22a.09.09,0,0,0,.06-.08h0Z"/><path class="cls-53" d="M84.08,63H84l-.79-.46a.34.34,0,0,0-.28,0l-2,1.19-.11,0v.09h0a.09.09,0,0,0,.06.08l.79.46a.34.34,0,0,0,.28,0L84,63.19a.09.09,0,0,0,.06-.08h0Z"/><path class="cls-53" d="M71.18,73.4h-.06L70.33,73a.28.28,0,0,0-.28,0l-1.48.86h-.09v.08h0s0,0,.05.07l.79.46a.37.37,0,0,0,.29,0l1.5-.87a.12.12,0,0,0,.06-.09h0Z"/><path class="cls-53" d="M70.49,72.34l-.79-.46a.34.34,0,0,0-.28,0L67.3,73.11c-.08,0-.08.12,0,.17l.79.45a.28.28,0,0,0,.28,0l2.12-1.23a.08.08,0,0,0,0-.16Z"/><path class="cls-53" d="M68,71h0V71h-.06l-.21-.12a.3.3,0,0,0-.29,0l-.72.42-.12,0v.09a.09.09,0,0,0,.06.08l.21.12a.3.3,0,0,0,.29,0l.78-.45S68,71.07,68,71Z"/><path class="cls-53" d="M67.41,70.7h0v-.09l0,0h0l-.21-.12a.28.28,0,0,0-.28,0l-.73.42-.11,0V71s0,0,.06.08l.21.12a.34.34,0,0,0,.28,0l.78-.46a.09.09,0,0,0,.06-.08Z"/><path class="cls-53" d="M88.47,65.64h0v-.09h-.06l-.21-.12a.3.3,0,0,0-.29,0L87,66l-.13,0v.1h0a.19.19,0,0,0,.06.07l.21.12a.3.3,0,0,0,.29,0l1-.56A.12.12,0,0,0,88.47,65.64Z"/><path class="cls-49" d="M85.9,65.27l.78.46a.37.37,0,0,0,.29,0l.78-.46a.08.08,0,0,0,0-.16L87,64.65a.34.34,0,0,0-.28,0l-.78.46a.08.08,0,0,0,0,.16Z"/><path class="cls-49" d="M84.67,66l.79.46a.34.34,0,0,0,.28,0l.79-.46c.07,0,.07-.11,0-.16l-.79-.45a.3.3,0,0,0-.29,0l-.78.45a.08.08,0,0,0,0,.16Z"/><path class="cls-49" d="M83.45,66.7l.79.45a.28.28,0,0,0,.28,0l.78-.45c.08,0,.08-.12,0-.17l-.79-.45a.28.28,0,0,0-.28,0l-.78.45c-.08,0-.08.12,0,.17Z"/><path class="cls-49" d="M82.22,67.41l.79.45a.3.3,0,0,0,.29,0l.78-.45a.1.1,0,0,0,0-.17l-.79-.45a.3.3,0,0,0-.29,0l-.78.45c-.08.05-.08.12,0,.17Z"/><path class="cls-49" d="M81,68.12l.79.45a.28.28,0,0,0,.28,0l.78-.45c.08-.05.08-.12,0-.16l-.79-.46a.34.34,0,0,0-.28,0L81,68c-.08,0-.08.12,0,.17Z"/><path class="cls-49" d="M79.77,68.83l.79.46a.37.37,0,0,0,.29,0l.78-.46a.08.08,0,0,0,0-.16l-.79-.46a.37.37,0,0,0-.29,0l-.78.46a.08.08,0,0,0,0,.16Z"/><path class="cls-49" d="M78.55,69.54l.79.46a.34.34,0,0,0,.28,0l.78-.46a.08.08,0,0,0,0-.16l-.79-.46a.34.34,0,0,0-.28,0l-.78.46a.08.08,0,0,0,0,.16Z"/><path class="cls-49" d="M77.32,70.26l.79.45a.3.3,0,0,0,.29,0l.78-.45c.08-.05.08-.12,0-.17l-.79-.45a.3.3,0,0,0-.29,0l-.78.45c-.08,0-.07.12,0,.17Z"/><path class="cls-49" d="M76.1,71l.79.45a.28.28,0,0,0,.28,0L78,71c.08,0,.08-.12,0-.17l-.79-.45a.28.28,0,0,0-.28,0l-.78.45c-.08,0-.08.12,0,.17Z"/><path class="cls-49" d="M74.87,71.68l.79.45a.3.3,0,0,0,.29,0l.78-.45c.08-.05.08-.12,0-.17l-.79-.45a.3.3,0,0,0-.29,0l-.78.45c-.08,0-.07.12,0,.17Z"/><path class="cls-49" d="M73.65,72.39l.79.46a.34.34,0,0,0,.28,0l.78-.46a.08.08,0,0,0,0-.16l-.79-.46a.34.34,0,0,0-.28,0l-.78.46a.08.08,0,0,0,0,.16Z"/><path class="cls-49" d="M81.52,66.39l.79.45a.28.28,0,0,0,.28,0l.79-.45a.1.1,0,0,0,0-.17l-.79-.45a.3.3,0,0,0-.29,0l-.78.45c-.08,0-.08.12,0,.17Z"/><path class="cls-49" d="M80.3,67.1l.79.45a.28.28,0,0,0,.28,0l.78-.45c.08,0,.08-.12,0-.17l-.79-.45a.28.28,0,0,0-.28,0l-.78.45c-.08,0-.08.12,0,.17Z"/><path class="cls-49" d="M79.07,67.81l.79.45a.3.3,0,0,0,.29,0l.78-.45c.07,0,.07-.12,0-.16l-.79-.46a.37.37,0,0,0-.29,0l-.78.46c-.08,0-.08.11,0,.16Z"/><path class="cls-49" d="M77.85,68.52l.79.46a.34.34,0,0,0,.28,0l.78-.46a.08.08,0,0,0,0-.16l-.79-.46a.34.34,0,0,0-.28,0l-.78.46a.08.08,0,0,0,0,.16Z"/><path class="cls-49" d="M76.62,69.23l.79.46a.37.37,0,0,0,.29,0l.78-.46a.09.09,0,0,0,0-.16l-.79-.45a.33.33,0,0,0-.29,0l-.78.46a.08.08,0,0,0,0,.16Z"/><path class="cls-49" d="M75.4,70l.79.45a.28.28,0,0,0,.28,0l.78-.45c.08,0,.08-.12,0-.17l-.79-.45a.28.28,0,0,0-.28,0l-.78.45c-.08,0-.08.12,0,.17Z"/><path class="cls-49" d="M74.17,70.66l.79.45a.3.3,0,0,0,.29,0l.78-.45c.08,0,.08-.12,0-.17L75.24,70A.3.3,0,0,0,75,70l-.78.45c-.08.05-.07.12,0,.17Z"/><path class="cls-49" d="M73,71.37l.79.45a.28.28,0,0,0,.28,0l.78-.45c.08-.05.08-.12,0-.17L74,70.75a.28.28,0,0,0-.28,0L73,71.2c-.08,0-.08.12,0,.17Z"/><path class="cls-49" d="M71.72,72.08l.79.46a.37.37,0,0,0,.29,0l.78-.46a.08.08,0,0,0,0-.16l-.79-.46a.37.37,0,0,0-.29,0l-.78.46a.09.09,0,0,0,0,.16Z"/><path class="cls-49" d="M70.5,72.79l.79.46a.34.34,0,0,0,.28,0l.78-.46a.08.08,0,0,0,0-.16l-.79-.46a.34.34,0,0,0-.28,0l-.78.46a.08.08,0,0,0,0,.16Z"/><path class="cls-49" d="M72.42,73.1l.79.46a.37.37,0,0,0,.29,0l.78-.46a.08.08,0,0,0,0-.16l-.79-.46a.37.37,0,0,0-.29,0l-.78.46a.09.09,0,0,0,0,.16Z"/><path class="cls-49" d="M71.2,73.81l.79.46a.34.34,0,0,0,.28,0l.78-.46c.08,0,.08-.11,0-.16l-.78-.45a.3.3,0,0,0-.29,0l-.78.45a.08.08,0,0,0,0,.16Z"/><path class="cls-49" d="M80.93,62.41l.79.45a.3.3,0,0,0,.29,0l.78-.45c.08,0,.07-.12,0-.17L82,61.79a.3.3,0,0,0-.29,0l-.78.45c-.08,0-.08.12,0,.17Z"/><path class="cls-49" d="M79.71,63.12l.79.45a.28.28,0,0,0,.28,0l.78-.45c.08,0,.08-.12,0-.17l-.79-.45a.28.28,0,0,0-.28,0l-.78.45c-.08,0-.08.12,0,.17Z"/><path class="cls-49" d="M78.48,63.83l.79.45a.3.3,0,0,0,.29,0l.78-.45c.08,0,.07-.12,0-.16l-.79-.46a.37.37,0,0,0-.29,0l-.78.46c-.08,0-.07.11,0,.16Z"/><path class="cls-49" d="M77.26,64.54l.79.46a.34.34,0,0,0,.28,0l.78-.46a.08.08,0,0,0,0-.16l-.79-.46a.34.34,0,0,0-.28,0l-.78.46a.08.08,0,0,0,0,.16Z"/><path class="cls-49" d="M82.75,65.68l.78.45a.37.37,0,0,0,.29,0l.78-.46c.08,0,.08-.11,0-.16l-.79-.45a.28.28,0,0,0-.28,0l-.78.45c-.08,0-.08.12,0,.17Z"/><path class="cls-49" d="M69.79,74.64l.78.45a.3.3,0,0,0,.29,0l1-.56c.08,0,.08-.12,0-.17L71,73.91a.3.3,0,0,0-.29,0l-1,.56c-.07,0-.07.12,0,.17Z"/><path class="cls-49" d="M69.75,68.91l.79.45a.28.28,0,0,0,.28,0l7.07-4.11a.08.08,0,0,0,0-.16l-.79-.46a.37.37,0,0,0-.29,0l-7.06,4.11c-.08.05-.08.12,0,.17Z"/><path class="cls-49" d="M85.72,66.81l.21.12a.34.34,0,0,0,.28,0l.79-.46c.07,0,.07-.11,0-.16l-.21-.12a.28.28,0,0,0-.28,0l-.78.45c-.08,0-.08.12,0,.17Z"/><path class="cls-49" d="M84.49,67.52l.21.12a.3.3,0,0,0,.29,0l.78-.45c.08,0,.08-.12,0-.17l-.21-.12a.3.3,0,0,0-.29,0l-.78.45c-.08.05-.08.12,0,.17Z"/><path class="cls-49" d="M83.27,68.23l.21.12a.28.28,0,0,0,.28,0l.79-.45c.07-.05.07-.12,0-.17l-.21-.12a.34.34,0,0,0-.28,0l-.78.45c-.08,0-.08.12,0,.17Z"/><path class="cls-49" d="M82,68.94l.21.12a.3.3,0,0,0,.29,0l.78-.45c.08,0,.08-.12,0-.17l-.21-.12a.37.37,0,0,0-.29,0l-.78.46a.08.08,0,0,0,0,.16Z"/><path class="cls-49" d="M80.82,69.65l.21.13a.34.34,0,0,0,.28,0l.79-.46a.09.09,0,0,0,0-.16L81.88,69a.34.34,0,0,0-.28,0l-.78.46a.08.08,0,0,0,0,.16Z"/><path class="cls-49" d="M79.59,70.37l.21.12a.37.37,0,0,0,.29,0l.78-.46a.08.08,0,0,0,0-.16l-.21-.12a.3.3,0,0,0-.29,0l-.78.45c-.08,0-.08.12,0,.17Z"/><path class="cls-49" d="M78.37,71.08l.21.12a.28.28,0,0,0,.28,0l.79-.45a.1.1,0,0,0,0-.17l-.22-.12a.28.28,0,0,0-.28,0l-.78.45c-.08,0-.08.12,0,.17Z"/><path class="cls-49" d="M77.14,71.79l.21.12a.3.3,0,0,0,.29,0l.78-.45c.08,0,.08-.12,0-.17l-.21-.12a.3.3,0,0,0-.29,0l-.78.45c-.08,0-.08.12,0,.17Z"/><path class="cls-49" d="M75.92,72.5l.21.12a.28.28,0,0,0,.28,0l.79-.45a.1.1,0,0,0,0-.17L77,71.88a.34.34,0,0,0-.28,0l-.78.46a.08.08,0,0,0,0,.16Z"/><path class="cls-49" d="M74.69,73.21l.21.13a.37.37,0,0,0,.29,0l.78-.46a.08.08,0,0,0,0-.16l-.21-.13a.37.37,0,0,0-.29,0l-.78.46a.08.08,0,0,0,0,.16Z"/><path class="cls-49" d="M73.47,73.92l.21.13a.34.34,0,0,0,.28,0l.79-.46a.09.09,0,0,0,0-.16l-.22-.12a.28.28,0,0,0-.28,0l-.78.45c-.08,0-.08.12,0,.16Z"/><path class="cls-49" d="M72.24,74.64l.21.12a.37.37,0,0,0,.29,0l.78-.46c.08,0,.08-.11,0-.16L73.31,74A.3.3,0,0,0,73,74l-.78.45c-.08,0-.08.12,0,.17Z"/><path class="cls-49" d="M71,75.35l.21.12a.3.3,0,0,0,.29,0L72.3,75c.08,0,.07-.12,0-.17l-.22-.12a.28.28,0,0,0-.28,0l-.78.45c-.08,0-.08.12,0,.17Z"/><path class="cls-49" d="M86.94,66.09l.21.13a.37.37,0,0,0,.29,0l1-.57a.08.08,0,0,0,0-.16l-.21-.12a.3.3,0,0,0-.29,0l-1,.56c-.08,0-.08.12,0,.16Z"/><path class="cls-49" d="M84,65l.79.45a.3.3,0,0,0,.29,0l1.47-.85c.08,0,.08-.12,0-.17l-.79-.45a.28.28,0,0,0-.28,0L84,64.79A.1.1,0,0,0,84,65Z"/><path class="cls-49" d="M82.11,64.6l.79.45a.28.28,0,0,0,.28,0l2.09-1.21c.08-.05.08-.12,0-.17l-.79-.45a.31.31,0,0,0-.28,0l-2.09,1.21c-.08,0-.08.12,0,.17Z"/><path class="cls-49" d="M80.86,63.88l.79.45a.28.28,0,0,0,.28,0L84,63.12c.08,0,.08-.12,0-.17l-.79-.45a.28.28,0,0,0-.28,0l-2.09,1.21c-.08,0-.08.12,0,.17Z"/><path class="cls-49" d="M68.54,73.92l.79.45a.3.3,0,0,0,.29,0l1.5-.87c.08,0,.08-.12,0-.16l-.79-.46a.34.34,0,0,0-.28,0l-1.51.87c-.08,0-.07.12,0,.17Z"/><path class="cls-49" d="M67.3,73.2l.79.46a.34.34,0,0,0,.28,0l2.12-1.23c.08-.05.08-.12,0-.17l-.79-.45a.28.28,0,0,0-.28,0L67.3,73a.08.08,0,0,0,0,.16Z"/><path class="cls-49" d="M66.65,71.37l.21.13a.37.37,0,0,0,.29,0l.78-.46a.08.08,0,0,0,0-.16l-.21-.13a.37.37,0,0,0-.29,0l-.78.46a.08.08,0,0,0,0,.16Z"/><path class="cls-49" d="M66.08,71l.21.12a.28.28,0,0,0,.28,0l.78-.45c.08,0,.08-.12,0-.17l-.21-.12a.34.34,0,0,0-.28,0l-.79.46a.09.09,0,0,0,0,.16Z"/><path class="cls-49" d="M71.09,71l.78.46a.37.37,0,0,0,.29,0l.78-.46a.08.08,0,0,0,0-.16l-.79-.45a.28.28,0,0,0-.28,0l-.78.45a.08.08,0,0,0,0,.16Z"/><path class="cls-49" d="M69.86,71.72l.79.45a.28.28,0,0,0,.28,0l.79-.45c.07,0,.07-.12,0-.17l-.78-.45a.3.3,0,0,0-.29,0l-.78.45c-.08,0-.08.12,0,.17Z"/><path class="cls-49" d="M69.84,70.28l.79.46a.34.34,0,0,0,.28,0l.78-.46a.08.08,0,0,0,0-.16l-.79-.46a.34.34,0,0,0-.28,0l-.78.46a.08.08,0,0,0,0,.16Z"/><path class="cls-49" d="M68.61,71l.79.46a.34.34,0,0,0,.28,0l.79-.46c.07,0,.07-.11,0-.16l-.79-.45a.3.3,0,0,0-.29,0l-.78.45c-.08,0-.08.12,0,.16Z"/><path class="cls-49" d="M67.39,71.71l.79.45a.28.28,0,0,0,.28,0l.78-.45c.08,0,.08-.12,0-.17l-.79-.45a.28.28,0,0,0-.28,0l-.78.45c-.08,0-.08.12,0,.17Z"/><path class="cls-49" d="M66.05,72.48l.79.46a.37.37,0,0,0,.29,0l.89-.52a.1.1,0,0,0,0-.17l-.79-.45a.3.3,0,0,0-.29,0l-.89.52a.08.08,0,0,0,0,.16Z"/><path class="cls-49" d="M73.54,69.58l.78.45a.3.3,0,0,0,.29,0l.78-.45c.08,0,.08-.12,0-.16L74.6,69a.34.34,0,0,0-.28,0l-.78.46c-.08,0-.08.11,0,.16Z"/><path class="cls-49" d="M72.31,70.29l.79.46a.34.34,0,0,0,.28,0l.79-.46a.09.09,0,0,0,0-.16l-.78-.46a.37.37,0,0,0-.29,0l-.78.46a.08.08,0,0,0,0,.16Z"/><path class="cls-49" d="M72.29,68.86l.79.45a.28.28,0,0,0,.28,0l.78-.45c.08,0,.08-.12,0-.17l-.79-.45a.28.28,0,0,0-.28,0l-.78.45c-.08,0-.08.12,0,.17Z"/><path class="cls-49" d="M71.06,69.57l.79.46a.34.34,0,0,0,.28,0l.79-.46a.09.09,0,0,0,0-.16L72.13,69a.37.37,0,0,0-.29,0l-.78.46a.08.08,0,0,0,0,.16Z"/><path class="cls-49" d="M76,68.16l.78.45a.3.3,0,0,0,.29,0l.78-.45c.08,0,.08-.12,0-.17l-.79-.45a.28.28,0,0,0-.28,0L76,68c-.08.05-.08.12,0,.17Z"/><path class="cls-49" d="M74.76,68.87l.79.45a.28.28,0,0,0,.28,0l.79-.45c.07-.05.07-.12,0-.17l-.78-.45a.3.3,0,0,0-.29,0l-.78.45c-.08,0-.08.12,0,.17Z"/><path class="cls-49" d="M74.74,67.44l.78.45a.3.3,0,0,0,.29,0l.78-.45c.08,0,.08-.12,0-.17l-.79-.45a.28.28,0,0,0-.28,0l-.78.45c-.08,0-.08.12,0,.17Z"/><path class="cls-49" d="M73.51,68.15l.79.45a.28.28,0,0,0,.28,0l.79-.45c.07-.05.07-.12,0-.17l-.78-.45a.3.3,0,0,0-.29,0l-.78.45c-.08,0-.08.12,0,.17Z"/><path class="cls-49" d="M78.44,66.73l.78.46a.37.37,0,0,0,.29,0l.78-.46a.08.08,0,0,0,0-.16l-.79-.46a.34.34,0,0,0-.28,0l-.78.46a.08.08,0,0,0,0,.16Z"/><path class="cls-49" d="M77.21,67.45l.79.45a.34.34,0,0,0,.28,0l.79-.45c.07,0,.07-.12,0-.17l-.78-.45a.3.3,0,0,0-.29,0l-.78.45c-.08,0-.08.12,0,.17Z"/><path class="cls-49" d="M77.19,66l.78.46a.37.37,0,0,0,.29,0L79,66a.08.08,0,0,0,0-.16l-.79-.46a.34.34,0,0,0-.28,0l-.78.46a.08.08,0,0,0,0,.16Z"/><path class="cls-49" d="M76,66.72l.79.46a.34.34,0,0,0,.28,0l.79-.46a.09.09,0,0,0,0-.16L77,66.1a.37.37,0,0,0-.29,0l-.78.46a.08.08,0,0,0,0,.16Z"/><path class="cls-49" d="M80.89,65.31l.78.45a.3.3,0,0,0,.29,0l.78-.45c.08,0,.08-.12,0-.17L82,64.69a.28.28,0,0,0-.28,0l-.78.45c-.08,0-.08.12,0,.17Z"/><path class="cls-49" d="M79.66,66l.79.46a.34.34,0,0,0,.28,0l.79-.46a.09.09,0,0,0,0-.16l-.78-.46a.37.37,0,0,0-.29,0l-.78.46a.08.08,0,0,0,0,.16Z"/><path class="cls-49" d="M79.64,64.59l.78.45a.3.3,0,0,0,.29,0l.78-.45c.08,0,.08-.12,0-.17L80.7,64a.28.28,0,0,0-.28,0l-.78.45c-.08,0-.08.12,0,.17Z"/><path class="cls-49" d="M78.41,65.3l.79.45a.28.28,0,0,0,.28,0l.79-.45c.07,0,.07-.12,0-.16l-.78-.46a.37.37,0,0,0-.29,0l-.78.45c-.08.05-.08.12,0,.17Z"/><path class="cls-49" d="M68.53,69.62l.78.45a.3.3,0,0,0,.29,0l.78-.45c.08-.05.08-.12,0-.17L69.59,69a.28.28,0,0,0-.28,0l-.79.45c-.07,0-.07.12,0,.17Z"/><path class="cls-49" d="M67.3,70.33l.79.45a.28.28,0,0,0,.28,0l.78-.45c.08,0,.08-.12,0-.17l-.78-.45a.3.3,0,0,0-.29,0l-.78.45c-.08,0-.08.12,0,.17Z"/><path class="cls-49" d="M64.82,71.77l.79.45a.28.28,0,0,0,.28,0l.78-.45c.08,0,.08-.12,0-.16l-.78-.46a.37.37,0,0,0-.29,0l-.78.46c-.08,0-.08.11,0,.16Z"/><path class="cls-49" d="M63.47,78.68s-2.65-1.56-2.89-1.74c-.54-.41-.42-.63-.19-.93a3.53,3.53,0,0,1,3-.91,4.84,4.84,0,0,1,2.91,2.27c.1.36,0,.64-.56.94A2.52,2.52,0,0,1,63.47,78.68Z"/><path class="cls-2" d="M73.39,77.42,90,67.83a4.83,4.83,0,0,1,4.38,0L98.15,70a1.34,1.34,0,0,1,0,2.53L81.53,82.12a4.86,4.86,0,0,1-4.38,0L73.38,80A1.34,1.34,0,0,1,73.39,77.42Z"/><path class="cls-2" d="M101.25,62.68l2.45-4.75a4.46,4.46,0,0,1,4-1.42l4.34.81c1.38.26,1.84,1.31,1,2.36l-2.45,4.74a4.44,4.44,0,0,1-4,1.43L102.29,65C100.9,64.78,100.44,63.72,101.25,62.68Z"/><path class="cls-53" d="M93.53,72.68,90.23,63l-2.74,1.58v0l0,5.85-.19,0a2.18,2.18,0,0,0-1.36.29l-4.36,2.38a.72.72,0,0,0-.27.25l-.13,0v.48a.77.77,0,0,0,.4.68L86.09,77l0,0a2.45,2.45,0,0,0,.61.25h0l.15,0a2.09,2.09,0,0,0,.35,0,2.49,2.49,0,0,0,1.31-.24l.08,0,.12-.06L90.64,76l2.11-1.21a1.76,1.76,0,0,0,.37-.29,1.62,1.62,0,0,0,.33-.46l.09-.21a1.74,1.74,0,0,0,0-.22A1.64,1.64,0,0,0,93.53,72.68Z"/><path class="cls-53" d="M99.61,44l-1-.67h0a.53.53,0,0,0-.53.06L74.23,57.19a1.89,1.89,0,0,0-.84,1.28L71.93,74.6a.62.62,0,0,0,.23.64h0l.93.65.82-1.06,22.45-13a2.61,2.61,0,0,0,1.19-1.8l1.37-15.18Z"/><path class="cls-54" d="M99.75,44.45,98.63,56.8l-.34,3.79a2.63,2.63,0,0,1-1.19,1.8L73.86,75.81c-.6.35-1,.1-1-.55l.44-4.87,1-11.27a1.73,1.73,0,0,1,.25-.67,1.81,1.81,0,0,1,.6-.6L99.06,44.06a.51.51,0,0,1,.55-.05A.48.48,0,0,1,99.75,44.45Z"/><path class="cls-55" d="M98.63,56.8l-.34,3.79a2.63,2.63,0,0,1-1.19,1.8L73.86,75.81c-.6.35-1,.1-1-.55l.44-4.87s.79,0,2.15-.21,6.47-2.44,12-5.64L90.23,63s4.59-2.46,6.48-3.69A3.46,3.46,0,0,0,98.63,56.8Z"/><path class="cls-56" d="M93.08,72.23,90.29,63l-2.66,1.54L87.18,70a2.22,2.22,0,0,0-1.51.25l-4.12,2.38a.77.77,0,0,0,0,1.34l4.32,2.5a2.57,2.57,0,0,0,2.57,0l3.87-2.24A1.7,1.7,0,0,0,93.08,72.23Z"/><path class="cls-49" d="M88.23,62.38c-5.27,3.51-11.13.2-13.65-3.93a1.81,1.81,0,0,1,.6-.6L99.06,44.06a.51.51,0,0,1,.55-.05S98.21,55.74,88.23,62.38Z"/><path class="cls-54" d="M93.73,73.58a1.42,1.42,0,0,1,0,.22l-.09.21a1.5,1.5,0,0,1-.33.46,1.76,1.76,0,0,1-.37.29L90.78,76l-1.87,1.09-.12.06-.08,0a2.82,2.82,0,0,1-1.31.24l-.35,0-.15,0h0V77c.39.05.72-.13.72-.87h0l0-11.53v0L90.37,63l3.3,9.72A1.64,1.64,0,0,1,93.73,73.58Z"/><path class="cls-53" d="M87.59,76.09V77c0,.17-.21.32-.33.43h0a2.09,2.09,0,0,1-.35,0l-.15,0h0a2.45,2.45,0,0,1-.61-.25l0,0c-.1-.2-.25-.57.08-.41.86.43,1-.27,1-.27l0-6.16V68.12l.45-3.54Z"/><path class="cls-3" d="M56.9,33.29a3.85,3.85,0,0,1-.44,1.91,13.12,13.12,0,0,0-1.28,3,8.77,8.77,0,0,0-.34,2.32s2.95-1.07,3.54-1.85S56.9,33.29,56.9,33.29Z"/><path class="cls-4" d="M64.66,39.46c.58-.49,2.13.64,4.09,2.71s6.5,6.26,6.93,7.55-1.53,2.47-3.42,1.67-6.87-4.24-7.91-5.7S64.66,39.46,64.66,39.46Z"/><path class="cls-4" d="M75.62,49.58a3.94,3.94,0,0,1,.43,2.86c-.2,1.1-1.34,3.46-2.3,4a1.77,1.77,0,0,1-2.56-1.5A22.5,22.5,0,0,1,71.53,51a3.63,3.63,0,0,1,1.84-2.3C74.22,48.27,75.62,49.58,75.62,49.58Z"/><path class="cls-5" d="M69.85,55.78a13.24,13.24,0,0,0,.52,1.67c0,.19-.08.47.18.57h0c.24.08.28,0,.28,0a.84.84,0,0,0,.11.3.36.36,0,0,0,.29.17h.17l0,.1,0,.09a.12.12,0,0,0,0,0l.09.08a1.12,1.12,0,0,0,.39.21,1.11,1.11,0,0,0,.42,0l.08,0s.24.23.46.14a2.55,2.55,0,0,0,.71-.52,6.82,6.82,0,0,0,.52-.64c.25-.33.53-.62.32-1.14s-.34-1.11-.49-1.51a2.19,2.19,0,0,0-1.36-1,4,4,0,0,0-1.15,0,6.17,6.17,0,0,0-.69.53C70.57,54.94,69.78,55.24,69.85,55.78Z"/><path class="cls-7" d="M57.43,38c1.73.16,4.65.83,6.33,1.16s2.18.86,3,4.84.69,5.79-.18,7.88a23.11,23.11,0,0,0-2.18,7.59,5.87,5.87,0,0,1-3.91,2.21c-1.2.3-6.29-.23-8-1.21A2.66,2.66,0,0,1,51,57.67s.07-15.53.61-16a30,30,0,0,0,3.3-2A14.68,14.68,0,0,1,57.43,38Z"/><path class="cls-57" d="M57.88,36c-.07.89-.92,2.85-1.05,3.84s1.11,2.8,2.86,3.39a1.59,1.59,0,0,0,2.25-1.16,9.63,9.63,0,0,0,.72-2.58,32.37,32.37,0,0,0-4.49-5.7A17.08,17.08,0,0,0,57.88,36Z"/><path class="cls-4" d="M62.11,40.72a3.23,3.23,0,0,1-1.06,2.14l-.5.26s.74,0,.85.12a3.36,3.36,0,0,0,1.4,1,20.23,20.23,0,0,0-.14-2.3,9.51,9.51,0,0,0,.14-1.19C62.74,40.49,62.11,40.72,62.11,40.72Z"/><path class="cls-5" d="M65.63,31.35a3.32,3.32,0,0,1,.81,2.12,10.45,10.45,0,0,1,0,2,10.41,10.41,0,0,0-.3,1.13,14.88,14.88,0,0,1-1.31,3.2c-.89,1.84-1,1.73-1.23,1.81a4.77,4.77,0,0,1-3-.85c-1.63-.95-1.82-1.7-1.91-1.9a9.93,9.93,0,0,1-.11-3.42c.25-1.3-.06-2.57,1-3.67S65.63,31.35,65.63,31.35Z"/><path class="cls-3" d="M64.75,36.26a8.6,8.6,0,0,0-1.38-.38h-.13l-1.3.13,1.29-.27h.14a7.19,7.19,0,0,1,1.47.29Z"/><path class="cls-3" d="M65.63,36.12l-.07-.19.44-.32a3.47,3.47,0,0,1,.51-.25,1.32,1.32,0,0,1-.43.37A3.83,3.83,0,0,0,65.63,36.12Z"/><path class="cls-16" d="M65.63,36.53c-.09.15-.08.32,0,.38a.33.33,0,0,0,.32-.53A.28.28,0,0,0,65.63,36.53Z"/><path class="cls-16" d="M64.05,36.73a.32.32,0,0,0-.44.08.31.31,0,0,0,0,.45.32.32,0,0,0,.44-.08A.31.31,0,0,0,64.05,36.73Z"/><path class="cls-58" d="M62.73,40.22a2.44,2.44,0,0,0,1.14.37c.44-.05.92-.8.92-.8a2,2,0,0,1-.73.27C63.61,40.13,62.73,40.22,62.73,40.22Z"/><path class="cls-13" d="M62.68,40.22a2.76,2.76,0,0,1,.67,0,1.44,1.44,0,0,0,.75,0,2,2,0,0,0,.44-.22.71.71,0,0,0,.25-.19s0-.13-.37.07S64,40,63.71,40,62.72,40.05,62.68,40.22Z"/><path class="cls-4" d="M56.76,38.09c-.44.08,0,.94.42,1.45a7.09,7.09,0,0,0,3.87,3.32c.18.36-.52,1.83-.89,2.21a11.3,11.3,0,0,1-4.22-4A2.55,2.55,0,0,1,56,38.32c.14-.46.08-.65.29-.83a6.5,6.5,0,0,1,1-.54c.07,0,.12,0,.13.36A.77.77,0,0,1,56.76,38.09Z"/><path class="cls-4" d="M62.31,61.14h-.25a28.29,28.29,0,0,1,.48-4.57,12,12,0,0,0-.28-6.11c-.68-2.57-1.46-6-1.3-7.55l.24,0c-.16,1.56.62,4.92,1.3,7.47a12.2,12.2,0,0,1,.28,6.22A27.13,27.13,0,0,0,62.31,61.14Z"/><path class="cls-59" d="M71.42,58.46l0,.1s.07,0,.07-.05.16-.23.33-.59a4.57,4.57,0,0,1,.68-.93,1.51,1.51,0,0,0,.34-.45,5,5,0,0,0-.08-1l-.07-.14a6,6,0,0,1,.06,1.17c0,.13-.74.69-.87.91a6.51,6.51,0,0,0-.33.81.52.52,0,0,1-.14.15Z"/><path class="cls-59" d="M70.57,58c.24.08.28,0,.28,0a.84.84,0,0,0,.11.3.36.36,0,0,0,.29.17s0,0,0,0A.45.45,0,0,1,70.9,58a3.64,3.64,0,0,1,.11-.58,2.78,2.78,0,0,1,.18-.56c.09-.19.34-.36.37-.59a5.94,5.94,0,0,0,0-.85c0-.07-.27.05-.33,0s-.32-.25-.35-.1a2.67,2.67,0,0,0,0,.56,1.06,1.06,0,0,0,.1.33,2,2,0,0,1,.1.64c0,.19-.11.7-.16.85A.6.6,0,0,1,70.57,58Z"/><path class="cls-59" d="M71.41,58.68h0l.09.08c.08,0,.53,0,.62-.09s.53-.35.7-.47a1,1,0,0,0,.47-.49,4.31,4.31,0,0,0,.21-1.32,4.14,4.14,0,0,0-.07.47c0,.23-.13.53-.14.68a.71.71,0,0,1-.16.34,8.13,8.13,0,0,1-.93.66.62.62,0,0,1-.37.13Z"/><path class="cls-59" d="M72.31,59l.08,0a2.65,2.65,0,0,0,.26-.11,5,5,0,0,0,.76-.46A3.21,3.21,0,0,0,74,57.11a13,13,0,0,1-.57,1.26c-.09.08-.72.45-.72.45l-.2.07Z"/><path class="cls-60" d="M65.24,36.13c-.11.74.55,2.32.48,2.94s-1.55.13-1.55.13Z"/><path class="cls-61" d="M65.16,39.47a3.68,3.68,0,0,1-1-.19l0-.15c.27.08,1,.28,1.33.09a.19.19,0,0,0,.1-.16,4.72,4.72,0,0,0-.22-1.28,5.07,5.07,0,0,1-.26-1.66l.17,0a5,5,0,0,0,.25,1.6,4.67,4.67,0,0,1,.23,1.34.34.34,0,0,1-.18.28A.81.81,0,0,1,65.16,39.47Z"/><path class="cls-3" d="M62.29,33.37a3.06,3.06,0,0,1,2.06-.6,2.6,2.6,0,0,0,1.8-.32,1.13,1.13,0,0,1,.26.78,1.76,1.76,0,0,0,.08-.78,5.22,5.22,0,0,0-6.31-3.88A3.93,3.93,0,0,0,56.66,32a9.78,9.78,0,0,0,0,3.32,4.7,4.7,0,0,0,.43,1.35c.1.17.32.74.32.74a4,4,0,0,1,.2-1.42c.23-.47.77-1,1-.29a2.11,2.11,0,0,1,.13,1.15,2.36,2.36,0,0,0,.09.6,2.76,2.76,0,0,1,.36-1.28c.31-.3,1.11-.92,1.72-1.39A8.82,8.82,0,0,0,62.29,33.37Z"/><path class="cls-5" d="M58.38,35.72c-.13-.46-.23-.91-1-.94S56.75,36,57,36.47a2.3,2.3,0,0,0,.84,1c.34.22.58-.13.58-.46a7.23,7.23,0,0,1,0-.81A1.08,1.08,0,0,0,58.38,35.72Z"/><path class="cls-5" d="M58.12,35.51a.59.59,0,0,0-.76-.47c-.27.11-.39.33-.34.77s.07.54.28.73.69.46.86.41-.08-.29-.09-.45.12-.33.08-.56S58.18,35.75,58.12,35.51Z"/><path class="cls-4" d="M52.14,41.65c1.35.26,1.85,1.62,1.73,3.85S53,55.84,52.63,57.19,49,61.32,47.77,59.67s.83-12,1.65-14.5S51.19,41.48,52.14,41.65Z"/><path class="cls-4" d="M48.8,58.3a3.35,3.35,0,0,1,3.11-.79c.74.14,9.63,5.19,10,5.4s.53.93-.25,1.93a2.25,2.25,0,0,1-2.11,1c-.68,0-9.71-3.52-11.08-4.85s-1-2.13-1-2.13Z"/><path class="cls-5" d="M59.88,65.42a1.13,1.13,0,0,0,.25.1c.19.06.16.18.52.49a4.69,4.69,0,0,0,1.85.66,2.06,2.06,0,0,1,1.25.49,12.68,12.68,0,0,0,2.75,1.33.56.56,0,0,0,.19,0h0a.4.4,0,0,0,.25-.23s.72.64,1.05.64a.54.54,0,0,0,.46-.27,1.84,1.84,0,0,0,.31.2.26.26,0,0,0,.19,0,.46.46,0,0,0,.23-.18c.08-.15-.06-.6-.08-.65h0l.06,0a.17.17,0,0,0,.1-.13,2.5,2.5,0,0,0-.3-.67s-1.12-1.59-1.22-1.72a18.42,18.42,0,0,0-1.89-1.67c-.25-.1-1.8-.24-2.76-.41S62,63,61.78,63a1.22,1.22,0,0,0-.63.22A3.73,3.73,0,0,0,59.88,65.42Z"/><path class="cls-59" d="M66.06,64.66l2,1.8,1,1.5.06,0a14.42,14.42,0,0,1-1-1.43C68.08,66.36,66.44,64.94,66.06,64.66Z"/><path class="cls-59" d="M65.18,66.85c.55.33,1.65,1.08,1.78,1.17s0,.37-.25.45a.4.4,0,0,0,.25-.23s.72.64,1.05.64a.54.54,0,0,0,.46-.27,1.84,1.84,0,0,0,.31.2.26.26,0,0,0,.19,0,.41.41,0,0,1-.23-.14,4.86,4.86,0,0,1-.29-.44S67,66.75,66.88,66.63a16.81,16.81,0,0,0-1.67-1.42s1.15,1.18,1.45,1.44,1.76,1.66,1.79,1.76-.08.24-.26.36a.55.55,0,0,1-.58-.12,3.85,3.85,0,0,1-.49-.42c0-.07-.09-.23-.1-.27S65.54,67,65.31,66.8s-1.13-1-1.22-1A3.39,3.39,0,0,0,65.18,66.85Z"/><path class="cls-53" d="M101.62,62.62l2.26-4.26a2.11,2.11,0,0,1,2-.71l5.15.69c.57.08-.55.55-.82,1.06L109,63.81a.88.88,0,0,1-1,.64l-5.32-.7c-.86-.12-1.33-.62-1.06-1.13Z"/><path class="cls-53" d="M101.77,41.83l8.91-17.22c.22-.41.34-.27.25.32l-2.05,16.93a6.74,6.74,0,0,1-.55,1.84L98.86,60.88c-.22.42-.34.28-.25-.31L101,43.7a6.64,6.64,0,0,1,.8-1.87Z"/><polygon class="cls-53" points="98.63 61.12 99.68 61.4 111.89 24.66 110.9 24.38 101.61 44.68 98.63 61.12"/><path class="cls-54" d="M102.56,42.14l9.16-17.25c.22-.41.33-.27.25.32l-2.36,16.87a6.91,6.91,0,0,1-.56,1.83L99.89,61.16c-.22.42-.33.28-.25-.31L102,44a7,7,0,0,1,.56-1.84Z"/><path class="cls-54" d="M108.8,44.23a44.85,44.85,0,0,0,2.94-7.59c.57-2,.26-11.88.26-11.88L102.32,44s-3,17.58-2.57,17.42S108.42,44.91,108.8,44.23Z"/><path class="cls-49" d="M111.89,25.75s.32,10.31-2.84,17-4.59,5.88-6.52.51C102.64,42.59,111.89,25.75,111.89,25.75Z"/><path class="cls-56" d="M101.62,62.33l2.26-4.26a2.11,2.11,0,0,1,2-.71l5.15.69c.57.08-.55.55-.82,1.06l-1.49,5.15-6.08-.8c-.86-.12-1.33-.62-1.06-1.13Z"/><path class="cls-54" d="M108.8,44.23l3,13.73c.2.49.22.44,0,.9L109,64.19l-2.2-16Z"/><path class="cls-53" d="M108.5,64.51a.51.51,0,0,0,.37-.16.52.52,0,0,0,.11-.46l-2-15.9-.27.07,1.7,15.86a.21.21,0,0,1,0,.19.24.24,0,0,1-.2.08l-5.24-.71,0,.28,5.58.75Z"/><path class="cls-4" d="M34.53,38.87c.83.28,1.56.08,3.08,3.76s3.6,8.43,3.6,9.1-3,3.62-4.65,1.61-3.46-6.17-4.41-8S34.53,38.87,34.53,38.87Z"/><path class="cls-4" d="M39.21,52.18a2.81,2.81,0,0,1,2.08-.69c.12,0,6.18,3.64,6.9,4.25s2,1.32,1.67,2.62-.74,2-1.82,1.63-6.41-2.34-8.32-3.66a10,10,0,0,1-3.16-3C36.3,52.77,39.21,52.18,39.21,52.18Z"/><path class="cls-5" d="M47.41,58.65s.59.66.77.9A2.3,2.3,0,0,0,49,60c.17.09.43.58.92,1a5.78,5.78,0,0,1,.81.76l.06.07v.35c0,.15.22.33.25.41s.18.4.39.4a.9.9,0,0,0,.66-.33c.19-.21.55-.74.71-.89s.87-.71.87-.86-.29-1.29-.36-1.56a.28.28,0,0,1,0-.06,1.12,1.12,0,0,1,.49.1,4.37,4.37,0,0,0,.94.62c.22.07.43,0,.47-.17a.29.29,0,0,0,0-.18,8.07,8.07,0,0,0-1.56-1.39,19.17,19.17,0,0,0-2-1c-.29-.08-2.14-.17-2.31-.18s-.44-.19-.65-.18c-.47,0-.7.28-1.11.66S47.41,58.65,47.41,58.65Z"/><path class="cls-62" d="M50.3,59.55c.14.23.7.59.83.91s.19.92,0,1.08a.85.85,0,0,1-.43.17v.13h.2l.37.29a1.56,1.56,0,0,0,.39-.16,1.72,1.72,0,0,0,.43-.59s0-.23,0-.44.28-.58.28-.58l-.14-.24,0-.54-.2-.3-.61-.52.16,0a2.34,2.34,0,0,0,.78.34,3,3,0,0,1,.93.21l.07,0a.28.28,0,0,1,0-.06,1.12,1.12,0,0,1,.49.1,4.37,4.37,0,0,0,.94.62c.22.07.43,0,.47-.17a.59.59,0,0,1-.54-.11A7.27,7.27,0,0,0,53.46,59a3.53,3.53,0,0,0-1.21-.25A5.33,5.33,0,0,1,50.61,58a.89.89,0,0,1,.1.34,1,1,0,0,1-.35.61C50.14,59.23,50.16,59.33,50.3,59.55Z"/><path class="cls-63" d="M26.52,111.75a3.17,3.17,0,0,1,.54,1,1.24,1.24,0,0,1-.31,1,4.56,4.56,0,0,1-3.11,1,7.18,7.18,0,0,1-4.11-1.33c-.52-.48-1.38-1.5-1.62-1.77s-.63-.61-.91-.57-.84-.38-1.08-.53a2.46,2.46,0,0,1-1.1-1.16,2.38,2.38,0,0,1,0-1.61c.06-.14.43-.36.43-.36Z"/><path class="cls-63" d="M32.27,101c.25.16.66.47.66.75a2.54,2.54,0,0,1,0,.78c-.08.24-.38.69-2.09.84a14.23,14.23,0,0,1-4-.09c-.94-.2-1.23-.27-1.27-.35a.41.41,0,0,1-.06-.17,4.38,4.38,0,0,0-1.14,0c-.58.06-.91.17-.94.26s0,.08-.12.18a6.8,6.8,0,0,1-1.71.23,4,4,0,0,1-1.2-.1l-.82-.17v-1.26Z"/><path class="cls-64" d="M21.53,106.32c0,.85.86,1.54,1.1,1.91s3.12,2.54,3.5,3a2,2,0,0,1,.56,1.59c-.07.61-1,1.56-3.43,1.28a7.09,7.09,0,0,1-4.89-2.48,12.27,12.27,0,0,0-2.55-2.45c-.41-.23-.79-.66-.78-1s.1-1,.23-1.82C15.59,104.48,21.4,103.9,21.53,106.32Z"/><path class="cls-64" d="M24.84,98.44c.84.06,5.41,1.12,6,1.33a2.5,2.5,0,0,1,1.54,1,1.3,1.3,0,0,1,.25,1.13c0,.28-.56,1-3.3.88s-3.33-.67-5.13-.64-3,.26-3.81,0-.42-3-.42-3Z"/><path class="cls-5" d="M25.09,49.81s.37,1.21.66,1,.88-1,.66-.36a28.06,28.06,0,0,1-1.32,3.9A6.74,6.74,0,0,0,24,56.78a19.55,19.55,0,0,0-.61,3.3c-.07,1-.51,1.36-.48,1.89s0,5.35,0,5.35l-1.8,8.45s-.41,5.48-.64,5.43a.62.62,0,0,1-.47-.29c-.05-.12.17-1.89.17-1.89l.09-1.15-.07-.27S19.2,79.14,19,79.39s-3-.13-3-.13a.53.53,0,0,1,.11-.79,1.73,1.73,0,0,0,.57-.63s-.77,0-.91-.27.23-.8.23-.8l1-1.08a3.83,3.83,0,0,0,.94-1.4,9.23,9.23,0,0,0,.08-2c0-.47-.37-2.29-.31-2.94s-.79-6.18-1.38-6.89a2.22,2.22,0,0,1-.22-1.88,26.38,26.38,0,0,0,1-3.81,3.85,3.85,0,0,0-.27-2.41s.63-2.72,1-4a15.05,15.05,0,0,1,2.35-5.79C21,43.34,25.09,49.81,25.09,49.81Z"/><path class="cls-6" d="M25.72,59.19c.21,3.72-.61,16.85-.95,21.31-.09,5.53.61,16.88.73,17.92s-2.68,2.32-4.09,2.17S20,100.1,20,100.1s-2.63-36.42-1.33-39S25.72,59.19,25.72,59.19Z"/><path class="cls-65" d="M23.22,100.3S22,97,20.81,86.2l.24,0c1.17,10.71,2.39,14,2.4,14Z"/><path class="cls-6" d="M23.6,62.58c.47,2.2.89,4.46.3,5.37s-2.23,1.87-2.38,2.53,1.85,12,1.75,14.43-2,19.76-1.27,22.37c-3.06,1.91-6.26.53-6.44-.63s-.24-16.63.08-20.54C13.77,78,11.37,71.57,10.35,66.4s.43-7.67,1.5-9.62A88.48,88.48,0,0,1,23.6,62.58Z"/><path class="cls-65" d="M16.52,66.67a7.81,7.81,0,0,1-1.73-.19l.05-.23s3.65.84,4.83-1.25l.21.12A3.63,3.63,0,0,1,16.52,66.67Z"/><path class="cls-3" d="M11,59.12a5,5,0,0,0,2.54,3,14.45,14.45,0,0,0,5.31,1.84c2,.33,3,.64,5.16-.2s2-1.5,2-1.5l-.06-.69s-4.9,1.26-7.27.79A12.45,12.45,0,0,1,13.5,60.2c-1.22-.89-1.91-1.59-1.89-3-.4.76-.74,1.5-.74,1.5Z"/><path class="cls-65" d="M17.71,108.15a121.1,121.1,0,0,1,.35-14.29,55,55,0,0,0,.23-8.07l-.2-.81c-.95-3.86-3.83-15.63-4-18.36A6.1,6.1,0,0,1,14.68,63a3,3,0,0,0,.29-.69l.24.07a4.33,4.33,0,0,1-.31.73,5.83,5.83,0,0,0-.56,3.52c.11,1.8,1.45,8,4,18.32l.2.81c.22.92,0,4.11-.22,8.15A120.62,120.62,0,0,0,18,108.13Z"/><path class="cls-7" d="M34.1,37.5c2,1.24,3.44,2.71,2.58,4.68a45.32,45.32,0,0,1-3.17,7c-1.55,2.42-3.23,6.92-4,8.3s-3.32,4.38-3.66,4.88a5.52,5.52,0,0,1-4.58,1.28A14.18,14.18,0,0,1,14,60.47c-2-1.83-2.17-2.32-2.14-3.08S11.73,56.29,13,55a11.05,11.05,0,0,0,3.18-5.62A18.63,18.63,0,0,1,20.59,41c2.44-2.62,8.51-4.79,9.34-5.05S34.1,37.5,34.1,37.5Z"/><path class="cls-4" d="M33.19,43.22a1.52,1.52,0,0,0,.86-1.11,16.65,16.65,0,0,0-.1-2.44,2.92,2.92,0,0,1,.83,1.83A3.88,3.88,0,0,1,34.24,44c-.35.43-.69-.29-.83-.35S33.19,43.22,33.19,43.22Z"/><path class="cls-66" d="M36.88,40.56a4.76,4.76,0,0,0-3.45,1.17c-1.46,1.12-1.5,1.43-2.31.94s-1.36-2-1.57-3.65-.26-2.2.23-2.73a5,5,0,0,0,.68-2s5.3-1.58,6.6-.22S37,40.57,36.88,40.56Z"/><path class="cls-4" d="M15.33,61.3l-.19-.15s1.22-1.58,1.58-2.1A54.73,54.73,0,0,0,19.19,54c.93-2.09,2.68-6.87,2.7-6.91l.23.08c0,.05-1.78,4.83-2.7,6.93a56.42,56.42,0,0,1-2.5,5.11C16.56,59.71,15.38,61.24,15.33,61.3Z"/><path class="cls-4" d="M33,43.33a.38.38,0,0,0,.24-.11l.14.69a24.48,24.48,0,0,0-.69,3.71,11.19,11.19,0,0,1-.33,3.09,54.47,54.47,0,0,1-2.73,6.63,63.67,63.67,0,0,1-3.95,5.47l-.92.35a14.53,14.53,0,0,0,1.86-2.09c.57-.89,1.8-2.74,2.45-3.85a37.85,37.85,0,0,0,2.48-6.35,8.81,8.81,0,0,0,.1-3.46,14.35,14.35,0,0,1,.57-4.06Z"/><path class="cls-4" d="M23.94,44.29c1.76,1.45,1.26,5.05.92,7.18s-2.14,9.18-4.52,9.25S17.47,59,17.59,56s1.35-9.8,2.54-11.4A2.53,2.53,0,0,1,23.94,44.29Z"/><path class="cls-4" d="M20.33,56.55c.59,0,2.17.88,2.25,2.06s.65,13.51.56,14a3.29,3.29,0,0,1-2.77,1.53c-1.23,0-1.69-.47-1.83-.89s-1.42-12.9-.9-15.25A1.92,1.92,0,0,1,20.33,56.55Z"/><path class="cls-5" d="M15.24,77c0,.11.12.2.35.21l.28,0a19.17,19.17,0,0,0,2-.77c.21-.08.33-.1.3,0a3.76,3.76,0,0,1-.87.79,10.17,10.17,0,0,1-1.38.73c-.28.17-.39.33-.34.49a0,0,0,0,0,0,0,.41.41,0,0,0,.44.27h0l.21,0A12.36,12.36,0,0,0,18,78.06c.23-.12,1.14-1,1.11-.84a8.34,8.34,0,0,1-1,1.33,15.21,15.21,0,0,0-1.36,1.12.51.51,0,0,0-.14.26h0a.37.37,0,0,0,.4.46A11.94,11.94,0,0,0,19.26,79a.37.37,0,0,0,.13-.11,0,0,0,0,1,0,0l.05-.06c.37-.44,1-1.42,1.05-1.37s-.06,2.1-.06,2.1a4.18,4.18,0,0,0-.3,1.07c0,.25.07.67.45.6h0c.42-.11.94-1.92,1.12-2.87s.21-2.61.6-3.13a6,6,0,0,0,.57-2.67c0-.74-3.9.38-4.15.64A4.86,4.86,0,0,0,18,74.68a1.32,1.32,0,0,1-.48.64,10.81,10.81,0,0,1-1.88,1.09C15.22,76.55,15.22,76.84,15.24,77Z"/><path class="cls-67" d="M20.45,79.56a4.18,4.18,0,0,0-.3,1.07c0,.25.07.67.45.6a.61.61,0,0,1-.33-.32c-.12-.28.3-1,.36-1.58a15.8,15.8,0,0,0,.25-2.06c-.06-.34-.4,0-.58.26s-.65,1-.84,1.3c.37-.44,1-1.42,1.05-1.37S20.45,79.56,20.45,79.56Z"/><path class="cls-68" d="M19.07,77.22a8.34,8.34,0,0,1-1,1.33,15.21,15.21,0,0,0-1.36,1.12.51.51,0,0,0-.14.26,3.42,3.42,0,0,1,.37-.45c.22-.18,1-.62,1.29-.84a3.64,3.64,0,0,0,.82-.91c.24-.36.53-.72.46-.73a.83.83,0,0,0-.6.13s-.46.46-.88.81a8.14,8.14,0,0,1-2,.73l.21,0A12.36,12.36,0,0,0,18,78.06C18.19,77.94,19.1,77.1,19.07,77.22Z"/><path class="cls-69" d="M15.61,78.37a.44.44,0,0,1,.11-.24A7.17,7.17,0,0,1,17,77.49a4.71,4.71,0,0,0,1.32-1c.37-.42.26-.47.2-.47a2.84,2.84,0,0,0-.76.37,11.1,11.1,0,0,1-2.11.82h0l.28,0a19.17,19.17,0,0,0,2-.77c.21-.08.33-.1.3,0a3.76,3.76,0,0,1-.87.79,10.17,10.17,0,0,1-1.38.73C15.67,78.05,15.56,78.21,15.61,78.37Z"/><path class="cls-65" d="M23.31,68.79h-.06l-.09,0v-.08s-.24-2.53-.34-3.73c-.06-.65,0-1,.16-1.17a.24.24,0,0,1,.17,0l1.17-.09v.14a9.48,9.48,0,0,0,.1,1.21c.13,1.09.28,2.45-.12,3S23.45,68.79,23.31,68.79ZM23.11,64s-.12.13-.05,1c.09,1,.28,3.08.33,3.6a1.52,1.52,0,0,0,.7-.65c.35-.5.2-1.8.08-2.85-.05-.44-.1-.83-.1-1.12l-.94.07Z"/><path class="cls-6" d="M13,59.66l.48.3-1.07,2.51-.54-.38A6.12,6.12,0,0,1,13,59.66Z"/><path class="cls-5" d="M40.72,29.31c1.57,1,1.35,3,1.21,3.93s-.73,2.3-.75,2.73.37,1.56.31,1.85-1.26.39-1.26.39a5.37,5.37,0,0,1-.25.92.7.7,0,0,1-.23.14,1.06,1.06,0,0,1-.16.46c-.11.14-.42.27-.5.46s-.35,1-.76,1a4.75,4.75,0,0,1-2.75-.92c-.72-.69-.49-1.59-.35-2.53s1.23-3.79,1.31-5.41S39.65,28.66,40.72,29.31Z"/><path class="cls-70" d="M36.52,36c0-.19-.19-.38-.57-.35a1.24,1.24,0,0,0-1.07.95,1.49,1.49,0,0,0,.06,1.45c.26.37.58,0,.69-.06s.16-.38.21-.51a3.51,3.51,0,0,0,.29-.61C36.18,36.65,36.49,36.4,36.52,36Z"/><path class="cls-4" d="M29.87,37.22c.25,1.26,1.31,5.21,3.08,6.11a6,6,0,0,1-2.1,1.25A17,17,0,0,1,29,41.21c-.49-1.42-.84-3.59-.45-4.34A3.34,3.34,0,0,1,30,35.42c.37-.12.21.09.21.09A3.71,3.71,0,0,0,29.87,37.22Z"/><path class="cls-71" d="M36.42,36.14c0-.27-.24-.17-.35-.14a1.07,1.07,0,0,0-.66.89c-.11.63,0,.55.19.55s.32-.1.32-.25a1.48,1.48,0,0,1,.08-.65C36.11,36.38,36.38,36.45,36.42,36.14Z"/><path class="cls-5" d="M41.32,35.38c-.13.08-.33.53-.8.76a3.36,3.36,0,0,1-.53.23Z"/><path class="cls-3" d="M30.17,35.77c0-.84.28-1.78.32-3.11a8.58,8.58,0,0,1,1.3-4c.69-1,2-2.26,5-1.79a7.14,7.14,0,0,1,5,2.74,5,5,0,0,1,1.45,2.28c-.06.23-1.62.37-1.91.37s-.49.39-.49.84A4.29,4.29,0,0,1,40,35c-.31.28-1,.72-1.41,1.06a2.59,2.59,0,0,0-.61.7l-.91-.4s0-1.3-1-1.35-2,1-2.55,1.47a2,2,0,0,1-2,.4C30.92,36.58,30.19,36.08,30.17,35.77Z"/></g></g></svg>