<svg xmlns="http://www.w3.org/2000/svg" xmlns:xlink="http://www.w3.org/1999/xlink" viewBox="0 0 65.22 136.92"><defs><style>.cls-1{isolation:isolate;}.cls-2{fill:#e3e5ef;mix-blend-mode:multiply;}.cls-3{fill:#7a6a6f;}.cls-4{fill:#b14046;}.cls-5{fill:#a1424a;}.cls-6{fill:#544146;}.cls-7{fill:#68575c;}.cls-8{fill:#8e4147;}.cls-9{fill:#6f5f65;}.cls-10{fill:#9792c7;}.cls-11{fill:#e4e1e2;}.cls-12{fill:#f9b974;}.cls-13{fill:#f8c6c7;}.cls-14{fill:#f59b2f;}.cls-15{fill:#f0999b;}.cls-16{fill:#252430;}.cls-17{fill:#393942;}.cls-18{fill:#9c9da5;}.cls-19{fill:#fff;}.cls-20{fill:#505b5c;}.cls-21{fill:#636c6d;}.cls-22{fill:#495556;}.cls-23{fill:#798282;}.cls-24{fill:url(#_ÂÁ_Ï_ÌÌ_È_ËÂÌÚ_7);}.cls-25{fill:#dde9f7;}.cls-26{fill:#c3d6ef;}.cls-27{fill:#764655;}</style><linearGradient id="_ÂÁ_Ï_ÌÌ_È_ËÂÌÚ_7" x1="780.13" y1="50.85" x2="789.1" y2="50.85" gradientTransform="translate(-772.99)" gradientUnits="userSpaceOnUse"><stop offset="0.12" stop-color="#f8c6c7"/><stop offset="0.97" stop-color="#f4abb7"/></linearGradient></defs><g class="cls-1"><g id="Layer_1" data-name="Layer 1"><ellipse class="cls-2" cx="14.65" cy="128.46" rx="8.46" ry="14.65" transform="matrix(0.01, -1, 1, 0.01, -113.89, 142.41)"/><polygon class="cls-3" points="59.36 116.42 20.23 93.83 10.18 99.64 49.31 122.23 59.36 116.42 59.36 116.42"/><path class="cls-4" d="M61,23.23,21.74.59C19.38-.78,17.46.32,17.45,3L17.3,67.62A9.39,9.39,0,0,0,21.56,75L60.78,97.64c2.36,1.37,4.28.27,4.29-2.44l.15-64.59A9.39,9.39,0,0,0,61,23.23Z"/><path class="cls-5" d="M61,23.23,21.74.59c-1.32-.77-2.51-.76-3.3-.12A3.21,3.21,0,0,1,21.2.9L60.41,23.54a9.42,9.42,0,0,1,4.27,7.38l-.16,64.59a3.14,3.14,0,0,1-1,2.56c.94-.36,1.53-1.37,1.54-2.87l.15-64.59A9.39,9.39,0,0,0,61,23.23Z"/><polygon class="cls-4" points="63.88 97.9 53.87 103.69 8.93 5.94 18.73 0.27 63.88 97.9"/><path class="cls-5" d="M52.25,28.25,13,5.61c-2.36-1.36-4.28-.27-4.29,2.44L8.6,72.64A9.39,9.39,0,0,0,12.86,80l39.22,22.64c2.36,1.37,4.28.27,4.29-2.44l.15-64.59a9.37,9.37,0,0,0-4.27-7.38Z"/><polygon class="cls-6" points="49.31 122.23 10.18 99.64 10.16 102.69 49.29 125.28 49.31 122.23 49.31 122.23"/><polygon class="cls-6" points="45.53 98.29 17.18 81.91 17.15 101.8 45.5 118.17 45.53 98.29 45.53 98.29"/><polygon class="cls-6" points="49.31 122.23 59.36 116.42 59.34 119.48 49.29 125.28 49.31 122.23 49.31 122.23"/><polygon class="cls-7" points="52.62 94.2 45.53 98.29 45.5 118.17 52.59 114.08 52.62 94.2 52.62 94.2"/><path class="cls-8" d="M51,29,11.82,6.31C9.46,5,7.54,6,7.53,8.76L7.38,73.34a9.4,9.4,0,0,0,4.27,7.39l39.21,22.64c2.36,1.36,4.28.27,4.29-2.45l.15-64.58A9.4,9.4,0,0,0,51,29Z"/><path class="cls-9" d="M50.3,32.3,12.54,10.51c-.88-.51-1.59-.1-1.59.91L10.8,74.63a3.51,3.51,0,0,0,1.59,2.75l37.75,21.8c.88.5,1.59.09,1.6-.92l.14-63.21A3.5,3.5,0,0,0,50.3,32.3Z"/><path class="cls-10" d="M50.3,32.3,13.38,11v1.83l-.14,60.64a3.5,3.5,0,0,0,1.59,2.75L51.74,97.53l.14-62.48A3.5,3.5,0,0,0,50.3,32.3Z"/><polygon class="cls-11" points="51.88 35.05 13.38 12.82 13.34 55.98 51.84 78.21 51.88 35.05 51.88 35.05"/><path class="cls-11" d="M13.38,56l-.05.16c0,13.42-5.58,26.76-5.58,26.76l38.5,22.24s5.59-13.4,5.59-26.93Z"/><ellipse class="cls-12" cx="32.61" cy="51.26" rx="13.87" ry="24.03" transform="translate(-21.41 23.47) rotate(-30.31)"/><path class="cls-13" d="M25.24,31c-.08.39-1,1.31-1.27,1.67a4.08,4.08,0,0,1-.77.88c-.38.35-2.33,1.52-2.55,1.69s-2,1.82-2,1.82l-1.67-2a8,8,0,0,0,1.15-1.42,28.58,28.58,0,0,0,.62-2.89c.08-.43.29-1.75.44-2.5a4.84,4.84,0,0,1,.5-1.49.48.48,0,0,1,.45-.06.27.27,0,0,1,.17.2c.1-.32.39-1.34.58-1.33a1,1,0,0,1,.4.12l.18.1.05,0s.11-.63.42-.57a.57.57,0,0,1,.26.08c.16.11.19.31.17.73,0,.57-.64,3.13-.68,3.29h0c.08-.14,1.35-2.49,1.49-2.73s.38-.35.62,0-.78,2.16-.92,2.6-.65,1.49-.69,1.79a1.65,1.65,0,0,0,.43,1.11c.19.1.51-.18.61-.34a3.88,3.88,0,0,1,1.16-1.11C24.81,30.57,25.32,30.64,25.24,31Z"/><rect class="cls-14" x="28.27" y="50.76" width="10.4" height="0.93" transform="translate(-24.12 71.91) rotate(-76.6)"/><path class="cls-15" d="M20.15,26.76a9.9,9.9,0,0,1-.43,1.86c0,.2-.18.93-.21,1.05a3.48,3.48,0,0,1-.18.4,3.13,3.13,0,0,0,.28-.3c.08-.1.28-1.41.32-1.57L20.32,27A.16.16,0,0,0,20.15,26.76Z"/><path class="cls-15" d="M21.3,25.71a5.3,5.3,0,0,1-.22,1.35c-.16.69-.61,2.23-.66,2.34a2.88,2.88,0,0,1-.27.41,7.92,7.92,0,0,0,.5-.83c.15-.32.54-2.08.54-2.08l.34-1Z"/><path class="cls-15" d="M22.38,26.13c0,.57-.64,3.13-.68,3.29h0a1.77,1.77,0,0,1-.54.75c0-.23.16-.47.33-.87a19.93,19.93,0,0,0,.66-2.62,5.78,5.78,0,0,0,.06-1.29C22.37,25.51,22.4,25.71,22.38,26.13Z"/><path class="cls-13" d="M33.9,48.3c0-.94,0-2.39,0-2.67a8.13,8.13,0,0,1-.36-1.09,8.06,8.06,0,0,1,.2-2,1.86,1.86,0,0,1,.53-.77,1,1,0,0,1,.7,0l.25.27a2,2,0,0,1,.43-.36,2.3,2.3,0,0,1,1,.08c.11.07,1.07.51,1.11.73a3.47,3.47,0,0,0,.18,1c.16.31,0,.92,0,1.07a1.27,1.27,0,0,1,0,.83,2.51,2.51,0,0,0-.22.83c0,.14-.31.41-.6.54s-.63.33-.64.61.13,2.11.13,2.11Z"/><path class="cls-15" d="M35.09,42c0,.18,0,.29.06.49s.31.37.42.29.39-.42.68-.49l.28-.08a.8.8,0,0,1-.48-.08,2,2,0,0,1-.2-.19s-.22.06-.26.12-.08.26-.15.31a.49.49,0,0,1-.19.07l-.07-.25v-.09Z"/><rect class="cls-14" x="32.62" y="38.48" width="7.52" height="1.11" transform="translate(-10.03 65.37) rotate(-76.59)"/><path class="cls-16" d="M31.19,28.64a2.7,2.7,0,0,1,1.23-2.13.87.87,0,0,1,.88-.09h0l11.78,6.7-1.82,3.12L31.55,29.43h0A.86.86,0,0,1,31.19,28.64Z"/><path class="cls-17" d="M45.08,33.12c-1.33-.39-2.82,2.18-1.82,3.12C44.59,36.63,46.08,34.05,45.08,33.12Z"/><path class="cls-11" d="M44.56,34c-.57-.17-1.22,1-.78,1.36C44.35,35.53,45,34.41,44.56,34Z"/><path class="cls-18" d="M43.59,38a1.4,1.4,0,0,1-.71-.19L38,35a.15.15,0,0,0-.13,0,.17.17,0,0,0-.08.1l-.18.76-.91-.22.18-.75a1.08,1.08,0,0,1,1.58-.69L43.33,37a.51.51,0,0,0,.65-.13l.56-.69a.5.5,0,0,0,.11-.4.54.54,0,0,0-.23-.35l-.5-.32.5-.79.49.32a1.42,1.42,0,0,1,.66,1,1.44,1.44,0,0,1-.3,1.15l-.56.69A1.44,1.44,0,0,1,43.59,38Z"/><path class="cls-19" d="M3.46,60.77C2.75,59,2.2,57.67,2.59,56s3.74-7,4-7.15S8.94,48.75,9,50.4s.49,3.46-.69,5.37S3.46,60.77,3.46,60.77Z"/><path class="cls-20" d="M25.73,128.26a1.25,1.25,0,0,1,.77.77c0,.2,0,1,0,1a5,5,0,0,1-2,2.22,5.7,5.7,0,0,1-3,.83,5.42,5.42,0,0,0-1.95.5,2.51,2.51,0,0,1-.16.42,7.11,7.11,0,0,1-1.95.89,2.73,2.73,0,0,1-2.06.06,1.67,1.67,0,0,1-1.15-1.08c0-.18,0-1.33,0-1.44a1,1,0,0,1,.6-.83Z"/><path class="cls-20" d="M12.35,121.74c.21.11.37.16.42.27a1.69,1.69,0,0,1,.11.73,2.75,2.75,0,0,1-.69,1.52,4,4,0,0,1-1.39,1.25c-.39.2-.57.36-.76.35a.73.73,0,0,0-.51.3A3.24,3.24,0,0,0,9,127c-.05.26,0,.41-.05.63a3.41,3.41,0,0,1-1.08,1.65c-.75.55-3.36.3-3.59-.52a4.86,4.86,0,0,1,.07-1.52A39.8,39.8,0,0,1,8.07,124Z"/><path class="cls-21" d="M14.8,130.27a5.86,5.86,0,0,0-.29,2.55c.11.42,1.43,1.34,3.4.57s5.42-1.33,6.48-1.92,1.93-1.61,1.87-2.48a1.75,1.75,0,0,0-.75-1.4,7.22,7.22,0,0,0-2.89-.31c-1.35,0-2.53,0-2.53,0Z"/><path class="cls-21" d="M4.64,124.71a15.19,15.19,0,0,0-.29,2.68c0,.2.44.76,1.77.87s1.92-.26,2.3-.81a8.41,8.41,0,0,1,1.33-2c.67-.55,1.12-.59,2.08-1.42a2.06,2.06,0,0,0,.73-2.15,1.53,1.53,0,0,0-1-.73,3.16,3.16,0,0,0-1.68.2C9.61,121.56,4.64,124.71,4.64,124.71Z"/><path class="cls-22" d="M6.5,78.4c-.46.46-.73.19-.78.69a33.31,33.31,0,0,0-.79,7.09,58.48,58.48,0,0,0,.78,7.27,115.81,115.81,0,0,1-.42,13.8C5,109.08,4,122.72,4.47,125.87a4.2,4.2,0,0,0,5.37-1.23c.34-.61.61-10,1.68-15.35s1.83-10,2.14-11.3a113.24,113.24,0,0,0,.67-11.45,42.13,42.13,0,0,0-.67-6.17Z"/><path class="cls-23" d="M8.3,125.87c0-.9.48-4.08,1-7.15.2-1.26.41-2.56.58-3.65.44-3,1.45-7.65,2.06-10.41l.32-1.47A38.8,38.8,0,0,0,12.44,94l.24,0a38.35,38.35,0,0,1-.21,9.23l-.32,1.47c-.61,2.76-1.61,7.38-2.06,10.4-.17,1.09-.38,2.39-.58,3.65-.49,3.06-1,6.22-1,7.1Z"/><path class="cls-22" d="M9.24,80.12a27.33,27.33,0,0,0-.75,7.77c.26,2.26.41,5,3.52,6.84.27.65,1.83,14.89,1.83,16.94s.72,18.4.78,19.66c2,2.34,4.94.37,5.41-.39a3.87,3.87,0,0,0,.57-2.11c0-.61,0-13.6.45-19.34s1.3-14,1.34-18.85-1.28-7.92-1.63-9.89S9.24,80.12,9.24,80.12Z"/><path class="cls-23" d="M19.56,131.34a71.86,71.86,0,0,1-.16-10.83c.19-2,.39-4.74.61-7.65.27-3.67.58-7.82.92-11.28a85.46,85.46,0,0,0,.51-10.34v-.42a24.69,24.69,0,0,0-1.5-7.27l.22-.1a24.42,24.42,0,0,1,1.52,7.36v.43a85.74,85.74,0,0,1-.51,10.36c-.34,3.46-.65,7.61-.92,11.28-.21,2.91-.42,5.67-.61,7.65a72.82,72.82,0,0,0,.16,10.79Z"/><path class="cls-23" d="M15.24,96.76l-.14,0c-.3-.11-3.54-2.12-3.83-2.71s-1.13-5.93-1.17-6.16l0-.17.17,0a29.13,29.13,0,0,0,8.82.51l.14,0v.15c-.06,1.65-.25,7.08-.48,7.37A10.38,10.38,0,0,1,15.24,96.76ZM10.37,88c.27,1.67.92,5.52,1.12,5.93a19.72,19.72,0,0,0,3.7,2.58,11.44,11.44,0,0,0,3.34-.92c.15-.28.33-4.44.42-7.09A30.74,30.74,0,0,1,10.37,88Z"/><path class="cls-23" d="M5.55,93l-.36-.83c0-.24-.48-6-.38-7.37l0-.38.2.33A4.52,4.52,0,0,0,6.37,86l.06,0v.07c0,.5.7,3.75,1,5.31.19.89.21.95.21,1s0,.18-2,.62Zm-.12-.87.26.59c.73-.16,1.5-.34,1.73-.42,0-.14-.1-.47-.19-.87-.35-1.62-1-4.59-1-5.29a4.84,4.84,0,0,1-1.15-1C5,86.93,5.41,91.76,5.43,92.12Z"/><path class="cls-24" d="M14.48,55.57a7.72,7.72,0,0,1,.66-2.93,7.9,7.9,0,0,0,1-2.71,6.3,6.3,0,0,0-1.63-3.72c-.64-.43-7.19,1-7.32,2.47a6.18,6.18,0,0,0,1,3.22,3.27,3.27,0,0,1,.16,2C8.13,54.77,14.48,55.57,14.48,55.57Z"/><path class="cls-13" d="M14.74,49.28c-.06-.42-.16-.66-.42-.59s-.46.33-.46.8.27,1.47.88,1.68c.26,0,.23-.21.23-.37s-.07-.6-.09-.78S14.74,49.28,14.74,49.28Z"/><path class="cls-13" d="M15.66,42.19a27.49,27.49,0,0,1,1.21,3.23,5.19,5.19,0,0,1,0,.71,2.11,2.11,0,0,1,.46.5c.07.18-.48.75-.49.93a12.21,12.21,0,0,1,.37,3.87c-.46.75-1.7.87-2,1s-.67-.57-.78-.89.14-2.28-.06-2.91-.7-1.49-.6-1.84S15.66,42.19,15.66,42.19Z"/><path class="cls-25" d="M20.8,81a1.75,1.75,0,0,1-1,.71,13.74,13.74,0,0,1-3.69.42c-3.39.1-10.11-2-10.38-3.19s-.5-7.42-.63-9.4S3.4,61.27,3.26,60.37a7.59,7.59,0,0,1,.61-4.32,3.82,3.82,0,0,1,3-1.75,6.41,6.41,0,0,1,2.35.58L13.8,56a22.1,22.1,0,0,0,2.11,1.37c.63.3,3.22.58,3.77,1.16a11.22,11.22,0,0,1,1.26,4.27A1.77,1.77,0,0,1,21,63c0,1,.28,6,.31,8.88S21.23,80.28,20.8,81Z"/><path class="cls-26" d="M20.8,81a1.75,1.75,0,0,1-1,.71c-.51-2.06-.44-11.08-.45-13A11,11,0,0,0,18,64.28s.44-1.67,2.92-1.5A1.77,1.77,0,0,1,21,63c0,1,.28,6,.31,8.88S21.23,80.28,20.8,81Z"/><path class="cls-27" d="M5.43,80.63c.24.48.76,1.5,5.07,2.69a19.81,19.81,0,0,0,8.29.85A3.56,3.56,0,0,0,21.3,83s-.1-1-.16-1.28a1.33,1.33,0,0,0-.18-.46s.33.68-2.71,1.26-7.89-1-9-1.39a36.82,36.82,0,0,1-3.57-1.9S5.3,80.4,5.43,80.63Z"/><path class="cls-22" d="M8.88,80.69s-.7,2.29-.7,2.4.7.35.7.35L9.49,81Z"/><polygon class="cls-22" points="18.52 82.22 17.72 82.31 17.96 85.21 18.94 85.04 18.52 82.22"/><path class="cls-19" d="M17.6,59.52c-.7,1.56-.43,4,.43,4.76s16.54-1.1,17.64-3.11a2.57,2.57,0,0,0-.82-3.6c-.61-.52-2.11-.61-3.54-.34s-3.57.67-6.2,1-5.5-.31-6.41-.15S17.6,59.52,17.6,59.52Z"/><path class="cls-19" d="M36.66,48.45a2.26,2.26,0,0,0-3.26-.23c-.4,2.65-1.27,7.45-2.09,9s2.65,5.89,4.36,3.94c.74-.86,1.16-3.6,1.22-6.72A54,54,0,0,0,36.66,48.45Z"/><path class="cls-19" d="M19.49,37.22a7.43,7.43,0,0,0-2.29-2.46c-.12,0-5.25,4.82-7.2,6.94a8.87,8.87,0,0,0-2.29,3.9s2,2.62,4.17.7S19.49,37.22,19.49,37.22Z"/><path class="cls-19" d="M20.12,81.49l-.41-4.74a33,33,0,0,1,0-4.08c0-.92,0-1.87,0-2.65,0-.3,0-.57,0-.81a6.46,6.46,0,0,0-.87-3.68l.22-.11a6.63,6.63,0,0,1,.9,3.79V70c0,.78,0,1.73,0,2.66a36.77,36.77,0,0,0,0,4l.41,4.74Z"/><path class="cls-27" d="M11.8,52.34a4.46,4.46,0,0,1-3.51-.08A7.8,7.8,0,0,0,7,50.53a7.76,7.76,0,0,1-2-4.64A4.14,4.14,0,0,1,7.4,42.12c1.39-1.48,2.6-1.59,5.47-1.48s3,.85,3.25,1.22A1.42,1.42,0,0,1,16,43.22a1.43,1.43,0,0,0-.54.8c0,.2.73,1.27.69,1.55s-.71,1.24-.59,2a4.67,4.67,0,0,0,.27,1.06l-.71.39a.93.93,0,0,0-1.39-.45c-.95.58-1.14,2.12-1.14,2.75S11.8,52.34,11.8,52.34Z"/><path class="cls-19" d="M10.82,54.05a7.21,7.21,0,0,1-2.24-.54c-.24-.22-.17-.29-.17-.29V53a1.27,1.27,0,0,0-.33.53,7.15,7.15,0,0,0-.37,1.3c0,.28.77.84,2.74,1.09a25.26,25.26,0,0,1,4,.87,13.5,13.5,0,0,0,1.4.78A3.7,3.7,0,0,0,16,55.64,15.77,15.77,0,0,0,10.82,54.05Z"/></g></g></svg>