<svg xmlns="http://www.w3.org/2000/svg" xmlns:xlink="http://www.w3.org/1999/xlink" viewBox="0 0 91.71 125.76"><defs><style>.cls-1{isolation:isolate;}.cls-2{fill:#e3e5ef;}.cls-2,.cls-27{mix-blend-mode:multiply;}.cls-3{fill:#47464f;}.cls-4{fill:#58575f;}.cls-5{fill:#6a6970;}.cls-6{fill:#858cad;}.cls-7{fill:#cfcfda;}.cls-8{fill:#d1cfe7;}.cls-9{fill:#cddf9d;}.cls-10{fill:#7b9a4f;}.cls-11{fill:#83a059;}.cls-12{fill:#f1f1f3;}.cls-13{fill:#9fa6c0;}.cls-14{fill:#54535c;}.cls-15{fill:#66656d;}.cls-16{fill:#4d4d56;}.cls-17{fill:#3e3d48;}.cls-18{fill:#6d6c74;}.cls-19{fill:#5b5a63;}.cls-20{fill:#34333e;}.cls-21{fill:#505b5c;}.cls-22{fill:#636c6d;}.cls-23{fill:#495556;}.cls-24{fill:#798282;}.cls-25{fill:#bed3ee;}.cls-26{fill:#f8c6c7;}.cls-27{fill:#f7bebf;}.cls-28{fill:#dde9f7;}.cls-29{fill:url(#_ÂÁ_Ï_ÌÌ_È_ËÂÌÚ_7);}.cls-30{fill:#764655;}.cls-31{fill:#f59b2f;}.cls-32{fill:#252430;}.cls-33{fill:#393942;}.cls-34{fill:#9c9da5;}</style><linearGradient id="_ÂÁ_Ï_ÌÌ_È_ËÂÌÚ_7" x1="-510.36" y1="123.67" x2="-505.49" y2="123.67" gradientTransform="translate(532.23 -36.69) rotate(2.12)" gradientUnits="userSpaceOnUse"><stop offset="0.12" stop-color="#f8c6c7"/><stop offset="0.97" stop-color="#f4abb7"/></linearGradient></defs><g class="cls-1"><g id="Layer_1" data-name="Layer 1"><path class="cls-2" d="M25.57,113.83a12.57,12.57,0,0,1-11.38,0c-3.14-1.82-3.16-4.75,0-6.56a12.55,12.55,0,0,1,11.37,0C28.68,109.09,28.7,112,25.57,113.83Z"/><polygon class="cls-2" points="72.66 125.76 0 83.81 19.05 72.81 91.71 114.76 72.66 125.76"/><path class="cls-3" d="M52.1,102.92a10.69,10.69,0,0,1-9.68,0c-2.68-1.55-2.69-4.05,0-5.59a10.69,10.69,0,0,1,9.68,0C54.76,98.88,54.77,101.38,52.1,102.92Z"/><rect class="cls-3" x="40.4" y="96.44" width="13.69" height="3.68"/><path class="cls-4" d="M52.1,99.24a10.69,10.69,0,0,1-9.68,0c-2.68-1.55-2.69-4,0-5.59a10.69,10.69,0,0,1,9.68,0C54.76,95.2,54.77,97.7,52.1,99.24Z"/><path class="cls-5" d="M50.21,98.15a6.55,6.55,0,0,1-5.91,0c-1.63-1-1.64-2.48,0-3.42a6.58,6.58,0,0,1,5.91,0C51.83,95.68,51.84,97.21,50.21,98.15Z"/><rect class="cls-5" x="43.07" y="73.36" width="8.36" height="23.08"/><path class="cls-5" d="M50.21,75.07a6.51,6.51,0,0,1-5.91,0c-1.63-.94-1.64-2.47,0-3.41a6.51,6.51,0,0,1,5.91,0C51.83,72.6,51.84,74.13,50.21,75.07Z"/><polygon class="cls-6" points="84.58 93.75 11.92 51.81 11.92 3.68 84.58 45.63 84.58 93.75"/><polygon class="cls-7" points="79.5 96.69 6.85 54.74 6.85 6.62 79.5 48.56 79.5 96.69"/><polygon class="cls-8" points="8.6 53.73 8.6 9.64 77.75 49.57 77.75 93.66 8.6 53.73"/><path class="cls-9" d="M44.33,45.63l-2,.22-1.3-.28a37,37,0,0,1-4-1.18c-2.72-1-5.47-2.45-5.47-4.4,0-.14,0-.26,0-.38s0-.16,0-.24L44,45.45l.35.17Z"/><path class="cls-9" d="M44.1,45.5a.34.34,0,0,0-.14,0,2.32,2.32,0,0,0-1.61.4l-8.54-4.94-2.26-1.3-2.62-1.52s1.07-.73,1.85-.3l.06,0Z"/><path class="cls-10" d="M45,47.73c0-1.19-.28-1.81-.65-2.1h0l-.21-.12a.34.34,0,0,0-.14,0,2.32,2.32,0,0,0-1.61.4l-8.54-4.94-2.26-1.3c0,.07,0,1.38,0,2.52V67L45,74.73l0-27Z"/><path class="cls-9" d="M57.51,66.14l-.14,0a2.36,2.36,0,0,0-1.61.41l-8.54-4.94L45,60.26l-2.62-1.52s1.07-.73,1.85-.3l.06,0Z"/><path class="cls-11" d="M58.4,68.38c0-1.19-.28-1.81-.65-2.1h0l-.21-.13-.14,0a2.36,2.36,0,0,0-1.61.41l-8.54-4.94L45,60.26c0,.07,0,1.38,0,2.52V74.72l13.42,7.76,0-14.1Z"/><polygon class="cls-12" points="84.58 45.63 11.92 3.68 14.99 1.91 87.65 43.86 84.58 45.63"/><polygon class="cls-12" points="79.5 48.56 6.85 6.62 9.92 4.84 82.57 46.79 79.5 48.56"/><polygon class="cls-13" points="82.57 46.79 82.57 94.91 79.5 96.69 79.5 48.56 82.57 46.79"/><polygon class="cls-13" points="87.65 43.86 87.65 91.98 84.58 93.75 84.58 45.63 87.65 43.86"/><polygon class="cls-14" points="19.05 11.07 17.39 10.11 19.04 9.16 20.7 10.12 19.05 11.07"/><polygon class="cls-15" points="17.74 3.89 17.12 3.53 18.42 10.12 19.04 10.48 17.74 3.89"/><polygon class="cls-16" points="19.47 10.22 19.04 10.48 17.74 3.89 18.17 3.64 19.47 10.22"/><polygon class="cls-17" points="12.93 8.13 18.14 6.49 18.14 7.47 14.96 9.31 12.93 8.13"/><polygon class="cls-14" points="12.93 7.14 16.1 5.31 18.14 6.49 14.96 8.32 12.93 7.14"/><polygon class="cls-18" points="16.87 4.39 16.25 4.03 17.55 3.28 18.17 3.64 16.87 4.39"/><polygon class="cls-16" points="16.87 4.39 16.84 4.72 18.14 3.97 18.17 3.64 16.87 4.39"/><polygon class="cls-15" points="15.57 7.15 14.95 6.79 16.25 4.03 16.87 4.39 15.57 7.15"/><polygon class="cls-16" points="15.99 6.9 15.57 7.15 16.87 4.39 17.29 4.14 15.99 6.9"/><polygon class="cls-19" points="12.93 7.14 12.93 8.13 14.96 9.31 14.96 8.32 12.93 7.14"/><polygon class="cls-14" points="37.18 21.54 35.52 20.58 37.17 19.63 38.83 20.58 37.18 21.54"/><polygon class="cls-15" points="35.88 14.36 35.26 14 36.56 20.59 37.18 20.95 35.88 14.36"/><polygon class="cls-16" points="37.6 20.69 37.18 20.95 35.88 14.36 36.3 14.11 37.6 20.69"/><polygon class="cls-17" points="31.06 18.6 36.27 16.95 36.27 17.95 33.1 19.78 31.06 18.6"/><polygon class="cls-14" points="31.06 17.61 34.23 15.78 36.27 16.95 33.1 18.79 31.06 17.61"/><polygon class="cls-18" points="35 14.86 34.38 14.5 35.68 13.75 36.3 14.11 35 14.86"/><polygon class="cls-16" points="35 14.86 34.97 15.19 36.27 14.44 36.3 14.11 35 14.86"/><polygon class="cls-15" points="33.7 17.62 33.08 17.26 34.38 14.5 35 14.86 33.7 17.62"/><polygon class="cls-16" points="34.13 17.37 33.7 17.62 35 14.86 35.42 14.61 34.13 17.37"/><polygon class="cls-19" points="31.06 17.61 31.06 18.6 33.1 19.78 33.1 18.79 31.06 17.61"/><polygon class="cls-14" points="55.32 32.01 53.66 31.05 55.31 30.1 56.97 31.05 55.32 32.01"/><polygon class="cls-15" points="54.01 24.83 53.39 24.47 54.69 31.06 55.31 31.41 54.01 24.83"/><polygon class="cls-16" points="55.73 31.16 55.31 31.41 54.01 24.83 54.44 24.57 55.73 31.16"/><polygon class="cls-17" points="49.19 29.07 54.4 27.42 54.4 28.41 51.23 30.25 49.19 29.07"/><polygon class="cls-14" points="49.19 28.08 52.37 26.25 54.4 27.42 51.23 29.26 49.19 28.08"/><polygon class="cls-18" points="53.13 25.33 52.52 24.97 53.82 24.22 54.44 24.57 53.13 25.33"/><polygon class="cls-16" points="53.13 25.33 53.1 25.66 54.4 24.91 54.44 24.57 53.13 25.33"/><polygon class="cls-15" points="51.83 28.09 51.22 27.73 52.52 24.97 53.13 25.33 51.83 28.09"/><polygon class="cls-16" points="52.26 27.84 51.83 28.09 53.13 25.33 53.56 25.07 52.26 27.84"/><polygon class="cls-19" points="49.19 28.08 49.19 29.07 51.23 30.25 51.23 29.26 49.19 28.08"/><polygon class="cls-14" points="73.45 42.48 71.79 41.52 73.44 40.56 75.1 41.52 73.45 42.48"/><polygon class="cls-15" points="72.14 35.3 71.52 34.94 72.83 41.53 73.44 41.88 72.14 35.3"/><polygon class="cls-16" points="73.87 41.63 73.44 41.88 72.14 35.3 72.57 35.05 73.87 41.63"/><polygon class="cls-17" points="67.33 39.54 72.54 37.89 72.54 38.88 69.36 40.72 67.33 39.54"/><polygon class="cls-14" points="67.33 38.55 70.5 36.72 72.54 37.89 69.36 39.73 67.33 38.55"/><polygon class="cls-18" points="71.27 35.8 70.65 35.44 71.95 34.69 72.57 35.05 71.27 35.8"/><polygon class="cls-16" points="71.27 35.8 71.24 36.13 72.54 35.38 72.57 35.05 71.27 35.8"/><polygon class="cls-15" points="69.97 38.56 69.35 38.2 70.65 35.44 71.27 35.8 69.97 38.56"/><polygon class="cls-16" points="70.39 38.31 69.97 38.56 71.27 35.8 71.69 35.54 70.39 38.31"/><polygon class="cls-19" points="67.33 38.55 67.33 39.54 69.36 40.72 69.36 39.73 67.33 38.55"/><polygon class="cls-14" points="75.45 39.41 77.11 40.37 75.46 41.32 73.8 40.36 75.45 39.41"/><polygon class="cls-17" points="76.36 34.32 81.57 32.68 81.57 33.67 78.4 35.5 76.36 34.32"/><polygon class="cls-14" points="81.57 32.68 78.4 34.51 76.36 33.33 79.53 31.5 81.57 32.68"/><polygon class="cls-19" points="76.36 33.33 76.36 34.32 78.4 35.5 78.4 34.51 76.36 33.33"/><polygon class="cls-15" points="76.33 32.16 76.95 32.52 75.65 40.61 75.03 40.25 76.33 32.16"/><polygon class="cls-15" points="78.5 32.92 79.12 33.28 77.82 32.02 77.2 31.66 78.5 32.92"/><polygon class="cls-16" points="76.95 32.52 76.92 32.85 78.22 32.1 78.25 31.77 76.95 32.52"/><polygon class="cls-18" points="77.63 31.41 78.25 31.77 76.95 32.52 76.33 32.16 77.63 31.41"/><polygon class="cls-16" points="76.07 40.35 75.65 40.61 76.95 32.52 77.37 32.27 76.07 40.35"/><polygon class="cls-16" points="79.55 33.03 79.12 33.28 77.82 32.02 78.25 31.77 79.55 33.03"/><polygon class="cls-14" points="57.31 28.94 58.97 29.9 57.32 30.85 55.66 29.89 57.31 28.94"/><polygon class="cls-17" points="58.23 23.85 63.44 22.21 63.44 23.2 60.26 25.03 58.23 23.85"/><polygon class="cls-14" points="63.44 22.21 60.26 24.04 58.23 22.86 61.4 21.03 63.44 22.21"/><polygon class="cls-19" points="58.23 22.86 58.23 23.85 60.26 25.03 60.26 24.04 58.23 22.86"/><polygon class="cls-15" points="58.2 21.69 58.81 22.05 57.51 30.14 56.9 29.78 58.2 21.69"/><polygon class="cls-15" points="60.37 22.45 60.99 22.81 59.69 21.55 59.07 21.19 60.37 22.45"/><polygon class="cls-16" points="58.81 22.05 58.78 22.38 60.08 21.63 60.11 21.3 58.81 22.05"/><polygon class="cls-18" points="59.5 20.94 60.11 21.3 58.81 22.05 58.2 21.69 59.5 20.94"/><polygon class="cls-16" points="57.94 29.89 57.51 30.14 58.81 22.05 59.24 21.8 57.94 29.89"/><polygon class="cls-16" points="61.41 22.56 60.99 22.81 59.69 21.55 60.11 21.3 61.41 22.56"/><polygon class="cls-14" points="39.18 18.47 40.84 19.43 39.19 20.38 37.53 19.42 39.18 18.47"/><polygon class="cls-17" points="40.09 13.38 45.3 11.74 45.3 12.73 42.13 14.56 40.09 13.38"/><polygon class="cls-14" points="45.3 11.74 42.13 13.57 40.09 12.39 43.27 10.56 45.3 11.74"/><polygon class="cls-19" points="40.09 12.39 40.09 13.38 42.13 14.56 42.13 13.57 40.09 12.39"/><polygon class="cls-15" points="40.06 11.22 40.68 11.58 39.38 19.67 38.76 19.31 40.06 11.22"/><polygon class="cls-15" points="42.24 11.98 42.86 12.34 41.56 11.08 40.94 10.72 42.24 11.98"/><polygon class="cls-16" points="40.68 11.58 40.65 11.91 41.95 11.16 41.98 10.83 40.68 11.58"/><polygon class="cls-18" points="41.36 10.47 41.98 10.83 40.68 11.58 40.06 11.22 41.36 10.47"/><polygon class="cls-16" points="39.8 19.42 39.38 19.67 40.68 11.58 41.1 11.33 39.8 19.42"/><polygon class="cls-16" points="43.28 12.09 42.86 12.34 41.56 11.08 41.98 10.83 43.28 12.09"/><polygon class="cls-14" points="21.05 8 22.7 8.96 21.06 9.91 19.4 8.95 21.05 8"/><polygon class="cls-17" points="21.96 2.92 27.17 1.27 27.17 2.26 24 4.09 21.96 2.92"/><polygon class="cls-14" points="27.17 1.27 24 3.1 21.96 1.93 25.13 0.09 27.17 1.27"/><polygon class="cls-19" points="21.96 1.93 21.96 2.92 24 4.09 24 3.1 21.96 1.93"/><polygon class="cls-15" points="21.93 0.75 22.55 1.11 21.25 9.2 20.63 8.84 21.93 0.75"/><polygon class="cls-15" points="24.1 1.51 24.72 1.87 23.42 0.61 22.8 0.25 24.1 1.51"/><polygon class="cls-16" points="22.55 1.11 22.52 1.44 23.82 0.69 23.85 0.36 22.55 1.11"/><polygon class="cls-18" points="23.23 0 23.85 0.36 22.55 1.11 21.93 0.75 23.23 0"/><polygon class="cls-16" points="21.67 8.95 21.25 9.2 22.55 1.11 22.97 0.86 21.67 8.95"/><polygon class="cls-16" points="25.15 1.62 24.72 1.87 23.42 0.61 23.85 0.36 25.15 1.62"/><polygon class="cls-20" points="37.18 21.54 35.52 20.58 35.52 20.96 37.18 21.92 37.18 21.54"/><polygon class="cls-14" points="39.19 20.38 39.19 21.74 37.53 20.78 37.53 19.42 39.19 20.38"/><polygon class="cls-20" points="40.84 19.43 40.84 19.82 40.36 20.1 40.36 21.33 39.43 21.88 39.19 21.74 39.19 20.38 40.84 19.43"/><polygon class="cls-20" points="38.83 20.58 38.83 21.54 38.36 21.26 37.18 21.92 37.18 21.54 38.83 20.58"/><polygon class="cls-20" points="19.05 11.07 17.39 10.11 17.39 10.49 19.05 11.45 19.05 11.07"/><polygon class="cls-14" points="21.06 9.91 21.06 11.27 19.4 10.31 19.4 8.95 21.06 9.91"/><polygon class="cls-20" points="22.7 8.96 22.7 9.35 22.23 9.63 22.23 10.86 21.29 11.41 21.06 11.27 21.06 9.91 22.7 8.96"/><polygon class="cls-20" points="20.7 10.12 20.7 11.07 20.22 10.79 19.05 11.45 19.05 11.07 20.7 10.12"/><polygon class="cls-20" points="55.32 32.01 53.66 31.05 53.66 31.43 55.32 32.39 55.32 32.01"/><polygon class="cls-14" points="57.32 30.85 57.32 32.21 55.66 31.25 55.66 29.89 57.32 30.85"/><polygon class="cls-20" points="58.97 29.9 58.97 30.29 58.5 30.57 58.5 31.8 57.56 32.35 57.32 32.21 57.32 30.85 58.97 29.9"/><polygon class="cls-20" points="56.97 31.05 56.97 32.01 56.49 31.73 55.32 32.39 55.32 32.01 56.97 31.05"/><polygon class="cls-20" points="73.45 42.48 71.79 41.52 71.79 41.9 73.45 42.85 73.45 42.48"/><polygon class="cls-14" points="75.46 41.32 75.46 42.68 73.8 41.72 73.8 40.36 75.46 41.32"/><polygon class="cls-20" points="77.11 40.37 77.11 40.76 76.63 41.04 76.63 42.27 75.69 42.82 75.46 42.68 75.46 41.32 77.11 40.37"/><polygon class="cls-20" points="75.1 41.52 75.1 42.48 74.63 42.2 73.45 42.85 73.45 42.48 75.1 41.52"/><path class="cls-21" d="M17.19,108.2c.09,0,.11.18.13.3a1.67,1.67,0,0,1,0,.39,2.07,2.07,0,0,1-.2.76,3.27,3.27,0,0,1-.76.83c-.16.12-.39.14-.48.26a4.31,4.31,0,0,0-.36.71,1,1,0,0,0-.08.32,3.62,3.62,0,0,1,0,.43,1.49,1.49,0,0,1-.57.74,2.36,2.36,0,0,1-1.27.07c-.35-.08-.73-.27-.76-.41a6.9,6.9,0,0,1,0-.86Z"/><path class="cls-22" d="M13.08,109.85a4.54,4.54,0,0,0-.21,1.11,3.66,3.66,0,0,0,0,.88c.06.23.48.4,1,.46s1,.1,1.3-.42.33-1,.7-1.36.89-.6,1.07-1a2.66,2.66,0,0,0,.36-1.06.68.68,0,0,0-.25-.6,2.05,2.05,0,0,0-1.15-.16A31.22,31.22,0,0,0,13.08,109.85Z"/><path class="cls-23" d="M16.94,82.59c-.5.23-.71.3-.82.64s-.63,2.45-.78,3.56a18,18,0,0,0-.12,3.92,23.93,23.93,0,0,1-.09,3.88,51.37,51.37,0,0,1-1.1,5c-.38,1.27-1.14,9.74-1.18,10.77.74,1.29,2.93.46,3.06,0s1.86-10,2.07-10.74,2.39-7.74,2.55-8.48.4-7.53-.13-8.14S16.94,82.59,16.94,82.59Z"/><path class="cls-24" d="M15.27,110.92h-.13c0-.77,1.15-6.55,1.73-8.87a50,50,0,0,1,1.77-5.54l.16-.46a17.25,17.25,0,0,0,1-4.68h.13a16.67,16.67,0,0,1-1,4.72l-.17.46A51.67,51.67,0,0,0,17,102.08C16.43,104.39,15.28,110.16,15.27,110.92Z"/><path class="cls-21" d="M21.26,110.52c-.15.14-.21.13-.23.39a2.08,2.08,0,0,0,0,.69c.05.18.59.45.93.54a1.58,1.58,0,0,0,1.43-.34c.47-.42.55-.54.55-.61a1.7,1.7,0,0,1,.05-.26,2.77,2.77,0,0,1,.51-.39,2.54,2.54,0,0,1,.54-.09,3.06,3.06,0,0,0,1-.83,1.37,1.37,0,0,0,.29-.67,4.73,4.73,0,0,0,0-.62,1.14,1.14,0,0,0-.29-.66C25.87,107.56,21.26,110.52,21.26,110.52Z"/><path class="cls-22" d="M21.58,109.41a2.77,2.77,0,0,0-.47,1.35c0,.26.42.65,1.22.73s1.45-.7,1.72-.9a11.64,11.64,0,0,0,1.81-1.14,1.4,1.4,0,0,0,.42-1.14,1.14,1.14,0,0,0-.54-.91c-.27-.21-.53-.37-.74-.32s-.51.24-1.13.46A12.93,12.93,0,0,0,21.58,109.41Z"/><path class="cls-23" d="M18.42,83.71c-.06.62-.9,2.58-.7,4.54s.34,2.39,1,2.88l1.13.83s.69,6.41.78,7.57.68,10.28.77,10.8.63.78,1.34.72a1.5,1.5,0,0,0,1.38-1.18c.06-.55.55-9.33.75-11.57s.74-7.6.77-8.83a35,35,0,0,0-.53-4.94c-.17-.81-1.25-1-1.25-1Z"/><path class="cls-24" d="M21.76,92.72h-.12a11.07,11.07,0,0,1-2-1.49c-.11-.22-.48-2.56-.55-3.09V88l.1,0a12.44,12.44,0,0,0,4.59.16c.34,0,.38,0,.42,0l0,0v0a33.53,33.53,0,0,1-.4,3.62A4.31,4.31,0,0,1,21.76,92.72Zm-2.52-4.51c.1.7.43,2.77.52,3a11.63,11.63,0,0,0,1.93,1.42,4.29,4.29,0,0,0,2-.75c.13-.23.35-3,.39-3.51l-.29,0A12.85,12.85,0,0,1,19.24,88.21Z"/><path class="cls-24" d="M15.68,91.2h0s-.13,0-.54-.74v0s-.06-1.06,0-1.72.23-2.31.23-2.33l0-.28.1.26s.16.41,1,.6h0v0c.08.31.42,3.41.39,3.64S15.78,91.2,15.68,91.2Zm-.42-.79a3.51,3.51,0,0,0,.44.65,2.66,2.66,0,0,0,1-.44c0-.17-.27-3-.37-3.54a1.69,1.69,0,0,1-.91-.5c0,.46-.18,1.62-.21,2.14S15.25,90.27,15.26,90.41Z"/><path class="cls-24" d="M23.86,110.54h-.13s.17-3.26.25-4.2c0-.4.07-1.57.11-2.92.07-1.91.14-4.07.22-4.83,0-.37.12-1,.23-1.73a63,63,0,0,0,.7-6.64,14,14,0,0,0-.64-5.17l.13,0a14.66,14.66,0,0,1,.65,5.22,63.42,63.42,0,0,1-.71,6.66c-.11.76-.19,1.36-.23,1.72-.08.76-.15,2.92-.21,4.82-.05,1.36-.09,2.53-.12,2.93C24,107.29,23.86,110.51,23.86,110.54Z"/><path class="cls-25" d="M31.24,66.75c.16-.13.07-.55,0-.89s-.61-1.19-.8-1.16-6.15,2.68-6.52,3-.56,1,.12,1.82,1.06.67,1.54.44S31.24,66.75,31.24,66.75Z"/><path class="cls-25" d="M24.73,68.1c-.45-.63-1.64.13-4.05.2-.72,0-3.27-.24-4,.46S15.87,70,16,70.24s.18,1.09,3.17,1a26.9,26.9,0,0,0,6.18-1.13Z"/><path class="cls-26" d="M30.5,64.75a2.82,2.82,0,0,0,.61,1.7c.11,0,.13,0,.13,0l.94-.66c.09-.07.08-.06.34,0a8.79,8.79,0,0,0,1.33-.1,5.47,5.47,0,0,0,.6-.23,1.28,1.28,0,0,0,.28-.29.56.56,0,0,0,0-.2.73.73,0,0,0,.14-.2,1.51,1.51,0,0,0,0-.34.59.59,0,0,1,0-.08s.17,0,.21-.14a.78.78,0,0,0,0-.41l0-.06s.12-.09.12-.19a.43.43,0,0,0-.1-.39.89.89,0,0,0-.49-.12l-.37,0a.28.28,0,0,0-.1-.1,5.14,5.14,0,0,0-1.13,0,8.11,8.11,0,0,0-1.27,1l-.13.21Z"/><path class="cls-27" d="M34.53,63.16c.16.06.27.1.15.24a.56.56,0,0,1-.48.22c-.19,0-.44-.24-.5-.25s-.41.06-.52.05-.11,0-.11,0l.16.16a1.47,1.47,0,0,1-.18.45,3.59,3.59,0,0,1-.3.44l-.26.21a1,1,0,0,0,.22.19c.11,0,.09-.26.09-.26l.24-.08a1.25,1.25,0,0,0,.18.36c.1.1.05.23.22.28l.26,0h.08l.32,0L34,65.11l-.4-.08a.24.24,0,0,1-.18-.19c0-.09.17-.17.17-.17a.73.73,0,0,1-.35-.11c-.09-.08-.06-.27,0-.3l.2-.08a.36.36,0,0,1,0-.2.18.18,0,0,1,.15-.18l.61,0,.46,0,.49,0,.11-.15-.17.09c-.06,0-.86.07-.86.07l.17-.05a.91.91,0,0,0,.23-.09.46.46,0,0,0,.18-.25c0-.06,0-.1-.09-.12Z"/><path class="cls-26" d="M34.75,65c0-.06,0-.11-.11-.14a5,5,0,0,0-.64-.16,4.93,4.93,0,0,0-.5,0l.06,0,.45,0,.66.18a.53.53,0,0,0,.18,0Z"/><path class="cls-26" d="M34.89,64.44c0-.07,0-.11-.08-.12l-1-.14a2.72,2.72,0,0,0-.44,0l.11,0,.36,0,1,.15.13,0,.14,0Z"/><path class="cls-28" d="M24.3,84c.41-.5.53-3.89.43-5.39a14.06,14.06,0,0,0-.66-3.88,26.77,26.77,0,0,0-1.62-2.88,7.79,7.79,0,0,0-1.07-1.71c-.4-.51-2.72-1.37-3.2-1.59a2.25,2.25,0,0,0-2.15,1A7.94,7.94,0,0,0,15.49,73a16.06,16.06,0,0,0,.18,3.58,23.09,23.09,0,0,1,.41,4.78,9.69,9.69,0,0,0,0,1.75c0,.28,1.67.86,3.13,1.15S23.71,84.75,24.3,84Z"/><path class="cls-29" d="M17.66,67.5a4.51,4.51,0,0,1,.13,1.74c0,.46,1.25.76,1.8.93s1.79.85,1.8.59-.05-1.59,0-2.1.22-.69.29-.71.7-.23.81-.63.13-2.2-1.92-1.8A4.54,4.54,0,0,0,17.66,67.5Z"/><path class="cls-26" d="M21.67,62.47A3.9,3.9,0,0,1,22.43,64c0,.14.08.89.14,1.17a8.76,8.76,0,0,1,.22,1.4,1.47,1.47,0,0,1-.21.84.82.82,0,0,1-.58.31c-.21,0-.46-.44-.5-.8a9.32,9.32,0,0,0-.19-1.89c-.16-.36-.72-1.59-.44-1.86S21.67,62.47,21.67,62.47Z"/><path class="cls-26" d="M22,66.05c-.05-.17-.21-.25-.3-.2s-.18.25-.19.67,0,.48.13.61.19.2.26.08a3.39,3.39,0,0,0,.07-.49A2.53,2.53,0,0,0,22,66.05Z"/><path class="cls-30" d="M20.24,68.06a3.12,3.12,0,0,1-1.86.49c-.37-.08-.35-.24-.6-.5a8.07,8.07,0,0,1-1.1-1.68A4.92,4.92,0,0,1,16,64.16a1.6,1.6,0,0,1,1-1.4s.23-1.06,1.86-1.26a5,5,0,0,1,2.55.1,1.43,1.43,0,0,1,.75,1.11,4.73,4.73,0,0,1,.09,1.43,2.47,2.47,0,0,0-.09.86,5,5,0,0,0,.13.67l-.16.18s-.21-.44-.69,0a1.84,1.84,0,0,0-.72,1.28A2.41,2.41,0,0,1,20.24,68.06Z"/><path class="cls-25" d="M22,74.3a1.66,1.66,0,0,0-1.59,1.91c.06,1.21,1,8.13,1.64,9s1.8-.54,2.15-1.06a2.62,2.62,0,0,0,.52-1.77,51.11,51.11,0,0,0-1.13-6.73C23.33,74.71,22.78,74.21,22,74.3Z"/><path class="cls-31" d="M34.27,63.07c.15,0,.18-.33.2-.44l.13-.53.3-1.25.72-3c.26-1.1.52-2.2.79-3.31s.49-2.08.74-3.12c.2-.82.39-1.64.59-2.46.1-.44.21-.88.31-1.32l0-.11-.55-.12c-.06.27-.13.55-.19.82l-.52,2.16c-.23,1-.47,2-.71,3s-.53,2.22-.79,3.34-.51,2.13-.76,3.19c-.21.85-.41,1.71-.61,2.56a3,3,0,0,0-.08.32C33.83,63,34.08,63,34.27,63.07Z"/><path class="cls-31" d="M33.41,65.12c-.13,0-.14.15-.16.26l-.07.28c0,.23-.11.46-.16.69-.15.59-.29,1.19-.43,1.79l-.54,2.25c-.2.87-.41,1.75-.62,2.62s-.46,1.91-.68,2.87l-.72,3c-.25,1-.49,2-.74,3.07l-.71,3c-.23,1-.45,1.89-.68,2.84s-.4,1.7-.61,2.55l-.51,2.18c-.14.57-.27,1.13-.41,1.69-.08.37-.17.73-.26,1.1,0,.17-.08.32.13.38a.6.6,0,0,0,.23,0c.17,0,.15-.13.18-.27l.27-1.13.42-1.75.54-2.26.63-2.64.69-2.92c.25-1,.49-2.06.74-3.09l.75-3.14c.24-1,.49-2,.73-3.07l.69-2.9c.21-.87.42-1.75.62-2.62s.35-1.47.53-2.21c.14-.56.27-1.13.4-1.69.05-.21.23-.62.08-.77a.64.64,0,0,0-.3-.14Z"/><path class="cls-26" d="M27.41,85c.19-.19.27-.44.33-.44s.33-.09.48.06.18.38.27.42.81.22.94.3.39.24.38.41a4.38,4.38,0,0,1-.08.44c0,.13.11.34.05.44s-.24.18-.26.31,0,.19-.15.37-.06.35-.18.43a.91.91,0,0,1-.61.22c-.25,0-.37,0-.51-.16a1.64,1.64,0,0,1-.36-.46A21.13,21.13,0,0,1,27.41,85Z"/><path class="cls-25" d="M28.9,86.36a1.21,1.21,0,0,1-1,1.26,21.08,21.08,0,0,1-5.72-2.33c-.6-.54,1-3.46,2.55-2.3a23.16,23.16,0,0,0,3.36,2A1.46,1.46,0,0,1,28.9,86.36Z"/><path class="cls-32" d="M35.15,44.89a1.6,1.6,0,0,1,.74-1.27.5.5,0,0,1,.52,0h0l7,4-1.08,1.76-7-4h0A.52.52,0,0,1,35.15,44.89Z"/><path class="cls-33" d="M42.14,48.9c0,.47.33.66.74.42a1.62,1.62,0,0,0,.73-1.26c0-.47-.33-.66-.73-.42A1.6,1.6,0,0,0,42.14,48.9Z"/><path class="cls-34" d="M42.53,50.43a.92.92,0,0,1-.43-.11l-4-2.22a.14.14,0,0,0-.14,0,.17.17,0,0,0-.09.11l-.14.58-.54-.12.14-.59a.7.7,0,0,1,.41-.49.72.72,0,0,1,.64,0l3.95,2.22a.31.31,0,0,0,.4-.08l.32-.39a.28.28,0,0,0,.06-.25.3.3,0,0,0-.14-.22l-.28-.17.29-.47.28.17a.84.84,0,0,1,.4.6.86.86,0,0,1-.18.69l-.31.39A.91.91,0,0,1,42.53,50.43Z"/><polygon class="cls-10" points="58.38 82.47 58.38 38.4 77.75 49.57 77.75 93.66 58.38 82.47"/><polygon class="cls-11" points="8.6 53.72 8.6 9.64 31.55 22.89 31.55 66.98 8.6 53.72"/></g></g></svg>