<svg xmlns="http://www.w3.org/2000/svg" xmlns:xlink="http://www.w3.org/1999/xlink" viewBox="0 0 147.37 146.38"><defs><style>.cls-1{isolation:isolate;}.cls-2{fill:#e3e5ef;}.cls-2,.cls-24,.cls-42,.cls-43{mix-blend-mode:multiply;}.cls-3{fill:#c5c9d8;}.cls-4{fill:#eeeff4;}.cls-5{fill:#dadbe6;}.cls-6{fill:#ced0dd;}.cls-7{fill:#b7bbce;}.cls-8{fill:#6b3747;}.cls-9{fill:#e7f0fb;}.cls-10{fill:#505b5c;}.cls-11{fill:#636c6d;}.cls-12{fill:#495556;}.cls-13{fill:#764655;}.cls-14{fill:#798282;}.cls-15{fill:#dde9f7;}.cls-16{fill:url(#_ÂÁ_Ï_ÌÌ_È_ËÂÌÚ_7);}.cls-17{fill:#f5fafe;}.cls-18{fill:#f8c6c7;}.cls-19{fill:#f0999b;}.cls-20{fill:#f08dab;}.cls-21{fill:url(#_ÂÁ_Ï_ÌÌ_È_ËÂÌÚ_6);}.cls-22{fill:url(#_ÂÁ_Ï_ÌÌ_È_ËÂÌÚ_26);}.cls-23{fill:#ef7e9e;}.cls-24,.cls-46{fill:#f7bebf;}.cls-25{fill:#e38181;}.cls-26{fill:#f5aeb9;}.cls-27{fill:#e6e1dd;}.cls-28{fill:#76767d;}.cls-29{fill:#5c5c64;}.cls-30{fill:#2e2d38;}.cls-31{fill:#4c4b54;}.cls-32{fill:#43424c;}.cls-33{fill:#393942;}.cls-34{fill:#252430;}.cls-35{fill:#ea5488;}.cls-36{fill:#667071;}.cls-37{fill:url(#_ÂÁ_Ï_ÌÌ_È_ËÂÌÚ_7-2);}.cls-38{fill:#ef819e;}.cls-39{fill:#8e8e8e;}.cls-40{fill:url(#_ÂÁ_Ï_ÌÌ_È_ËÂÌÚ_7-3);}.cls-41{fill:#6a88c5;}.cls-42{fill:#e6eaf3;}.cls-43{fill:#e6e8f3;}.cls-44{fill:#eb5e8a;}.cls-45{fill:#e94270;}.cls-47{fill:url(#_ÂÁ_Ï_ÌÌ_È_ËÂÌÚ_7-4);}.cls-48{fill:url(#_ÂÁ_Ï_ÌÌ_È_ËÂÌÚ_3);}.cls-49{fill:url(#_ÂÁ_Ï_ÌÌ_È_ËÂÌÚ_6-2);}.cls-50{fill:url(#_ÂÁ_Ï_ÌÌ_È_ËÂÌÚ_5);}.cls-51{fill:url(#_ÂÁ_Ï_ÌÌ_È_ËÂÌÚ_4);}.cls-52{fill:#eff0f5;}.cls-53{fill:url(#_ÂÁ_Ï_ÌÌ_È_ËÂÌÚ_3-2);}.cls-54{fill:#515061;}.cls-55{fill:#515a98;}.cls-56{fill:#8c92b0;}.cls-57{fill:#3c3c45;}.cls-58{fill:#2a2a35;}.cls-59{fill:#b2b7cb;}.cls-60{fill:#a76579;}.cls-61{fill:#b76816;}.cls-62{fill:#c8893c;}.cls-63{fill:#edcc85;}.cls-64{fill:#e7bd61;}.cls-65{fill:#fbfdff;}.cls-66{fill:url(#_ÂÁ_Ï_ÌÌ_È_ËÂÌÚ_7-5);}.cls-67{fill:#fff;}.cls-68{fill:url(#_ÂÁ_Ï_ÌÌ_È_ËÂÌÚ_6-3);}.cls-69{fill:url(#_ÂÁ_Ï_ÌÌ_È_ËÂÌÚ_25);}.cls-70{fill:url(#_ÂÁ_Ï_ÌÌ_È_ËÂÌÚ_4-2);}.cls-71{fill:url(#_ÂÁ_Ï_ÌÌ_È_ËÂÌÚ_3-3);}.cls-72{fill:url(#_ÂÁ_Ï_ÌÌ_È_ËÂÌÚ_205);}.cls-73{fill:url(#_ÂÁ_Ï_ÌÌ_È_ËÂÌÚ_205-2);}.cls-74{fill:url(#_ÂÁ_Ï_ÌÌ_È_ËÂÌÚ_3-4);}.cls-75{fill:#bcd1da;}.cls-76{fill:url(#_ÂÁ_Ï_ÌÌ_È_ËÂÌÚ_7-6);}.cls-77{fill:#f29599;}</style><linearGradient id="_ÂÁ_Ï_ÌÌ_È_ËÂÌÚ_7" x1="139.64" y1="15.94" x2="135.47" y2="15.59" gradientUnits="userSpaceOnUse"><stop offset="0.12" stop-color="#f8c6c7"/><stop offset="0.97" stop-color="#f4abb7"/></linearGradient><linearGradient id="_ÂÁ_Ï_ÌÌ_È_ËÂÌÚ_6" x1="133.16" y1="15.56" x2="132.24" y2="15.74" gradientUnits="userSpaceOnUse"><stop offset="0.12" stop-color="#f8c6c7"/><stop offset="0.99" stop-color="#fbdada"/></linearGradient><linearGradient id="_ÂÁ_Ï_ÌÌ_È_ËÂÌÚ_26" x1="132.3" y1="15.59" x2="133.5" y2="15.59" gradientUnits="userSpaceOnUse"><stop offset="0.12" stop-color="#fbdbdb"/><stop offset="0.99" stop-color="#f9cacb"/></linearGradient><linearGradient id="_ÂÁ_Ï_ÌÌ_È_ËÂÌÚ_7-2" x1="2270.29" y1="70.52" x2="2277.06" y2="70.52" gradientTransform="translate(-2187.29)" xlink:href="#_ÂÁ_Ï_ÌÌ_È_ËÂÌÚ_7"/><linearGradient id="_ÂÁ_Ï_ÌÌ_È_ËÂÌÚ_7-3" x1="122.18" y1="72.53" x2="128.22" y2="72.53" gradientTransform="matrix(-1, 0, 0, 1, 214.8, 0)" xlink:href="#_ÂÁ_Ï_ÌÌ_È_ËÂÌÚ_7"/><linearGradient id="_ÂÁ_Ï_ÌÌ_È_ËÂÌÚ_7-4" x1="1758.59" y1="24.29" x2="1755.05" y2="19.48" gradientTransform="translate(-1641.46 -182.49) rotate(5.74)" xlink:href="#_ÂÁ_Ï_ÌÌ_È_ËÂÌÚ_7"/><linearGradient id="_ÂÁ_Ï_ÌÌ_È_ËÂÌÚ_3" x1="1752.93" y1="23.23" x2="1757.02" y2="23.23" gradientTransform="translate(-1641.46 -182.49) rotate(5.74)" gradientUnits="userSpaceOnUse"><stop offset="0.12" stop-color="#f3a2b4"/><stop offset="0.99" stop-color="#f4abb7"/></linearGradient><linearGradient id="_ÂÁ_Ï_ÌÌ_È_ËÂÌÚ_6-2" x1="1751.4" y1="18.46" x2="1750.68" y2="18.54" gradientTransform="translate(-1641.46 -182.49) rotate(5.74)" xlink:href="#_ÂÁ_Ï_ÌÌ_È_ËÂÌÚ_6"/><linearGradient id="_ÂÁ_Ï_ÌÌ_È_ËÂÌÚ_5" x1="1750.55" y1="18.48" x2="1751.7" y2="18.48" gradientTransform="translate(-1641.46 -182.49) rotate(5.74)" gradientUnits="userSpaceOnUse"><stop offset="0.19" stop-color="#fbdbdb"/><stop offset="0.9" stop-color="#f8c6c7"/></linearGradient><linearGradient id="_ÂÁ_Ï_ÌÌ_È_ËÂÌÚ_4" x1="1757.55" y1="18.22" x2="1759.43" y2="18.22" gradientTransform="translate(-1641.46 -182.49) rotate(5.74)" gradientUnits="userSpaceOnUse"><stop offset="0.12" stop-color="#f7b8b9"/><stop offset="1" stop-color="#fbdede"/></linearGradient><linearGradient id="_ÂÁ_Ï_ÌÌ_È_ËÂÌÚ_3-2" x1="1757.86" y1="18.09" x2="1759.16" y2="18.09" xlink:href="#_ÂÁ_Ï_ÌÌ_È_ËÂÌÚ_3"/><linearGradient id="_ÂÁ_Ï_ÌÌ_È_ËÂÌÚ_7-5" x1="2393.74" y1="10.37" x2="2399.42" y2="10.37" gradientTransform="matrix(-1, 0, 0, 1, 2433.7, 0)" xlink:href="#_ÂÁ_Ï_ÌÌ_È_ËÂÌÚ_7"/><linearGradient id="_ÂÁ_Ï_ÌÌ_È_ËÂÌÚ_6-3" x1="42.3" y1="10.22" x2="43.27" y2="10.78" xlink:href="#_ÂÁ_Ï_ÌÌ_È_ËÂÌÚ_6"/><linearGradient id="_ÂÁ_Ï_ÌÌ_È_ËÂÌÚ_25" x1="41.36" y1="10.25" x2="43.01" y2="10.25" gradientUnits="userSpaceOnUse"><stop offset="0.01" stop-color="#f9cacb"/><stop offset="0.88" stop-color="#fbdbdb"/></linearGradient><linearGradient id="_ÂÁ_Ï_ÌÌ_È_ËÂÌÚ_4-2" x1="35.7" y1="7.71" x2="34.2" y2="6.41" gradientTransform="matrix(1, 0, 0, 1, 0, 0)" xlink:href="#_ÂÁ_Ï_ÌÌ_È_ËÂÌÚ_4"/><linearGradient id="_ÂÁ_Ï_ÌÌ_È_ËÂÌÚ_3-3" x1="35.99" y1="7.71" x2="34.41" y2="6.82" gradientTransform="matrix(1, 0, 0, 1, 0, 0)" xlink:href="#_ÂÁ_Ï_ÌÌ_È_ËÂÌÚ_3"/><linearGradient id="_ÂÁ_Ï_ÌÌ_È_ËÂÌÚ_205" x1="122.08" y1="90.57" x2="111.4" y2="72.08" gradientUnits="userSpaceOnUse"><stop offset="0.29" stop-color="#2a2a35"/><stop offset="0.77" stop-color="#2e2d38"/></linearGradient><linearGradient id="_ÂÁ_Ï_ÌÌ_È_ËÂÌÚ_205-2" x1="2079.51" y1="92.05" x2="2068.83" y2="73.56" gradientTransform="matrix(-1, 0, 0, 1, 2093.93, 0)" xlink:href="#_ÂÁ_Ï_ÌÌ_È_ËÂÌÚ_205"/><linearGradient id="_ÂÁ_Ï_ÌÌ_È_ËÂÌÚ_3-4" x1="2574.57" y1="163.96" x2="2583.03" y2="163.96" gradientTransform="matrix(-0.99, 0.15, 0.15, 0.99, 2618.93, -416.56)" xlink:href="#_ÂÁ_Ï_ÌÌ_È_ËÂÌÚ_3"/><linearGradient id="_ÂÁ_Ï_ÌÌ_È_ËÂÌÚ_7-6" x1="2566.9" y1="100.93" x2="2574.52" y2="100.93" gradientTransform="matrix(-0.99, 0.15, 0.15, 0.99, 2618.93, -416.56)" xlink:href="#_ÂÁ_Ï_ÌÌ_È_ËÂÌÚ_7"/></defs><g class="cls-1"><g id="Layer_1" data-name="Layer 1"><path class="cls-2" d="M98.94,140.54c-5.7,3.29-15,3.27-20.71,0s-5.77-8.67-.07-12,15-3.28,20.72,0S104.65,137.24,98.94,140.54Z"/><ellipse class="cls-2" cx="81.36" cy="137.92" rx="8.46" ry="14.65" transform="translate(-57 218.53) rotate(-89.69)"/><ellipse class="cls-2" cx="132.19" cy="87.54" rx="8.46" ry="14.65" transform="translate(43.93 219.25) rotate(-89.69)"/><ellipse class="cls-2" cx="68.33" cy="99.03" rx="36.06" ry="20.82" transform="translate(-0.54 0.37) rotate(-0.31)"/><path class="cls-3" d="M60.6,99.87h0V99h1.77c.17-.12.35-.23.54-.34a12.28,12.28,0,0,1,11.09,0l.56.36h1.71v.84h0A3.92,3.92,0,0,1,74,103.06a12.24,12.24,0,0,1-11.09,0C61.34,102.2,60.58,101,60.6,99.87Z"/><path class="cls-4" d="M74,102.22a12.21,12.21,0,0,1-11.09,0,4.87,4.87,0,0,1-1.83-1.68c-.83-1.35-.51-2.89,1-4.1a7,7,0,0,1,.89-.63,12.33,12.33,0,0,1,11.1,0C77,97.58,77,100.45,74,102.22Z"/><path class="cls-5" d="M62.94,102a11.94,11.94,0,0,0,10.81,0c3-1.73,3-4.52,0-6.24A11.94,11.94,0,0,0,63,95.8C60,97.53,60,100.32,62.94,102Z"/><path class="cls-6" d="M68.33,96.46v4.1H61.05c-.83-1.35-.51-2.89,1-4.1Z"/><path class="cls-3" d="M65.53,98.89h0v-19h.66l.2-.12a4.54,4.54,0,0,1,4.11,0l.2.13h.64v19h0a1.48,1.48,0,0,1-.86,1.19,4.54,4.54,0,0,1-4.11,0A1.43,1.43,0,0,1,65.53,98.89Z"/><path class="cls-7" d="M65.53,87.62h0v-19h.66a1.37,1.37,0,0,1,.2-.13,4.54,4.54,0,0,1,4.11,0l.2.14h.64v19h0a1.47,1.47,0,0,1-.86,1.18,4.54,4.54,0,0,1-4.11,0A1.45,1.45,0,0,1,65.53,87.62Z"/><path class="cls-8" d="M106.49,5.69s1.44-.75,2.34,0,.52,4.17-.39,6.15c-.82,1.79-.41,5,1.61,5.61-1.41,1.06-4.6-.12-5-2.07S106.49,5.69,106.49,5.69Z"/><path class="cls-9" d="M128.77,25.37c0-5-.63-5.48-1-5S122.63,32.08,122.7,33s2.35.08,2.35.08,2.7-4.25,3-5.9S128.77,25.37,128.77,25.37Z"/><path class="cls-10" d="M120.43,84.83c-.17.25-.28.37-.28.54s0,.49,0,.59.21.82,1.87.85a8.86,8.86,0,0,0,4-.82c.87-.44,1.12-.58,1.12-.58l.07-.13s.1-.17.8-.19.91,0,1,0a.48.48,0,0,0,.28.22,9.67,9.67,0,0,0,2.59-.18,1.79,1.79,0,0,0,1.08-.67c.17-.24.12-.33.12-.33a6.43,6.43,0,0,0-.23-1.33c-.17-.4-.43-.4-.43-.4Z"/><path class="cls-10" d="M138.75,87.73a4.87,4.87,0,0,0-.56,2.09c0,.42,0,.56,0,.73s.54.75,2.14.68a4,4,0,0,0,3.71-2.16,6.68,6.68,0,0,0,.16-1.16c0-.22.1-1.2.11-1.58s.1-1.45.12-1.66a1.62,1.62,0,0,0-.15-.92C144.12,83.5,138.75,87.73,138.75,87.73Z"/><path class="cls-11" d="M126.9,81c-1.44.78-4.22,2-5.07,2.34a2.4,2.4,0,0,0-1.58,2c0,.68.63.81,2,.89A10.5,10.5,0,0,0,127,85c1.2-.69,3.14-.55,4.58-.9s1.08-1.15,1.08-1.15-.33-1.23-.35-1.49-1.21-.34-1.21-.34Z"/><path class="cls-11" d="M139.74,83.32a25.74,25.74,0,0,0-1,3.84c-.3,1.44-.78,2.62.42,3.27s3.1-.17,3.78-.75a5.14,5.14,0,0,0,1.24-2.78c.11-.82,0-1.87.13-2.5a9.64,9.64,0,0,0-.41-2.65Z"/><path class="cls-12" d="M128.26,41.78a27.35,27.35,0,0,0-.77,5s-.22,12.79-.4,19.39-.58,15.23-.58,15.87,3.76,1.87,5.41.43c1.07-10.81,1.16-14.65,1.28-16s2-13.74,1.92-14.1-.06-8.09-.52-8.8S128.26,41.78,128.26,41.78Z"/><path class="cls-12" d="M132,44.67c-.17,1.93-.89,7.53-.23,9.16s2.24,0,3.86,5.31a86.09,86.09,0,0,1,2.6,9.93c.21,1.43,1.25,14.29,1.25,15s4.4,1.16,4.95-.67.09-13.19-.37-16.61-.24-8.49,0-13.77a36.21,36.21,0,0,0-.95-9.9Z"/><path class="cls-13" d="M143.19,43.37a4.6,4.6,0,0,1-2.63,1.36c-1.18.32-5.44,1.65-8.52.58a6.92,6.92,0,0,1-2.79-1.51A4.38,4.38,0,0,1,128.2,42a4.61,4.61,0,0,0-.35,1.6c0,.27.77,1.88,3.74,3.32s10-.41,10.77-.79a5,5,0,0,0,1.22-.82Z"/><path class="cls-14" d="M132,53.19a3.68,3.68,0,0,1-.43,0l-.09,0v-.08a26.14,26.14,0,0,1-.15-3.61,25.14,25.14,0,0,1,.23-3l0-.15,1.63.68v.08a54,54,0,0,1-.26,5.66C132.8,53.12,132.33,53.19,132,53.19Zm-.3-.26c.32,0,.92,0,1-.26a51.84,51.84,0,0,0,.24-5.5l-1.19-.51a25.64,25.64,0,0,0-.2,2.79A25,25,0,0,0,131.67,52.93Z"/><path class="cls-14" d="M139.4,51a4.2,4.2,0,0,1-2.69-.76,2.89,2.89,0,0,1-1-2.34H136a2.65,2.65,0,0,0,.9,2.15c.94.76,2.58.91,4.88.43l0,.24A11.57,11.57,0,0,1,139.4,51Z"/><path class="cls-14" d="M128,47.51a.86.86,0,0,1-.58-.27l.17-.17a.53.53,0,0,0,.52.18c.33-.1.59-.67.7-1.18l.24,0c-.12.57-.42,1.22-.87,1.36A.57.57,0,0,1,128,47.51Z"/><path class="cls-14" d="M130.57,83.18l-.24,0s1.47-13.6,1.78-16.49c.23-2.13,1-9.3,1.71-11.82l.23.06c-.67,2.51-1.47,9.66-1.7,11.79C132,69.59,130.57,83.18,130.57,83.18Z"/><path class="cls-14" d="M144,84h-.24s.15-4.08,0-7.94a63,63,0,0,0-1-8.27c-.09-.51-.17-1-.24-1.48-.18-1.13-.18-4.07-.18-7.47,0-4.6,0-10.33-.47-13.07l.24,0c.49,2.76.49,8.26.48,13.11a72.09,72.09,0,0,0,.17,7.43c.07.48.16,1,.24,1.48a63.25,63.25,0,0,1,1,8.3C144.19,80,144,84,144,84Z"/><path class="cls-15" d="M134.74,18.3a11.39,11.39,0,0,0-4.26.78,12.87,12.87,0,0,0-2.6,1.19c0,.14,1.29,7.67,1,10.42s-1.07,8.7-.62,11.23,4.52,4.25,8.86,3.45,5.68-1.49,6-2.29-.36-5.06-.24-6.95,4.58-13.5,4.06-14-6-4.07-6.39-4.37S134.74,18.3,134.74,18.3Z"/><path class="cls-16" d="M140,11a11.38,11.38,0,0,1-.3,3.8,7.55,7.55,0,0,0,.56,3,.66.66,0,0,1,0,.49,13.62,13.62,0,0,1-3.14,2.09,4,4,0,0,1-3.12-.11,14.23,14.23,0,0,1-.55-2.84Z"/><path class="cls-17" d="M139.76,16.25c.6.26.68.24.84.59a6.65,6.65,0,0,1,.51,1.5,18.43,18.43,0,0,1-2.25,2.72,7.87,7.87,0,0,1-.85.76,9.8,9.8,0,0,1-.71-1.11,2.22,2.22,0,0,1-.25-.88c0-.06,1-.67,1.47-1.06A10.82,10.82,0,0,0,140,17.21Z"/><path class="cls-18" d="M130.35,34.55l0,.08L129.77,37s-.94-.47-1.38-.64-.69-.62-.93-.85-.52-.69-.28-2.43a2.11,2.11,0,0,1,2-1.93.59.59,0,0,1,.3.09,3.72,3.72,0,0,1,.85,1.52A4.24,4.24,0,0,1,130.35,34.55Z"/><path class="cls-19" d="M130.35,34.55l0,.08a1.1,1.1,0,0,1-.27,0,4.33,4.33,0,0,0,0-1.52c0-.12-.42-.75-.42-1.1a3.55,3.55,0,0,0-.14-.82,3.72,3.72,0,0,1,.85,1.52A4.24,4.24,0,0,1,130.35,34.55Z"/><path class="cls-18" d="M132.07,8.25a4.6,4.6,0,0,0-1,3.83,17.63,17.63,0,0,0,1.13,5.1c.7,1.35,1.11,2.24,1.74,2.44s4.21-2.14,4.55-2.85a15.08,15.08,0,0,0,.22-5.08,5.36,5.36,0,0,0-1.6-2.75C136.66,8.47,132.07,8.25,132.07,8.25Z"/><path class="cls-20" d="M132.72,17.77c.15.23.37.44,1.08.65a1.26,1.26,0,0,0,1.16-.21l-1.7-.39Z"/><path class="cls-13" d="M133.73,14c0-.09,0,0,0-.07h.14l.17,0h.36a3.49,3.49,0,0,1,.72.05c.23,0,.46.1.69.12l.69.06v.14l-.7-.07-.69-.08h-.69l-.34,0-.17,0-.08,0h0s0,0-.05-.05Z"/><path class="cls-13" d="M132.74,14.09c-.06.05-.08,0-.11,0l-.09,0-.18-.07-.37-.13c-.24-.08-.49-.18-.73-.28l.05-.13c.25.06.5.14.75.22l.37.12.19.06.09,0s.07,0,.08.07Z"/><path class="cls-21" d="M133,14c.1.79-.58,2.4-.57,2.79s1.1.24,1.1.24Z"/><path class="cls-22" d="M133.07,17.17a1.15,1.15,0,0,1-.67-.15.26.26,0,0,1-.1-.2,4.47,4.47,0,0,1,.21-.89,5.77,5.77,0,0,0,.37-1.89l.16,0a5.6,5.6,0,0,1-.37,2,5.15,5.15,0,0,0-.2.84.08.08,0,0,0,0,.07,1.77,1.77,0,0,0,1,.09l0,.16A2.6,2.6,0,0,1,133.07,17.17Z"/><path class="cls-23" d="M133.55,17.77a2.53,2.53,0,0,1-.5-.15.73.73,0,0,0-.33.15,1.84,1.84,0,0,0,.5.21,3.28,3.28,0,0,0,.44,0c.08,0,.34.08.53.12a4.38,4.38,0,0,0,.73.08c.3,0-.7-.31-1-.37Z"/><path class="cls-18" d="M137.64,19.18c.1.14,0,.4-.23.9a5.19,5.19,0,0,1-.71,1.21,13.61,13.61,0,0,1-1.32,1.77,4.84,4.84,0,0,1-1.51,1.31c-.29.15-.3.24-.64.59s-2.51-1.84-2.29-2.21.14-.5.22-1a7.84,7.84,0,0,1,.42-1.6c.15-.28.65-1.27.65-1.27a3.77,3.77,0,0,0,.08-.61,1.39,1.39,0,0,1,.06-.34c0-.09.13-.12.27,0a1.37,1.37,0,0,1,.36.65,2.82,2.82,0,0,1-.33,1l.49-.29c.23-.14.51-.33.76-.51s2.06-1.31,2.58-1.58a.42.42,0,0,1,.64.3l0,.07a1.48,1.48,0,0,1,.27-.26.46.46,0,0,1,.49-.07l.05,0a.34.34,0,0,1,0,.47s0,0,0,0l0,0a.32.32,0,0,1,.12.29,3.47,3.47,0,0,1-.6.85h0a.16.16,0,0,1,0,.06Z"/><path class="cls-17" d="M132.8,24.16c-1.22-1.33-1.91-1.47-2.08-1.42S122.85,32,122.7,33a2.61,2.61,0,0,0,1.74,2.81c2.07.46,8.58-9.45,8.9-10.12S132.8,24.16,132.8,24.16Z"/><path class="cls-17" d="M146.94,22.11c-1.67-1.32-4.46,2.75-5.43,5.86s-2.33,8.35-1.51,10,1.89,2.34,2.65,1.95,3-6.29,3.72-9.55a42.81,42.81,0,0,0,1-6.47C147.37,22.94,147.4,22.47,146.94,22.11Z"/><path class="cls-17" d="M130.36,34.05a2.52,2.52,0,0,0-1.53,2.35,1.62,1.62,0,0,0,.65,1.71c.27.27,8.75,2.14,13.17,1.79.5-1.12,0-3.48-1.12-4s-2.28-.85-2.28-.85Z"/><path class="cls-24" d="M137.49,19a.16.16,0,0,1,0,.06c-.18.25-1.6,2.38-1.76,2.51S137.49,19,137.49,19Z"/><path class="cls-24" d="M135.87,18.71c-.06,0-1.7,1.47-1.7,1.47l-.2.11.11-.2,1.75-1.46c.65-.54,1.24-.8,1.31-1.08l0,.07a1.48,1.48,0,0,1,.27-.26.46.46,0,0,1,.49-.07l-.22,0c-.2.05-.44.34-.56.45S135.92,18.68,135.87,18.71Z"/><path class="cls-24" d="M138,17.85h0l-.85.89s-1.55,1.58-1.66,1.71l-.4.4a1.47,1.47,0,0,1,.46-.63c.4-.34,1.91-1.9,2.42-2.4Z"/><path class="cls-24" d="M133.16,19.34l-.1.1a6.22,6.22,0,0,0-.56.52c-.12.12-.58.75-.64.83l.27-.63a5.12,5.12,0,0,1,.52-.83,1.24,1.24,0,0,0,.13-.7c0-.26-.18-.65-.41-.67,0-.09.13-.12.27,0a1.37,1.37,0,0,1,.36.65,2.82,2.82,0,0,1-.33,1Z"/><path class="cls-25" d="M135.25,14.61a.3.3,0,1,1-.29-.29A.29.29,0,0,1,135.25,14.61Z"/><path class="cls-25" d="M132.2,14c.11.12.13.29,0,.36a.26.26,0,0,1-.36-.08.27.27,0,0,1,0-.36A.27.27,0,0,1,132.2,14Z"/><path class="cls-18" d="M129.2,31.14a.59.59,0,0,1,.3.09Z"/><path class="cls-13" d="M138.77,13.58l-.63.28s-.33-.94-.83-1-.61-.24-.69-.45-.2-1.79-.46-1.81a18.24,18.24,0,0,1-2.49.34c-1,0-2.44-.11-2.44-.11l-.14,1L131,12a3.83,3.83,0,0,1-.25-2.35A5,5,0,0,1,133.41,6c1.67-1,3.3-1,4.31-.18,1.25,0,2.53.66,2.75,1.62a23.44,23.44,0,0,1-.21,5.88c-.27.58,0-1.06-.63-1.06a.76.76,0,0,0-.84.71A2.41,2.41,0,0,0,138.77,13.58Z"/><path class="cls-18" d="M139,13a1.08,1.08,0,0,1,.95-.95c.16,0,.59.11.38.84s-.44,1.39-.49,1.56a.58.58,0,0,1-.67.42c-.37-.11-.14-.75-.17-1A9.16,9.16,0,0,1,139,13Z"/><path class="cls-26" d="M139.18,12.87a.89.89,0,0,1,.67-.5c.21,0,.42.1.34.45a2.88,2.88,0,0,1-.49,1.24c-.31.33-.63.14-.59-.21S139,13.14,139.18,12.87Z"/><path class="cls-27" d="M132.85,47.49a1.4,1.4,0,0,1-.34-.05l-.8-.24a1.66,1.66,0,0,1-1.15-1.51,1,1,0,0,1,.38-.8,1,1,0,0,1,.92-.13l.8.24a1.66,1.66,0,0,1,1.15,1.5,1,1,0,0,1-.38.81A1,1,0,0,1,132.85,47.49Zm-1-.78.8.24a.54.54,0,0,0,.46-.05.5.5,0,0,0,.17-.4,1.13,1.13,0,0,0-.78-1l-.8-.24a.48.48,0,0,0-.46,0,.46.46,0,0,0-.17.39,1.15,1.15,0,0,0,.78,1Z"/><path class="cls-2" d="M28.63,65.38c-6.52-3.76-17.13-3.74-23.69,0s-6.59,9.91-.07,13.68,17.12,3.74,23.68,0S35.15,69.14,28.63,65.38Z"/><path class="cls-28" d="M19.32,61.85a.55.55,0,0,1,.55-.05h0l.7.32-.83,2.26L19,64h0a.72.72,0,0,1-.35-.62A1.74,1.74,0,0,1,19.32,61.85Z"/><path class="cls-29" d="M20,62.17c.44-.27.84,0,.89.57a1.74,1.74,0,0,1-.69,1.54c-.44.27-.84,0-.89-.56A1.74,1.74,0,0,1,20,62.17Z"/><path class="cls-28" d="M3.38,76.49a2,2,0,0,1,.91-1.57.65.65,0,0,1,.65-.07h0l.82.53L4.42,77.56l-.77-.49h0A.64.64,0,0,1,3.38,76.49Z"/><path class="cls-29" d="M4.18,77c0,.57.41.81.91.52A2,2,0,0,0,6,76c0-.58-.4-.81-.91-.52A2,2,0,0,0,4.18,77Z"/><path class="cls-28" d="M30.48,71.41a1.05,1.05,0,0,1,2.1-.06h0V72h-.17a1,1,0,0,1-1.75,0h-.18Z"/><path class="cls-29" d="M30.48,72a1.05,1.05,0,1,0,1.05-1A1,1,0,0,0,30.48,72Z"/><path class="cls-28" d="M4.09,65.43h0a.65.65,0,0,1,.65.07,2,2,0,0,1,.9,1.57.63.63,0,0,1-.24.56h0l-.73.52L3.38,65.93Z"/><path class="cls-29" d="M3.1,66.52A2,2,0,0,0,4,68.09c.5.29.91.06.91-.52A2,2,0,0,0,4,66C3.51,65.71,3.1,66,3.1,66.52Z"/><path class="cls-28" d="M20.56,78.49h0s.07,0,.11.14a6.85,6.85,0,0,1,.19,1.62c0,.4,0,.62-.1.61h0L19.59,81l-.21-2.38Z"/><path class="cls-29" d="M19.47,78.77a6.25,6.25,0,0,1,.2,1.62c0,.57-.08.78-.19.46a6.25,6.25,0,0,1-.2-1.62C19.28,78.66,19.37,78.45,19.47,78.77Z"/><polygon class="cls-3" points="17.11 68.85 8.18 71.5 8.32 71.4 4.14 75.7 3.56 75.13 7.75 70.84 7.8 70.79 7.9 70.74 16.38 66.88 17.11 68.85"/><polygon class="cls-3" points="16.37 68.86 7.87 64.95 8.11 64.96 3.91 66.11 3.7 65.33 7.9 64.18 8.01 64.15 8.15 64.19 17.12 66.86 16.37 68.86"/><polygon class="cls-3" points="15.74 67.48 18.62 61.86 18.74 61.62 18.96 61.6 20.04 61.52 20.11 62.32 19.02 62.41 19.37 62.15 17.75 68.25 15.74 67.48"/><polygon class="cls-3" points="16.75 66.73 27.15 67.48 27.27 67.48 27.35 67.53 32.35 70.26 31.96 70.97 26.96 68.23 27.15 68.28 16.75 69 16.75 66.73"/><polygon class="cls-3" points="17.86 67.42 19.81 73.44 19.84 73.55 19.85 73.57 20.57 79.2 19.78 79.36 18.27 73.89 18.31 74.02 15.64 68.3 17.86 67.42"/><path class="cls-3" d="M14.77,69.28a4.37,4.37,0,0,0,3.94,0,1.2,1.2,0,0,0,0-2.28,4.37,4.37,0,0,0-3.94,0A1.21,1.21,0,0,0,14.77,69.28Z"/><path class="cls-5" d="M14.77,68.26a4.34,4.34,0,0,0,3.94,0,1.2,1.2,0,0,0,0-2.28,4.37,4.37,0,0,0-3.94,0A1.2,1.2,0,0,0,14.77,68.26Z"/><path class="cls-28" d="M14.94,66.88h0V63.82h.41l.12-.07a2.85,2.85,0,0,1,2.56,0l.13.08h.39v3.06h0a.9.9,0,0,1-.53.74,2.8,2.8,0,0,1-2.55,0A.88.88,0,0,1,14.94,66.88Z"/><path class="cls-29" d="M15.47,64.56a2.8,2.8,0,0,0,2.55,0,.78.78,0,0,0,0-1.48,2.85,2.85,0,0,0-2.56,0C14.77,63.5,14.76,64.16,15.47,64.56Z"/><path class="cls-3" d="M15.22,63.58h0v-4.5h.35l.1-.07a2.41,2.41,0,0,1,2.16,0l.11.07h.33v4.5h0a.75.75,0,0,1-.45.62,2.36,2.36,0,0,1-2.15,0A.76.76,0,0,1,15.22,63.58Z"/><path class="cls-5" d="M15.67,59.7a2.33,2.33,0,0,0,2.15,0,.65.65,0,0,0,0-1.24,2.41,2.41,0,0,0-2.16,0C15.08,58.81,15.07,59.36,15.67,59.7Z"/><path class="cls-3" d="M23.06,46.14l-.82-.26c.13-.44,1.34-4.29,2.43-5.17s6.65,1.74,9.87,3.37l-.39.78C30.38,43,25.88,41.07,25.2,41.4,24.55,41.93,23.54,44.59,23.06,46.14Z"/><path class="cls-30" d="M22,21.84S19.4,20,17.89,20.47c-1.54.25-12.83,7.65-12.28,9.72,1,3.62.16,3.65-.32,25.25a6,6,0,0,0,2.78,3.27c2.3,1.4,6.8-4.14,6.8-4.14Z"/><path class="cls-30" d="M8.1,55.38,20.81,48.2c.83-.48,1.44-1.82,1.43-1L20.6,24.61c-.16-3.12-2.27-4.53-3.1-4.05L4.79,27.75a3.38,3.38,0,0,0-1.35,3l.7,6.92.59.81.56,6.89c.36,2.15,0,2.75,0,4.93l0,5.17C5.37,56.59,7.27,55.86,8.1,55.38Z"/><polygon class="cls-30" points="5.72 45.79 21.45 36.86 21.37 29.05 4.79 37.53 5.72 45.79"/><polygon class="cls-30" points="8.4 48.35 22.05 40.45 21.45 36.86 5.72 45.79 8.4 48.35"/><path class="cls-29" d="M7.3,38.44,23,29.51c2-1.36-.09-6.44-.09-6.44-.72-1.6-1.58-1.67-2.41-1.19L7.28,29.36c-.83.48,0,1.51.19,2.72A20,20,0,0,1,7.3,38.44Z"/><path class="cls-31" d="M7.39,46.25l15.73-8.93S25,32.67,23,29.52L7.3,38.44C9.22,41.54,7.44,46.12,7.39,46.25Z"/><path class="cls-32" d="M23.12,37.32h0c1.33,3.55,1.66,4.42,1.16,8.18L24,47.71,8.25,56.64l.29-2.21c.51-3.76.18-4.63-1.16-8.18h0Z"/><path class="cls-33" d="M23.12,37.32s.18.8-5.78,4.14-9.79,5.07-9.79,5.07l-.16-.28Z"/><path class="cls-34" d="M8.25,56.64s-.18-.8,5.78-4.15,9.79-5.06,9.79-5.06l.16.28Z"/><path class="cls-33" d="M7.85,58.2h0a.94.94,0,0,0,.56.77l9.49,5.48a4.66,4.66,0,0,0,1.76.55A4.84,4.84,0,0,0,21,65a3.1,3.1,0,0,0,1.1-.36l13.58-7.87a1.24,1.24,0,0,0,.72-1,14.45,14.45,0,0,0,0-3,2.4,2.4,0,0,0-.22-.7,1.78,1.78,0,0,0-.47-.59h0a7.31,7.31,0,0,0-1.13-.7,34.5,34.5,0,0,0-7.88-2.85,14,14,0,0,0-2.7-.21L9.07,56.15l-1,.54A8,8,0,0,0,7.85,58.2Z"/><path class="cls-34" d="M8.1,56.69l.13-.18a18.53,18.53,0,0,1,2.66.22,34.32,34.32,0,0,1,7.88,2.85,6.18,6.18,0,0,1,1.19.75h0a2.53,2.53,0,0,0,1.88.3c.47-.08,12.75-7.16,13.85-7.84.42-.26.51-.52.47-.73a2.4,2.4,0,0,1,.22.7,14.45,14.45,0,0,1,0,3,1.24,1.24,0,0,1-.72,1L22.08,64.63a3.27,3.27,0,0,1-1.37.39h-.16a4.43,4.43,0,0,1-.89,0,4.66,4.66,0,0,1-1.76-.55L8.41,59a.94.94,0,0,1-.56-.77h0A8,8,0,0,1,8.1,56.69Z"/><path class="cls-34" d="M24.37,38.8l1.2.37a1.78,1.78,0,0,1,1.05.17l1.18.53c3.47,1.11,8.35,2.74,8.41,3.1a4.54,4.54,0,0,1,0,1.09v0h0a.78.78,0,0,1-.43.5,2,2,0,0,1-1.83.08l-9.27-4.22a.61.61,0,0,1-.28-.3.36.36,0,0,1,0-.09A1.91,1.91,0,0,1,24.37,38.8Z"/><path class="cls-29" d="M35.89,42.49l-9.27-4.22a2,2,0,0,0-1.83.07h0c-.54.31-.6.79-.13,1.06l9.27,4.22a2,2,0,0,0,1.83-.08C36.3,43.23,36.36,42.76,35.89,42.49Z"/><path class="cls-18" d="M32,50.51c-.43,5.93.14,6.46-1.71,8.84s-5.45,6.57-5.45,10a10.83,10.83,0,0,0,1,5.38c.55,1.56.74,2.38.06,3.23s-3-.45-3.52-.93-.81-2.75-1.08-3.42a5.69,5.69,0,0,1-.75-2.3,3.78,3.78,0,0,1,.62-2.51,4.38,4.38,0,0,0,.8-1.64c.24-.94.49-5.24,1.45-7.27s1.57-1.81,2.12-4.15a44.39,44.39,0,0,0,.72-6.33Z"/><path class="cls-18" d="M34.28,52.17c-.18,5.16-2.84,17.22-2.81,19a3.94,3.94,0,0,0,.81,2.64,22.9,22.9,0,0,0,3.13,2.61,1.68,1.68,0,0,1,.4,2c-.61,1.12-2,.77-2.74.1a23.59,23.59,0,0,0-3.13-2.57c-.76-.38-2.45-.53-2.9-1.74a2.35,2.35,0,0,1,.58-2.3,4.81,4.81,0,0,0,.54-2.29c0-1.32.11-7.89.44-10.92S31.26,51,31.26,51Z"/><path class="cls-35" d="M33.17,76.85c1-.12,1.29-.21,1.28-.7s-1-1.28-1-1.28.52.32.84.47a7.07,7.07,0,0,1,2,2c.64,1,.58,1.26.31,1.72s-.92.85-2.66.28a5,5,0,0,1-2.8-1.7,6.63,6.63,0,0,0-1.79-1.47,4.29,4.29,0,0,0-.89-.18,7.29,7.29,0,0,1-1.5-.85A3.63,3.63,0,0,1,26.71,74c.06-.31-.11-.71.12-1.13a1.83,1.83,0,0,1,.6-.74c.3-.23-.21,1,.7,1.78a9.91,9.91,0,0,0,2.88,2C32.13,76.33,33.17,76.85,33.17,76.85Z"/><path class="cls-35" d="M26,74.77c.31.94,1.06,2.27.22,3.54s-4-.45-4.63-2A5.53,5.53,0,0,1,21.06,74c-.13-.89-.6-1.4-.6-1.92A6.07,6.07,0,0,1,20.53,70c.25-.45.18,0,.18,0a11.3,11.3,0,0,0,1,3.38c.65,1,1.82,2,2.51,1.94s1.28-.45,1.19-1.09-.19-2-.19-2a1.87,1.87,0,0,1,.23.37C25.49,72.89,26,74.77,26,74.77Z"/><path class="cls-12" d="M39.52,30.18c.86,1.36,1.2,2.06,1.16,2.93s-1,8.1-1.26,9.61S37,52.77,36.88,54.46C35.82,57,34.62,57,34,57.19a13.8,13.8,0,0,1-5.59,1.47c-2.75,0-4.3-.84-5-3.83s0-5,0-7.63-.79-6.29-.18-10.1,2.19-6.43,3.88-7.84a8.56,8.56,0,0,1,5.32-1.69C33.56,27.64,39.52,30.18,39.52,30.18Z"/><path class="cls-17" d="M42,12.33c1.24-.43,2.22,1,2.81,2.54a70.67,70.67,0,0,1,2.67,9.92c.83,4.29-3,4.09-4.17,1.89S40.13,13,42,12.33Z"/><path class="cls-15" d="M39.85,11.09c1.54.41,3.1.74,3.76,2.08s1,6.23,1,9-1.46,4.39-2.39,6-1.58,3.44-2,4-2.5,1.05-4.43,1-5.54-1.3-6.17-2-1.1-8.25-1.1-8.25-1.72-6.44-1.16-7.39a8.65,8.65,0,0,1,3.1-2.84c1.19-.59,2.46-1.82,3.58-2.24S39.85,11.09,39.85,11.09Z"/><path class="cls-36" d="M24.57,57.33l-.2-.13c.65-1,1.06-5.4,1-8.41a76.94,76.94,0,0,1,.51-8.21c.05-.46.09-.83.11-1.09A25.38,25.38,0,0,1,28.09,34c.36-.78.7-1.51.95-2.09l.22.1c-.24.58-.59,1.31-1,2.09a26.7,26.7,0,0,0-2.12,5.38c0,.26-.06.64-.1,1.09a71.79,71.79,0,0,0-.51,8.18C25.66,51.52,25.31,56.21,24.57,57.33Z"/><path class="cls-3" d="M6.8,55.26c-.32.23-.64-.25-.64-.51a3.08,3.08,0,0,1,.26-.93c.18-.5.37-1,.57-1.48a6.23,6.23,0,0,1,1.46-2.45c.4-.33,1.13-.15,1.58-.06a16.79,16.79,0,0,1,2.66.85c1.13.44,2.24.94,3.34,1.46l1.57.76c.13.07.64.23.7.36s-.43.58-.62.59-.66-.26-.92-.39c-.68-.33-1.36-.65-2.05-1C13.49,52,12.26,51.43,11,51a9.69,9.69,0,0,0-1.3-.38,1.18,1.18,0,0,0-.72,0c-.25.11-.46.59-.58.82a13.09,13.09,0,0,0-.63,1.37c-.22.51-.41,1-.6,1.57l-.24.71A.42.42,0,0,1,6.8,55.26Z"/><path class="cls-34" d="M8.3,47.58,9.5,48a1.78,1.78,0,0,1,1.05.17l1.18.53c3.48,1.11,8.36,2.73,8.41,3.1a4.06,4.06,0,0,1,0,1.09v0h0a.75.75,0,0,1-.43.5,2,2,0,0,1-1.83.08L8.59,49.25a.66.66,0,0,1-.28-.3l0-.09A1.91,1.91,0,0,1,8.3,47.58Z"/><path class="cls-29" d="M19.82,51.27l-9.27-4.22a2,2,0,0,0-1.83.07h0c-.54.31-.6.79-.13,1.06l9.27,4.22a2,2,0,0,0,1.83-.08C20.23,52,20.29,51.54,19.82,51.27Z"/><path class="cls-2" d="M96.47,61.39c6.52-3.77,17.12-3.75,23.68,0s6.59,9.91.07,13.67-17.12,3.75-23.68,0S90,65.15,96.47,61.39Z"/><path class="cls-28" d="M105.77,57.86a.53.53,0,0,0-.55-.06h0l-.7.32.83,2.25.77-.34h0a.75.75,0,0,0,.35-.62A1.76,1.76,0,0,0,105.77,57.86Z"/><path class="cls-29" d="M105.07,58.17c-.43-.27-.84,0-.89.57a1.74,1.74,0,0,0,.69,1.55c.44.27.84,0,.9-.57A1.79,1.79,0,0,0,105.07,58.17Z"/><path class="cls-28" d="M121.71,72.49a2,2,0,0,0-.91-1.57.63.63,0,0,0-.64-.06h0l-.82.53,1.34,2.18.77-.5h0A.61.61,0,0,0,121.71,72.49Z"/><path class="cls-29" d="M120.91,73c0,.58-.41.81-.91.52a2,2,0,0,1-.91-1.57c0-.57.41-.81.91-.52A2,2,0,0,1,120.91,73Z"/><path class="cls-28" d="M94.61,67.42a1,1,0,0,0-1-1,1,1,0,0,0-1,1h0V68h.17a1.06,1.06,0,0,0,.88.47,1,1,0,0,0,.87-.47h.18Z"/><path class="cls-29" d="M94.61,68a1,1,0,1,1-1-1A1,1,0,0,1,94.61,68Z"/><path class="cls-28" d="M121,61.44h0a.63.63,0,0,0-.64.06,2,2,0,0,0-.91,1.57.65.65,0,0,0,.24.57h0l.74.51,1.28-2.21Z"/><path class="cls-29" d="M122,62.53a2,2,0,0,1-.91,1.57c-.5.29-.91.05-.91-.52a2,2,0,0,1,.91-1.57C121.58,61.72,122,62,122,62.53Z"/><path class="cls-28" d="M104.53,74.49h0s-.07,0-.1.15a6.25,6.25,0,0,0-.2,1.62c0,.4,0,.62.1.61h0l1.18.14.2-2.39Z"/><path class="cls-29" d="M105.62,74.77a6.31,6.31,0,0,0-.2,1.62c0,.58.09.79.19.47a6.31,6.31,0,0,0,.2-1.62C105.81,74.66,105.73,74.45,105.62,74.77Z"/><polygon class="cls-3" points="107.98 64.85 116.92 67.5 116.77 67.41 120.96 71.7 121.53 71.14 117.34 66.84 117.29 66.79 117.2 66.75 108.71 62.88 107.98 64.85"/><polygon class="cls-3" points="108.72 64.87 117.23 60.95 116.98 60.97 121.18 62.11 121.39 61.34 117.19 60.19 117.08 60.16 116.94 60.2 107.97 62.87 108.72 64.87"/><polygon class="cls-3" points="109.35 63.48 106.48 57.87 106.35 57.63 106.13 57.61 105.05 57.52 104.99 58.33 106.07 58.41 105.72 58.16 107.34 64.25 109.35 63.48"/><polygon class="cls-3" points="108.34 62.74 97.94 63.48 97.82 63.49 97.75 63.53 92.74 66.27 93.13 66.97 98.13 64.24 97.94 64.28 108.35 65 108.34 62.74"/><polygon class="cls-3" points="107.23 63.43 105.29 69.44 105.25 69.56 105.25 69.58 104.53 75.21 105.31 75.36 106.82 69.89 106.78 70.03 109.46 64.31 107.23 63.43"/><path class="cls-3" d="M110.32,65.28a4.34,4.34,0,0,1-3.94,0,1.2,1.2,0,0,1,0-2.27,4.34,4.34,0,0,1,3.94,0C111.4,63.64,111.41,64.65,110.32,65.28Z"/><path class="cls-5" d="M110.32,64.27a4.37,4.37,0,0,1-3.94,0,1.2,1.2,0,0,1,0-2.27,4.37,4.37,0,0,1,3.94,0A1.2,1.2,0,0,1,110.32,64.27Z"/><path class="cls-28" d="M110.15,62.89h0V59.83h-.41l-.12-.08a2.82,2.82,0,0,0-2.56,0l-.13.08h-.39v3.06h0a.89.89,0,0,0,.53.73,2.82,2.82,0,0,0,2.56,0A.87.87,0,0,0,110.15,62.89Z"/><path class="cls-29" d="M109.63,60.57a2.85,2.85,0,0,1-2.56,0,.78.78,0,0,1,0-1.48,2.85,2.85,0,0,1,2.56,0A.78.78,0,0,1,109.63,60.57Z"/><path class="cls-3" d="M109.87,59.59h0v-4.5h-.35l-.1-.07a2.36,2.36,0,0,0-2.15,0,.41.41,0,0,0-.11.07h-.34v4.5h0a.8.8,0,0,0,.45.62,2.41,2.41,0,0,0,2.16,0A.77.77,0,0,0,109.87,59.59Z"/><path class="cls-5" d="M109.43,55.71a2.41,2.41,0,0,1-2.16,0c-.59-.35-.6-.91,0-1.25a2.36,2.36,0,0,1,2.15,0A.65.65,0,0,1,109.43,55.71Z"/><path class="cls-3" d="M102,42.14l.83-.25c-.14-.44-1.34-4.29-2.44-5.17s-6.65,1.74-9.87,3.37l.39.77c3.77-1.91,8.27-3.78,9-3.46C100.55,37.93,101.55,40.59,102,42.14Z"/><path class="cls-30" d="M103.05,17.85s2.64-1.82,4.16-1.37c1.53.24,12.82,7.64,12.27,9.72-1,3.62-.16,3.64.32,25.24A6,6,0,0,1,117,54.71c-2.31,1.41-6.81-4.14-6.81-4.14Z"/><path class="cls-30" d="M117,51.39,104.28,44.2c-.83-.48-1.44-1.82-1.43-1l1.64-22.57c.16-3.11,2.27-4.52,3.1-4l12.71,7.18a3.42,3.42,0,0,1,1.36,3l-.7,6.92-.6.8-.56,6.89c-.36,2.16,0,2.75,0,4.94l0,5.16C119.72,52.6,117.82,51.87,117,51.39Z"/><polygon class="cls-30" points="119.37 41.79 103.64 32.86 103.73 25.06 120.31 33.53 119.37 41.79"/><polygon class="cls-30" points="116.7 44.35 103.05 36.45 103.64 32.86 119.37 41.79 116.7 44.35"/><path class="cls-29" d="M117.79,34.45l-15.73-8.93c-2-1.36.09-6.45.09-6.45.72-1.6,1.59-1.66,2.42-1.18l13.25,7.47c.83.48,0,1.51-.2,2.73A20,20,0,0,0,117.79,34.45Z"/><path class="cls-31" d="M117.71,42.25,102,33.32s-1.87-4.65.08-7.8l15.73,8.93C115.88,37.54,117.66,42.12,117.71,42.25Z"/><path class="cls-32" d="M102,33.32h0c-1.34,3.56-1.67,4.42-1.16,8.19l.29,2.2,15.73,8.93-.29-2.2c-.5-3.77-.18-4.63,1.16-8.19h0Z"/><path class="cls-33" d="M102,33.32s-.18.8,5.78,4.15,9.79,5.06,9.79,5.06l.17-.28Z"/><path class="cls-34" d="M116.84,52.64s.18-.8-5.77-4.15-9.8-5.06-9.8-5.06l-.16.28Z"/><path class="cls-33" d="M117.24,54.2v0a.93.93,0,0,1-.56.76l-9.48,5.48a4.77,4.77,0,0,1-1.77.56,5.28,5.28,0,0,1-1.32,0,3.26,3.26,0,0,1-1.09-.37L89.43,52.77a1.25,1.25,0,0,1-.72-1,14.45,14.45,0,0,1,0-3,2.48,2.48,0,0,1,.22-.71,1.77,1.77,0,0,1,.47-.58h0a7.43,7.43,0,0,1,1.12-.7,34.59,34.59,0,0,1,7.89-2.85,15.35,15.35,0,0,1,2.69-.21L116,52.16l1,.54A7.89,7.89,0,0,1,117.24,54.2Z"/><path class="cls-34" d="M117,52.7l-.13-.18a17.38,17.38,0,0,0-2.66.21,34.5,34.5,0,0,0-7.88,2.85,6.58,6.58,0,0,0-1.18.75h0a2.45,2.45,0,0,1-1.87.3c-.47-.07-12.76-7.16-13.85-7.84-.42-.26-.52-.51-.48-.73a2.48,2.48,0,0,0-.22.71,14.45,14.45,0,0,0,0,3,1.25,1.25,0,0,0,.72,1L103,60.63a3.34,3.34,0,0,0,1.36.4h.16a5.32,5.32,0,0,0,.89,0,4.77,4.77,0,0,0,1.77-.56L116.68,55a.93.93,0,0,0,.56-.76v0A7.89,7.89,0,0,0,117,52.7Z"/><path class="cls-34" d="M100.73,34.8l-1.21.38a1.84,1.84,0,0,0-1,.16l-1.18.54C93.82,37,88.94,38.61,88.89,39a4.11,4.11,0,0,0,0,1.08v0h0a.85.85,0,0,0,.43.51,2.08,2.08,0,0,0,1.83.08l9.28-4.23a.57.57,0,0,0,.27-.29.3.3,0,0,0,0-.1A2,2,0,0,0,100.73,34.8Z"/><path class="cls-29" d="M89.2,38.49l9.28-4.22a2,2,0,0,1,1.82.08h0c.54.31.6.78.14,1l-9.28,4.22a2,2,0,0,1-1.83-.07C88.79,39.24,88.73,38.76,89.2,38.49Z"/><path class="cls-37" d="M88.2,65.91s1.69,1.14,1.56,2S87.15,74,85.61,74.71c-3.19,1.56-2.76-1.58-2.28-2.27s2.18-2.35,2-3.79C85.06,66.72,88.2,65.91,88.2,65.91Z"/><path class="cls-38" d="M89.77,66.64a30.88,30.88,0,0,0-2.59,4.8c-.68,1.86-1.55,2.68-2.27,2.73-1.13.09-1.94-.52-1.76-1.12l.18-.61s-2.54,3.36-2,5.23,5.34-1.35,6-2.42c.25-.41.52-3.23,1.09-4.09s1.64-.64,1.88-2.29S89.77,66.64,89.77,66.64Z"/><path class="cls-39" d="M88.57,70.76c-.57.86-1.1,3.85-1.35,4.26-.61,1-4.79,3.79-5.85,2.61,0,0,0,0,0,0,.59,1.86,5.34-1.35,6-2.42.25-.41.52-3.23,1.09-4.09s1.69-.66,1.83-2A9.59,9.59,0,0,0,88.57,70.76Z"/><path class="cls-39" d="M91.26,71.56s.81-.28.82.15,0,3.1,0,3.1a.38.38,0,0,0,.4.08c.21-.1.51-.61.51-.61s.22-2.63.18-3.29S91.26,71.56,91.26,71.56Z"/><path class="cls-40" d="M91.32,67.79A3.28,3.28,0,0,1,92.62,70c0,1.26-1.33,6.41-2.91,7.06s-3.22-.32-3.12-1S88,73,88.33,71.16,91.32,67.79,91.32,67.79Z"/><path class="cls-38" d="M88.3,70.42a32.71,32.71,0,0,0-1.58,3.89c-1,3.42-.88,4.89-.6,5.68s2.68,0,4.34-1.5c1.9-1.7,1-3.59,2.09-5.6a3.93,3.93,0,0,0,.63-2.64A2.07,2.07,0,0,0,92,68.48a3,3,0,0,1,.5,2.37,11.93,11.93,0,0,1-.43,1.49c-.63,1.39-.69,2.73-1.64,3.75s-3.66.52-3.61,0A22.44,22.44,0,0,1,88,72.34,5,5,0,0,0,88.3,70.42Z"/><path class="cls-39" d="M92.46,72.75c-1.12,2-.13,3.77-2,5.47-1.53,1.37-3.83,2.24-4.35,1.65l.05.12c.29.83,2.68,0,4.34-1.5,1.9-1.7,1-3.59,2.09-5.6a3,3,0,0,0,.61-1.67C93,71.67,92.64,72.43,92.46,72.75Z"/><path class="cls-41" d="M98.7,34.12S83.23,47.26,83.23,49.31s1.94,18,1.83,19.22,3.34.78,3.6-.43,1.5-13.42,1.5-13.42l18.22-14.1Z"/><path class="cls-42" d="M90.16,54.68s-1.25,12.2-1.5,13.42c-.1.5-.77.88-1.49,1.05,0-1.61-.43-5.36-.73-7.5-.5-3.42,1-7.42,1-8.71.19-3.06,8.15-6.45,8.15-6.45s.45,1.24,1.08,3.13Z"/><path class="cls-41" d="M92.29,69.27s2.87-11.62,2.37-12.66-.08-1.16-.08-1.16,1.34-.79,6.38-1.58c4.91-1.28,9.15-3.7,10.32-5.33,2.21-3.08,1-7.27.51-8.42s-8.68,0-10.18,1.51S87.58,49,87.93,53.21a143.9,143.9,0,0,1,.54,16.63C90.25,72,92.29,69.27,92.29,69.27Z"/><path class="cls-43" d="M111.28,48.54c-1.17,1.63-5.4,4.05-10.32,5.33-5,.79-6.38,1.58-6.38,1.58s-.42.13.08,1.16-2.37,12.66-2.37,12.66a4,4,0,0,1-.39.43c.37-2.39,2.08-13.06,2-15.07,11.62-2.1,16.63-5.84,17.41-10a9.26,9.26,0,0,0-.07-4.13,5.52,5.52,0,0,0-.25-.78,5.15,5.15,0,0,0-.74-1.36s-.51.58-1.27,1.28a12.83,12.83,0,0,1-2.64,1.9c-.28.14-.61.3-1,.49-2.1,1.1-5.05,2.79-5.05,2.79l-1.1-.54,4.28-2.51,0,0,1-1.42,3.58-4.93a29.19,29.19,0,0,0-1.53-4c-.92-1.89-1.42-6.71-1.42-6.71a7.79,7.79,0,0,1,4.42-.44c.06,3.18.2,7.13.63,8.45.72,2.27.85,5.49,1.29,6.91a1.19,1.19,0,0,1,0,.26.51.51,0,0,1,.24.21C112.32,41.27,113.5,45.46,111.28,48.54Z"/><path class="cls-44" d="M100.59,15s-2.65-1.31-3.78,2.63A139.67,139.67,0,0,0,94.88,32.2c.08.85,2.25.1,2.53-1.37S100.59,15,100.59,15Z"/><path class="cls-45" d="M100.85,15a3.71,3.71,0,0,0-3.18,2.71A43.59,43.59,0,0,1,96,22.62c-.65,1.3-.89,2.69-.44,5.27s.61,9.93.61,9.93,1,2.09,5,1.76,7.64-.87,8-1.78.64-8.37.85-10.11,4-6.08,3.68-6.73-4.26-3.36-4.6-3.51a33.88,33.88,0,0,0-4.44-2.26A6.42,6.42,0,0,0,100.85,15Z"/><path class="cls-18" d="M97.2,41.64a25.34,25.34,0,0,0-2.78-.22,7.62,7.62,0,0,0-1.59,1c-.24.24-.72.64-.72.64l-.6.27s-.2.36-.11.4a.18.18,0,0,1,.1.14s-1.5,1.3-1.65,1.51-.2.32-.11.47A.26.26,0,0,0,90,46s-.34.35-.34.61S90,47,90,47l.57-.16a.81.81,0,0,0,0,.31c0,.19.06.42.28.42a17.44,17.44,0,0,0,2-.89l.87-.44s-.79.59-1,.69-.6.32-.68.52,0,.34.46.28a25,25,0,0,0,2.73-1.21,21.66,21.66,0,0,0,2.35-1.2,6.39,6.39,0,0,0,1-.92l.56-2Z"/><path class="cls-44" d="M109.6,36.38a2.92,2.92,0,0,0-1.29.13c-.57.23-10.81,5.25-10.81,5.25a19.6,19.6,0,0,0,.83,2.79c.35.69,2.59-.19,2.59-.19S111.61,40,112.06,37.9,109.6,36.38,109.6,36.38Z"/><path class="cls-24" d="M93.59,43.42l-1.87,1.13c-.22.13-1.84,1.39-1.84,1.39v.12l1.93-1.38,1.65-1Z"/><path class="cls-24" d="M94.2,44.55,92,45.74l-2,1.18h.43s1-.66,1.54-1,1.42-.85,1.42-.85Z"/><polygon class="cls-24" points="94.35 41.8 93.32 42.62 91.5 43.84 91.4 43.7 92.35 43.12 93.35 42.41 94.35 41.8"/><path class="cls-24" d="M92.28,47.12s1.61-.83,1.79-1,1.18-.78,1.18-.78l-.77.22-1.81,1.1-1.06.51Z"/><path class="cls-44" d="M99.78,38.12s-2.48-6.55-2.51-6.86-2.3-.18-2.38.55a9.3,9.3,0,0,0,.63,4,38.81,38.81,0,0,0,1.72,3.54S99.79,38.88,99.78,38.12Z"/><path class="cls-18" d="M98.35,38s-.95.36-1,.84-.29.72-.29.93-.49,1.26-.47,1.47.45,1.57.45,1.57,1,.8,1.29,1,.47.15.47,0v-.25A11.28,11.28,0,0,0,100,45c.15,0,.55-.27.47-.49s.31.8.55.8.59-.16.56-.41a.73.73,0,0,0-.2-.41s.57.23.55-.42a11.79,11.79,0,0,0-1-2.61s-.37-1.1-.37-1.2v-.49l.22.36a1.86,1.86,0,0,0,.59,1.28c.54.36.69-.19.69-.19l-.29-.9a5,5,0,0,0-.13-1.11,5.34,5.34,0,0,0-1.26-.79c-.15-.05-.47-.2-.47-.2l-.46-.28Z"/><path class="cls-44" d="M112.13,20.94a4.63,4.63,0,0,0-2.33,2.92c-.46,2-1.49,12-1.49,12.65s3.2,2.4,4,1.14,2.42-9.25,2.53-11.88-.46-4.09-1.13-4.81S112.13,20.94,112.13,20.94Z"/><path class="cls-24" d="M97.32,41.27a7.63,7.63,0,0,0,.35,1.2c.11.1,1.1,1.15,1.1,1.15l.09.05s-.94-1.06-1-1.2S97.32,41.27,97.32,41.27Z"/><path class="cls-24" d="M98.13,41.07s1.08,1.86,1.2,2,1.11,1.6,1.11,1.6v-.15L99,42.1Z"/><path class="cls-24" d="M99.29,40.56l1.23,2.36,1,1.76V44.4l-1.23-2.29Z"/><path class="cls-24" d="M100.45,38.87l.12.64-.12.44.2.73a6,6,0,0,0,.83.74c.19.06-.21-.35-.24-.47s-.39-1.28-.41-1.31-.29-.77-.29-.77Z"/><path class="cls-46" d="M105.9,15.52c.16,0,.58.63,1.31,1s.74.46-.13,1.26-4,4.37-6,3.95-1.88-2.35-1.8-3.12A5.8,5.8,0,0,1,101,15.91C101.34,15.75,105.9,15.52,105.9,15.52Z"/><path class="cls-47" d="M100.45,15.24a3.63,3.63,0,0,1,.27,1.55,11.86,11.86,0,0,1-.48,2s.45.87,2.26.67,1.86-.83,2.44-1.15a7.71,7.71,0,0,0,1.94-1.91,2.49,2.49,0,0,1-1-3,10.21,10.21,0,0,1,1.42-3.25s.5-.9-.12-1S100.45,15.24,100.45,15.24Z"/><path class="cls-48" d="M104.67,14.22a11.82,11.82,0,0,0-1.87,2.16A6.47,6.47,0,0,1,101,18.1l-.25-1.61-.28-1.25Z"/><path class="cls-18" d="M100,5.28A4,4,0,0,0,98.94,6.9a10.92,10.92,0,0,0-.7,2.22,2.25,2.25,0,0,1-.06,1.39c-.25.79.55,4.7,1.4,5.09s4.77-.93,5.2-1.49a11.28,11.28,0,0,0,1.69-4.35c.14-1.52.59-3.3-1.62-4.22A8.71,8.71,0,0,0,100,5.28Z"/><path class="cls-20" d="M98.87,13.86s.12.22.61.35a2.16,2.16,0,0,0,1.23-.27l-1-.16-1-.42A2.32,2.32,0,0,0,98.87,13.86Z"/><path class="cls-23" d="M98.67,13.36l.49,0c.07,0,.12.08.19.08h.14a9.3,9.3,0,0,0,1.22.52c-.87,0-1.07-.1-1.16-.16a1.43,1.43,0,0,0-.51-.14A1.85,1.85,0,0,1,98.67,13.36Z"/><path class="cls-49" d="M99.52,9.54c.08.43-1,2.2-1.09,2.59s1.06.37,1.06.37Z"/><path class="cls-50" d="M99.28,12.56a1.43,1.43,0,0,1-.84-.24.22.22,0,0,1-.06-.19,5,5,0,0,1,.45-1,4.6,4.6,0,0,0,.63-1.55l.12,0a4.53,4.53,0,0,1-.64,1.63,5.33,5.33,0,0,0-.45,1,.17.17,0,0,0,0,.11c.15.17.75.2,1,.19v.12Z"/><path class="cls-13" d="M102.74,10l-.49-.17a4.39,4.39,0,0,0-1.78-.13l0-.19a4.42,4.42,0,0,1,1.89.14l.49.16Z"/><path class="cls-13" d="M99.19,9.29a2.14,2.14,0,0,0-.88-.41l0-.19c.28,0,.91.36,1,.44Z"/><path class="cls-25" d="M101.89,10.58a.38.38,0,0,1-.49.22.38.38,0,0,1-.3-.45.38.38,0,0,1,.49-.22A.38.38,0,0,1,101.89,10.58Z"/><path class="cls-25" d="M99.13,9.76a.29.29,0,1,1-.41.41.29.29,0,1,1,.41-.41Z"/><path class="cls-13" d="M107,10.35s-.36-.47-.62-.31-.78.37-.8.58-.22,1.36-.22,1.36a3.34,3.34,0,0,1-.4-1.7,4.67,4.67,0,0,0-.52-2.56c-.34-.53-.69-1.34-1.5-1.47s-1.93,0-2.6,0a1.65,1.65,0,0,1-.93-.29l-.59,1.21a3.31,3.31,0,0,1,.4-1.28,5,5,0,0,1,6.82-1.6,4.49,4.49,0,0,1,2.16,5.52c-.43,1.12-1.73,2.11-1.87,2.45s-.49.82-.49,1.14.16-1.19.43-1.83A5.19,5.19,0,0,1,107,10.35Z"/><path class="cls-51" d="M106,10.6s1-1,1.33-.21-.43,1.63-.93,2-.87.53-1,.3.24-1.07.24-1.07Z"/><path class="cls-52" d="M105.76,12.7a.2.2,0,0,1-.21.19.19.19,0,0,1-.18-.2.19.19,0,0,1,.2-.19A.19.19,0,0,1,105.76,12.7Z"/><path class="cls-53" d="M106.17,10.61s.61-.56.87-.13,0,1.19-.61,1.82c-.63.23-.72,0-.72-.12a3.19,3.19,0,0,0,.28-.74C106,11.14,106.17,10.61,106.17,10.61Z"/><path class="cls-3" d="M118.29,51.26c.32.24.64-.24.64-.51a2.94,2.94,0,0,0-.26-.92c-.18-.5-.36-1-.57-1.48a6.14,6.14,0,0,0-1.45-2.45c-.41-.33-1.14-.16-1.59-.07a16.39,16.39,0,0,0-2.65.86c-1.14.44-2.25.94-3.35,1.46l-1.57.76c-.13.07-.64.22-.7.36s.43.58.62.59.66-.27.92-.39c.68-.33,1.36-.65,2-1,1.22-.55,2.45-1.08,3.72-1.52.43-.14.86-.28,1.3-.38a1.36,1.36,0,0,1,.72,0c.25.12.46.6.58.82.24.45.45.91.64,1.37s.41,1,.59,1.57l.24.71A.38.38,0,0,0,118.29,51.26Z"/><path class="cls-34" d="M116.8,43.58l-1.21.38a1.86,1.86,0,0,0-1,.16l-1.17.54c-3.48,1.11-8.36,2.73-8.42,3.1a4.45,4.45,0,0,0,0,1.08v0h0a.81.81,0,0,0,.43.51,2,2,0,0,0,1.83.07l9.27-4.22a.6.6,0,0,0,.28-.29.42.42,0,0,0,0-.1A2,2,0,0,0,116.8,43.58Z"/><path class="cls-29" d="M105.27,47.27l9.27-4.22a2,2,0,0,1,1.83.08h0c.54.31.6.78.13,1l-9.27,4.22a2,2,0,0,1-1.83-.07C104.86,48,104.8,47.54,105.27,47.27Z"/><path class="cls-54" d="M43.11,95.32a4.93,4.93,0,0,0-.65,1.81c-.06.84-.36,2.23-.3,2.48a6.1,6.1,0,0,0,2.92.57c.66-.11,1.56-1.09,2.5-1.18a13.22,13.22,0,0,0,3-.48c1.09-.36,2.06-.78,2.22-1.35a.74.74,0,0,0-.35-.84L49.88,96a14.68,14.68,0,0,1-1.73-.76,8.88,8.88,0,0,1-.84-.8Z"/><path class="cls-54" d="M42.61,99a.89.89,0,0,0-.68.76,12.26,12.26,0,0,0-.1,1.53,5.68,5.68,0,0,0,2.65.36,5.62,5.62,0,0,0,2.14-1l.54-.78a5,5,0,0,1,1.16-.08,9.62,9.62,0,0,0,2-.4,7.14,7.14,0,0,0,2.4-1c.5-.54-.31-.7-.31-.7l-1.81-.4Z"/><path class="cls-55" d="M48.78,94.59A10,10,0,0,1,46.14,96c-1,.2-3,.26-3.08-.15S42,81.21,42.55,79.73s5.62-4.07,6.34-3.26-.57,11.12-.63,12.44S48.78,94.59,48.78,94.59Z"/><path class="cls-56" d="M47.83,94.27c0-.08-.47-8.5.44-13,.52-2.6.62-4.09.3-4.45a.29.29,0,0,0-.28-.08A79.77,79.77,0,0,0,41,80.54l-.13-.22a79.13,79.13,0,0,1,7.4-3.87.54.54,0,0,1,.49.16c.26.3.47,1.09-.24,4.67-.9,4.51-.44,12.9-.44,13Z"/><path class="cls-34" d="M27.69,98a.59.59,0,0,0-.57,0h0l-.73.34.86,2.32.79-.35h0a.75.75,0,0,0,.36-.64A1.82,1.82,0,0,0,27.69,98Z"/><path class="cls-33" d="M27,98.36c-.46-.27-.87,0-.93.59a1.79,1.79,0,0,0,.71,1.59c.46.28.87,0,.93-.58A1.82,1.82,0,0,0,27,98.36Z"/><path class="cls-34" d="M49.39,111.55a2.06,2.06,0,0,0-.94-1.62.64.64,0,0,0-.66-.06h0l-.85.54,1.38,2.25.79-.51h0A.66.66,0,0,0,49.39,111.55Z"/><path class="cls-33" d="M48.56,112.08c0,.59-.42.83-.93.53a2.06,2.06,0,0,1-.94-1.62c0-.59.42-.83.94-.53A2.08,2.08,0,0,1,48.56,112.08Z"/><path class="cls-34" d="M21.25,108.36a1.08,1.08,0,0,0-2.16-.07h0V109h.18a1.07,1.07,0,0,0,1.8,0h.18Z"/><path class="cls-57" d="M21.25,109a1.08,1.08,0,1,1-1.08-1.08A1.08,1.08,0,0,1,21.25,109Z"/><path class="cls-33" d="M46.23,99h0a.65.65,0,0,0-.66.07,2,2,0,0,0-.94,1.61.67.67,0,0,0,.25.58h0l.76.53L47,99.46Z"/><path class="cls-34" d="M47.25,100.07a2.06,2.06,0,0,1-.94,1.62c-.51.3-.93.06-.93-.54a2.07,2.07,0,0,1,.93-1.61C46.83,99.24,47.25,99.48,47.25,100.07Z"/><path class="cls-58" d="M31.49,114.19h0s-.07,0-.11.15a6.68,6.68,0,0,0-.2,1.67c0,.41,0,.64.11.63h0l1.21.14.21-2.46Z"/><path class="cls-34" d="M32.61,114.48a6.61,6.61,0,0,0-.2,1.67c0,.59.09.81.2.48a6.68,6.68,0,0,0,.2-1.67C32.81,114.36,32.72,114.15,32.61,114.48Z"/><path class="cls-59" d="M37.23,103.61a4.49,4.49,0,0,1-4.07,0c-1.12-.65-1.13-1.7,0-2.34a4.47,4.47,0,0,1,4.06,0C38.34,101.92,38.34,103,37.23,103.61Z"/><path class="cls-5" d="M34.12,101.53l-1.87,6.17,0,.11v0l-.66,6.27a.44.44,0,0,0,.37.48h0a.44.44,0,0,0,.5-.34l1.33-6.17,0,.15,2.53-5.94Z"/><path class="cls-5" d="M35.06,100.82l-10.41,2-.14,0-.08.07-4.55,3.9a.66.66,0,0,0-.07.93h0a.17.17,0,0,0,.24,0L25,103.49l-.22.1L35.32,103Z"/><path class="cls-59" d="M19.93,107.75h0a.15.15,0,0,0,.11,0l4.81-4.13,8.79-.48.47-1.57,1.07.38h0l-.58-1-2.25.42a10.77,10.77,0,0,1,1,1.32l-8.5.6-4.67,4A1.79,1.79,0,0,1,19.93,107.75Z"/><polygon class="cls-3" points="35.86 101.17 29.7 96.36 29.48 96.19 29.25 96.29 26.48 97.49 26.81 98.25 29.58 97.05 29.14 96.98 34.52 102.65 35.86 101.17"/><path class="cls-5" d="M35.9,103.15,43,97.9l-.37,0,3.33,1.49a.34.34,0,0,0,.44-.17h0a.5.5,0,0,0-.26-.66l-3.17-1.42-.17-.07-.21.09-8.07,3.5Z"/><path class="cls-59" d="M46.35,99.24a.45.45,0,0,0,0-.2.54.54,0,0,0-.06-.25c-.1.22-.29.38-.4.38s-3-1.45-3-1.45l-.28.2,0,0-5,3.59.2.22h0l5-3.73,3.11,1.39A.35.35,0,0,0,46.35,99.24Z"/><path class="cls-5" d="M34.76,103.09l9.37,2.54-.18-.12,4.19,5.1a.29.29,0,0,0,.4,0h0a.54.54,0,0,0,.07-.77l-4-4.9-.05-.07-.12-.06-8.8-4.12Z"/><path class="cls-59" d="M32.32,114.38l0,.11a.48.48,0,0,0,.13-.23l1.3-6.05,2.07-4.84L44,105.61l4.11,5a.28.28,0,0,0,.39,0,.59.59,0,0,0,.2-.36c-.26.54-.58.15-.58.15l-4.07-5s-7.63-2.3-7.84-2.35-.28.08-.39.16a.42.42,0,0,1-.13.09s0,0,0,0c-.27.45-2,4.06-2.19,4.52S32.32,114.38,32.32,114.38Z"/><path class="cls-5" d="M37.23,102.57a4.52,4.52,0,0,1-4.07,0c-1.12-.65-1.13-1.7,0-2.34a4.47,4.47,0,0,1,4.06,0A1.24,1.24,0,0,1,37.23,102.57Z"/><path class="cls-28" d="M37.05,101.14h0V98h-.42a.57.57,0,0,0-.13-.08,2.9,2.9,0,0,0-2.63,0l-.14.09h-.41v3.15h0a1,1,0,0,0,.55.76,2.92,2.92,0,0,0,2.64,0A.93.93,0,0,0,37.05,101.14Z"/><path class="cls-29" d="M36.51,98.75a2.92,2.92,0,0,1-2.64,0,.8.8,0,0,1,0-1.52,2.9,2.9,0,0,1,2.63,0C37.23,97.65,37.24,98.33,36.51,98.75Z"/><path class="cls-3" d="M36.76,97.74h0V93.1H36.4L36.3,93a2.47,2.47,0,0,0-2.23,0L34,93.1h-.34v4.64h0a.8.8,0,0,0,.46.64,2.42,2.42,0,0,0,2.22,0A.77.77,0,0,0,36.76,97.74Z"/><path class="cls-5" d="M36.3,93.74a2.48,2.48,0,0,1-2.22,0c-.61-.36-.62-.93,0-1.29a2.47,2.47,0,0,1,2.23,0A.68.68,0,0,1,36.3,93.74Z"/><path class="cls-33" d="M15.14,92.44l12.11,6.79,3,1.69s.66.62,2.91.34a55.69,55.69,0,0,0,8.21-2.48,24.54,24.54,0,0,0,2.46-1c.5-.28,4.71-2.43,5-2.67h0a1.84,1.84,0,0,0,.49-.61,2.55,2.55,0,0,0,.22-.72,15.42,15.42,0,0,0,0-3.08,1.28,1.28,0,0,0-.74-1l-.25-.15h0l-14-8a3.42,3.42,0,0,0-1.13-.37,5.39,5.39,0,0,0-1,0l-.37,0a5,5,0,0,0-1.82.57l-13.61,7.6a1,1,0,0,0-.58.79h0a1.3,1.3,0,0,1-.47.68Z"/><path class="cls-30" d="M40.43,94.66a77,77,0,0,1-7.91,2.43l2.35,1.16a63.29,63.29,0,0,0,6.49.53,24.54,24.54,0,0,0,2.46-1c.5-.28,4.71-2.43,5-2.67h0a1.84,1.84,0,0,0,.49-.61,2.55,2.55,0,0,0,.22-.72,15.42,15.42,0,0,0,0-3.08,1.28,1.28,0,0,0-.74-1l-.25-.15h0l-14-8a3.42,3.42,0,0,0-1.13-.37,5.39,5.39,0,0,0-1,0,7.57,7.57,0,0,1,2.66,1c2.24,1.33,13.06,7.41,13.5,7.8s.43.7-.19,1.08A59.29,59.29,0,0,1,40.43,94.66Z"/><path class="cls-34" d="M27.25,99.23l3,1.69s.66.62,2.91.34a63.38,63.38,0,0,0,10.67-3.48c.5-.28,4.71-2.43,5-2.67h0a1.94,1.94,0,0,0,.49-.61,2.55,2.55,0,0,0,.22-.72,15.42,15.42,0,0,0,0-3.08c-.11.91-13.73,6.32-15.91,6.54s-4.13-2.91-4.13-2.91A7.81,7.81,0,0,0,27.25,99.23Z"/><path class="cls-3" d="M18.09,89.33c0-.27.77-6.84.83-8.19.21-.73,4.72-2.94,8.77-4.56l-.33-.83C23.9,77.14,18.08,79.67,18,81.1s-.81,8.07-.82,8.13Z"/><path class="cls-34" d="M28.21,74,27,74.34a1.88,1.88,0,0,0-1.08.17l-1.21.56c-3.59,1.14-8.62,2.81-8.68,3.19a4.28,4.28,0,0,0,0,1.12v.05h0a.79.79,0,0,0,.44.52,2.11,2.11,0,0,0,1.89.08l9.56-4.35a.66.66,0,0,0,.29-.31.3.3,0,0,0,0-.1A1.92,1.92,0,0,0,28.21,74Z"/><path class="cls-29" d="M16.33,77.76l9.56-4.35a2.08,2.08,0,0,1,1.89.08h0c.55.32.61.81.13,1.08l-9.56,4.36a2.14,2.14,0,0,1-1.89-.08C15.91,78.53,15.85,78,16.33,77.76Z"/><path class="cls-55" d="M48.74,78.48s-6.27,3.08-9.09,3.74-4-5.41.31-7.53,6-2.24,7-2.19,2.42,2,2.26,3.72A5.57,5.57,0,0,1,48.74,78.48Z"/><path class="cls-55" d="M26.85,83s.23,4.05,1.35,5a8.52,8.52,0,0,0,5.57,2.29c2.83.08,2.7-3.58,1-5.36S26.85,83,26.85,83Z"/><path class="cls-54" d="M51.09,100a2.63,2.63,0,0,0-.58.9,14.29,14.29,0,0,0-.63,3c0,.35.56,1.09,2.26,1s2.1-1,3.22-1.22,3.88-1.07,4.33-2.35-.91-2-.91-2l-1.43-.27L55.25,99C54.83,99,51.09,100,51.09,100Z"/><path class="cls-54" d="M50.36,103.08s-.9.25-1,.67-.14,1.64-.14,1.64,1.32,1.34,2.6,1a6.11,6.11,0,0,0,2.53-1.31,2.11,2.11,0,0,0,.24-.54,1.62,1.62,0,0,1,1.16-.46,6.44,6.44,0,0,0,2.71-.84,2.74,2.74,0,0,0,1.28-1.92c.11-.86-.12-1-.12-1L59,100Z"/><path class="cls-55" d="M57.86,79.51a3,3,0,0,0-2.08-2.27c-.76-.21-1.62-.53-4.44.48s-8.65,2-10,2.44S30.6,85.37,30.64,86.47s.89,3.49,2.22,4.33,7.15,2.34,10.94.64S57.59,82.76,57.94,82A5.18,5.18,0,0,0,57.86,79.51Z"/><path class="cls-55" d="M53.34,82.76a5.41,5.41,0,0,0-1.79,4c-.22,2.91-.83,12.91-.83,13.37s2,.89,3.59.43A3.21,3.21,0,0,0,56.39,99s1.85-16.84,1.69-18S53.34,82.76,53.34,82.76Z"/><path class="cls-56" d="M55.75,99.52l-.25,0c0-.12.14-1.2.32-2.84.49-4.37,1.41-12.5,1.41-13.11,0-.19,0-.36,0-.5,0-.46,0-.68-.32-1-.84.08-2.68,1.26-4.62,2.51a28.65,28.65,0,0,1-5.65,3.13,6.66,6.66,0,0,1-5.61-1.12l.15-.19a6.44,6.44,0,0,0,5.38,1.07,28.27,28.27,0,0,0,5.6-3.11c2.09-1.34,3.9-2.51,4.79-2.55H57l0,0a1.22,1.22,0,0,1,.44,1.24c0,.14,0,.3,0,.49,0,.62-.92,8.76-1.41,13.14C55.89,98.27,55.76,99.41,55.75,99.52Z"/><path class="cls-60" d="M43.7,81.72v.2a6.16,6.16,0,0,1-.51,2.52,9.82,9.82,0,0,1-4.33,4.1,8.63,8.63,0,0,1-8.07,0c-2.29-1.23-3.2-2.34-3.48-3.12s-.64-1.62-.43-2.11,0,1.76,3.76,3.47a8.67,8.67,0,0,0,7.46.1,10.7,10.7,0,0,0,3.73-3.76C42.9,81.11,43.7,81.72,43.7,81.72Z"/><path class="cls-61" d="M107.11,60.79v1.68h0c-.06,4.33-2.28,8.68-6.69,12.44a31.78,31.78,0,0,1-4.75,3.33,46,46,0,0,1-11,4.46c-14.38,3.91-32,2.46-43.87-4.36C33.25,74,29.51,68.22,29.57,62.47h0V60.79h8.8c.82-.59,1.71-1.14,2.64-1.69,15.19-8.76,39.74-8.81,54.83-.1,1,.58,1.91,1.18,2.77,1.79Z"/><path class="cls-62" d="M29.56,62h0V60.29h8.8q1.23-.87,2.64-1.68c15.19-8.77,39.74-8.82,54.83-.1,1,.57,1.91,1.17,2.77,1.78h8.5V62h0c-.07,5.71-3.88,11.42-11.44,15.78-15.19,8.77-39.74,8.82-54.83.1C33.25,73.47,29.5,67.72,29.56,62Z"/><path class="cls-63" d="M106.61,63.71a3.68,3.68,0,0,1-.16.54c-1.11,3.51-3.7,6.91-7.76,9.86a35.21,35.21,0,0,1-3,2A47.36,47.36,0,0,1,83,81c-14.06,3.36-30.8,1.77-42.18-4.8-15.09-8.72-15-22.88.18-31.66s39.74-8.81,54.83-.1C104.91,49.66,108.51,56.88,106.61,63.71Z"/><path class="cls-64" d="M41,75.76c14.94,8.62,39.23,8.58,54.26-.1s15.11-22.7.17-31.33-39.23-8.58-54.26.1S26,67.13,41,75.76Z"/><polygon class="cls-65" points="75.17 58.16 63.58 51.47 79.58 42.23 91.17 48.92 75.17 58.16"/><polygon class="cls-65" points="48.67 60.01 46.39 50.66 68.87 48.91 71.14 58.27 48.67 60.01"/><polygon class="cls-65" points="87.99 66.28 76.59 73 60.32 63.8 71.73 57.08 87.99 66.28"/><path class="cls-17" d="M47.42,24.68A35.26,35.26,0,0,1,50.15,32c.46,1.87,1.81,7.41,1.81,7.41a17.92,17.92,0,0,0-2.67,1.1c-1.93-3.81-6-12.18-6.19-14.15S46.81,23.75,47.42,24.68Z"/><path class="cls-18" d="M49.26,40.07a6.6,6.6,0,0,1,.16,1.11,2,2,0,0,0,.3,1.09,13.31,13.31,0,0,0,1.08.87c.14.1.25.43.41.44a.52.52,0,0,0,.22,0,.54.54,0,0,0,.3-.55,1,1,0,0,0-.23-.52c.07,0,1.32.58,1.63.79a8,8,0,0,0,2.07.8.93.93,0,0,0,.66-.1,5,5,0,0,0,.59.17.31.31,0,0,0,.29-.13.39.39,0,0,0,.06-.18c0-.19-.28-.55-.28-.55l0-.09h0a.88.88,0,0,0-.07-.27c-.06-.08-.53-.31-.7-.44S54.18,41.11,54.05,41s-1.59-1-1.86-1.1a1.33,1.33,0,0,1-.58-.78S49.19,39.74,49.26,40.07Z"/><path class="cls-17" d="M29,15.48c1.09.5,2.2,1.12,2.42,6s.84,11.7-1.51,11.34-2.74-1.39-3.35-3.16-.61-9.89-.31-11.91S27.63,14.85,29,15.48Z"/><path class="cls-18" d="M35.44,43.62c.18.45.37,1.22.73,1.42a20.87,20.87,0,0,1,2.09.91,6.18,6.18,0,0,0,1.21,1l1.21.55s.54-.09.63,0,.16.45.1.5a1.18,1.18,0,0,1,.37.57c0,.13-.16.28-.16.28s0,.12-.12.29-.61.1-.73,0a.38.38,0,0,1-.52.29,8,8,0,0,1-1.15-.46,2,2,0,0,1-.75.24,5.82,5.82,0,0,1-2-.34c-.36-.18-1.34-.68-1.8-1a2.89,2.89,0,0,1-1.17-1.33c-.17-.48,0-.35-.33-.84A11,11,0,0,1,32.25,44C32.15,43.71,35.44,43.62,35.44,43.62Z"/><path class="cls-66" d="M35.65,7.26a23.06,23.06,0,0,1-1.31,3.68,3,3,0,0,0,1,2.81,3.92,3.92,0,0,0,2.77,1.37c.55-.07.71-.47.91-.71s.63-1.55.93-2.16-2.75-5.4-4-6.61C35.61,5.3,35.65,7.26,35.65,7.26Z"/><path class="cls-67" d="M40.19,13a7.44,7.44,0,0,1-.52,3.38,4.31,4.31,0,0,1-1.11-1.26l-.22-.26a11.69,11.69,0,0,0,1.16-1.18,3.41,3.41,0,0,0,.46-.75h.21Z"/><path class="cls-18" d="M44.32,4.56a5.41,5.41,0,0,1,.17,2.21,3.71,3.71,0,0,1-.62,2,7.56,7.56,0,0,1-1.32,2.83c-.59.61-.58.72-.61.82a.67.67,0,0,1-.13.19s-.55,1-1.09,1.15-2.69-.91-4-2.18c-1.09-1,0-3.48-.42-5.35s4.65-3.45,5.58-3A25.69,25.69,0,0,1,44.32,4.56Z"/><path class="cls-68" d="M42.92,8.61c-.49,1.25.06,2.55,0,3s-1.25.15-1.53.07Z"/><path class="cls-69" d="M42.41,11.92a4.33,4.33,0,0,1-1-.17l0-.16c.39.11,1.13.25,1.36.09a.17.17,0,0,0,.07-.1,2.65,2.65,0,0,0-.07-.59,4.43,4.43,0,0,1,.07-2.41l.16.06A4.3,4.3,0,0,0,42.93,11a2.51,2.51,0,0,1,.07.65.32.32,0,0,1-.13.21A.9.9,0,0,1,42.41,11.92Z"/><path class="cls-13" d="M44.4,7.79a.56.56,0,0,1-.21.34l-.28.22a4.54,4.54,0,0,1-.6.36l-.12-.25a5.71,5.71,0,0,0,.61-.29A2.61,2.61,0,0,0,44.08,8a.48.48,0,0,0,.18-.21Z"/><path class="cls-13" d="M42.08,8.85a1.66,1.66,0,0,1-.37-.11l-.32-.13a5.17,5.17,0,0,0-.63-.21c-.19,0-.45,0-.67-.08s-.46-.07-.65-.07l0-.13a4,4,0,0,1,.7,0c.24,0,.43,0,.69,0a4.85,4.85,0,0,1,.68.19,6.17,6.17,0,0,0,.6.18Z"/><path class="cls-67" d="M34.92,9.32c-.12.17-1,.38-.64,1.22A8.92,8.92,0,0,0,36.89,14c1.29.91,1.45.81,1.45.81a1.16,1.16,0,0,1-.16.87A5.57,5.57,0,0,1,37.3,17a15.31,15.31,0,0,1-3.16-3.1c-1.22-1.56-1.36-2.18-1.36-2.51a5.2,5.2,0,0,1,1-2,1.38,1.38,0,0,1,1-.46Z"/><path class="cls-67" d="M38.87,32.84h-.24a8,8,0,0,1,.44-1.7A13.93,13.93,0,0,0,40,24.7c-.24-1.39-.55-2.95-.85-4.46a43.5,43.5,0,0,1-.88-5.33h.24a44.78,44.78,0,0,0,.88,5.28c.3,1.51.61,3.07.85,4.47a14.1,14.1,0,0,1-.89,6.56A8.39,8.39,0,0,0,38.87,32.84Z"/><path class="cls-24" d="M37.82,46.07a11.41,11.41,0,0,1,1.43,1c.12.08,1.52.71,1.52.71l.53.15.28-.07s-.08.38-.19.33a3,3,0,0,1-.32-.18l-.67-.31L39.17,47S37.49,45.94,37.82,46.07Z"/><path class="cls-24" d="M38.2,46.91a14.17,14.17,0,0,1,1.64.93l1.45.71a.69.69,0,0,1,.33.35.94.94,0,0,0,.16.29,2.89,2.89,0,0,1-.36-.47c0-.12-.61-.35-.76-.42a9.38,9.38,0,0,1-.91-.44c-.18-.11-1.07-.68-1.17-.71A2.34,2.34,0,0,1,38.2,46.91Z"/><path class="cls-24" d="M37.57,47.38c.44.18,1.43.7,1.62.81a12.33,12.33,0,0,0,1.23.53,1.19,1.19,0,0,1,.49.34l.29.36-.07.43s-.39-.32-.38-.43,0-.23-.07-.38a.62.62,0,0,0-.5-.32,10.85,10.85,0,0,1-1.44-.67Z"/><path class="cls-24" d="M36.22,47.61a11.27,11.27,0,0,0,1.24.69,3.42,3.42,0,0,0,.94.36c.24,0,.4,0,.48.18s.07.23-.07.35-.07.09-.07.09l0,.44s.5-.35.42-.49a3.36,3.36,0,0,1-.14-.45c-.05-.15-.38-.25-.64-.25a5.35,5.35,0,0,1-1.3-.55Z"/><path class="cls-24" d="M55.7,42.8a5.55,5.55,0,0,0,.82.49l0-.09h0c-.24-.11-.61-.34-.71-.4s-1.29-1-1.58-1.18Z"/><path class="cls-24" d="M50.64,41.8s.56.51.68.59a.84.84,0,0,1,.29.51.68.68,0,0,1-.18.66.54.54,0,0,0,.3-.55,1,1,0,0,0-.23-.52c.07,0,1.32.58,1.63.79a8,8,0,0,0,2.07.8.93.93,0,0,0,.66-.1,5,5,0,0,0,.59.17.31.31,0,0,0,.29-.13,1.68,1.68,0,0,1-.29,0c-.11,0-.44-.12-.48-.25a.67.67,0,0,0-.18-.25L53.64,42l1.93,1.49.22.23a.86.86,0,0,1-.15.28c-.07.08-.29,0-.38-.12a2,2,0,0,1-.17-.36s-.53-.35-.64-.46-1.36-.89-1.6-1l1.78,1.28c.12.08.38.37.35.4s-.08.19-.32.11a9.35,9.35,0,0,1-1-.33c-.17-.11-1-.48-1.19-.62L51,42Z"/><path class="cls-13" d="M41.55,5.35c.32-.41,1.49.24,2,.18s.75-.3.79-.25.1.11.15.39a3,3,0,0,1,.05.35,2.07,2.07,0,0,0,.06-1.47c-.23-1-2.43-5.49-5.7-4.37-2.17.05-3.08,1-3.42,1.65a20.91,20.91,0,0,0-1.13,3.46,4.42,4.42,0,0,0,.17,2.89,2.37,2.37,0,0,1,.28,1.41l0,.48A19.46,19.46,0,0,0,35.6,8c0-.26-.55-1.27-.25-1.51s.83.17.83.17a2.71,2.71,0,0,1,.41,1.06c0,.46-.08,1.27-.08,1.42s.19-.56.28-.77a1.55,1.55,0,0,1,.94-1C38.42,7.14,40.93,6.13,41.55,5.35Z"/><path class="cls-13" d="M34.41,5.69a.92.92,0,0,0-.23.53,18.23,18.23,0,0,1-1.64,5.38c-.3.62.43,1.2,1.48.65a3.27,3.27,0,0,0,2-3C36.25,7.38,35.51,6,34.41,5.69Z"/><path class="cls-17" d="M31.68,27.57c.37,1.88,3.89,16,3.93,16.19a3.53,3.53,0,0,1-3.62.75c-.57-.29-5.32-13.74-5.53-15.28S31.68,27.57,31.68,27.57Z"/><path class="cls-70" d="M36.18,7.24A1.17,1.17,0,0,0,35,6.07c-.7,0-.69,1.19-.48,1.69a3.11,3.11,0,0,0,1,1.18.36.36,0,0,0,.54-.16c.08-.19,0-.59,0-.77S36.16,7.43,36.18,7.24Z"/><path class="cls-71" d="M36,7c0-.22-.56-.79-1-.62s-.46.69-.37,1.06.47.54.69.78.49.16.42-.13a.8.8,0,0,1,.08-.6C35.83,7.43,36,7.44,36,7Z"/><path class="cls-34" d="M108.82,96.55a.57.57,0,0,1,.56,0h0l.73.34-.86,2.32-.79-.35h0a.75.75,0,0,1-.36-.64A1.81,1.81,0,0,1,108.82,96.55Z"/><path class="cls-33" d="M109.54,96.88c.45-.28.86,0,.92.59a1.81,1.81,0,0,1-.71,1.59c-.45.28-.87,0-.93-.58A1.81,1.81,0,0,1,109.54,96.88Z"/><path class="cls-34" d="M87.11,110.07a2.06,2.06,0,0,1,.94-1.62.69.69,0,0,1,.67-.07h0l.85.55-1.38,2.25-.8-.51h0A.66.66,0,0,1,87.11,110.07Z"/><path class="cls-33" d="M87.94,110.59c0,.6.42.84.94.54a2.08,2.08,0,0,0,.93-1.62c0-.59-.42-.83-.93-.53A2.06,2.06,0,0,0,87.94,110.59Z"/><path class="cls-34" d="M115.25,106.88a1.08,1.08,0,0,1,2.16-.07h0v.66h-.17a1.08,1.08,0,0,1-.91.49,1.07,1.07,0,0,1-.9-.49h-.18Z"/><path class="cls-57" d="M115.25,107.47a1.09,1.09,0,1,0,1.08-1.08A1.09,1.09,0,0,0,115.25,107.47Z"/><path class="cls-33" d="M90.27,97.47h0a.69.69,0,0,1,.67.06,2.09,2.09,0,0,1,.93,1.62.64.64,0,0,1-.25.58h0l-.76.53L89.54,98Z"/><path class="cls-34" d="M89.25,98.59a2.08,2.08,0,0,0,.94,1.62c.52.3.94.06.94-.54a2,2,0,0,0-.94-1.61C89.67,97.76,89.25,98,89.25,98.59Z"/><path class="cls-58" d="M105,112.71h0s.07,0,.11.15a6.68,6.68,0,0,1,.2,1.67c0,.41,0,.64-.1.63h0l-1.21.14-.22-2.46Z"/><path class="cls-34" d="M103.89,113a6.55,6.55,0,0,1,.2,1.67c0,.59-.09.8-.2.48a6.68,6.68,0,0,1-.2-1.67C103.69,112.88,103.78,112.67,103.89,113Z"/><path class="cls-59" d="M99.28,102.13a4.47,4.47,0,0,0,4.06,0c1.12-.65,1.13-1.7,0-2.34a4.47,4.47,0,0,0-4.06,0A1.23,1.23,0,0,0,99.28,102.13Z"/><path class="cls-5" d="M102.38,100.05l1.87,6.17,0,.11v0l.65,6.27a.45.45,0,0,1-.37.48h0a.43.43,0,0,1-.49-.34l-1.34-6.17,0,.14-2.53-5.93Z"/><path class="cls-5" d="M101.45,99.34l10.41,1.94.13,0,.09.07,4.54,3.9a.65.65,0,0,1,.07.93h0a.17.17,0,0,1-.24,0L111.54,102l.22.1-10.58-.59Z"/><path class="cls-59" d="M116.58,106.27h0a.17.17,0,0,1-.12,0l-4.8-4.13-8.8-.48-.47-1.57-1.06.38h0l.58-1,2.24.42a11.91,11.91,0,0,0-1,1.32l8.5.6,4.67,4A2,2,0,0,0,116.58,106.27Z"/><polygon class="cls-3" points="100.64 99.69 106.81 94.88 107.03 94.71 107.25 94.81 110.03 96.01 109.7 96.77 106.92 95.57 107.36 95.5 101.99 101.17 100.64 99.69"/><path class="cls-5" d="M100.6,101.67l-7-5.25.37,0-3.33,1.49a.33.33,0,0,1-.43-.17h0a.49.49,0,0,1,.25-.66l3.18-1.42.16-.07.21.09L102,99.2Z"/><path class="cls-59" d="M90.15,97.76a.79.79,0,0,1,0-.2.54.54,0,0,1,.06-.25c.11.21.3.38.4.38s3-1.45,3-1.45l.28.2,0,0,5,3.59-.2.22h0l-5-3.73-3.12,1.39A.35.35,0,0,1,90.15,97.76Z"/><path class="cls-5" d="M101.75,101.61l-9.38,2.54.18-.12-4.19,5.1a.27.27,0,0,1-.39,0h0a.54.54,0,0,1-.08-.77l4-4.9.06-.07.12-.06,8.79-4.12Z"/><path class="cls-59" d="M104.19,112.9l0,.11a.49.49,0,0,1-.14-.23l-1.3-6-2.06-4.84-8.24,2.24-4.11,5a.27.27,0,0,1-.39,0,.51.51,0,0,1-.2-.36c.25.54.57.15.57.15l4.07-5s7.63-2.3,7.84-2.35.28.08.39.16.11.09.14.09l0,.05c.27.45,2,4.06,2.19,4.52S104.19,112.9,104.19,112.9Z"/><path class="cls-5" d="M99.28,101.09a4.5,4.5,0,0,0,4.06,0,1.24,1.24,0,0,0,0-2.35,4.5,4.5,0,0,0-4.06,0A1.24,1.24,0,0,0,99.28,101.09Z"/><path class="cls-28" d="M99.45,99.66h0V96.51h.42l.13-.08a2.92,2.92,0,0,1,2.64,0l.13.09h.41v3.15h0a1,1,0,0,1-.55.76,2.92,2.92,0,0,1-2.64,0A.93.93,0,0,1,99.45,99.66Z"/><path class="cls-29" d="M100,97.27a2.92,2.92,0,0,0,2.64,0,.8.8,0,0,0,0-1.52,2.92,2.92,0,0,0-2.64,0A.8.8,0,0,0,100,97.27Z"/><path class="cls-3" d="M99.74,96.26h0V91.62h.36a.41.41,0,0,1,.11-.07,2.45,2.45,0,0,1,2.22,0l.11.08h.35v4.64h0a.78.78,0,0,1-.46.64,2.45,2.45,0,0,1-2.22,0A.77.77,0,0,1,99.74,96.26Z"/><path class="cls-5" d="M100.2,92.26a2.48,2.48,0,0,0,2.22,0,.68.68,0,0,0,0-1.29,2.45,2.45,0,0,0-2.22,0A.67.67,0,0,0,100.2,92.26Z"/><path class="cls-33" d="M121.36,91l-12.11,6.79-3,1.69s-.66.62-2.91.34a57.32,57.32,0,0,1-8.21-2.48,25.64,25.64,0,0,1-2.46-1c-.5-.28-4.7-2.43-5-2.67h0A2,2,0,0,1,87.2,93a2.24,2.24,0,0,1-.23-.73,15.34,15.34,0,0,1,0-3.07,1.3,1.3,0,0,1,.74-1L88,88h0l14-8a3.27,3.27,0,0,1,1.13-.37,4.63,4.63,0,0,1,1,0l.37,0a5,5,0,0,1,1.82.57l13.62,7.6a.93.93,0,0,1,.57.79h0a1.25,1.25,0,0,0,.46.68Z"/><path class="cls-30" d="M96.07,93.18A77.85,77.85,0,0,0,104,95.61l-2.35,1.16a62.94,62.94,0,0,1-6.49.53,25.64,25.64,0,0,1-2.46-1c-.5-.28-4.7-2.43-5-2.67h0A2,2,0,0,1,87.2,93a2.24,2.24,0,0,1-.23-.73,15.34,15.34,0,0,1,0-3.07,1.3,1.3,0,0,1,.74-1L88,88h0l14-8a3.27,3.27,0,0,1,1.13-.37,4.63,4.63,0,0,1,1,0,7.44,7.44,0,0,0-2.66,1C99.16,82,88.35,88,87.9,88.43s-.43.7.2,1.08A58.91,58.91,0,0,0,96.07,93.18Z"/><path class="cls-34" d="M109.25,97.75l-3,1.69s-.66.62-2.91.34a62.74,62.74,0,0,1-10.67-3.49c-.5-.27-4.7-2.42-5-2.66h0A2,2,0,0,1,87.2,93a2.24,2.24,0,0,1-.23-.73,15.34,15.34,0,0,1,0-3.07c.11.91,13.73,6.32,15.91,6.54S107,92.85,107,92.85A7.78,7.78,0,0,1,109.25,97.75Z"/><path class="cls-3" d="M118.41,87.85c0-.28-.76-6.84-.82-8.19-.22-.73-4.73-2.94-8.78-4.56l.33-.83c3.46,1.38,9.28,3.92,9.34,5.35s.81,8.07.82,8.13Z"/><path class="cls-34" d="M108.29,72.48l1.24.38a1.88,1.88,0,0,1,1.08.17l1.22.55c3.58,1.15,8.62,2.82,8.67,3.2a4.42,4.42,0,0,1,0,1.12v0h0a.87.87,0,0,1-.45.52,2.09,2.09,0,0,1-1.88.08l-9.57-4.35a.66.66,0,0,1-.29-.31,1,1,0,0,1,0-.1A2,2,0,0,1,108.29,72.48Z"/><path class="cls-29" d="M120.18,76.28l-9.57-4.35a2.11,2.11,0,0,0-1.89.07h0c-.55.33-.61.81-.13,1.09l9.57,4.36a2.12,2.12,0,0,0,1.88-.08C120.6,77.05,120.66,76.56,120.18,76.28Z"/><path class="cls-34" d="M126.09,68.46l-5.79,14.3s2.17,6.51,1.62,7.55c-.44.86-11.33,6.82-14.28,8.4a2.6,2.6,0,0,1-1,.55h0a1.17,1.17,0,0,1-.67,0,1.11,1.11,0,0,1-.19-.09,6.6,6.6,0,0,1-2.73-3,.82.82,0,0,1-.14-.39l0-5.33c0-2.25,4.88-14.24,4.88-14.24L107.58,71a3.93,3.93,0,0,1,.56-2.2,2.51,2.51,0,0,1,.84-.87l13.33-7.46a.85.85,0,0,1,.22-.09l.14-.06a1.81,1.81,0,0,1,.52-.07c1.52,0,3.41,1.56,3.41,1.56a3.74,3.74,0,0,1,1.22,2.09c0,.06,0,.13,0,.19Z"/><path class="cls-33" d="M127.86,64.09l-1.77,4.37c-4.4,3.57-11.83,6.07-12.84,4.22-1.1-2-3.38-3.22-5.11-3.88a2.51,2.51,0,0,1,.84-.87l13.33-7.46a.85.85,0,0,1,.22-.09l.14-.06a1.81,1.81,0,0,1,.52-.07c1.52,0,3.41,1.56,3.41,1.56a3.74,3.74,0,0,1,1.22,2.09C127.83,64,127.85,64,127.86,64.09Z"/><path class="cls-29" d="M127,62.48s.35.1.6.86a1.33,1.33,0,0,0-.85,0c-.21.06-13.12,7.07-13.12,7.07a6.45,6.45,0,0,0-1,.89c-.5-.3,0-.84,0-.84a2.62,2.62,0,0,1,.59-.39Z"/><path class="cls-72" d="M127.86,64.09l-5.17,20.27s-.23,4.91-.77,6c-.44.86-11.33,6.82-14.28,8.4a2.6,2.6,0,0,1-1,.55h0a1.17,1.17,0,0,1-.67,0,32.91,32.91,0,0,1,0-6.44c.2-1.94,2.88-9.89,4.47-14s1.15-5.9,2-7,11.28-6.42,13.32-7.63c1.5-.89,1.91-.47,2-.19A.57.57,0,0,1,127.86,64.09Z"/><path class="cls-3" d="M101.48,96.53a.46.46,0,0,1-.25-.38l-.06-.56c0-.49-.11-1-.16-1.46-.2-1.83-.45-3.67-.53-5.5-.07-.25-.38-.44-.57-.58a23.31,23.31,0,0,0-3.39-1.87c-.78-.37-1.56-.73-2.35-1.08l-1.23-.53c-.36-.15-.81-.22-.93-.65a1.07,1.07,0,0,1,0-.4c0-.07,0-.23.1-.25s.18.06.23.08l.48.19c1.26.52,2.52,1.06,3.76,1.65A27.06,27.06,0,0,1,99.9,87a6.18,6.18,0,0,1,1.06.85,1.22,1.22,0,0,1,.41.74c0,1,.17,2,.27,3s.21,2,.32,3c0,.4.09.81.13,1.22,0,.21.15.5,0,.69A.47.47,0,0,1,101.48,96.53Z"/><path class="cls-34" d="M91.18,81.44l1.25.39A1.84,1.84,0,0,1,93.5,82l1.22.55c3.59,1.15,8.62,2.82,8.67,3.2a4.42,4.42,0,0,1,0,1.12v0h0a.84.84,0,0,1-.45.52,2.09,2.09,0,0,1-1.88.08l-9.57-4.35a.68.68,0,0,1-.28-.31.3.3,0,0,1,0-.1A2,2,0,0,1,91.18,81.44Z"/><path class="cls-33" d="M103.07,85.25,93.5,80.89a2.12,2.12,0,0,0-1.88.08h0c-.56.32-.62.81-.14,1.09l9.57,4.35a2.09,2.09,0,0,0,1.88-.07C103.49,86,103.55,85.53,103.07,85.25Z"/><path class="cls-9" d="M47.24,56.55s.33.84.51,1.45a7.08,7.08,0,0,1,.37,1.43c0,.23-7.68.42-7.64-.93s1.17-1.84,2.25-2S47.24,56.55,47.24,56.55Z"/><path class="cls-18" d="M46.84,56.8h1c.49,0,3.49.11,3.49.11l3.59.82s.34.05.37.16l0,.1s.65,0,.68.16.06.3-.12.41a.49.49,0,0,1-.33.08,1,1,0,0,1-.51.24c-.24,0-2.63-.52-2.9-.57s-1.54,0-1.29.08a2.86,2.86,0,0,0,.65.16,5.24,5.24,0,0,1,1.2.12c.33.15.23.56-.1.72a3.07,3.07,0,0,1-1.28.16c-.46,0-.91-.14-1.21-.13a2.81,2.81,0,0,1-1.38-.28c-.42-.24-.45-.5-1.05-.55s-2,0-1.73-.54A14,14,0,0,1,46.84,56.8Z"/><path class="cls-15" d="M48.05,62.61c.61-2.35,1.16-3,.73-3.47s-5.19-3-5.57-3.53a5.18,5.18,0,0,0-2-1.66,17.67,17.67,0,0,0-4.38-1.22c-.48,0-1.38.17-2,.17H32.27a3.08,3.08,0,0,0-2.52,3c-.18,2.06.13,5.6,0,7.66a48.93,48.93,0,0,1-1.14,8.7,26.77,26.77,0,0,0-1.78,7.87c-.08,3.07.35,4.09,1,5.16s5.57,3.51,9.34,1.76,5.64-3.64,6.23-4.79.43-3.1.43-4.75,2-6.7,2.78-9.19S48.05,62.61,48.05,62.61Z"/><path class="cls-9" d="M46.69,60.05A6,6,0,0,0,45.5,64.2a3.52,3.52,0,0,0,2.33,3.37c1.81.67,7.82,3.2,10.83,3.1s1.93-4.48.71-5-9.14-5.39-10-6.18S47.34,59.16,46.69,60.05Z"/><path class="cls-18" d="M59.31,63.13a5.05,5.05,0,0,1-1-1c-.16-.32-.53-1-.53-1A6.42,6.42,0,0,0,57.42,60c-.25-.6.16-.92.46-.87s.67.68.71.9a1.13,1.13,0,0,0,.3.48l0-.27s-.15-.09-.15-.54.25-.42.29-.42,1,.32,1,.32a3.7,3.7,0,0,1,.65.05,9.39,9.39,0,0,1,1,.66,3.19,3.19,0,0,1,1,.59,2.15,2.15,0,0,1,.29,1.35,4.24,4.24,0,0,0-.22.93C62.7,63.43,59.31,63.13,59.31,63.13Z"/><path class="cls-9" d="M61.68,61.82a1.63,1.63,0,0,0-2.39.66A32.31,32.31,0,0,1,56.75,66c-.54.79,1.88,5.24,3.17,4.25a6.77,6.77,0,0,0,2.63-3.61A15,15,0,0,0,63,63.17,3.28,3.28,0,0,0,61.68,61.82Z"/><path class="cls-18" d="M36.85,52.38a4.18,4.18,0,0,0,0-3.08c-.61-2,1.37-6.82,4.68-7.1s5.42-.46,5.4,1.45a8.27,8.27,0,0,1-.3,3.05A2.65,2.65,0,0,0,46.2,48a8.91,8.91,0,0,1-.74,2.87,7.21,7.21,0,0,1-1,1.67c-.17.24-1.22,0-1.33.16a5.83,5.83,0,0,0-.29,1.43c-.06.38-1.63-.46-2.6-.79S36.85,52.38,36.85,52.38Z"/><path class="cls-18" d="M44.22,49.59c-.1.21-.31.34-.4.07A3.32,3.32,0,0,1,44,48c.22-.62.76-.91.95-.84s-.17.77-.29,1S44.22,49.59,44.22,49.59Z"/><path class="cls-9" d="M39.66,52.12s-1.6-.59-2.08-.7-.84-.19-.84-.19-.82,1.38-.85,1.5a10.51,10.51,0,0,0,2.8.9A11.11,11.11,0,0,1,42,54.83c.28.17,1.58,1.09,1.79,1.22s1,.75,1,.75a1.87,1.87,0,0,0,0-1.45,7.19,7.19,0,0,0-2.1-2.1A19.1,19.1,0,0,0,39.66,52.12Z"/><path class="cls-13" d="M45.22,49.12h-.35s.66-1.88-.11-1.88-1.65,1.37-2,2.16a2.35,2.35,0,0,1-2.3,1.6,6.94,6.94,0,0,1-3.22-.61A5.82,5.82,0,0,1,36,47.08c-.18-1.68-.33-6.84,3.51-6.87,1.25-1.29,3.82-1,5.45-.2a4.08,4.08,0,0,1,2.34,2.34,4.61,4.61,0,0,1,.1,1.27l-.43,1-.26,1.55-.71.74Z"/><path class="cls-34" d="M10.42,70,16.2,84.24S14,90.75,14.58,91.79c.45.86,11.33,6.82,14.28,8.4a2.67,2.67,0,0,0,1,.55h0a1.17,1.17,0,0,0,.67,0,.88.88,0,0,0,.2-.09,6.62,6.62,0,0,0,2.72-3,.72.72,0,0,0,.14-.39l0-5.32c0-2.25-4.88-14.25-4.88-14.25l.21-5.19a3.8,3.8,0,0,0-.56-2.19,2.54,2.54,0,0,0-.84-.88L14.19,62a.73.73,0,0,0-.22-.09.48.48,0,0,0-.14-.06,1.77,1.77,0,0,0-.52-.07c-1.51,0-3.41,1.56-3.41,1.56a3.73,3.73,0,0,0-1.21,2.09c0,.06,0,.13,0,.19Z"/><path class="cls-33" d="M8.64,65.57,10.42,70c4.39,3.56,11.82,6.06,12.83,4.21,1.1-2,3.38-3.22,5.11-3.87a2.54,2.54,0,0,0-.84-.88L14.19,62a.73.73,0,0,0-.22-.09.48.48,0,0,0-.14-.06,1.77,1.77,0,0,0-.52-.07c-1.51,0-3.41,1.56-3.41,1.56a3.73,3.73,0,0,0-1.21,2.09C8.67,65.44,8.66,65.51,8.64,65.57Z"/><path class="cls-29" d="M9.54,64s-.35.1-.6.86a1.37,1.37,0,0,1,.86,0c.21.06,13.11,7.07,13.11,7.07a6.45,6.45,0,0,1,1,.89c.49-.3,0-.84,0-.84a2.67,2.67,0,0,0-.58-.39C22.9,71.33,9.54,64,9.54,64Z"/><path class="cls-73" d="M8.64,65.57l5.17,20.27s.23,4.91.77,6c.45.86,11.33,6.82,14.28,8.4a2.63,2.63,0,0,0,1,.55h0a1.17,1.17,0,0,0,.67,0,31.42,31.42,0,0,0,0-6.44c-.2-1.94-2.88-9.89-4.47-14s-1.14-5.91-2-7-11.28-6.42-13.31-7.63c-1.51-.89-1.92-.47-2-.19A.81.81,0,0,0,8.64,65.57Z"/><path class="cls-3" d="M35,98a.46.46,0,0,0,.24-.38c0-.18,0-.37.06-.56.06-.49.11-1,.16-1.46.2-1.83.45-3.67.53-5.5.07-.25.38-.44.58-.58A22.31,22.31,0,0,1,40,87.66q1.15-.55,2.34-1.08l1.24-.52c.35-.16.81-.23.92-.66a1,1,0,0,0,0-.39c0-.08,0-.23-.11-.26s-.17.06-.22.08l-.48.19c-1.27.52-2.53,1.06-3.77,1.65a25.11,25.11,0,0,0-3.34,1.82,6.19,6.19,0,0,0-1.07.84,1.22,1.22,0,0,0-.41.74c0,1-.17,2-.27,3s-.21,2-.32,3c0,.4-.09.81-.13,1.22,0,.21-.15.51,0,.69A.48.48,0,0,0,35,98Z"/><path class="cls-34" d="M45.32,82.92l-1.24.39a1.88,1.88,0,0,0-1.08.17L41.78,84c-3.58,1.15-8.62,2.82-8.67,3.2a4.42,4.42,0,0,0,0,1.12v.05h0a.87.87,0,0,0,.45.52,2.09,2.09,0,0,0,1.88.08L45,84.65a.59.59,0,0,0,.28-.31.18.18,0,0,0,0-.1A2,2,0,0,0,45.32,82.92Z"/><path class="cls-33" d="M33.43,86.73,43,82.38a2.09,2.09,0,0,1,1.88.07h0c.56.32.62.81.14,1.09L35.45,87.9a2.12,2.12,0,0,1-1.88-.08C33,87.5,33,87,33.43,86.73Z"/><path class="cls-18" d="M89.44,132.4c.83,1.2,2.15,1.49,3.26,1.88s1.21,1,2.48,2.31a2.21,2.21,0,0,0,1.4.73,1.69,1.69,0,0,0,1-.28,1.25,1.25,0,0,0,.56-.77,2.17,2.17,0,0,0,0-.25c.06-.8-.39-1.51-.61-2.88s.75-5.27,1.47-8.93a16.45,16.45,0,0,0-.61-9.1c-1-3.19-.94-3.85-.61-9.08l-5.53,3.49s.15,1,.39,2.62c.44,3,1.15,7.75,1.61,10.73.71,4.54.34,5.77.26,6.52a2,2,0,0,1-1,1.64c-.41.1-.52-.05-1.72-.4a3.61,3.61,0,0,0-2.24-.1C89.5,130.62,88.6,131.21,89.44,132.4Z"/><path class="cls-18" d="M87.13,110.81c-.44,4.67-.54,4.94-.33,5.91s1.62,5,.51,8.71-2.12,6.49-2.1,8.69.56,2.12.63,3.18-.71,1.69-2.59,1.93-4.07,1.86-7,1.93-3.66-1.08-3.77-1.27,0-.45.29-.95a7.17,7.17,0,0,1,2.43-1.76c.78-.32,3.68-.63,4.76-2.21s1.46-2.75,1.45-6.82-.2-15.24.26-16.4S87.13,110.81,87.13,110.81Z"/><path class="cls-74" d="M89.44,132.4c.83,1.2,2.15,1.49,3.26,1.88s1.21,1,2.48,2.31a2.21,2.21,0,0,0,1.4.73,4.7,4.7,0,0,0,1-.28,1.39,1.39,0,0,0,.5-.32c.28-.31.27-.53.1-.7-.48-.46-2.17-.55-2.76-.86-.8-.42-2.21-1.31-2.45-2.18s.57-1.16,1.12-1.71a6,6,0,0,0,.92-3.44c0-1.1-1-8.43-1.17-10s-.37-1.89.39-6.69l-1.55,1c.44,3,1.15,7.75,1.61,10.73.71,4.54.34,5.77.26,6.52a2,2,0,0,1-1,1.64c-.41.1-.52-.05-1.72-.4a3.61,3.61,0,0,0-2.24-.1C89.5,130.62,88.6,131.21,89.44,132.4Z"/><path class="cls-12" d="M76.09,136.83c-.42.38-.92,1.54.56,1.75a23.15,23.15,0,0,0,3.6.27A10.16,10.16,0,0,0,85,137.67a1.46,1.46,0,0,0,.4-1.77,1.72,1.72,0,0,1,.42.85,3.87,3.87,0,0,1-.33,2.56c-.42.53-2.76.35-4.5.86s-3,1.36-5.78,1.12-3-1.49-3-1.7.09-.58.85-1.28A10.59,10.59,0,0,1,76.09,136.83Z"/><path class="cls-12" d="M92.65,130.54c-.71-.31-3.06-.6-3.54.18s-.18,1.48.73,2.35a5.51,5.51,0,0,0,2.26,1.18,6.76,6.76,0,0,1,2.2,1.63c.53.66,1.08,1.63,2.59,1.43s1.47-1.14,1.47-1.56a5.28,5.28,0,0,0-.47-1.39s0,.9-1.52.86-1.92-.2-2.74-1a15.05,15.05,0,0,1-2.46-2.71C90.91,130.9,90.73,130.51,92.65,130.54Z"/><path class="cls-12" d="M98.12,84c1.23,4.12,2.3,8.24,2,11.49S98,109.16,98.5,113.09c-1.9,2.75-11.38,3.46-12.23,3.55s-6.3-.3-6.36-2.1.87-9.56,2-16.47,2.57-10,2.69-12.12S98.12,84,98.12,84Z"/><path class="cls-36" d="M82.63,116.23h-.24c0-.11.14-11.1,1.31-15.84a58.57,58.57,0,0,0,1.12-6.51,27.73,27.73,0,0,1,1.11-5.66l.23.09a26.93,26.93,0,0,0-1.09,5.6,59.33,59.33,0,0,1-1.14,6.54C82.77,105.16,82.63,116.12,82.63,116.23Z"/><path class="cls-15" d="M84.6,85.42a4,4,0,0,0,.23.84c.53,1.25,4.36,1.7,7.15,1.1s6.06-3,6.14-3.37a20.78,20.78,0,0,1,1.47-5.24,30.36,30.36,0,0,0,1.79-10.23c-.15-1.74-1.37-3.41-2.41-3.61a12.1,12.1,0,0,0-3.45,0c-.54.12-2.35.8-3.52,1.2a10.19,10.19,0,0,0-2.7,1.53c-.65.47-4.48,2.83-4.89,3.07s0,.57-.29,1.66l.17,6.2.1,3.43A19,19,0,0,0,84.6,85.42Z"/><path class="cls-75" d="M84.6,85.42a14.11,14.11,0,0,0,.57-1.65c.2-.84,1.21-1.81,1.65-2.77a35.15,35.15,0,0,0,1.73-5.88L85.4,76.79l-1.11,1.82.1,3.43A19,19,0,0,0,84.6,85.42Z"/><path class="cls-18" d="M61.9,72.2a9.7,9.7,0,0,0,1.5.93l.17.09h0l.07,0a1.73,1.73,0,0,0,.56.36l.17.07h0c.28.13.53.29.84.45h0a7.35,7.35,0,0,0,1.33.62c.62.21,2.36.51,2.63.61A20,20,0,0,1,71,76.86L72.63,75a6.88,6.88,0,0,1-1.47-1.26,1.66,1.66,0,0,0-.93-.54,4.37,4.37,0,0,0-1-.2,4.91,4.91,0,0,0-.87,0l-.45-.15-.88-.67s-.62-1-.7-1.1a1.29,1.29,0,0,0-.28-.21.78.78,0,0,0-.18-.34.51.51,0,0,0-.47-.06.13.13,0,0,0-.08.14,23.94,23.94,0,0,0,1.1,2.3l-.06,0,0,0-.89-.47s-.74-.67-.78-.86a2,2,0,0,0-.63-.89c-.17-.09-.52-.13-.52.12a.81.81,0,0,0,.13.32c.35.58.89,1.33.92,1.38L64,72.14l-.87-.45h0a1.89,1.89,0,0,0-.56-.5c-.22-.07-.58.07-.58.17a.86.86,0,0,0,.16.44l.06,0S61.65,71.93,61.9,72.2Z"/><path class="cls-76" d="M90.14,66.34a8,8,0,0,0-.59-2.63,3.06,3.06,0,0,1-1.35-.25c-.54-.29-1.19-2.26-1-3.51s-.77-3.22,2.07-3.55,3.93.42,4.76,2.13A13.77,13.77,0,0,1,95,63a14.82,14.82,0,0,0,.57,2.19s-2.06.62-2.9.77S90.14,66.34,90.14,66.34Z"/><path class="cls-67" d="M89.15,66.39a2.61,2.61,0,0,1,1.16-.9c.26-.08,3.26-.61,3.88-.78a5.69,5.69,0,0,0,1.19-.48s.56.29.65.64.61.73-1,1.34a15,15,0,0,1-3.64.92,5.22,5.22,0,0,0-2,.67c-.14.14-.16-.4-.16-.4Z"/><path class="cls-18" d="M88.2,63.46c-.41,0-.92-.48-1.19-.92a9.32,9.32,0,0,1-1-3.29,21.82,21.82,0,0,0-.19-2.33,7.65,7.65,0,0,1,.32-2.58c.18-.47,1.82-.93,3.46,0s-.7,4.76-.7,4.76-.06,2.7,0,3.42S88.2,63.46,88.2,63.46Z"/><path class="cls-77" d="M65.34,70.59a23.94,23.94,0,0,0,1.1,2.3l-.06,0a7,7,0,0,0,1,.26s-.66-.32-.78-.36a8.52,8.52,0,0,1-.77-1.36,3.53,3.53,0,0,1-.39-1A.13.13,0,0,0,65.34,70.59Z"/><path class="cls-77" d="M64.52,72.54c.11,0,1,.45,1,.45l-.77-.44S63.61,71,63.53,70.81a.81.81,0,0,0,.13.32c.35.58.89,1.33.92,1.38L64,72.14l-.88-.45C63.2,71.74,64.4,72.5,64.52,72.54Z"/><path class="cls-77" d="M62.14,71.79l.06,0a3.91,3.91,0,0,1,1,.4l.92.46a.08.08,0,0,0,0,.11h0l0,0c.13,0,.83.28.92.31l-.87-.45-1.64-.82a1.36,1.36,0,0,1-.62-.52A.86.86,0,0,0,62.14,71.79Z"/><path class="cls-77" d="M66.16,74.25a16.38,16.38,0,0,1-1.79-.55c.28.13.53.29.84.45h0l.68.15.81.17.92.29A8.82,8.82,0,0,0,66.16,74.25Z"/><path class="cls-77" d="M63.57,73.22a.15.15,0,0,1,0-.11c.11-.33.54-.3.58-.3h0l-.06-.11a.7.7,0,0,0-.35.13c-.13.12-.3.22-.33.3Z"/><path class="cls-67" d="M85.66,86.94l-.24,0a16.27,16.27,0,0,1,1-4.57,11.2,11.2,0,0,0,1.15-5h.25a11.62,11.62,0,0,1-1.18,5.07A16,16,0,0,0,85.66,86.94Z"/><path class="cls-13" d="M87.72,61.05c-.26-.49-.66-1-.77-1.28a9.41,9.41,0,0,1-.23-1.55,4,4,0,0,0-.4-1.19A15,15,0,0,1,86,54.74a3.67,3.67,0,0,1,1.35-2.2,6.17,6.17,0,0,1,4.35-1.31A4.53,4.53,0,0,1,96,53.82c.81,1.64,1.19,2.72.89,4.2a17.87,17.87,0,0,1-1.09,3.19,6.38,6.38,0,0,1-.47.78,7,7,0,0,1-.82.94,1.85,1.85,0,0,1-2.32-.2A13.2,13.2,0,0,1,90.29,61c-.63-.72-1.63-1.88-2-1.93s-.68,0-.77.34A6.29,6.29,0,0,0,87.72,61.05Z"/><path class="cls-13" d="M95.35,60.9c1,.9,2.51,4.41,2.82,9s1.18,8.46-2,10.39C95.22,77,97,71,94.64,61.9A8.4,8.4,0,0,0,95.35,60.9Z"/><path class="cls-67" d="M70.7,76.73c-.16-.21.36-1,1-1.47a1.76,1.76,0,0,1,.92-.42s6.73,4.41,8.57,5.68,2.19,4.76-.37,4.46-5.72-3.35-7.45-5.25S70.7,76.73,70.7,76.73Z"/><path class="cls-67" d="M80.49,84.53a4.28,4.28,0,0,1-.93-3.07A80.82,80.82,0,0,1,84.2,70.91c.49-.48,1.67-.55,3,.88s1.52,2,1.38,3.33-5.62,8.63-6.24,9.3S80.49,84.53,80.49,84.53Z"/><path class="cls-18" d="M84.56,83.28a2.08,2.08,0,0,0-1.07.48,10.28,10.28,0,0,1-1.68.59c-.29.1-.17.49-.1.54a1.8,1.8,0,0,0,.42.15l-.36,0s-.62.31-.77.41-.65.36-.65.36a6.07,6.07,0,0,0-.59.17c-.09,0-.11.29-.05.42s.5.15.5.15l.73-.16a1.24,1.24,0,0,0,.33.16,1.65,1.65,0,0,0,.52-.2l0-.12a.7.7,0,0,0,.41-.12c.21-.14,1-.85,1.07-.91a1,1,0,0,1,.34-.08.33.33,0,0,1,.21.22c0,.16.08.46.08.62a1,1,0,0,0,.15.53c.1.14.23.38.48.22a.4.4,0,0,0,.13-.54,1.67,1.67,0,0,1-.1-.27l.47-1Z"/><path class="cls-77" d="M81.9,86.28h0c.07,0,1.29-1,1.29-1l-.11-.12-.87,0-.26,0,.18,0L82,85a6.92,6.92,0,0,0,1.68-.07l.17-.12a.73.73,0,0,0,.18-.44.27.27,0,0,0-.23-.34l-1.14,0h0a3.37,3.37,0,0,0,.81-.33,2.08,2.08,0,0,1,1.07-.48L85,84.62c-.11.1-.19.17-.25.17a.66.66,0,0,0-.62.43,3.22,3.22,0,0,0-.06.89.74.74,0,0,0,.25.52.28.28,0,0,0,.36-.26c0-.22-.28-.48,0-.75a.34.34,0,0,1,.17-.08l-.2.42a1.75,1.75,0,0,0,.1.26.4.4,0,0,1-.13.54c-.25.16-.38-.08-.48-.22A1,1,0,0,1,84,86c0-.16-.06-.46-.08-.62a.33.33,0,0,0-.21-.22,1,1,0,0,0-.34.08c-.09.06-.86.77-1.07.91A.8.8,0,0,1,81.9,86.28Z"/><path class="cls-77" d="M80.55,86.53a.45.45,0,0,0,.12-.24l-.23-.1.32-.24.67-.59,0-.11.18-.09-.29.47-.15.13-.43.36s-.14.07.11.25a2.73,2.73,0,0,0,.35.22h0a1.24,1.24,0,0,1-.33-.16l-.39.09Z"/><path class="cls-77" d="M81.26,85.8l.75-.67-.67.73s-.08.14.12.29a.63.63,0,0,0,.38.13l0,.12-.13.06-.1-.07c-.13,0-.33-.4-.33-.4Z"/><path class="cls-18" d="M88.56,61.49c.13.26.34.22.42.16a4.12,4.12,0,0,0,.26-1.32A2.28,2.28,0,0,0,88.65,59c-.23-.09-.52.19-.55.39a4.36,4.36,0,0,0,.19.94,6.54,6.54,0,0,0,.16,1A.82.82,0,0,1,88.56,61.49Z"/><path class="cls-44" d="M97.27,31.26s-1.44-3.32-1.59-2.67-.43,3.21-.43,3.21Z"/><path class="cls-20" d="M41.63,12.65A1.34,1.34,0,0,1,41,13a1.08,1.08,0,0,1-.87-.31l.9-.12,1-.35A3.73,3.73,0,0,1,41.63,12.65Z"/><path class="cls-23" d="M42,12.18l-.39,0c-.06,0-.13.07-.18.06h-.12s-.85.35-1.23.45c.73,0,.91-.05,1-.11a1.39,1.39,0,0,1,.47-.11A2.65,2.65,0,0,0,42,12.18Z"/><path class="cls-25" d="M40.68,9.48c0,.15.11.26.3.25a.41.41,0,0,0,.4-.28c0-.15-.1-.27-.3-.26A.43.43,0,0,0,40.68,9.48Z"/><path class="cls-25" d="M43.41,9a.25.25,0,0,0-.14.31.24.24,0,0,0,.32,0c.13-.08.19-.22.14-.31A.22.22,0,0,0,43.41,9Z"/></g></g></svg>