<svg xmlns="http://www.w3.org/2000/svg" xmlns:xlink="http://www.w3.org/1999/xlink" viewBox="0 0 103.5 140.18"><defs><style>.cls-1{isolation:isolate;}.cls-2{fill:#57565f;}.cls-3{fill:#9a989d;}.cls-4{fill:#e3e5ef;}.cls-4,.cls-42,.cls-5{mix-blend-mode:multiply;}.cls-5{fill:#efc5c4;}.cls-6{fill:#47464f;}.cls-7{fill:#58575f;}.cls-8{fill:#6a6970;}.cls-9{fill:#858cad;}.cls-10{fill:#cfcfda;}.cls-11{fill:#cddf9d;}.cls-12{fill:#dbdbe4;}.cls-13{fill:#6980bb;}.cls-14{fill:#d4d3dd;}.cls-15{fill:#f1f1f3;}.cls-16{fill:#9fa6c0;}.cls-17{fill:#54535c;}.cls-18{fill:#66656d;}.cls-19{fill:#4d4d56;}.cls-20{fill:#3e3d48;}.cls-21{fill:#6d6c74;}.cls-22{fill:#5b5a63;}.cls-23{fill:#34333e;}.cls-24{fill:#a2a1a6;}.cls-25{fill:#bebdc0;}.cls-26{fill:#c2a570;}.cls-27{fill:#bb995d;}.cls-28{fill:#f5e09d;}.cls-29{fill:#7d85c0;}.cls-30{fill:#505b5c;}.cls-31{fill:#636c6d;}.cls-32{fill:#764655;}.cls-33{fill:#393575;}.cls-34{fill:#3e4b4c;}.cls-35{fill:#798282;}.cls-36{fill:#495556;}.cls-37{fill:url(#_ÂÁ_Ï_ÌÌ_È_ËÂÌÚ_7);}.cls-38{fill:#f8c6c7;}.cls-39{fill:#5d69af;}.cls-40{fill:#f59b2f;}.cls-41{fill:#4757a3;}.cls-42{fill:#f7bebf;}.cls-43{fill:url(#_ÂÁ_Ï_ÌÌ_È_ËÂÌÚ_7-2);}.cls-44{fill:#252430;}.cls-45{fill:#393942;}.cls-46{fill:#9c9da5;}</style><linearGradient id="_ÂÁ_Ï_ÌÌ_È_ËÂÌÚ_7" x1="531.41" y1="164.12" x2="533.76" y2="164.12" gradientTransform="matrix(1, 0.08, -0.08, 1, -488.93, -119.35)" gradientUnits="userSpaceOnUse"><stop offset="0.12" stop-color="#f8c6c7"/><stop offset="0.97" stop-color="#f4abb7"/></linearGradient><linearGradient id="_ÂÁ_Ï_ÌÌ_È_ËÂÌÚ_7-2" x1="-460.18" y1="136.73" x2="-458.23" y2="136.73" gradientTransform="translate(532.5 -36.9) rotate(2.12)" xlink:href="#_ÂÁ_Ï_ÌÌ_È_ËÂÌÚ_7"/></defs><g class="cls-1"><g id="Layer_1" data-name="Layer 1"><polygon class="cls-2" points="99.46 101.6 19.45 55.41 23.49 53.08 103.5 97.99 103.5 99.27 99.46 101.6"/><polygon class="cls-3" points="99.46 100.32 19.45 54.13 23.49 51.8 103.5 97.99 99.46 100.32"/><polygon class="cls-4" points="80.99 140.19 0 93.42 21.24 81.16 102.23 127.92 80.99 140.19"/><polygon class="cls-5" points="43.52 116.27 26.96 131.5 26.96 132.69 43.52 117.46 43.52 116.27"/><polygon class="cls-5" points="36.82 112.49 20.26 127.72 20.26 128.92 36.82 113.68 36.82 112.49"/><path class="cls-6" d="M58.08,114.72a11.93,11.93,0,0,1-10.79,0c-3-1.73-3-4.52,0-6.24a12,12,0,0,1,10.79,0C61,110.22,61.05,113,58.08,114.72Z"/><rect class="cls-6" x="45.04" y="107.5" width="15.26" height="4.1"/><path class="cls-7" d="M58.08,110.63a12,12,0,0,1-10.79,0c-3-1.73-3-4.52,0-6.24a12,12,0,0,1,10.79,0C61,106.12,61.05,108.91,58.08,110.63Z"/><path class="cls-8" d="M56,109.41a7.3,7.3,0,0,1-6.58,0c-1.83-1.06-1.84-2.76,0-3.81a7.29,7.29,0,0,1,6.59,0C57.78,106.66,57.79,108.36,56,109.41Z"/><rect class="cls-8" x="48.01" y="81.78" width="9.32" height="25.72"/><path class="cls-8" d="M56,83.68a7.24,7.24,0,0,1-6.58,0c-1.83-1-1.84-2.75,0-3.8a7.29,7.29,0,0,1,6.59,0C57.78,80.93,57.79,82.64,56,83.68Z"/><polygon class="cls-9" points="94.28 104.51 13.29 57.75 13.29 4.11 94.28 50.87 94.28 104.51"/><polygon class="cls-10" points="88.62 107.78 7.63 61.02 7.63 7.37 88.62 54.13 88.62 107.78"/><polygon class="cls-9" points="9.58 59.89 9.58 10.75 86.67 55.26 86.67 104.4 9.58 59.89"/><path class="cls-11" d="M49.42,50.86l-2.21.25-1.45-.31a41.84,41.84,0,0,1-4.48-1.31c-3-1.09-6.1-2.74-6.1-4.92,0-.15,0-.28,0-.41a2.13,2.13,0,0,0,0-.27L49,50.66l.39.19Z"/><polygon class="cls-12" points="35.17 25.52 35.17 74.67 9.58 59.88 9.58 10.75 35.17 25.52"/><path class="cls-13" d="M15.56,30.46l5.84,3.37a11,11,0,0,1,5.34,9c0,3-1.8,4.9-5.32,2.86l-2.17-1.25v4.9l-3.69-2.13ZM21.4,41.92c2.23,1.31,2.23-2.88,0-4.14l-2.15-1.24v4.14Z"/><path class="cls-14" d="M50.15,53.21V83.3h0l-15-8.64V46c0-1,0-1.82,0-1.87l2.52,1.45,1.11.64L42,48.1l5.21,3a2.58,2.58,0,0,1,1.8-.45l.15.05.24.14h0C49.84,51.19,50.15,51.88,50.15,53.21Z"/><path class="cls-13" d="M49.42,50.86h0l-.24-.14L49,50.66a2.58,2.58,0,0,0-1.8.45L42,48.1a3.62,3.62,0,0,0-.85,2.65v5.72c0,3.83,3,7.5,6.06,9.24a7.55,7.55,0,0,0,2.93,1.05V53.21C50.15,51.88,49.84,51.19,49.42,50.86Zm.14,10.47c0,1.2-1.17,1.14-2.35.46s-2.37-2-2.37-3.19V52.88c0-1.23,1.15-1.23,2.31-.57s2.41,2,2.41,3.29Z"/><path class="cls-13" d="M36.7,53.66c1.77.39,2.86-.73,2.86-3.83a9.61,9.61,0,0,0-.76-3.58l-1.11-.64-2.52-1.45c0,.05,0,.9,0,1.87,1,1.3,1,3.13,0,3.25h0a1.65,1.65,0,0,1-1-.27L32,47.75V43.92l2.16,1.25a3.61,3.61,0,0,1,1,.84V41.85c-.34-.24-.68-.46-1-.66l-5.83-3.37V54.57L32,56.72V51.4l.66.38,2.47,5.32h0l.91,1.94,4.59,2.66Z"/><path class="cls-15" d="M64.11,73.73l-.15,0a2.62,2.62,0,0,0-1.8.44l-9.52-5.49-2.52-1.45-2.92-1.7s1.19-.81,2.06-.33l.07,0Z"/><path class="cls-12" d="M65.1,76.23c0-1.33-.31-2-.73-2.35h0l-.24-.14-.15,0a2.62,2.62,0,0,0-1.8.44l-9.52-5.49-2.52-1.45c0,.07,0,1.53,0,2.8V83.3l15,8.64,0-15.71Z"/><polygon class="cls-15" points="94.28 50.87 13.29 4.11 16.71 2.13 97.7 48.89 94.28 50.87"/><polygon class="cls-15" points="88.62 54.13 7.63 7.37 11.06 5.4 92.05 52.16 88.62 54.13"/><polygon class="cls-16" points="92.05 52.16 92.05 105.8 88.62 107.78 88.62 54.13 92.05 52.16"/><polygon class="cls-16" points="97.7 48.89 97.7 102.53 94.28 104.51 94.28 50.87 97.7 48.89"/><polygon class="cls-17" points="21.24 12.34 19.39 11.27 21.22 10.21 23.07 11.28 21.24 12.34"/><polygon class="cls-18" points="19.78 4.33 19.09 3.94 20.54 11.28 21.23 11.68 19.78 4.33"/><polygon class="cls-19" points="21.7 11.4 21.23 11.68 19.78 4.33 20.25 4.05 21.7 11.4"/><polygon class="cls-20" points="14.41 9.06 20.22 7.23 20.22 8.33 16.68 10.38 14.41 9.06"/><polygon class="cls-17" points="14.41 7.96 17.95 5.92 20.22 7.23 16.68 9.27 14.41 7.96"/><polygon class="cls-21" points="18.8 4.89 18.11 4.49 19.56 3.66 20.25 4.05 18.8 4.89"/><polygon class="cls-19" points="18.8 4.89 18.77 5.26 20.22 4.43 20.25 4.05 18.8 4.89"/><polygon class="cls-18" points="17.35 7.97 16.66 7.57 18.11 4.49 18.8 4.89 17.35 7.97"/><polygon class="cls-19" points="17.83 7.69 17.35 7.97 18.8 4.89 19.28 4.61 17.83 7.69"/><polygon class="cls-22" points="14.41 7.96 14.41 9.06 16.68 10.38 16.68 9.27 14.41 7.96"/><polygon class="cls-17" points="41.45 24.01 39.6 22.94 41.44 21.88 43.29 22.95 41.45 24.01"/><polygon class="cls-18" points="39.99 16 39.3 15.61 40.75 22.95 41.44 23.35 39.99 16"/><polygon class="cls-19" points="41.92 23.07 41.44 23.35 39.99 16 40.47 15.72 41.92 23.07"/><polygon class="cls-20" points="34.62 20.73 40.43 18.9 40.43 20 36.9 22.05 34.62 20.73"/><polygon class="cls-17" points="34.62 19.63 38.16 17.59 40.43 18.9 36.9 20.94 34.62 19.63"/><polygon class="cls-21" points="39.02 16.56 38.33 16.16 39.78 15.33 40.47 15.72 39.02 16.56"/><polygon class="cls-19" points="39.02 16.56 38.98 16.94 40.43 16.1 40.47 15.72 39.02 16.56"/><polygon class="cls-18" points="37.57 19.64 36.88 19.24 38.33 16.16 39.02 16.56 37.57 19.64"/><polygon class="cls-19" points="38.04 19.36 37.57 19.64 39.02 16.56 39.49 16.28 38.04 19.36"/><polygon class="cls-22" points="34.62 19.63 34.62 20.73 36.9 22.05 36.9 20.94 34.62 19.63"/><polygon class="cls-17" points="61.66 35.68 59.81 34.61 61.65 33.55 63.5 34.62 61.66 35.68"/><polygon class="cls-18" points="60.21 27.68 59.52 27.28 60.97 34.62 61.66 35.02 60.21 27.68"/><polygon class="cls-19" points="62.13 34.74 61.66 35.02 60.21 27.68 60.68 27.39 62.13 34.74"/><polygon class="cls-20" points="54.84 32.41 60.65 30.57 60.65 31.67 57.11 33.72 54.84 32.41"/><polygon class="cls-17" points="54.84 31.3 58.37 29.26 60.65 30.57 57.11 32.61 54.84 31.3"/><polygon class="cls-21" points="59.23 28.23 58.54 27.83 59.99 27 60.68 27.39 59.23 28.23"/><polygon class="cls-19" points="59.23 28.23 59.2 28.61 60.65 27.77 60.68 27.39 59.23 28.23"/><polygon class="cls-18" points="57.78 31.31 57.09 30.91 58.54 27.83 59.23 28.23 57.78 31.31"/><polygon class="cls-19" points="58.25 31.03 57.78 31.31 59.23 28.23 59.7 27.95 58.25 31.03"/><polygon class="cls-22" points="54.84 31.3 54.84 32.41 57.11 33.72 57.11 32.61 54.84 31.3"/><polygon class="cls-17" points="81.88 47.35 80.03 46.28 81.87 45.22 83.72 46.29 81.88 47.35"/><polygon class="cls-18" points="80.42 39.35 79.73 38.95 81.18 46.29 81.87 46.69 80.42 39.35"/><polygon class="cls-19" points="82.34 46.41 81.87 46.69 80.42 39.35 80.89 39.06 82.34 46.41"/><polygon class="cls-20" points="75.05 44.08 80.86 42.24 80.86 43.34 77.32 45.39 75.05 44.08"/><polygon class="cls-17" points="75.05 42.97 78.59 40.93 80.86 42.24 77.32 44.28 75.05 42.97"/><polygon class="cls-21" points="79.44 39.9 78.75 39.5 80.2 38.67 80.89 39.06 79.44 39.9"/><polygon class="cls-19" points="79.44 39.9 79.41 40.28 80.86 39.44 80.89 39.06 79.44 39.9"/><polygon class="cls-18" points="77.99 42.98 77.31 42.58 78.75 39.5 79.44 39.9 77.99 42.98"/><polygon class="cls-19" points="78.47 42.7 77.99 42.98 79.44 39.9 79.92 39.62 78.47 42.7"/><polygon class="cls-22" points="75.05 42.97 75.05 44.08 77.32 45.39 77.32 44.28 75.05 42.97"/><polygon class="cls-17" points="84.1 43.93 85.95 45 84.11 46.06 82.26 44.99 84.1 43.93"/><polygon class="cls-20" points="85.12 38.26 90.93 36.43 90.93 37.53 87.39 39.57 85.12 38.26"/><polygon class="cls-17" points="90.93 36.43 87.39 38.47 85.12 37.16 88.66 35.12 90.93 36.43"/><polygon class="cls-22" points="85.12 37.16 85.12 38.26 87.39 39.57 87.39 38.47 85.12 37.16"/><polygon class="cls-18" points="85.09 35.85 85.78 36.25 84.33 45.27 83.64 44.87 85.09 35.85"/><polygon class="cls-18" points="87.51 36.7 88.2 37.09 86.75 35.69 86.06 35.29 87.51 36.7"/><polygon class="cls-19" points="85.78 36.25 85.74 36.62 87.19 35.78 87.22 35.41 85.78 36.25"/><polygon class="cls-21" points="86.53 35.01 87.22 35.41 85.78 36.25 85.09 35.85 86.53 35.01"/><polygon class="cls-19" points="84.8 44.98 84.33 45.27 85.78 36.25 86.25 35.97 84.8 44.98"/><polygon class="cls-19" points="88.67 36.81 88.2 37.09 86.75 35.69 87.22 35.41 88.67 36.81"/><polygon class="cls-17" points="63.89 32.26 65.74 33.33 63.9 34.39 62.05 33.32 63.89 32.26"/><polygon class="cls-20" points="64.91 26.59 70.72 24.76 70.72 25.86 67.18 27.9 64.91 26.59"/><polygon class="cls-17" points="70.72 24.76 67.18 26.8 64.91 25.49 68.44 23.45 70.72 24.76"/><polygon class="cls-22" points="64.91 25.49 64.91 26.59 67.18 27.9 67.18 26.8 64.91 25.49"/><polygon class="cls-18" points="64.87 24.18 65.56 24.58 64.11 33.59 63.42 33.2 64.87 24.18"/><polygon class="cls-18" points="67.3 25.03 67.99 25.43 66.54 24.02 65.85 23.62 67.3 25.03"/><polygon class="cls-19" points="65.56 24.58 65.53 24.95 66.98 24.11 67.01 23.74 65.56 24.58"/><polygon class="cls-21" points="66.32 23.34 67.01 23.74 65.56 24.58 64.87 24.18 66.32 23.34"/><polygon class="cls-19" points="64.59 33.31 64.11 33.59 65.56 24.58 66.03 24.3 64.59 33.31"/><polygon class="cls-19" points="68.46 25.14 67.99 25.43 66.54 24.02 67.01 23.74 68.46 25.14"/><polygon class="cls-17" points="43.67 20.59 45.52 21.66 43.69 22.72 41.84 21.65 43.67 20.59"/><polygon class="cls-20" points="44.69 14.92 50.5 13.09 50.5 14.19 46.96 16.23 44.69 14.92"/><polygon class="cls-17" points="50.5 13.09 46.96 15.13 44.69 13.82 48.23 11.77 50.5 13.09"/><polygon class="cls-22" points="44.69 13.82 44.69 14.92 46.96 16.23 46.96 15.13 44.69 13.82"/><polygon class="cls-18" points="44.66 12.51 45.35 12.91 43.9 21.92 43.21 21.53 44.66 12.51"/><polygon class="cls-18" points="47.08 13.36 47.77 13.75 46.32 12.35 45.63 11.95 47.08 13.36"/><polygon class="cls-19" points="45.35 12.91 45.31 13.28 46.76 12.44 46.8 12.07 45.35 12.91"/><polygon class="cls-21" points="46.11 11.67 46.8 12.07 45.35 12.91 44.66 12.51 46.11 11.67"/><polygon class="cls-19" points="44.37 21.64 43.9 21.92 45.35 12.91 45.82 12.63 44.37 21.64"/><polygon class="cls-19" points="48.25 13.47 47.77 13.75 46.32 12.35 46.8 12.07 48.25 13.47"/><polygon class="cls-17" points="23.46 8.92 25.31 9.98 23.47 11.05 21.62 9.98 23.46 8.92"/><polygon class="cls-20" points="24.48 3.25 30.29 1.42 30.29 2.52 26.75 4.56 24.48 3.25"/><polygon class="cls-17" points="30.29 1.42 26.75 3.46 24.48 2.15 28.02 0.1 30.29 1.42"/><polygon class="cls-22" points="24.48 2.15 24.48 3.25 26.75 4.56 26.75 3.46 24.48 2.15"/><polygon class="cls-18" points="24.44 0.84 25.13 1.24 23.68 10.25 22.99 9.86 24.44 0.84"/><polygon class="cls-18" points="26.87 1.69 27.56 2.08 26.11 0.68 25.42 0.28 26.87 1.69"/><polygon class="cls-19" points="25.13 1.24 25.1 1.61 26.55 0.77 26.58 0.4 25.13 1.24"/><polygon class="cls-21" points="25.89 0 26.58 0.4 25.13 1.24 24.44 0.84 25.89 0"/><polygon class="cls-19" points="24.16 9.97 23.68 10.25 25.13 1.24 25.61 0.95 24.16 9.97"/><polygon class="cls-19" points="28.03 1.8 27.56 2.08 26.11 0.68 26.58 0.4 28.03 1.8"/><polygon class="cls-23" points="41.45 24.01 39.6 22.94 39.6 23.36 41.45 24.43 41.45 24.01"/><polygon class="cls-17" points="43.69 22.72 43.69 24.24 41.84 23.17 41.84 21.65 43.69 22.72"/><polygon class="cls-23" points="45.52 21.66 45.52 22.09 44.99 22.41 44.99 23.78 43.95 24.39 43.69 24.24 43.69 22.72 45.52 21.66"/><polygon class="cls-23" points="43.29 22.95 43.29 24.01 42.76 23.7 41.45 24.43 41.45 24.01 43.29 22.95"/><polygon class="cls-23" points="21.24 12.34 19.39 11.27 19.39 11.69 21.24 12.76 21.24 12.34"/><polygon class="cls-17" points="23.47 11.05 23.47 12.57 21.62 11.5 21.62 9.98 23.47 11.05"/><polygon class="cls-23" points="25.31 9.98 25.31 10.42 24.78 10.74 24.78 12.11 23.74 12.72 23.47 12.57 23.47 11.05 25.31 9.98"/><polygon class="cls-23" points="23.07 11.28 23.07 12.34 22.54 12.03 21.24 12.76 21.24 12.34 23.07 11.28"/><polygon class="cls-23" points="61.66 35.68 59.81 34.61 59.81 35.03 61.66 36.1 61.66 35.68"/><polygon class="cls-17" points="63.9 34.39 63.9 35.91 62.05 34.84 62.05 33.32 63.9 34.39"/><polygon class="cls-23" points="65.74 33.33 65.74 33.76 65.21 34.08 65.21 35.45 64.17 36.06 63.9 35.91 63.9 34.39 65.74 33.33"/><polygon class="cls-23" points="63.5 34.62 63.5 35.68 62.97 35.37 61.66 36.1 61.66 35.68 63.5 34.62"/><polygon class="cls-23" points="81.88 47.35 80.03 46.28 80.03 46.7 81.88 47.77 81.88 47.35"/><polygon class="cls-17" points="84.11 46.06 84.11 47.58 82.26 46.51 82.26 44.99 84.11 46.06"/><polygon class="cls-23" points="85.95 45 85.95 45.43 85.42 45.75 85.42 47.12 84.38 47.73 84.11 47.58 84.11 46.06 85.95 45"/><polygon class="cls-23" points="83.72 46.29 83.72 47.35 83.19 47.04 81.88 47.77 81.88 47.35 83.72 46.29"/><polygon class="cls-14" points="86.67 55.26 86.67 104.4 65.08 91.94 65.08 42.8 86.67 55.26"/><path class="cls-13" d="M65.08,59.05v8.78l.09-.21.12.09-.21,3V71l0,4.39v.43l0,0,3.68,2.12V61.17Z"/><path class="cls-13" d="M70.71,67.81c0-3.85,3-4,6.05-2.26S82.82,71,82.82,74.8v5.73c0,3.83-3,4-6,2.26s-6.07-5.42-6.07-9.25Zm3.7,7.86c0,1.23,1.19,2.51,2.37,3.19s2.35.74,2.35-.46V72.67c0-1.3-1.22-2.59-2.42-3.28s-2.3-.67-2.3.56Z"/><path class="cls-15" d="M49.16,50.72,49,50.66a2.6,2.6,0,0,0-1.8.45l-9.52-5.5-2.52-1.45-2.92-1.69s1.19-.82,2.06-.34l.07,0Z"/><polygon class="cls-24" points="80.95 111.6 0.94 65.41 0.94 64.13 86.7 106.99 86.7 108.28 80.95 111.6"/><polygon class="cls-2" points="80.95 110.32 80.95 111.6 86.7 108.28 86.7 106.99 80.95 110.32"/><polygon class="cls-25" points="80.95 110.32 0.94 64.13 6.7 60.8 86.7 106.99 80.95 110.32"/><polygon class="cls-26" points="29.11 78.92 28.94 79.96 20.95 128.52 20.26 128.92 20.26 128.92 28.46 79.14 28.94 78.98 29.11 78.92"/><polygon class="cls-27" points="20.26 128.92 19.45 128.45 27.65 78.68 28.46 79.14 20.26 128.92"/><polygon class="cls-28" points="21.02 125.46 26.97 128.89 27.36 128.67 21.41 125.23 21.02 125.46"/><polygon class="cls-27" points="20.93 125.98 21.36 126.22 26.99 129.47 26.97 128.89 21.66 125.83 21.02 125.46 20.93 125.98"/><polygon class="cls-28" points="21.52 122.45 27.46 125.88 27.85 125.65 21.91 122.22 21.52 122.45"/><polygon class="cls-27" points="21.43 122.96 21.86 123.21 27.48 126.46 27.46 125.88 22.16 122.82 21.52 122.45 21.43 122.96"/><polygon class="cls-28" points="22.01 119.43 27.96 122.87 28.35 122.64 22.41 119.21 22.01 119.43"/><polygon class="cls-27" points="21.93 119.95 22.36 120.2 27.98 123.44 27.96 122.87 22.65 119.8 22.01 119.43 21.93 119.95"/><polygon class="cls-28" points="22.51 116.42 28.46 119.85 28.85 119.63 22.9 116.19 22.51 116.42"/><polygon class="cls-27" points="22.42 116.94 22.85 117.18 28.48 120.43 28.46 119.85 23.15 116.79 22.51 116.42 22.42 116.94"/><polygon class="cls-28" points="23 113.41 28.95 116.84 29.34 116.61 23.4 113.18 23 113.41"/><polygon class="cls-27" points="22.92 113.92 23.35 114.17 28.97 117.42 28.95 116.84 23.65 113.78 23 113.41 22.92 113.92"/><polygon class="cls-28" points="23.5 110.39 29.45 113.83 29.84 113.6 23.9 110.17 23.5 110.39"/><polygon class="cls-27" points="23.42 110.91 23.84 111.16 29.47 114.4 29.45 113.83 24.14 110.76 23.5 110.39 23.42 110.91"/><polygon class="cls-28" points="24 107.38 29.95 110.81 30.34 110.59 24.39 107.16 24 107.38"/><polygon class="cls-27" points="23.91 107.9 24.34 108.14 29.96 111.39 29.95 110.81 24.64 107.75 24 107.38 23.91 107.9"/><polygon class="cls-28" points="24.49 104.37 30.44 107.8 30.83 107.57 24.89 104.14 24.49 104.37"/><polygon class="cls-27" points="24.41 104.88 24.84 105.13 30.46 108.38 30.44 107.8 25.14 104.74 24.49 104.37 24.41 104.88"/><polygon class="cls-28" points="24.99 101.35 30.94 104.79 31.33 104.56 25.39 101.13 24.99 101.35"/><polygon class="cls-27" points="24.91 101.87 25.33 102.12 30.96 105.36 30.94 104.79 25.63 101.72 24.99 101.35 24.91 101.87"/><polygon class="cls-28" points="25.49 98.34 31.43 101.77 31.82 101.55 25.88 98.11 25.49 98.34"/><polygon class="cls-27" points="25.4 98.86 25.83 99.1 31.45 102.35 31.43 101.77 26.13 98.71 25.49 98.34 25.4 98.86"/><polygon class="cls-28" points="25.98 95.33 31.93 98.76 32.32 98.53 26.38 95.1 25.98 95.33"/><polygon class="cls-27" points="25.9 95.84 26.33 96.09 31.95 99.34 31.93 98.76 26.62 95.7 25.98 95.33 25.9 95.84"/><polygon class="cls-28" points="26.48 92.31 32.43 95.75 32.82 95.52 26.87 92.09 26.48 92.31"/><polygon class="cls-27" points="26.39 92.83 26.82 93.08 32.45 96.32 32.43 95.75 27.12 92.68 26.48 92.31 26.39 92.83"/><polygon class="cls-28" points="26.98 89.3 32.92 92.73 33.31 92.51 27.37 89.08 26.98 89.3"/><polygon class="cls-27" points="26.89 89.82 27.32 90.06 32.94 93.31 32.92 92.73 27.62 89.67 26.98 89.3 26.89 89.82"/><polygon class="cls-28" points="27.47 86.29 33.42 89.72 33.81 89.49 27.87 86.06 27.47 86.29"/><polygon class="cls-27" points="27.39 86.8 27.82 87.05 33.44 90.3 33.42 89.72 28.11 86.66 27.47 86.29 27.39 86.8"/><polygon class="cls-28" points="27.97 83.27 33.92 86.71 34.31 86.48 28.36 83.05 27.97 83.27"/><polygon class="cls-27" points="27.88 83.79 28.31 84.04 33.94 87.28 33.92 86.71 28.61 83.64 27.97 83.27 27.88 83.79"/><polygon class="cls-28" points="28.46 80.26 34.41 83.69 34.8 83.47 28.86 80.04 28.46 80.26"/><polygon class="cls-27" points="28.38 80.78 28.81 81.02 34.43 84.27 34.41 83.69 29.11 80.63 28.46 80.26 28.38 80.78"/><polygon class="cls-26" points="35.82 82.7 35.64 83.74 27.65 132.3 26.96 132.69 26.96 132.69 35.16 82.92 35.64 82.75 35.82 82.7"/><polygon class="cls-27" points="26.96 132.69 26.15 132.23 34.35 82.45 35.16 82.92 26.96 132.69"/><path class="cls-29" d="M26,90.44c0-.7.17-2.22.08-2.51s-.9-.78-1.12-.18a7.14,7.14,0,0,0-.32,2.19,17.68,17.68,0,0,0,0,2C24.69,92.37,26,90.44,26,90.44Z"/><path class="cls-30" d="M25.27,109.58a.22.22,0,0,1,.08.21,1,1,0,0,1,0,.24.89.89,0,0,1-.34.56.75.75,0,0,1-.42.17s-.11.09-.12.16a.85.85,0,0,1-.17.45c-.14.13-.32.16-.65.1s-.42-.09-.45-.23a1.15,1.15,0,0,1,0-.4s.28-.4.32-.43Z"/><path class="cls-30" d="M28.16,104.27c-.19.15-.19.14-.19.21s-.07.23,0,.31a1.33,1.33,0,0,0,.75.22.82.82,0,0,0,.57-.28c0-.06,0-.08,0-.1a.57.57,0,0,1,.28-.06s0,0,.11.05a1,1,0,0,0,.6-.08.27.27,0,0,0,.12-.2.74.74,0,0,0,0-.15.13.13,0,0,0-.1-.14C30.24,104,28.16,104.27,28.16,104.27Z"/><path class="cls-31" d="M25.11,109.5c.12,0,.25.1.2.36a1,1,0,0,1-.35.58c-.12.08-.38.09-.45.21s-.17.42-.47.45-.77,0-.81-.24a1.68,1.68,0,0,1,.12-.91,1.34,1.34,0,0,1,.6-.39c.25,0,.43-.06.58-.1A2.17,2.17,0,0,1,25.11,109.5Z"/><path class="cls-32" d="M24.82,109.62a.56.56,0,0,1-.3.6,1.26,1.26,0,0,1-.75.19c-.26,0-.37-.13-.35-.38s.18-.54.18-.73.64-.38.64-.38.37-.12.44.11S24.82,109.62,24.82,109.62Z"/><path class="cls-33" d="M26.83,99.25a5.47,5.47,0,0,1-.19.6c-.18.51-.43,1.2-.51,1.44a43,43,0,0,0-1,4.66,20.2,20.2,0,0,0-.23,3.07.55.55,0,0,1-.12.19,1,1,0,0,1-.66.32,1.11,1.11,0,0,1-.75-.22s-.08-2-.06-3a15.73,15.73,0,0,1,.3-2.74c.16-.89-.13-3.07-.05-4.06A8.07,8.07,0,0,1,24,97.51c.05-.22.08-.19.3-.45l2,.42A9.82,9.82,0,0,1,26.83,99.25Z"/><path class="cls-34" d="M25.15,106a20.2,20.2,0,0,0-.23,3.07.55.55,0,0,1-.12.19,23.91,23.91,0,0,1,.29-3.61c.33-1.91.9-4.21,1-4.48s-.34-.36-.33-.82l.57-.66.32.21c-.18.51-.43,1.2-.51,1.44A43,43,0,0,0,25.15,106Z"/><path class="cls-35" d="M24.76,109.22a24,24,0,0,1,.18-2.88c.11-.79.54-3,.7-3.79.07-.31.18-.7.3-1.08a7.6,7.6,0,0,0,.29-1.19.22.22,0,0,0-.07-.21c-.16-.14-.55,0-.55,0l0-.06s.42-.1.61.06a.28.28,0,0,1,.09.26,8.23,8.23,0,0,1-.3,1.2c-.11.38-.23.77-.29,1.08-.16.77-.59,3-.7,3.78a21.88,21.88,0,0,0-.18,2.87Z"/><path class="cls-31" d="M29.79,103.61c.19.19.51.36.55.42a.26.26,0,0,1,0,.24s-.12.17-.45.14a1,1,0,0,0-.62.06c-.31.12-.58.3-.95.15s-.31-.22-.31-.29a1.67,1.67,0,0,1,.1-.57.56.56,0,0,1,.53-.25C29,103.54,29.51,103.34,29.79,103.61Z"/><path class="cls-32" d="M29.62,103.56a1.2,1.2,0,0,1-.52.34,1,1,0,0,1-.7-.07,1.13,1.13,0,0,1,.1-.61c.07-.15,1-.36,1-.36Z"/><path class="cls-33" d="M30.9,97.72c0,.36-1.06,5.55-1.06,5.55l-.06.11a1.19,1.19,0,0,1-1.07.08.7.7,0,0,1-.2-.15l0-.18.58-3.73v-.06S30.9,97.37,30.9,97.72Z"/><path class="cls-34" d="M30.37,98.55c-.06.16-.76.94-.86,1.17a3.45,3.45,0,0,0-.38,1.11c0,.26-.28,1.83-.42,2.63a.7.7,0,0,1-.2-.15l0-.18.58-3.73A8.73,8.73,0,0,0,30.37,98.55Z"/><path class="cls-33" d="M25.44,97.81a4,4,0,0,0,.13,2.1c.3.94.88.77,1.27.74a2.86,2.86,0,0,0,1.91-.75c.85-.72,2-1.57,2.13-2a.77.77,0,0,0-.65-1,3.33,3.33,0,0,0-1.92.47c-.47.2-1-.56-1-.56Z"/><path class="cls-35" d="M27,100.53h0a2.67,2.67,0,0,1-.66-.62l0,0h.05c1.35-.18,1.75-.82,1.84-1l0,0,0,0,.45.57v0l-.57.79h0Zm-.6-.63a2.38,2.38,0,0,0,.61.56l1.06-.3.55-.76-.4-.5A2.24,2.24,0,0,1,26.44,99.9Z"/><path class="cls-35" d="M24.11,101.08h-.05a.94.94,0,0,1-.49-.36h0a7.08,7.08,0,0,1,.06-1.84l0-.07,0,.07c.24.41,1.14.63,1.15.63h0v0a4.06,4.06,0,0,0,.27,1.25v0h0A4.63,4.63,0,0,1,24.11,101.08Zm-.49-.39a.89.89,0,0,0,.45.33,3.45,3.45,0,0,0,1-.24,3.85,3.85,0,0,1-.26-1.23,2.25,2.25,0,0,1-1.12-.6A7.5,7.5,0,0,0,23.62,100.69Z"/><path class="cls-32" d="M28.3,97.62c-.05.26-.16.65-1.44,1a3.5,3.5,0,0,1-2.69-.53.42.42,0,0,1-.23-.46l.12-.3s0,.33,1.32.82a2.37,2.37,0,0,0,1.19.06,3.37,3.37,0,0,0,1.26-.54c.18-.23.23-.22.23-.22l.25,0Z"/><polygon class="cls-33" points="28.15 98.13 27.96 98.24 27.62 97.64 27.75 97.58 28.15 98.13"/><polygon class="cls-33" points="25.54 98.16 25.52 98.43 25.48 98.9 25.29 98.84 25.37 98.08 25.54 98.16"/><polygon class="cls-36" points="24.09 97.34 23.92 98.06 23.87 98.02 24.04 97.28 24.09 97.31 24.09 97.34"/><path class="cls-35" d="M29.52,102.83l-.05,0,1-3.83v0c.37-1.1.27-1.25.24-1.28a3.06,3.06,0,0,0-1.46.37c-.54.23-.83.31-1.18.06l0,0c.33.24.6.16,1.13-.07s1.28-.48,1.5-.36c.06,0,.21.12-.2,1.35v0C30.51,99.14,29.53,102.79,29.52,102.83Z"/><path class="cls-37" d="M28.13,91a3.12,3.12,0,0,1,.21-.58s.15,0,.27,0,.21-.25.28-.49a3,3,0,0,0,.12-.75c0-.15,0-.31,0-.4s.05-.43-.05-.55-1.07-.75-1.7-.35a1.89,1.89,0,0,0-.63,1.78,1.6,1.6,0,0,1,0,.74C26.62,90.6,28.13,91,28.13,91Z"/><path class="cls-38" d="M28.83,89.27c0-.06-.08-.09-.15,0a1.12,1.12,0,0,0-.14.49c0,.15,0,.28.07.22a.26.26,0,0,0,.1-.17,1.73,1.73,0,0,1,.06-.32A1.12,1.12,0,0,0,28.83,89.27Z"/><path class="cls-29" d="M27.4,90.46a2.82,2.82,0,0,0-.77-.2,2.15,2.15,0,0,0-.21.38,5.32,5.32,0,0,1,1.14.35,2,2,0,0,1,.63.36,2.33,2.33,0,0,1,.19.25s.07-.19.07-.35a.41.41,0,0,0-.1-.3A3.38,3.38,0,0,0,27.4,90.46Z"/><path class="cls-39" d="M26.68,90.62a1.26,1.26,0,0,1-.36-.19.55.55,0,0,0-.42-.23,1,1,0,0,0-.91.52,3.31,3.31,0,0,0-.39,1.62c0,.53-.11,2-.25,3.22s-.23,1.65-.23,1.79a3,3,0,0,0,2.22.84,5.07,5.07,0,0,0,1.49-.54c.14,0,.25-.2.32-.32a9.93,9.93,0,0,0,.43-1.56c.25-1,.62-2.09.77-2.49s.49-.82.46-.94-.43-.31-.81-.43a1.17,1.17,0,0,1-.81-.56A3.66,3.66,0,0,0,26.68,90.62Z"/><path class="cls-29" d="M29.77,92.28c-.16-.14-.47,0-.7.26a1.3,1.3,0,0,0-.36,1.22c.14.35,1.63,2.74,2.43,2.61s.19-1.39.09-1.5S29.77,92.28,29.77,92.28Z"/><path class="cls-29" d="M32,93.13c-.17-.18-.79-.34-1-.11-.06.45-.42,2.18-.5,2.47s.6,1.06.93.77A13.64,13.64,0,0,0,32,93.13Z"/><path class="cls-38" d="M32.67,91.6a.27.27,0,0,1-.09.12,1.09,1.09,0,0,0-.19.26,5.41,5.41,0,0,1-.32.66,1.54,1.54,0,0,0-.21.61,5.36,5.36,0,0,1-.79-.11s.09-.28.11-.43a.8.8,0,0,0,0-.38c0-.13-.12-.3-.14-.39a1.61,1.61,0,0,1,0-.34,1.06,1.06,0,0,1,.08-.33.29.29,0,0,0,.05-.15c0-.05,0-.07.07-.06h0s.1.15.11.17a.53.53,0,0,1,0,.11v0l0,0,.21-.36a.7.7,0,0,1,.21,0,.61.61,0,0,1,.12,0h0L32,91a.58.58,0,0,1,.23,0s.06.06.08.1,0,0,0,0h0s.16,0,.19.08a.6.6,0,0,1,0,.18h0l.08,0A.13.13,0,0,1,32.67,91.6Z"/><path class="cls-29" d="M27.3,85.14a14.88,14.88,0,0,0-2.21,2.3c-.27.48.53,1.25,1,.57a27,27,0,0,1,1.78-2.13S27.59,85.29,27.3,85.14Z"/><path class="cls-38" d="M29.51,84.31a.39.39,0,0,1,0,.17,2.76,2.76,0,0,1-.27.39s-.51.26-.73.36a4.28,4.28,0,0,0-.78.65l-.47-.34,0-.33c.29-.21.48-.34.53-.46s.07-.53.12-.65a4.19,4.19,0,0,1,.24-.51.55.55,0,0,1,.23-.1.09.09,0,0,1,.07,0h.05l.18,0a.19.19,0,0,1,.13,0l.05,0s0,0,0,0h0a.24.24,0,0,1,.15,0,.2.2,0,0,1,.13,0v0h0a.21.21,0,0,1,.16,0s.05,0,0,.07,0,0,0,0a1.18,1.18,0,0,0-.18.21c0,.06-.22.4-.25.49s0,.11,0,.14a.36.36,0,0,0,.1.07s.06,0,.14-.12a.82.82,0,0,0,.16-.24s0-.1.14-.17l.05,0h0c.07,0,.09,0,.09,0S29.52,84.23,29.51,84.31Z"/><path class="cls-38" d="M31.37,91.35l-.07.15,0,.16-.14.15a1.86,1.86,0,0,0,.11-.27.85.85,0,0,1,.07-.21.34.34,0,0,0-.05-.27h0s.1.15.11.17a.53.53,0,0,1,0,.11v0Z"/><path class="cls-38" d="M31.91,91h0a.26.26,0,0,0-.13.1l-.18.38c-.05.08,0,0,0,0s.16-.32.17-.34a.49.49,0,0,1,.16-.12Z"/><path class="cls-38" d="M32.32,91.19l-.17,0a1.56,1.56,0,0,1-.23.31,1.09,1.09,0,0,1,.16-.31.37.37,0,0,1,.21-.09S32.31,91.19,32.32,91.19Z"/><path class="cls-38" d="M32.54,91.46a.56.56,0,0,0-.17.09s-.15.17-.19.2a.48.48,0,0,1,.07-.2l.19-.16s0,0,0,.06,0,0,.07,0Z"/><path class="cls-38" d="M28.5,83.51h0l-.1,0s-.14.29-.18.34.05-.17.1-.28.05-.08.14-.12Z"/><path class="cls-38" d="M28.9,83.53a.37.37,0,0,0-.16.07s-.25.35-.27.36a2,2,0,0,1,.21-.35.45.45,0,0,1,.2-.1S28.9,83.53,28.9,83.53Z"/><path class="cls-38" d="M29.18,83.59l-.19.14s-.23.32-.28.37a2.54,2.54,0,0,1,.23-.35,1.91,1.91,0,0,1,.24-.19v0Z"/><path class="cls-38" d="M29.5,84.05a.27.27,0,0,0-.13.17,1.57,1.57,0,0,1-.16.25s-.11.21-.21.19-.09-.12-.1-.2a2.91,2.91,0,0,1,.27-.56,1.17,1.17,0,0,1,.21-.24s0,0,0,0a1.18,1.18,0,0,0-.18.21c0,.06-.22.4-.25.49s0,.11,0,.14a.36.36,0,0,0,.1.07s.06,0,.14-.12a.82.82,0,0,0,.16-.24s0-.1.14-.17Z"/><path class="cls-32" d="M28,90.07a.76.76,0,0,1-.65.09,4,4,0,0,1-.62-.15c-.07-.05,0-.17-.14-.51a2.39,2.39,0,0,1-.18-1.38.8.8,0,0,1,.65-.65s.24-.36,1.08-.2,1,.69,1,.76a1.59,1.59,0,0,1,0,.44,2.42,2.42,0,0,0,0,.24.46.46,0,0,0-.07.11,3.45,3.45,0,0,0-.1.48l-.08,0s-.07-.3-.27-.13a2,2,0,0,0-.39.59C28.07,89.89,28,90.07,28,90.07Z"/><path class="cls-4" d="M70.74,101a5,5,0,0,1-4.53,0c-1.26-.72-1.26-1.89,0-2.61a5,5,0,0,1,4.53,0C72,99.08,72,100.25,70.74,101Z"/><polygon class="cls-40" points="71.14 93.81 70.92 93.75 73.25 83.97 73.47 84.02 71.14 93.81"/><path class="cls-38" d="M71.48,89.47c.07-.08.1-.18.13-.18s.13,0,.19,0,.07.15.11.17.32.09.37.12.16.09.15.16,0,.13,0,.18,0,.14,0,.17-.1.08-.1.13,0,.07-.06.14,0,.14-.07.18a.37.37,0,0,1-.25.08c-.1,0-.15,0-.2-.06a.71.71,0,0,1-.15-.18C71.55,90.3,71.48,89.47,71.48,89.47Z"/><path class="cls-30" d="M67.4,98.72a.2.2,0,0,1,.06.12.86.86,0,0,1,0,.16.89.89,0,0,1-.08.3,1.41,1.41,0,0,1-.3.33c-.07.05-.16.06-.2.11a2.44,2.44,0,0,0-.14.28.39.39,0,0,0,0,.13,1.28,1.28,0,0,1,0,.17.52.52,0,0,1-.23.29.93.93,0,0,1-.5,0c-.14,0-.29-.1-.3-.16a1.75,1.75,0,0,1,0-.34Z"/><path class="cls-31" d="M65.77,99.38a1.72,1.72,0,0,0-.09.44,1.4,1.4,0,0,0,0,.36c0,.09.19.16.39.18s.39,0,.52-.17.13-.42.28-.54.35-.24.43-.39a1.15,1.15,0,0,0,.14-.42.27.27,0,0,0-.1-.24.82.82,0,0,0-.46-.06A10.85,10.85,0,0,0,65.77,99.38Z"/><path class="cls-33" d="M67.3,88.52c-.2.09-.28.12-.32.26a11.94,11.94,0,0,0-.31,1.41,7.08,7.08,0,0,0,0,1.57,8.49,8.49,0,0,1,0,1.54,19.73,19.73,0,0,1-.43,2c-.16.51-.46,3.89-.48,4.3.3.51,1.17.18,1.22,0s.74-4,.83-4.28,1-3.09,1-3.38a13,13,0,0,0-.06-3.24C68.47,88.48,67.3,88.52,67.3,88.52Z"/><path class="cls-35" d="M66.64,99.81h-.06c0-.33.49-2.69.69-3.54a21.82,21.82,0,0,1,.71-2.2l.07-.19A6.75,6.75,0,0,0,68.44,92h.06a7.42,7.42,0,0,1-.4,1.88l-.07.19a19.54,19.54,0,0,0-.7,2.2C67.1,97.21,66.64,99.51,66.64,99.81Z"/><path class="cls-30" d="M69,99.65c0,.06-.08,0-.09.15a.91.91,0,0,0,0,.28c0,.07.24.18.37.22a.63.63,0,0,0,.57-.14c.19-.17.22-.22.22-.24a.75.75,0,0,1,0-.11,1.67,1.67,0,0,1,.2-.15.85.85,0,0,1,.22,0,1.21,1.21,0,0,0,.42-.33.63.63,0,0,0,.12-.27,1.15,1.15,0,0,0,0-.24.5.5,0,0,0-.11-.27C70.86,98.47,69,99.65,69,99.65Z"/><path class="cls-31" d="M69.15,99.21a1,1,0,0,0-.18.54c0,.1.16.26.48.29s.58-.28.69-.36.6-.3.72-.46a.55.55,0,0,0,.17-.45.48.48,0,0,0-.22-.37.42.42,0,0,0-.3-.12c-.08,0-.2.09-.45.18A5.06,5.06,0,0,0,69.15,99.21Z"/><path class="cls-33" d="M67.89,89a6.19,6.19,0,0,0-.28,1.81c.08.78.14,1,.41,1.14l.45.33s.27,2.56.31,3,.27,4.1.31,4.3.25.32.53.29a.6.6,0,0,0,.55-.47c0-.22.22-3.72.3-4.61s.29-3,.3-3.52a13.38,13.38,0,0,0-.21-2c-.07-.32-.49-.38-.49-.38Z"/><path class="cls-35" d="M69.22,92.56h0a4.36,4.36,0,0,1-.8-.59c0-.09-.19-1-.22-1.23v0h0a4.89,4.89,0,0,0,1.84.06c.13,0,.15,0,.16,0h0A12.3,12.3,0,0,1,70,92.23,1.75,1.75,0,0,1,69.22,92.56Zm-1-1.8a11.65,11.65,0,0,0,.21,1.18,4.38,4.38,0,0,0,.77.56,1.86,1.86,0,0,0,.8-.3c0-.09.13-1.21.15-1.4l-.12,0A5,5,0,0,1,68.22,90.76Z"/><path class="cls-35" d="M66.8,92h0s0,0-.21-.3h0s0-.42,0-.68.1-.92.1-.93v-.11l0,.1s.06.17.38.24h0v0c0,.13.17,1.36.15,1.45S66.84,92,66.8,92Zm-.16-.32a1.15,1.15,0,0,0,.17.27c.06,0,.4-.13.41-.18s-.11-1.21-.15-1.41a.67.67,0,0,1-.36-.2c0,.18-.07.65-.08.85A4.36,4.36,0,0,0,66.64,91.63Z"/><path class="cls-35" d="M70.06,99.66h0s.07-1.3.1-1.68c0-.16,0-.63,0-1.17,0-.75.06-1.61.09-1.92,0-.14.05-.38.09-.68a25.14,25.14,0,0,0,.28-2.65,5.81,5.81,0,0,0-.25-2.06l0,0a5.89,5.89,0,0,1,.26,2.08,25.22,25.22,0,0,1-.29,2.65c0,.31-.07.55-.09.69,0,.3-.06,1.16-.08,1.91,0,.55,0,1,0,1.18C70.13,98.36,70.06,99.65,70.06,99.66Z"/><path class="cls-41" d="M73,82.21c.07,0,0-.22,0-.36s-.24-.47-.31-.46-2.46,1.07-2.6,1.2-.23.4,0,.72.43.27.62.18S73,82.21,73,82.21Z"/><path class="cls-41" d="M70.41,82.75c-.18-.25-.66,0-1.62.07-.28,0-1.3-.09-1.59.19s-.32.48-.29.59S67,84,68.17,84a11.11,11.11,0,0,0,2.47-.45Z"/><path class="cls-38" d="M72.71,81.41a.81.81,0,0,0,.07.37,1.13,1.13,0,0,0,.17.31s0,0,0,0l.38-.27s0,0,.13,0a4.09,4.09,0,0,0,.53,0l.24-.09a.6.6,0,0,0,.11-.12.32.32,0,0,0,0-.08.37.37,0,0,0,.06-.08.27.27,0,0,0,0-.13l0,0s.07,0,.08,0a.25.25,0,0,0,0-.17v0s0,0,0-.07,0-.11,0-.16a.4.4,0,0,0-.2-.05h-.14a.14.14,0,0,0,0,0,1.72,1.72,0,0,0-.46,0,3.65,3.65,0,0,0-.5.4l0,.09Z"/><path class="cls-42" d="M74.31,80.78c.07,0,.11,0,.06.09a.21.21,0,0,1-.19.09c-.07,0-.17-.1-.2-.1a1.68,1.68,0,0,0-.2,0s0,0,0,0l.06.07a.53.53,0,0,1-.07.18.83.83,0,0,1-.12.17l-.1.09a.26.26,0,0,0,.09.07s0-.1,0-.1l.09,0a.56.56,0,0,0,.07.14s0,.09.09.11l.1,0h0l.12,0,0-.08-.16,0s-.07,0-.07-.07.07-.07.07-.07a.33.33,0,0,1-.14,0,.08.08,0,0,1,0-.13l.08,0a.15.15,0,0,1,0-.08s0-.06.06-.07l.24,0h.38l0-.06-.07,0-.34,0h.06l.09,0a.15.15,0,0,0,.08-.1.07.07,0,0,0,0,0Z"/><path class="cls-38" d="M74.4,81.49a.05.05,0,0,0,0,0,2.5,2.5,0,0,0-.26-.07l-.2,0h0l.18,0,.26.07h.07Z"/><path class="cls-38" d="M74.46,81.29s0-.05,0-.05L74,81.18l-.18,0,0,0H74l.42.06h.1Z"/><path class="cls-41" d="M72.07,90a.47.47,0,0,1-.4.5,8.33,8.33,0,0,1-2.27-.92c-.24-.22.38-1.38,1-.92a9.91,9.91,0,0,0,1.34.81A.57.57,0,0,1,72.07,90Z"/><path class="cls-39" d="M70.24,89.1A6.64,6.64,0,0,0,70.41,87a5.76,5.76,0,0,0-.26-1.55,11.23,11.23,0,0,0-.65-1.15,3.25,3.25,0,0,0-.43-.68,5.78,5.78,0,0,0-1.27-.63.9.9,0,0,0-.86.42,3.41,3.41,0,0,0-.22,1.34,6.47,6.47,0,0,0,.08,1.42A9.51,9.51,0,0,1,67,88a3.53,3.53,0,0,0,0,.7c0,.11.66.34,1.25.45S70,89.38,70.24,89.1Z"/><path class="cls-43" d="M67.59,82.5a1.76,1.76,0,0,1,0,.7c0,.18.5.3.72.37s.71.34.72.23a7.92,7.92,0,0,1,0-.83c0-.2.09-.28.11-.29s.28-.09.33-.25,0-.87-.77-.71A1.82,1.82,0,0,0,67.59,82.5Z"/><path class="cls-38" d="M69.19,80.5a1.47,1.47,0,0,1,.3.62,3.35,3.35,0,0,0,.06.47,3.86,3.86,0,0,1,.09.56.54.54,0,0,1-.09.33.31.31,0,0,1-.23.12c-.09,0-.18-.17-.2-.32a3.81,3.81,0,0,0-.07-.75c-.07-.14-.29-.63-.18-.74S69.19,80.5,69.19,80.5Z"/><path class="cls-38" d="M69.33,81.93c0-.07-.09-.1-.13-.08s-.07.1-.07.27,0,.19.05.24.08.08.1,0,0-.16,0-.19A1.27,1.27,0,0,0,69.33,81.93Z"/><path class="cls-32" d="M68.62,82.73a1.28,1.28,0,0,1-.74.2c-.15,0-.14-.1-.24-.2a3.33,3.33,0,0,1-.44-.68,1.82,1.82,0,0,1-.26-.87.63.63,0,0,1,.39-.56s.09-.42.74-.5a2.1,2.1,0,0,1,1,0,.59.59,0,0,1,.29.45,1.72,1.72,0,0,1,0,.57.78.78,0,0,0,0,.34,1.87,1.87,0,0,0,0,.27l-.07.07s-.08-.18-.27,0a.7.7,0,0,0-.29.51A1,1,0,0,1,68.62,82.73Z"/><path class="cls-41" d="M69.34,85.22a.66.66,0,0,0-.64.76,17.38,17.38,0,0,0,.66,3.57c.26.34.71-.21.85-.42a1,1,0,0,0,.21-.7A21.27,21.27,0,0,0,70,85.74C69.85,85.38,69.63,85.18,69.34,85.22Z"/><polygon class="cls-40" points="73.47 84.02 73.25 83.97 75.51 74.49 75.73 74.54 73.47 84.02"/><path class="cls-44" d="M74.56,73.49a.63.63,0,0,1,.3-.5.19.19,0,0,1,.2,0h0l2.8,1.61-.44.7-2.77-1.6h0A.21.21,0,0,1,74.56,73.49Z"/><path class="cls-45" d="M77.35,75.1c0,.18.13.26.29.16a.64.64,0,0,0,.29-.5c0-.19-.13-.26-.29-.17A.64.64,0,0,0,77.35,75.1Z"/><path class="cls-46" d="M77.5,75.7a.33.33,0,0,1-.17,0l-1.58-.89h0l0,0,0,.24-.22,0,.06-.24a.28.28,0,0,1,.16-.19.27.27,0,0,1,.25,0l1.58.88a.12.12,0,0,0,.16,0l.12-.15a.1.1,0,0,0,0-.1.15.15,0,0,0-.06-.09L77.58,75l.12-.19.11.07a.4.4,0,0,1,.16.24.35.35,0,0,1-.07.28l-.13.15A.34.34,0,0,1,77.5,75.7Z"/></g></g></svg>