<?xml version="1.0" encoding="utf-8"?>
<!-- Generator: Adobe Illustrator 24.3.0, SVG Export Plug-In . SVG Version: 6.00 Build 0)  -->
<svg version="1.1" id="Слой_1" xmlns="http://www.w3.org/2000/svg" xmlns:xlink="http://www.w3.org/1999/xlink" x="0px" y="0px"
	 viewBox="0 0 3423.6 2137.4" style="enable-background:new 0 0 3423.6 2137.4;" xml:space="preserve">
<style type="text/css">
	.st0{fill:#E7F3FE;}
	.st1{fill:#CCE2FF;}
	.st2{opacity:0.5;fill:#9EC8FF;enable-background:new    ;}
	.st3{fill:#FFFFFF;}
	.st4{fill:#303C60;}
	.st5{fill:#4476BD;}
	.st6{fill:#3E6BAB;}
	.st7{fill:#F09959;}
	.st8{fill:#A2DFF2;}
	.st9{fill:#96CFE0;}
	.st10{fill:#E38540;}
	.st11{fill:#F5DC95;}
	.st12{fill:#A8CEFF;}
	.st13{fill:#93BBF0;}
	.st14{fill:#75A1DE;}
	.st15{fill:#2E5B9A;}
	.st16{fill:#6791C9;}
	.st17{fill:#F37168;}
	.st18{fill:#D54A41;}
	.st19{fill:#F2E5DE;}
	.st20{fill:#A86B48;}
	.st21{fill:#7A4E34;}
	.st22{fill:#74B570;}
	.st23{fill:#9CD499;}
	.st24{opacity:0.5;fill:#FFFFFF;enable-background:new    ;}
	.st25{fill:#94BDF2;}
	.st26{fill:#9EC8FF;}
	.st27{fill:#F39892;}
	.st28{clip-path:url(#SVGID_2_);}
	.st29{fill:#FFB8B3;}
	.st30{fill:#FAE8B6;}
</style>
<path class="st0" d="M386,164.7c515.6-191.4,1039.7-22.2,1395.1,346.4s1101.4-254.4,1497,113.6c270,251.1,146.3,896.8-223.9,1176.5
	c-503.2,380.1-2377.7,391.5-2688.7,261.1c-531.5-222.9-3.4-635.7-251.5-1031.4C-178.7,564.1,158.2,249.3,386,164.7z"/>
<path class="st1" d="M3288.4,1952.4c-258.1-12.6-1136.1,8.8-1403.2,17.1s-577-11-738-39.4s-1091.8,2.4-1049.5,78.8
	s414.7,34.2,837,64.9s1372.2-3.8,1586.5,0s410.7-7.7,686.9-23S3438.1,1959.7,3288.4,1952.4z"/>
<path class="st2" d="M2728.7,270.2c1-9.2,1.6-18.5,1.6-27.8c0-5-0.2-9.9-0.4-14.8l-45.9-14.9c-2.8-19-8.2-37.5-16.2-55l30.4-37.5
	c-7-12.4-15.1-24.1-24.1-35l-45.9,15c-13.4-13.7-28.7-25.5-45.4-34.9l2.6-48.2c-12.9-5.9-26.3-10.6-40.1-14.2l-28.3,39.1
	c-18.9-3.2-38.2-3.7-57.3-1.5L2433.2,0c-13.9,2.8-27.6,6.8-40.8,12l0.1,48.3c-17.2,8.6-33.1,19.5-47.2,32.5l-45-17.4
	c-9.6,10.5-18.3,21.8-25.9,33.7l28.4,39c-8.9,17-15.4,35.2-19.2,54.1l-46.7,12.5c-1,9.2-1.6,18.5-1.6,27.8c0,5,0.2,9.9,0.4,14.8
	l45.9,14.9c2.8,19,8.2,37.5,16.2,55l-30.4,37.5c7,12.4,15.1,24.1,24.1,35l45.9-15c13.4,13.7,28.7,25.5,45.4,34.9l-2.6,48.2
	c12.9,5.9,26.3,10.6,40.1,14.2l28.3-39.1c18.9,3.2,38.2,3.7,57.3,1.5l26.2,40.6c13.9-2.8,27.6-6.9,40.8-12l-0.1-48.3
	c17.2-8.5,33.1-19.5,47.2-32.5l45,17.4c9.6-10.5,18.3-21.8,26-33.7l-28.4-39c8.9-17,15.4-35.2,19.2-54.1L2728.7,270.2z
	 M2482.8,339.5c-53.6,0-97-43.5-96.9-97.1s43.5-97,97.1-96.9c53.6,0,96.9,43.4,96.9,97C2579.8,296.1,2536.4,339.5,2482.8,339.5
	C2482.8,339.5,2482.8,339.5,2482.8,339.5z"/>
<path class="st3" d="M2615.2,354.5c-2.8,0-5-2.2-5-5c0-1.2,0.4-2.3,1.2-3.2c36.2-43.7,47.1-103.1,28.7-156.8
	c-0.9-2.6,0.5-5.5,3.1-6.4s5.5,0.5,6.4,3.1l0,0c19.6,57,8,120.1-30.4,166.5C2618,353.9,2616.6,354.5,2615.2,354.5z"/>
<path class="st3" d="M2601.1,125.5c-1.3,0-2.5-0.5-3.4-1.4c-16.1-15.2-35.1-26.9-55.9-34.5c-2.6-0.9-4-3.8-3.1-6.4
	c0.9-2.6,3.8-4,6.4-3.1c0,0,0.1,0,0.1,0c22.1,8,42.3,20.5,59.4,36.6c2,1.9,2.1,5.1,0.2,7.1C2603.8,124.9,2602.5,125.5,2601.1,125.5
	L2601.1,125.5z"/>
<path class="st3" d="M2445.1,85c-2.8,0-5-2.2-5-5c0-2.3,1.6-4.3,3.8-4.9c13.8-3.5,28.1-5.2,42.4-5.2c2.8,0,5,2.2,5,5
	c0,2.8-2.2,5-5,5c-13.5,0-26.9,1.7-39.9,4.9C2446,85,2445.6,85,2445.1,85z"/>
<rect x="786.7" y="0.7" class="st2" width="1546.4" height="928.9"/>
<rect x="862" y="23.4" class="st3" width="1454.9" height="852.7"/>
<path class="st4" d="M2102.7,464.1c69.3-66,187.8-64.5,185.3,36s5.8,109.9,34.3,162.7c99,182.9-118,172.2-208.5,178.2
	c-90.5,6-83-164.5-67-259C2062.8,487.4,2082.4,483.4,2102.7,464.1z"/>
<path class="st5" d="M2135,1040.3c-22.2,186.7-62.6,324.7-67.1,413.2s-22.5,436.9-22.5,436.9s49.5-3.5,54-11s93-204,88.5-325.5
	s88.4-306.2,88.4-306.2l-22.4-181.2L2135,1040.3z"/>
<path class="st6" d="M2156.3,1121.6l-34.8,14.6c-9.4,59.2-19.9,112.4-29.1,159.6c55.3,35.8,83.9,154.9,96.1,227.8
	c6.2-81.5,44.7-180,68.6-234.5L2156.3,1121.6z"/>
<path class="st5" d="M2316.8,1021.5c0,0,74.9,95.6,72.6,204c-3.6,165-21.6,212.2,9.8,385.2c12.2,67.6-27,288.7-27,288.7
	s-33.5,2.6-51.5-6.3c1.5-16.2-21.7-280.5-66.8-402c-21.9-58.8-52.5-223.6-69-318.1s-19.5-114-13.5-114S2316.8,1021.5,2316.8,1021.5z
	"/>
<path class="st7" d="M1890,756.1c0,0,3.3-49.5-2-64.7s-51.3-28.6-51.3-28.6s-2,70.7,2.7,79.3s32,33.3,32,33.3L1890,756.1z"/>
<path class="st8" d="M2148.6,720c-105.3,113.4-139.7,161.1-147.7,161.1c-25-44.1-108-137.5-108-137.5l-35.4,22.8
	c0,0,81.8,213.8,133.8,216s157.7-73.7,159-82.4S2148.6,720,2148.6,720z"/>
<path class="st9" d="M2038.8,971.3c51.5-21,110.6-64.9,111.6-71.4c1.3-8.7-1.7-179.9-1.7-179.9c-23,24.7-43,46.6-60.4,65.8
	C2069.4,856.1,2070.6,932.6,2038.8,971.3z"/>
<path class="st8" d="M2255.7,645.4c0,0,100.8,50.5,122.8,140s-43.1,199.9-51.1,258.9s-192,69.3-192,6.2
	c0-60.5-46.1-188.9-43.5-221.7c6.1-76.8,118.3-170.8,118.3-170.8L2255.7,645.4z"/>
<path class="st7" d="M2226.4,529.6l43.3,133.4c0,0-46.2,35.7-125.3,121.4c3.1-57.1,50.9-119.3,50.9-119.3l-32.7-126L2226.4,529.6z"
	/>
<path class="st10" d="M2246.5,591.8l-20.2-62.2l-63.8,9.6l32.7,126c0,0-3.2,5.1-7.9,13.1C2218.2,655.3,2237.1,626.8,2246.5,591.8z"
	/>
<path class="st7" d="M2202.5,559.7c-11.7,42.5-56.9,65.8-89,57s-39-46.5-27.3-89s47.2-69.7,79.3-60.9S2214.2,517.2,2202.5,559.7z"/>
<path class="st8" d="M2127.3,990.6c14,88.8-38,278.7-38,278.7s31,7,124-2s134-101.8,148-104.4s21.2,86.4,28.1,93.4
	s8-112.3-10.1-159.3c-32-83.2-25.7-118.5-13.8-168.9C2386.8,838.6,2127.3,990.6,2127.3,990.6z"/>
<path class="st5" d="M2047.6,1846.7c8.4,34-8.2,61-30.3,80.7c-18,16-73.3,22.8-70.7,30.8s68,10.5,90,7.2c22-3.3,28-14,55.4-14
	c18,0,21.3-14.6,13.3-32.6s-10.8-28-3.6-44.2S2047.6,1846.7,2047.6,1846.7z"/>
<path class="st5" d="M2374.1,1846.7c-1.3,35.3-5.4,61.6,3.2,78c33.5,28,61.3,59.8,50.7,62c-50.7,10.5-70-19.9-98.7-28.5
	c-35.2-10.6,3.3-54.8-10.4-111.5c-7.7-31.5,53.1-24,53.1-24L2374.1,1846.7z"/>
<path class="st9" d="M2386.9,1126.1c-2-11.1-4.5-21.1-7.6-29c-32-83.2-25.7-118.5-13.8-168.9c0.9-3.4,1.3-6.9,1.2-10.5
	c2.7-9,5.2-18.1,7.4-27.3l-10.9-98l-78.3-93c-58.7,86-19.1,193-27.9,252S2150,1085.7,2150,1085.7l3.2,20.9
	c4.4,28.7,31,48.6,59.8,44.7c40.5-5.6,93.7-16.9,117.4-38.9C2353.2,1091.1,2373.5,1107.5,2386.9,1126.1z"/>
<path class="st7" d="M2173,1082.3c0,0-43.4,12.2-48.6,14.9s-8.1,17.1-8.1,17.1s-24.9,21.6-15.3,29.2s26.5,27,49,18
	c13.8-5.5,24.5-56.2,33.5-56.6S2173,1082.3,2173,1082.3z"/>
<path class="st8" d="M2295.9,688.1c46.5,1.3,88.6,85,103.3,157.6s30.1,175.8,30.1,175.8s-77,60.8-153.1,78.5
	c-66.4,15.5-100.3,21.6-100.3,21.6l-13.5-37.8l158.8-93.3c0,0-58.4-110-64.2-193S2260.6,687.1,2295.9,688.1z"/>
<rect x="1739.4" y="656.8" transform="matrix(0.9804 -0.1968 0.1968 0.9804 -101.4724 367.5205)" class="st11" width="118.1" height="75"/>
<path class="st7" d="M1862.1,750.1c1.6-30.4-13.5-71.9-22.1-71.8s2.7,27.2-2,45.2C1835.5,733.2,1862.1,750.1,1862.1,750.1z"/>
<path class="st4" d="M2094.8,480.1c2.6,83.3,99.9,77,126.6,71.8s-32.5,175.8,18.3,186.2c37.3,7.7,28.9-50.7,70.3-46.8
	c18.3,1.7,36.8,30.1,36.8,30.1s-2.8-17.5-16.8-30.1s-50.7-89.9-60.4-145.3s-75-91.1-94.3-92.2s-66.7,20.9-66.7,20.9L2094.8,480.1z"
	/>
<path class="st4" d="M2238.8,757c-1.3,0-2.7-0.1-4-0.4c-16.3-3.5-24.1-20.5-24.8-53.8c-0.6-28.5,4.1-65,9.1-103.7
	c2-15.6,4.1-31.8,5.8-47.5c0.2-1.3,1.5-2.2,2.8-2c1.2,0.2,2.1,1.3,2,2.5c-1.7,15.7-3.8,31.9-5.8,47.5
	c-9.6,74.9-18.8,145.6,11.9,152.1c0.9,0.2,1.9,0.3,2.9,0.3c17.6,0,33.4-34.3,42.7-67.7c0.4-1.3,1.8-2,3.1-1.6
	c1.2,0.4,1.9,1.6,1.6,2.8C2279.9,707.7,2263.5,757,2238.8,757z"/>
<path class="st4" d="M2232.3,776.4c-5.5,0-10.7-2.3-14.4-6.4c-33.2-35.1-0.4-211.1,1-218.5c0.3-1.3,1.6-2.1,2.9-1.8
	c1.2,0.3,2,1.5,1.8,2.7c-0.3,1.8-33.8,181-2.3,214.3c3.3,3.7,8.3,5.5,13.2,4.7c17.2-2.3,27.2-25.7,36-46.3
	c8.5-20,16.5-38.9,30.8-38.4c1.3,0,2.4,1.2,2.4,2.5c0,1.3-1.1,2.4-2.4,2.4c0,0,0,0-0.1,0h-0.4c-10.7,0-18,17.2-25.8,35.5
	c-9.3,21.8-19.8,46.6-39.8,49.2C2234.3,776.3,2233.3,776.4,2232.3,776.4z"/>
<path class="st7" d="M2224.9,567.9c-6.9,8.8-17.6,12-24,7s-6-16.2,0.8-25s17.6-12,24-7S2231.8,559,2224.9,567.9z"/>
<path class="st4" d="M1468.7,876.5c23.8,47.5,4.1,102.2-42.7,121.6c-47,19.5-98.5,8.4-122.2-39.1s-6.1-104.5,39.4-127.3
	S1444.9,829,1468.7,876.5z"/>
<path class="st4" d="M1340.6,1003.7c-5.2,0-15.6-1.9-28.7-13.5c-10.8-9.6-18.5-24.2-21.8-41.3c-4.1-21.6-1.4-46.3,8-73.6
	c0.4-1.3,1.8-1.9,3.1-1.5s1.9,1.8,1.5,3.1c-9.2,26.5-11.8,50.4-7.8,71.1c3.1,16,10.3,29.7,20.2,38.6c16.7,14.8,27.8,12.1,28,12.1
	c1.3-0.4,2.6,0.4,3,1.7s-0.4,2.6-1.7,3l0,0C1343.1,1003.6,1341.8,1003.8,1340.6,1003.7z"/>
<path class="st12" d="M1413.2,1061.4c27,6.1,61.2,81.2,77.9,129.4c16.9,48.6,45.4,108.8,64.2,127.5s141.7,62.1,141.7,62.1
	s-303.9,0.6-297.7,0S1413.2,1061.4,1413.2,1061.4z"/>
<path class="st13" d="M1574.6,1356.2c-16.6-2.4-76.7,5.3-51.1-5.3s22-24.4,22-24.4s-36.2,30.3-42.8,3.8
	c-5.6-22.8-7.8-103.5-29.2-184.4c-17.7-40.1-40.8-80.2-60.2-84.6c0,0-0.7,28.5-1.8,68.4c7.5,88.3,20.1,218.1,23.3,250.8
	c40.3,0.1,107.7,0,164.1-0.1l37.5-1.8C1636.4,1378.7,1591.2,1358.6,1574.6,1356.2z"/>
<path class="st12" d="M1313.8,1044.7c0,0-86,48.1-106.1,58.3s56.2,310.3,73.1,323.1s166.2,2.2,183.2-14s-13-65.9,1.7-165.5
	s-44.9-185.5-52.5-185.3s-57.6-16.7-57.6-16.7L1313.8,1044.7z"/>
<path class="st13" d="M1280.9,1426.2c17,12.9,123.8,13.1,169.2-1c5.1-1.6,28.4-10.9,29-19.6c-5.5-1-27.3,1.6-36.1-0.4
	c-30.8-7.1-47.7-45.2-47.7-45.2s-16.9-6.1-54.8-22.1s-22.3-64.6-23.2-86s-37.4-91.4-106.1-144.4l-6.3,2.8
	C1200,1159,1265.2,1414.2,1280.9,1426.2z"/>
<path class="st14" d="M1871.9,1190.7h-207.1l-94.3,200.8h228.2l85.4-181.8c3.1-6.7,0.2-14.6-6.4-17.7
	C1875.8,1191.2,1873.8,1190.7,1871.9,1190.7z"/>
<path class="st6" d="M1582.8,1394.3h-124.7c-7.7,0-14-6.3-14-14c0-7.7,6.3-14,14-14l0,0h115.7L1652,1198c3.1-7.1,11.4-10.3,18.4-7.2
	c7.1,3.1,10.3,11.4,7.2,18.4c-0.1,0.2-0.2,0.4-0.2,0.5l-82,176.5C1593.1,1391.2,1588.2,1394.3,1582.8,1394.3z"/>
<path class="st7" d="M1366.6,1351.5c54.1,10.1,67.4,22.5,96.8,27.3c33.4,5.4,29.4,12.8,4.6,12.8s-87.2,1-108.6-3.8
	S1366.6,1351.5,1366.6,1351.5z"/>
<path class="st12" d="M1201,1108.7c-41.4,132.5-100.2,282.8-90.8,282.8s247.3,9.6,256.7,1.6s6.7-38.8,5.3-42.8
	s-135.3-27.8-135.3-27.8s17.6-34.4,24.3-101.6S1208.8,1083.5,1201,1108.7z"/>
<path class="st7" d="M1345.3,929.6l-33.4,122c0,0,56.4,88.1,71.9,80.2s-8.7-71.6-8.7-80.2s24.2-98,24.2-98L1345.3,929.6z"/>
<path class="st10" d="M1376.3,1057.8c-0.6-2-1-4.1-1.2-6.2c0-8.7,24.2-98,24.2-98l-54-24l-11,40.4
	C1343.9,1011.7,1361.3,1039.4,1376.3,1057.8z"/>
<path class="st7" d="M1470.2,927.6c6.4,35.4,2.2,82.4-29.2,94.3s-69.2-10.9-84.5-51s-2.2-82.4,29.2-94.3S1462.6,885.3,1470.2,927.6z
	"/>
<path class="st7" d="M1363.9,947.5c4.4,12.4,0.6,25-8.5,28.3s-20.1-4.2-24.5-16.5s-0.6-25,8.5-28.3S1359.5,935.1,1363.9,947.5z"/>
<path class="st4" d="M1470.6,883.1c-10.7,83-111.6,72.3-111.6,72.3s-20.8-27.3-30.2-13s13-84.2,70.8-87.3
	C1418.8,854.2,1470.6,883.1,1470.6,883.1z"/>
<ellipse class="st4" cx="1313.5" cy="848" rx="54.6" ry="51.2"/>
<polygon class="st15" points="1204.7,1994.7 1217.2,1994.7 1297.8,1621 1270.3,1621 "/>
<polygon class="st15" points="1593,1994.7 1580.5,1994.7 1486.6,1607.8 1514.1,1607.8 "/>
<path class="st15" d="M1347.2,1635c-50,0-81.7-9-102-28.7c-25.1-24.4-30.3-62.3-30.3-111.6c-0.1-38.8-1-64.1-3.1-84.5
	c-0.7-7.7,5-14.5,12.7-15.2c7.6-0.7,14.3,4.8,15.2,12.3c2.2,21.4,3.2,47.5,3.2,87.3c0.1,50,6.4,76.5,21.9,91.6
	c15.9,15.5,44.6,21.8,93,20.6c46.8-1.2,79-7.7,104.8-13c34-6.9,58.6-11.9,87.8,2c7,3.2,10.1,11.5,6.9,18.5s-11.5,10.1-18.5,6.9
	c-0.2-0.1-0.3-0.1-0.4-0.2c-20.7-9.9-38.2-6.3-70.1,0.2c-26.9,5.5-60.5,12.3-109.7,13.5C1354.6,1634.9,1350.8,1635,1347.2,1635z"/>
<path class="st15" d="M1233.5,1393.1l76.6,3.2l-20.4,211.4c0,0-57.1-36.4-56.2-75.7S1233.5,1393.1,1233.5,1393.1z"/>
<path class="st7" d="M1611.6,1412.8c64.8-9.8,86.8-6.7,126.4,67s92.4,206.6,122.7,223.7c45.7,25.8,60.8,89.2,79.6,86.3
	s30.8,5.4,10.4,22.4s-53.4,31.4-64.6,28.4s-20-51.7-49.5-67.5s-20.6-28.8-18.7-42.8s-85.9-78.4-152.2-158.5
	c-40.5-49-61.3-81.2-64.4-110.5S1611.6,1412.8,1611.6,1412.8z"/>
<path class="st10" d="M1772.1,1680.3c-15-38.2-30.1-101.1-44.3-158.9c-20.2-82.1-41.3-101.6-54.7-110.4c-16.2-4.1-35.4-2.2-61.5,1.8
	c0,0-13.3,19.3-10.2,48.6s23.9,61.6,64.4,110.5C1700.7,1614.1,1741.5,1651.9,1772.1,1680.3L1772.1,1680.3z"/>
<path class="st15" d="M1631.3,1477.7c0,0-17.2,130-33.3,143.2c-11.5,9.4-19.6,10.1-27.6-28.7s12.5-183.5,12.5-183.5L1631.3,1477.7z"
	/>
<polygon class="st7" points="1617.6,1548.1 1458.1,1574.9 1548.1,1445.8 1616.7,1431.8 1657.8,1441.3 "/>
<path class="st15" d="M1818,1730.4c-5.2,20.8-4.6,36.2,4.4,44s42.9,65.1,42.9,65.1l10.6-1.6l-24.5-52.5L1818,1730.4z"/>
<path class="st15" d="M1886.1,1840.7c11.3,3,44.2-11.4,64.6-28.4s8.3-25.3-10.4-22.4c-1,0.2-2.1,0.1-3.1-0.2
	c-9.4,20.9-40.2,36.6-50.1,14.5c-9.9-21.9-52.1-65.5-69.1-74.8c0,0.3,0,0.7,0,1c-1.9,14-10.8,27,18.7,42.8
	S1874.8,1837.7,1886.1,1840.7z"/>
<path class="st10" d="M1286.1,1418c-56.6,101.5-17.9,166.1,50.8,172.7s177.3-6,240.6-58.6s115.2-108.2,108-116.5
	S1286.1,1418,1286.1,1418z"/>
<path class="st7" d="M1607,1493.8c11.6-34.8,24.9-61.4,50.8-61.9c27.2-0.5,43.9,13.6,45.1,58.1c1.4,53,3.2,228.4,0.8,306.4
	c-1.8,59,15.4,78,13.9,139.5c-1.1,46.4,48.3,22.9,29.2,47c-13.1,16.5-52.2,11.1-76.2,8.1c-21.4-2.7,11.1-66.8-18.5-84
	c-25.4-14.7-25.9-38.6-9.9-56.7s1.8-71.6-8.9-109s-27.3-77.9-38.2-166.4C1592,1549.7,1599.9,1515,1607,1493.8z"/>
<path class="st15" d="M1729.9,1963.9c-8.2,2.5-18.3,5.3-27.1,5.6c-17.8,0.6-23.2-19-24.4-45.6c-1-23.3-17.9-59.9-35.3-74.7
	c-0.3,0.4-0.6,0.8-1,1.2c-16,18.1-15.5,42,9.9,56.6c29.6,17.1-2.9,81.2,18.5,84c24,3.1,63.1,8.5,76.2-8.1
	C1759.2,1967.2,1743.8,1966,1729.9,1963.9z"/>
<path class="st15" d="M1646.2,1843.7c0,0-26,27.1-23.6,38.4s10.4,39.8,11.7,61.8s2.5,47.2,2.5,47.2s9.4,0,10.1-2.7
	s5.9-89.4,5.9-89.4L1646.2,1843.7z"/>
<path class="st14" d="M1258.8,1408.7c0,0-33.6,142.4,8.8,181.9s218.5,4,260,1.6c28.1-1.6,55.3,32.7,55.3,32.7s-19.6-79.5-6.2-143.6
	s35-68.5,35-68.5l-28.7-4L1258.8,1408.7z"/>
<path class="st12" d="M1251.2,1371.5c14.3,30.4-15.4,83-5,98.2s70.2,2.1,109.4-29.4s113.3-38.5,113.3-38.5L1251.2,1371.5z"/>
<path class="st15" d="M1311.9,1631c118.5,4.4,243.3,2.3,243.3-15.3s-5.3-30.1-97.2-23s-154.2,16.9-181.8,10.7
	S1311.9,1631,1311.9,1631z"/>
<path class="st15" d="M905.9,1391.5h1670.2c7.1,0,12.9,5.8,12.9,12.9v6.4c0,7.1-5.8,12.9-12.9,12.9H905.9c-7.1,0-12.9-5.8-12.9-12.9
	v-6.4C892.9,1397.3,898.7,1391.5,905.9,1391.5z"/>
<path class="st7" d="M2798,959c11.5,40.5-16.6,82.2-47.5,91s-52.9-18.8-64.4-59.2s4.3-80.4,35.1-89.2S2786.5,918.5,2798,959z"/>
<path class="st7" d="M2624.8,1743.5c0,0,79.2,123,89.9,128.3c10.7,5.3,37.4,6.7,27.4,26.7s-14,98.9-23.4,102.9s-89.6,13.4-77.5,0
	s19.4-6.7,25.5-30.8s14.6-69.5,3.2-78.9s-80.9-93.6-80.9-93.6L2624.8,1743.5z"/>
<path class="st7" d="M2226.2,1796.4c0,0-96.3,158.7-114.1,172.9s-76.7,35.7-28.5,39.2c48.1,3.6,71.3-16,101.6-25
	s67.7-14.3,53.5-37.4s-8.3-73.8,22.4-105.8S2226.2,1796.4,2226.2,1796.4z"/>
<path class="st16" d="M2717.4,1428.5c0,0-238.3-6.2-332.8,71.3c-55.3,83.8-189,331-199.3,358.2c7.1,7.1,47.2,20,65.1,18.2
	c52.6-62.7,122.1-116.9,149.7-166.1c34.1-60.6,44.6-90.9,99.8-96.3s180-23.2,217.5-23.2S2717.4,1428.5,2717.4,1428.5z"/>
<polygon class="st15" points="2925.2,2008.9 2912.7,2008.9 2823.2,1635.2 2850.7,1635.2 "/>
<polygon class="st15" points="2551.1,2008.9 2563.6,2008.9 2666.3,1622 2638.9,1622 "/>
<path class="st14" d="M2853.2,1412.2l-138.5,23.9c0,0-184.1,1.7-268.2,17.4c-76.6,14.3-87.9,101.2,0,221
	c49.9,68,92.1,122.3,178.4,183.5c21.9-16.1,30.3-22.2,36.4-61c-6.2-8.6-22.4-62.2-27.4-72.6c-47.7-99.8-111.4-136-112.3-145.8
	c10.7-17.4,283.3,90.6,337.5,27.1C2910.7,1545,2853.2,1412.2,2853.2,1412.2z"/>
<path class="st17" d="M2858.9,1098.5c-36.5-5.1-73.6,1.8-108.4,27c-30.4,31-64.7,82-62.6,166.2c2.7,107-16.6,113.8,3.5,143.2
	c83.6,34.5,226.7,182.9,193,23.8c-24.4-115.2,53.5-201-9.3-328.8C2870,1119.5,2863.6,1109.5,2858.9,1098.5z"/>
<path class="st18" d="M2687.9,1332c-1.6,55.8-9.5,72.2-3.5,89.7c34.1,3.5,96.5,17.1,112.1,38.9c17.8,25,35.6,28.5,27.3,10.1
	s-30.3-44.6,3.6-134.3s49.9-150.3,16.6-212.7L2687.9,1332z"/>
<path class="st7" d="M2858.9,1098.5c-22.5-53.2-28-113-28-113l-58.8,17.4c0,0,33.4,74.9,1.3,101.6c-8,6.6-15.7,13.6-22.9,20.9
	C2785.3,1100.3,2822.5,1093.4,2858.9,1098.5z"/>
<path class="st10" d="M2832.7,999.7c-3.5-3.1-7.8-7-12.4-11l-48,14.2c0,0.1-0.1,0.2-0.1,0.3c1.2,2.7,13.4,31.2,15,58.6
	c14.3-8.7,30-22.8,47.9-47.5C2834.1,1008.7,2833.3,1003.8,2832.7,999.7z"/>
<path class="st7" d="M2817.6,1115.2c-60.6,21.2-53.9,85-109.6,179.2c-28.9,48.7-55.7,48-55.7,48c-50-0.3-99.9-3.4-149.5-9.5
	c-51.3-6.3-54.5,9-18.9,21.7c71.9,25.7,146.5,53.4,206.7,46.7s163-160.2,168.4-200.1C2866.3,1145.9,2848.1,1104.6,2817.6,1115.2z"/>
<path class="st15" d="M2786.4,1649.2c-3.8,0-7.6,0-11.6-0.2c-49.2-1.2-82.8-8-109.7-13.5c-31.9-6.5-49.4-10-70.1-0.2
	c-7,3.3-15.3,0.4-18.7-6.6c-3.3-7-0.4-15.3,6.6-18.7l0,0c29.1-13.9,53.7-8.9,87.8-2c25.9,5.3,58.1,11.8,104.8,13
	c52.7,1.3,84.9-6.6,101.4-24.8c14.7-16.3,19-43.5,13.6-85.5c-1.8-14.2-3.7-26.1-5.3-36.5c-4.5-29.3-7.5-48.7-3.8-78.5
	c3.4-27.8,12.7-65,34.1-137c2.2-7.4,10-11.6,17.4-9.4s11.6,10,9.4,17.4c-40,134.7-38,147.9-29.4,203.3c1.6,10.6,3.5,22.6,5.4,37.2
	c6.5,50.8,0,85-20.6,107.8C2876.5,1638.5,2841.9,1649.2,2786.4,1649.2z"/>
<path class="st18" d="M2232.8,1930.1c-63.9,31.2-98.2,49.1-118.7,47.4c-4.8-0.4-8.8-0.9-12.2-1.4c-22.8,13.5-59.1,29.4-18.2,32.4
	c48.1,3.6,71.3-16,101.6-25s67.7-14.3,53.5-37.4C2235.8,1941.1,2233.8,1935.7,2232.8,1930.1z"/>
<path class="st18" d="M2721.6,1874.5c-1.6,50.6-8.5,100.7-39.4,110.1c-7.2,2.3-14.8,3-22.3,2c-4.9,6-10.8,6.1-18.8,14.9
	c-12,13.4,68.2,4,77.5,0s13.4-82.9,23.4-102.9C2750.3,1882.2,2733.7,1878.3,2721.6,1874.5z"/>
<path class="st14" d="M2475.6,1394.3h-202.9c-5.4,0-10.4-3.2-12.7-8.1l-82-176.5c-3.4-6.9-0.5-15.3,6.4-18.7
	c6.9-3.4,15.3-0.5,18.7,6.4c0.1,0.2,0.2,0.4,0.2,0.5l78.2,168.4h194c7.7,0,14,6.3,14,14S2483.3,1394.3,2475.6,1394.3L2475.6,1394.3
	L2475.6,1394.3z"/>
<path class="st7" d="M2518,1334.7c-41-0.6-81.7-25-101.9-21.5s-86.2,49.3-77.8,51.1s60.6-25.3,62.4-25.7s13.1,18.8,41,25.8
	s0.2-20.9,86.8,5.2C2584.8,1386.6,2518,1334.7,2518,1334.7z"/>
<path class="st19" d="M2852.9,1050l6,48.5c0,0-53.1,3.2-79.5,18s-65.4,57.8-65.4,57.8l31.8-54.8l4.6-35.1L2852.9,1050z"/>
<path class="st19" d="M2830.3,1109.4c-39.4-7.4-57.6,27.9-83.2,85.6s-69.2,127.6-77.8,136.7s-146.2,0-146.2,0s-4.2,39.8,0,44.6
	s27.9,4.2,27.9,4.2s9.5,7.6,18.4,13.6s84.4,17.3,119.4,15.5s67.1-4.8,71.9-10.1s100.4-152.7,106.4-205.6
	S2850.4,1113.2,2830.3,1109.4z"/>
<path class="st4" d="M2714.1,867c-74.5,3.6-62.8,115.7-62.8,115.7s19.4,6,59.9-0.7c-3.1-12-1.8-42.8-1.8-42.8s4.7,25,10.7,40.1
	c8.6,3.9,18.3,0.4,34.8-3.5c8.5,35.6,32.4,50.7,48.8,55.8c18.1,5.7,37.3,12.5,58.6,1.8s9.6-120-1.7-142
	c-17.1-33-45.4-62.5-94.4-46.9C2741.6,852.2,2714.1,867,2714.1,867z"/>
<path class="st4" d="M2843.8,1000.1l30.5,44.5c0,0-33.8,84.4,64.4,122.6c76.9,29.9,67.9,82.7,33.1,135.7s20.8,99.4,20.8,99.4
	s8.5-58.8,83.2-69.9c101.9-15.1,130.8-151.9,54.6-220.3c-63-56.6-82.1-9.7-124.8-60.5s-123.1-16.5-123.1-16.5l-29.5-43
	L2843.8,1000.1z"/>
<path class="st4" d="M3165.5,1249.7c-0.4,0-0.8-0.1-1.2-0.3c-1.2-0.6-1.6-2.1-1-3.3c0,0,0,0,0,0c25.7-46.9,4.7-103.8-5.8-119.2
	c-1.1-1.6-2.2-3.3-3.3-5c-10.4-16.2-23.2-36.3-92-48.7c-16.5-3-29.8-12.8-44-23.2c-29.3-21.5-62.6-45.9-134.8-12.7
	c-1.2,0.6-2.7,0.2-3.3-1c-0.6-1.2-0.2-2.7,1-3.3c0.1,0,0.2-0.1,0.3-0.1c74.8-34.4,109.3-9.1,139.7,13.2c13.7,10,26.6,19.5,41.9,22.3
	c70.8,12.8,84.4,33.9,95.2,50.8c1.1,1.7,2.1,3.3,3.2,4.9c6.4,9.3,14.2,28.5,17.4,50.6c2.8,19.1,3.1,47.4-11.3,73.8
	C3167.1,1249.2,3166.3,1249.7,3165.5,1249.7z"/>
<path class="st4" d="M2827.5,1045.4c-5.3,0-10.6-0.5-15.8-1.3c-26-3.9-60.8-18.7-63.6-101.7c0-1.3,1-2.5,2.4-2.5
	c1.3-0.1,2.5,1,2.5,2.3c0,0,0,0,0,0.1c1.1,34.4,8,59.8,20.3,75.6c9.4,12,21.8,18.8,39.1,21.4c24.2,3.6,40.3-0.9,47.8-13.4
	c0.8-1.1,2.3-1.4,3.4-0.6c1,0.7,1.4,2,0.8,3.1C2857.6,1039.7,2845.3,1045.4,2827.5,1045.4z"/>
<path class="st9" d="M501.5,1104.3C415,1153.8,294.6,1359.4,320,1393s161.8-54.7,161.8-54.7L501.5,1104.3z"/>
<path class="st4" d="M663.1,865.9c-33-0.9-20.8-25.5-58.8-15.7c-20,5.2-5.2,13.4-31.2,10.7s-38.7-5.3-42,11.6s-4.8,22.3-17.3,25
	c-12.5,2.7-18.1,25,0,40.1c18.1,15.1,9.3,21.4,5.3,33.9s9.7,13.4,17.1,25s-6.8,13.8,3.9,23.8s25.7,9.2,25.7,9.2l45-86.3L663.1,865.9
	z"/>
<path class="st15" d="M1336,1902.1c0,0,48.1,1.3,85.6-13.4s62.8-37.4,56.2-10.7c-6.7,26.7-37.4,72.6-64.2,77.1s-36.1,33.9-50.8,33.9
	s-36.1-33.9-73.5-50.8C1255.1,1922.7,1336,1902.1,1336,1902.1z"/>
<path class="st15" d="M956.8,1897.6c0,0,20.2,27.9,55.5,47.3c36.4,20.1,78.4,29.7,52.3,38.8s-64.1,16.1-101.2,5.3
	c-26-7.6-56.6-9.1-64.6-21.4s9.5-43.2,2.2-89.4C895.1,1841.3,956.8,1897.6,956.8,1897.6z"/>
<path class="st6" d="M731.4,1448.9c0,0,278.8,104.4,301.3,133.6c22.5,29.2,315.5,295,315.5,314.6s-49.9,55.3-49.9,55.3
	s-251.3-154.2-313.7-232.6s-214.7-116.2-295.6-123.5S731.4,1448.9,731.4,1448.9z"/>
<path class="st5" d="M742.1,1448.9c0,0,190.7-7.1,231.7,0s130.9,7,72.1,173.1c-46.1,130.1-61.3,294.9-61.3,294.9l-91.7,22.5
	c0,0,3.6-296.2,47.4-375.1c-31.8,5.2-90.3,15.5-171.4,38.7c-150.3,43-232.8,21.5-232.8,21.5l-22.4-78.4L742.1,1448.9z"/>
<polygon class="st20" points="582.8,956.5 536.2,1094.2 595.1,1133 628.5,1014 "/>
<path class="st21" d="M600.4,1114.2l28.1-100.2l-45.7-57.5l-17,50.4C571.7,1052.3,585.9,1090,600.4,1114.2z"/>
<path class="st20" d="M701.7,979.8c1.5,41.9-19.1,78.1-51.8,81.3s-62.5-28-66.7-69.7s19.1-78.1,51.8-81.3S699.3,913.7,701.7,979.8z"
	/>
<path class="st8" d="M513.8,1090.2c-143,96.6-54.1,252.7-22.7,366.8c26.8,97.2,25.9,155.9,29.9,155.9s102.4-14.7,158.5-65.5
	s94.1-100,94.1-100s-71.9-12.8-95.5-105.9c-11.9-47.2-6.5-72.9-33.7-147.8S513.8,1090.2,513.8,1090.2z"/>
<path class="st8" d="M513.8,1090.2l15.4-37.4c0,0,48.6,32.1,68,47.2s31.3,18.7,31.3,18.7s7,53.7,2.5,48.9
	C573.6,1106.1,513.8,1090.2,513.8,1090.2z"/>
<polygon class="st15" points="450.4,2008.9 462.9,2008.9 552.5,1635.2 525,1635.2 "/>
<polygon class="st15" points="824.6,2008.9 812.1,2008.9 709.3,1622 736.8,1622 "/>
<path class="st15" d="M589.6,1649.2c-50,0-81.7-9-102-28.7c-25.1-24.4-30.3-62.3-30.3-111.6c-0.2-103.7-5.9-125.1-35.1-188.4
	c-3.2-7-0.2-15.3,6.9-18.6c7-3.2,15.3-0.2,18.6,6.9c30.8,66.9,37.5,91.5,37.6,200c0.1,50,6.4,76.5,21.9,91.6
	c15.9,15.5,44.5,21.8,93,20.6c46.8-1.2,79-7.7,104.8-13c34-6.9,58.6-11.9,87.8,2c7,3.3,9.9,11.7,6.6,18.7c-3.3,7-11.7,9.9-18.7,6.6
	c-20.7-9.9-38.2-6.3-70.1,0.2c-27,5.5-60.5,12.3-109.7,13.5C597,1649.2,593.2,1649.2,589.6,1649.2z"/>
<path class="st6" d="M1207.7,1392.7h-202.9c-7.7,0-14-6.3-14-14s6.3-14,14-14h194l78.2-168.4c3.2-7,11.5-10.2,18.5-7
	c7,3.2,10.2,11.5,7,18.5c0,0.1-0.1,0.2-0.1,0.3l-82,176.5C1218.1,1389.6,1213.2,1392.7,1207.7,1392.7z"/>
<path class="st9" d="M519.1,1230.8c0,0,35.7,108.7,79.8,153.8s132.9,60.1,160.7,58.4c-22.2-8.9-64.4-34.3-81.3-101.4
	c-11.9-47.2-6.5-72.9-33.7-147.8c-20.2-55.6-82.4-85.7-113.2-97.6c38.4,27.5,86.3,72.9,101.1,107.5
	C648.8,1242,519.1,1230.8,519.1,1230.8z"/>
<path class="st20" d="M1011.2,1326.3c0,0,61.5-28.1,68.2-25.4s74.9,43.8,74.9,50.7s-60.2-25.4-60.2-25.4s6.7,17.8,2.7,26.4
	s-50.3,8.5-92,5.9C963,1355.7,1011.2,1326.3,1011.2,1326.3z"/>
<path class="st8" d="M521.1,1146.8c-56.7,116.2,137.8,234,253.1,244.4s252.4-27.3,252.4-27.3l-15.4-37.7c0,0-231.1-30.2-237-34.4
	S541.9,1104.3,521.1,1146.8z"/>
<path class="st20" d="M594.8,960.4c5.3,13.8,1.4,28.1-8.6,31.9s-22.4-4.3-27.6-18.1s-1.4-28.1,8.6-31.9S589.5,946.6,594.8,960.4z"/>
<path class="st4" d="M701.8,871.9c15.7-6.5,33.3-13.5,27.8,13.1c-2.4,11.6,0,8.3,4.2,19c4.2,10.7-10.5,19.1-15.2,25
	s6.9,12.4-2.6,19.5s-22-2.6-30.9,0c-26.4,7.9-23.2-12.9-38-17.2s-22.1-3.7-25,5.8s10.4,40.8-0.9,37.8s-13.8,22.3-16.9,36.6
	s-10.8-9.8-10.3-26.2c0.8-25-5.4-35.5-14.7-42.5s-13.1-70.7,31.4-73s44.8-6.7,63.9-10.7S694.6,874.9,701.8,871.9z"/>
<path class="st22" d="M3200.3,1598.8c28.4,25.9,16.1,51.9-4.9,100.1s-24.7,226.1-24.7,226.1l17.3-2.5c0,0-2.5-182.8,21-232.3
	s33.4-74.1,54.4-58.1S3200.3,1598.8,3200.3,1598.8z"/>
<path class="st23" d="M3184.7,1565.2c3.4-15.4,23.9-32,51.3-46.1c-4.1,22.7-17.1,59.8-3.6,67.4c18.2,10.2,1.8-41.5,8.8-70
	c27-13.1,55.7-22.5,85.2-28c0,0.1-0.1,0.2-0.1,0.3c-16.1,40.8-37.1,56.8-28.4,63c6.5,4.7,27.7-42.4,55.7-66.6
	c21-1.1,38.8,1.7,49.3,10c16.2,12.9,27.2,24.3,10.8,63.4c-10.5,7.3-22.7,11.7-35.5,12.9c-37.1,3.7-54.4,4.9-28.4,17.3
	c12.7,6,34-0.3,51.3-4.2c-5.6,10.3-12.5,22-20.9,35.3c-5,8-10.8,15.4-17.4,22.1c-11.9,2.3-22.4,2.3-27.9-0.1
	c-17.3-7.4-61.8-30.9-72.9-21c-10.9,9.7,82.4,15.8,75.9,40.4c-45.2,26-96.9,13.7-106.1-10.3
	C3219.6,1619.1,3174.3,1611.5,3184.7,1565.2z"/>
<path class="st22" d="M3278.1,1740.9c-49.4-37.1-100.1-2.5-126,37.1s-7.4,128.5-7.4,128.5s9.9,0,9.9-3.7s-27.2-105,37.1-150.7
	c40.2-28.6,69.2-14.8,72.9-1.2s-16.1,38.3-16.1,38.3L3278.1,1740.9z"/>
<path class="st23" d="M3164.4,1664.7c49.4,0,65.5,76.6,51.9,121.1s-32.1,127.2-32.1,127.2l-12.3-12.3c0,0,46.9-116.1,35.8-168
	s-38.3-60.5-43.2-60.5S3164.4,1664.7,3164.4,1664.7z"/>
<path class="st22" d="M3205.9,1786.1c3.4-4.6,7.9-8.4,13-10.9c-0.7,3.6-1.5,7.1-2.6,10.6c-6.2,20.3-13.4,48.5-19.4,73.2
	c-0.5-3.2-1.4-8-2.7-15.6c-0.3-1.8-0.6-3.7-0.7-5.8C3198.6,1820.7,3202.7,1803.5,3205.9,1786.1z"/>
<path class="st23" d="M3219.4,1786.5c93.9-39.5,44.4-93.8,127.2-58c5.8,2.5,12.9,8.9,20,17.7c-8.5,2.6-17.4,3.3-26.2,2.1
	c-24.7-3.7-16.1,16.1,24.7,21c6.5,0.7,12.9,2,19.1,4c19.4,37.3,28.2,86.4-12.9,103.4c-8.1,3.4-18.1,5.3-29.3,6
	c-12.7-10.1,3.1-68.4-16.5-60.4c-18.8,7.7,5.9,50,2.5,60.7c-18.5-0.3-39.1-3.4-58.6-8.2c-7.8-4.4-13.7-10.2-15.5-17.8
	c-6.2-26,34.6-42,35.8-64.2c1.1-20.4-14.9,45-57.5,54.6C3193.7,1829.4,3175.5,1805,3219.4,1786.5z"/>
<path class="st23" d="M3152.5,1716.6c9.9-21-16.1-26-14.8-9.9c1.1,14.2,1.2,48.8-13.4,58.2c-25.2-2.7-59.4-12.9-85.3-28.3
	c-0.3-2.2,0-4.5,1.1-6.4c11.1-22.2,82.8-40.8,60.5-48.2c-17.7-5.9-48.8,28.9-73.8,46.5c-15-11.4-25.1-25-25.1-40.1
	c0-20.5,24.9-43.8,57.2-54.9c14.5,1.5,28,9.4,49.1,21.3c31.1,17.6,23.9-10.9-5.5-27.8c25.4,1.3,50.7,12.2,69.4,38.1
	c0,0-1.8,11.1,10,28.2c32,46.8-4.9,74-49.1,72.3C3135.3,1753.3,3145.7,1731.1,3152.5,1716.6z"/>
<path class="st22" d="M3275.1,1738.8c24.2,18.7,51,40.5,83.9,55.3s26.4,63.2,26.4,63.2s4.9-41.7-22.5-56s-45.6-31.3-66.4-34.6
	s-32.4-6.6-32.4-6.6s6.6-13.2,2.8-18.1S3275.1,1738.8,3275.1,1738.8z"/>
<path class="st22" d="M3394.2,1519.6c-88.4,23.6-153.2,80.2-165.3,93.9s-12.1,17.6-12.1,17.6l9.3,17.6l4.4-2.2c0,0-7.1-14.8,11.5-34
	c32.2-33.2,71.4-59.3,98.3-70.8S3394.2,1519.6,3394.2,1519.6z"/>
<path class="st14" d="M3184,2008.9h-33.8c-24,0-43.5-19.5-43.5-43.5v-77.6l0,0h120.8l0,0v77.6
	C3227.5,1989.5,3208,2008.9,3184,2008.9z"/>
<rect x="3106.7" y="1901.7" class="st3" width="120.8" height="8.5"/>
<rect x="3106.7" y="1917.2" class="st3" width="120.8" height="5"/>
<path class="st11" d="M1717.7,267.3c0-91.4-73.5-165.8-164.8-167c-91.7-1.2-167.7,72.6-169.2,164.3c-0.8,42.9,15.1,84.4,44.2,115.9
	c12.9,14,20.1,32.3,20.1,51.4v74.9c0.2,48.6,39.5,87.9,88.1,88h29.4c48.6-0.1,87.9-39.4,88.1-88v-74.9c0.1-19.2,7.4-37.6,20.4-51.7
	C1702.1,349.4,1717.7,309.1,1717.7,267.3z"/>
<path class="st24" d="M1694.4,278.5c0-78.6-63.2-142.6-141.8-143.7c-78.9-1-144.3,62.5-145.6,141.3c-0.7,36.9,13,72.6,38,99.7
	c11.1,12,17.3,27.8,17.3,44.2v64.4c0.1,41.8,34,75.6,75.8,75.8h25.3c41.8-0.1,75.6-34,75.8-75.8v-64.4c0.1-16.5,6.3-32.4,17.5-44.5
	C1680.9,349.1,1694.4,314.5,1694.4,278.5z"/>
<path class="st25" d="M1575.4,461.9h-55c-2.6,0-4.8-2-5-4.5c-0.1-1.1-10.4-107.2-57.8-137c-2.4-1.4-3.2-4.4-1.9-6.8
	c1.4-2.4,4.4-3.2,6.8-1.9c0.1,0.1,0.2,0.1,0.3,0.2c46.3,29,59.5,118.5,62,140h45.2c-0.2-13.5,1.4-27,4.5-40.1
	c5.7-24.7,19.6-61.9,53.8-99c1.9-2,5-2.2,7.1-0.3c2,1.9,2.2,5,0.3,7.1l0,0c-62.4,68-55.5,136.1-55.4,136.8c0.3,2.7-1.7,5.2-4.4,5.5
	C1575.7,461.9,1575.5,461.9,1575.4,461.9L1575.4,461.9z"/>
<path class="st25" d="M1616.5,327.2c-18.6,0-43.9-13.2-70.6-27.5c-34.4,18.3-66.6,34.8-84.6,23.9c-8.5-5.1-12.5-15.2-12.4-30.7
	c0.1-14.6,4.3-24.5,12.5-29.3c18-10.7,50.3,6.4,84.5,24.8c34.9-18.6,67.8-36,85.8-25c8.1,4.9,12.1,14.9,11.9,29.7
	c-0.2,15.4-4.6,25.7-13.1,30.8C1626.3,326.1,1621.4,327.3,1616.5,327.2z M1556.6,294c27.4,14.6,56.2,28.6,68.9,21.1
	c5.3-3.1,8.1-10.6,8.2-22.3c0.2-11-2.2-18.1-7.1-21C1614.4,264.4,1584.6,279.2,1556.6,294L1556.6,294z M1475,270.2
	c-2.9-0.1-5.8,0.6-8.4,2c-4.9,2.9-7.4,9.9-7.6,20.8c-0.1,11.5,2.4,19,7.6,22c12.3,7.5,41.2-6.4,68.8-21
	C1513,282.1,1489.6,270.2,1475,270.2L1475,270.2z"/>
<path class="st25" d="M1536.4,574.5h32c11.3,0,20.5,9.2,20.5,20.5v3c0,11.3-9.2,20.5-20.5,20.5h-32c-11.3,0-20.5-9.2-20.5-20.5v-3
	C1515.9,583.7,1525,574.5,1536.4,574.5z"/>
<path class="st25" d="M1443.1,452.9v53c0,50.7,41.5,92.2,92.2,92.2h30.7c50.7,0,92.2-41.5,92.2-92.2v-53H1443.1z"/>
<path class="st26" d="M1446.7,444.2h210.7c6.6,0,12,5.4,12,12v1.3c0,6.6-5.4,12-12,12h-210.7c-6.6,0-12-5.4-12-12v-1.3
	C1434.7,449.6,1440.1,444.2,1446.7,444.2z"/>
<path class="st26" d="M1658.1,488.5L1449,514.3c-6.6,0.8-12.6-3.9-13.4-10.4c0,0,0,0,0,0l-0.2-1.3c-0.8-6.6,3.9-12.6,10.4-13.4
	c0,0,0,0,0,0l209.1-25.8c6.6-0.8,12.6,3.9,13.4,10.4c0,0,0,0,0,0l0.2,1.3C1669.4,481.7,1664.7,487.7,1658.1,488.5
	C1658.1,488.5,1658.1,488.5,1658.1,488.5z"/>
<path class="st26" d="M1658.1,525.1L1449,550.9c-6.6,0.8-12.6-3.9-13.4-10.4c0,0,0,0,0,0l-0.2-1.3c-0.8-6.6,3.9-12.6,10.4-13.4
	c0,0,0,0,0,0L1655,500c6.6-0.8,12.6,3.9,13.4,10.4c0,0,0,0,0,0l0.2,1.3C1669.4,518.3,1664.7,524.3,1658.1,525.1
	C1658.1,525.1,1658.1,525.1,1658.1,525.1z"/>
<path class="st26" d="M1645.2,564.3l-174.1,21.5c-6,0.8-11.5-3.5-12.3-9.6c0,0,0,0,0,0l-0.4-3.3c-0.8-6,3.5-11.5,9.6-12.3
	c0,0,0,0,0,0l174.1-21.5c6-0.7,11.5,3.6,12.3,9.6l0.4,3.3C1655.5,558,1651.2,563.5,1645.2,564.3
	C1645.2,564.3,1645.2,564.3,1645.2,564.3z"/>
<path class="st26" d="M3152.8,611.7h112.2c0,61.6-50.7,112.2-112.2,112.2s-112.2-50.6-112.2-112.2s50.7-112.2,112.2-112.2V611.7z"/>
<path class="st27" d="M3283.9,596c0-62-50.3-112.2-112.2-112.2V596H3283.9z"/>
<path class="st27" d="M3059.4,596c0,62,50.3,112.2,112.2,112.2C3110.1,708.3,3059.4,657.6,3059.4,596z"/>
<path class="st27" d="M3171.6,483.8c-62,0-112.2,50.3-112.2,112.2C3059.4,534.5,3110.1,483.8,3171.6,483.8z"/>
<path class="st27" d="M3171.6,708.3c62,0,112.2-50.3,112.2-112.2C3283.9,657.6,3233.2,708.3,3171.6,708.3z"/>
<rect x="956.2" y="537.5" class="st26" width="24.5" height="70.9"/>
<rect x="1270.4" y="560.6" class="st26" width="24.5" height="47.8"/>
<rect x="1060.1" y="442.5" class="st26" width="24.5" height="166"/>
<rect x="1112.1" y="533.8" class="st26" width="24.5" height="74.6"/>
<rect x="1164" y="512.7" class="st26" width="24.5" height="95.7"/>
<rect x="1008.2" y="490.7" class="st26" width="24.5" height="117.8"/>
<rect x="1216.1" y="463.4" class="st26" width="24.5" height="145"/>
<g>
	<defs>
		<path id="SVGID_1_" d="M174.3,181.9c-78.6,0-142.2,63.7-142.2,142.2s63.7,142.2,142.2,142.2s142.2-63.7,142.2-142.2c0,0,0,0,0,0
			C316.6,245.6,252.9,181.9,174.3,181.9C174.3,181.9,174.3,181.9,174.3,181.9z M174.3,399.5c-41.6,0-75.4-33.7-75.4-75.3
			c0-41.6,33.7-75.4,75.3-75.4c41.6,0,75.4,33.7,75.4,75.3l0,0C249.7,365.8,216,399.5,174.3,399.5z"/>
	</defs>
	<clipPath id="SVGID_2_">
		<use xlink:href="#SVGID_1_"  style="overflow:visible;"/>
	</clipPath>
	<g class="st28">
		<path class="st8" d="M302.9,402.7l-128.6-78.6L151.1,473C211.2,482.4,271.1,454.6,302.9,402.7z"/>
		<path class="st23" d="M303,402.6c0.3-0.6,0.8-1.3,0.8-1.3c27.1-45.4,28.3-101.7,3.3-148.3c-45.5,23.8-18.4,9.4-132.8,71.2
			C303.1,402.9,283.1,390.7,303,402.6z"/>
		<path class="st26" d="M33,272.1l141.3,52.1l132.6-71.7C244.9,137.8,78,151.5,33,272.1z"/>
		<path class="st27" d="M151.1,473l23.2-148.9L33,272.1C-0.6,362.2,59.1,458.5,151.1,473z"/>
		<path class="st3" d="M23.8,296.7c2.5,0,5,0.6,7.1,1.9c1.2-6.8,2.9-13.5,5.1-20l76.7,28.3c0,0,0,0,0-0.1c-0.1-3.4,1.1-6.8,3.3-9.4
			l-7.7-2.8l-68.9-25.4c5.5-13.5,13-26.1,22.2-37.3c-3.2-1.2-5.9-3.5-7.7-6.4c-10,12.2-18,25.8-23.9,40.3h-0.1l-1.7,4.7l-1.8,4.7
			h0.1c-2.4,7.2-4.3,14.5-5.6,21.9C21.9,296.8,22.9,296.7,23.8,296.7z"/>
		<path class="st0" d="M313.6,254.5L313.6,254.5l-2.3-4.4l-0.2-0.3l-2-3.6h-0.1c-15-26.1-36.4-46.9-62.1-60.2
			c-56.2-28.7-124-21.3-172.7,18.9c2.9,1.8,5.2,4.5,6.4,7.7c23.8-19.8,53.3-31.6,84.2-33.6c55.8-3.9,107.1,23.4,135.2,71.5
			l-39.2,21.2c-8.1,4.4-19.4,10.5-38.3,20.7l-46.9,25.4l-1.2,0.7l-3.9-2.4l-0.2,1.4l-27.6-10.2c0,3.5-1.3,6.8-3.7,9.3l29.7,10.9
			l-21.8,139.8C79.1,453.9,29.8,395,28.6,325.8c-1.6,0.6-3.2,0.9-4.9,0.9c-1.8,0-3.5-0.3-5.1-0.9c1.1,74.1,54,137.2,126.8,151.3v0.1
			l4.9,0.8l5,0.8v-0.1c58.9,7.2,116.8-19.7,149.4-69.3l0.1,0.1l1-1.6l1.6-2.6c0.2-0.4,0.5-0.9,0.7-1.2l0.1-0.2l0.1-0.1l1.6-2.6h-0.1
			C335.3,355.9,336.7,301,313.6,254.5z M156.8,468.8l21.4-136.5l55.5,33.9c22.4,13.7,35.2,21.5,43.2,26.4l19.2,11.7
			C265.6,450.6,211.6,475.6,156.8,468.8z M301.3,395.7l-1-0.6c-5.3-3.1-7.5-4.5-18-10.8l-98-59.9l81.3-44c11.9-6.4,16.8-9,29-15.3
			l10.4-5.4C326.2,302.9,324.8,353.8,301.3,395.7z"/>
	</g>
</g>
<path class="st26" d="M584.2,157h414.6c4.5,0,8.2,3.7,8.2,8.2v178.4c0,4.5-3.7,8.2-8.2,8.2H584.2c-4.5,0-8.2-3.7-8.2-8.2V165.1
	C576,160.6,579.6,157,584.2,157z"/>
<path class="st3" d="M594.4,208.1h394.1c3.6,0,6.6,3,6.6,6.6V336c0,3.6-3,6.6-6.6,6.6H594.4c-3.6,0-6.6-3-6.6-6.6V214.7
	C587.8,211.1,590.7,208.1,594.4,208.1z"/>
<path class="st3" d="M597.4,171.3h9.6c2,0,3.7,1.6,3.7,3.7v7.9c0,2-1.6,3.7-3.7,3.7h-9.6c-2,0-3.7-1.6-3.7-3.7V175
	C593.7,172.9,595.4,171.3,597.4,171.3z"/>
<path class="st3" d="M628.1,171.3h9.6c2,0,3.7,1.6,3.7,3.7v7.9c0,2-1.6,3.7-3.7,3.7h-9.6c-2,0-3.7-1.6-3.7-3.7V175
	C624.4,172.9,626.1,171.3,628.1,171.3z"/>
<path class="st3" d="M658.8,171.3h9.6c2,0,3.7,1.6,3.7,3.7v7.9c0,2-1.6,3.7-3.7,3.7h-9.6c-2,0-3.7-1.6-3.7-3.7V175
	C655.1,172.9,656.8,171.3,658.8,171.3z"/>
<path class="st26" d="M978.5,237.6H763.1c-3.6-0.1-6.3-3.1-6.2-6.7c0.1-3.4,2.8-6.1,6.2-6.2h215.5c3.6-0.1,6.6,2.6,6.7,6.2
	s-2.6,6.6-6.2,6.7C978.9,237.6,978.7,237.6,978.5,237.6z"/>
<path class="st26" d="M816.5,337H601c-3.6,0.1-6.6-2.6-6.7-6.2c-0.1-3.6,2.6-6.6,6.2-6.7c0.2,0,0.3,0,0.5,0h215.5
	c3.6,0.1,6.3,3.1,6.2,6.7C822.5,334.2,819.8,336.9,816.5,337z"/>
<path class="st26" d="M833.9,324.1h22.3c1.2,0,2.2,1,2.2,2.2v8.5c0,1.2-1,2.2-2.2,2.2h-22.3c-1.2,0-2.2-1-2.2-2.2v-8.5
	C831.7,325.1,832.6,324.1,833.9,324.1z"/>
<path class="st26" d="M867.5,324.1h22.3c1.2,0,2.2,1,2.2,2.2v8.5c0,1.2-1,2.2-2.2,2.2h-22.3c-1.2,0-2.2-1-2.2-2.2v-8.5
	C865.3,325.1,866.3,324.1,867.5,324.1z"/>
<path class="st26" d="M980.6,265.7H623.8c-2.4,0-4.4-2-4.4-4.4c0-2.4,2-4.4,4.4-4.4h356.8c2.4,0,4.4,2,4.4,4.4
	S983,265.7,980.6,265.7C980.6,265.7,980.6,265.7,980.6,265.7L980.6,265.7z"/>
<path class="st26" d="M980.6,284.6H623.8c-2.4-0.1-4.3-2.2-4.2-4.6c0.1-2.3,1.9-4.1,4.2-4.2h356.8c2.4,0.1,4.3,2.2,4.2,4.6
	C984.6,282.6,982.8,284.5,980.6,284.6L980.6,284.6z"/>
<path class="st29" d="M2057,227.7h-184V120.5h138.4l45.6,45.6V227.7z"/>
<polygon class="st27" points="2008,120.5 2008,177.7 2057,177.7 2057,166.7 2011.1,120.8 "/>
<polygon class="st29" points="2011.4,120.5 2011.4,166.7 2057,166.7 "/>
<path class="st3" d="M1975.8,160.7h-82c-1.8,0-3.2-1.5-3.2-3.2s1.5-3.2,3.2-3.2h82c1.8,0,3.2,1.5,3.2,3.2S1977.6,160.7,1975.8,160.7
	z"/>
<path class="st3" d="M1975.8,177.3h-82c-1.8,0-3.2-1.5-3.2-3.2s1.5-3.2,3.2-3.2h82c1.8,0,3.2,1.5,3.2,3.2S1977.6,177.3,1975.8,177.3
	z"/>
<path class="st3" d="M1975.8,194.8h-82c-1.8,0-3.2-1.5-3.2-3.2s1.5-3.2,3.2-3.2h82c1.8,0,3.2,1.5,3.2,3.2S1977.6,194.8,1975.8,194.8
	z"/>
<circle class="st6" cx="1959.5" cy="128.7" r="5.5"/>
<rect x="1124.5" y="125.5" transform="matrix(0.1898 -0.9818 0.9818 0.1898 787.6002 1322.3151)" class="st30" width="141" height="116.9"/>
<path class="st26" d="M1241.5,185.6l-60.9-11.8c-1.6-0.3-2.7-1.8-2.4-3.5s1.8-2.7,3.5-2.4c0,0,0.1,0,0.1,0l60.9,11.8
	c1.6,0.3,2.7,1.8,2.4,3.5S1243.2,185.9,1241.5,185.6C1241.6,185.6,1241.6,185.6,1241.5,185.6z"/>
<path class="st26" d="M1238.6,200.8l-60.9-11.8c-1.6-0.3-2.7-1.8-2.5-3.4c0.3-1.6,1.8-2.7,3.4-2.5c0.1,0,0.1,0,0.2,0l60.9,11.8
	c1.6,0.3,2.7,1.8,2.4,3.5s-1.8,2.7-3.5,2.4C1238.7,200.8,1238.7,200.8,1238.6,200.8L1238.6,200.8z"/>
<path class="st26" d="M1235.6,216.4l-60.9-11.8c-1.6-0.3-2.7-1.9-2.3-3.6c0.3-1.6,1.9-2.6,3.5-2.3l60.9,11.8
	c1.6,0.3,2.7,1.9,2.4,3.5C1238.8,215.7,1237.2,216.7,1235.6,216.4L1235.6,216.4z"/>
<path class="st6" d="M1200.3,122.1c-0.5,2.7-3.1,4.5-5.9,4c-2.7-0.5-4.5-3.1-4-5.9c0.5-2.7,3.1-4.5,5.8-4
	C1199,116.7,1200.8,119.3,1200.3,122.1C1200.3,122.1,1200.3,122.1,1200.3,122.1z"/>
<path class="st26" d="M2141.9,377.7L1964.2,359l11.7-111.4l140.9,14.8l32.9,40.7L2141.9,377.7z"/>
<polygon class="st3" points="2114.3,270.4 1982.1,256.5 1972.2,350.5 2136.6,367.8 2142.4,312.8 2110.2,309.4 "/>
<path class="st26" d="M2096.4,304.6l-85.7-9c-2-0.2-3.4-2-3.1-4c0.2-1.9,2-3.3,3.9-3.2l85.7,9c2,0.2,3.4,1.9,3.3,3.9
	C2100.2,303.3,2098.5,304.8,2096.4,304.6C2096.5,304.6,2096.4,304.6,2096.4,304.6z"/>
<path class="st26" d="M2094.4,323.5l-85.7-9c-2-0.2-3.4-2-3.1-4c0.2-1.9,2-3.3,3.9-3.2l85.7,9c2,0.2,3.4,2,3.2,4
	C2098.2,322.3,2096.4,323.7,2094.4,323.5z"/>
<path class="st26" d="M2092.4,343.2l-85.7-9c-2-0.2-3.4-1.9-3.3-3.9s1.9-3.4,3.9-3.3c0,0,0.1,0,0.1,0l85.7,9c2,0.2,3.4,2,3.1,4
	C2096,342,2094.3,343.4,2092.4,343.2z"/>
<circle class="st6" cx="2042.5" cy="273.4" r="5.5"/>
<path class="st23" d="M3024.8,186.5c0,33.9-27.5,61.4-61.4,61.3c-33.9,0-61.3-27.5-61.3-61.4c0-33.9,27.5-61.3,61.3-61.3
	S3024.8,152.6,3024.8,186.5C3024.8,186.5,3024.8,186.5,3024.8,186.5z"/>
<path class="st3" d="M2957.4,207.5h-0.1c-0.8,0-1.6-0.4-2.1-1l-16.7-18.9c-1.1-1.2-1-3.2,0.3-4.3c1.2-1.1,3.2-1,4.3,0.3l14.6,16.6
	l33.3-32.6c1.2-1.2,3.1-1.1,4.2,0c1.2,1.2,1.1,3.1,0,4.2l-35.6,34.8C2958.9,207.2,2958.2,207.5,2957.4,207.5z"/>
<path class="st26" d="M553,756H199.3c-9.1,0-16.5-7.4-16.5-16.5V613.1c0-9.1,7.4-16.5,16.5-16.5H553c9.1,0,16.5,7.4,16.5,16.5v126.4
	C569.5,748.6,562.1,756,553,756z"/>
<path class="st26" d="M522.8,732v87.9L421.5,718.6C421.5,718.6,520.7,732,522.8,732z"/>
<path class="st3" d="M535.5,740.2H216.8c-7.7,0-14-6.3-14-14v-99.8c0-7.7,6.3-14,14-14h318.7c7.7,0,14,6.3,14,14v99.8
	C549.5,733.9,543.2,740.2,535.5,740.2z"/>
<path class="st26" d="M360.7,644h156.6c3.8,0,6.9-3.1,6.9-6.9c0-3.8-3.1-6.9-6.9-6.9H360.7c-3.8,0-6.9,3.1-6.9,6.9
	C353.8,641,356.9,644,360.7,644C360.7,644,360.7,644,360.7,644z"/>
<path class="st26" d="M520.3,670.3H229.9c-2.1,0-3.8-1.7-3.8-3.8v-0.1c0-2.1,1.7-3.8,3.8-3.8h290.4c2.1,0,3.8,1.7,3.8,3.8v0.1
	C524.2,668.6,522.4,670.3,520.3,670.3z"/>
<path class="st26" d="M520.3,685.3H229.9c-2.1,0-3.8-1.7-3.8-3.8v-0.1c0-2.1,1.7-3.8,3.8-3.8h290.4c2.1,0,3.8,1.7,3.8,3.8v0.1
	C524.2,683.5,522.4,685.3,520.3,685.3z"/>
<path class="st26" d="M2833.8,644.7h-18.5c-3.9,0-7.1-3.2-7.1-7.1v-15.3c0-3.9,3.2-7.1,7.1-7.1h18.5c3.9,0,7.1,3.2,7.1,7.1v15.3
	C2840.9,641.5,2837.7,644.7,2833.8,644.7z"/>
<path class="st26" d="M2774.3,644.7h-18.5c-3.9,0-7.1-3.2-7.1-7.1v-15.3c0-3.9,3.2-7.1,7.1-7.1h18.5c3.9,0,7.1,3.2,7.1,7.1v15.3
	C2781.4,641.5,2778.2,644.7,2774.3,644.7z"/>
<path class="st26" d="M2714.9,644.7h-18.5c-3.9,0-7.1-3.2-7.1-7.1v-15.3c0-3.9,3.2-7.1,7.1-7.1h18.5c3.9,0,7.1,3.2,7.1,7.1v15.3
	C2721.9,641.5,2718.8,644.7,2714.9,644.7z"/>
</svg>
