<svg id="Layer_1" data-name="Layer 1" xmlns="http://www.w3.org/2000/svg" viewBox="0 0 156.81 149.58"><defs><style>.cls-1{fill:#9bb5bc;}.cls-2{fill:#efb285;}.cls-3{fill:#f1bb07;}.cls-4{fill:#f18b07;}.cls-5{fill:#e5a77d;}.cls-6{fill:#111114;}.cls-7{fill:#0a0b0b;}.cls-8{fill:#2c6fb7;}.cls-9{fill:#3f76ba;}.cls-10{fill:#dd966a;}.cls-11{fill:#f2b890;}.cls-12{fill:#e7a477;}.cls-13{fill:#603a14;}.cls-14{fill:#533114;}.cls-15{fill:#fdc427;}.cls-16{fill:#e3e7e8;}.cls-17{fill:#85ab28;}.cls-18{fill:#010101;}.cls-19{fill:#241e22;}.cls-20{fill:#32292f;}.cls-21{fill:#21150d;}.cls-22{fill:#6d992e;}.cls-23{fill:#8dbd31;}.cls-24{fill:#23211f;}.cls-25{fill:#e8a577;}.cls-26{fill:#db9669;}.cls-27{fill:#f2b387;}.cls-28{fill:#322f2d;}.cls-29{fill:#ea8516;}.cls-30{fill:#f59b30;}.cls-31{fill:#141d25;}.cls-32{fill:#2b3d4c;}.cls-33{fill:#1d2833;}.cls-34{fill:#321e11;}.cls-35{fill:#20140d;}.cls-36{fill:#f7a954;}.cls-37{isolation:isolate;}.cls-38{fill:#beb085;}.cls-39{fill:#a39772;}.cls-40{fill:#e6dab1;}.cls-41{fill:#84653e;}.cls-42{fill:#5c452b;}.cls-43{fill:#947045;}.cls-44{fill:#edefef;}.cls-45{fill:#789f2c;}.cls-46{fill:#57afdc;}.cls-47{fill:#ce3c5c;}.cls-48{fill:#d1d1d1;}.cls-49{fill:#e8462f;}.cls-50{fill:#ec674a;}.cls-51{fill:#a4166d;}.cls-52{fill:#f39679;}.cls-53{fill:#419e3e;}.cls-54{fill:#f6b8a0;}.cls-55{fill:#ab3c7c;}.cls-56{fill:#b25e8d;}.cls-57{fill:#99bb8c;}.cls-58{fill:#b982a4;}.cls-59{fill:#b8cbb2;}.cls-60{fill:#74ab68;}.cls-61{fill:#ee8005;}.cls-62,.cls-83{fill:#fff;}.cls-63{fill:#facd00;}.cls-64{fill:#58371b;}.cls-65{fill:#f49538;}.cls-66,.cls-83{opacity:0.1;}.cls-67{fill:#dfe5f3;}.cls-68{fill:#a0b1bd;}.cls-69{fill:#398852;}.cls-70{fill:#2d7841;}.cls-71{fill:#118ccd;}.cls-72{fill:#5da6db;}.cls-73{fill:#eca11a;}.cls-74{fill:#a3c7ea;}.cls-75{fill:#e5eef9;}.cls-76{fill:#f8ac1f;}.cls-77{fill:#fab643;}.cls-78{fill:#fdcc7f;}.cls-79{fill:#303739;}.cls-80{fill:#6e8175;}.cls-81{fill:#414c4d;}.cls-82{fill:#62c4f0;}.cls-84{fill:#2b362e;}.cls-85{fill:#495a51;}.cls-86{fill:#3f4e46;}.cls-87{fill:#192643;}.cls-88{fill:#1e2645;}.cls-89{fill:#272f55;}.cls-90{fill:#1a2139;}.cls-91{fill:#2b3e6e;}.cls-92{fill:#def1f9;}.cls-93{fill:#bdbdc0;}.cls-94{fill:#f4f5f6;}.cls-95{fill:#55403f;}.cls-96{fill:#5c3714;}.cls-97{fill:#718f2b;}.cls-98{fill:#69852b;}</style></defs><path class="cls-1" d="M71.57,31.77a2.76,2.76,0,0,1,3.14,2.34A2.59,2.59,0,0,1,71.57,31.77Z"/><path class="cls-2" d="M74.54,32.7a19,19,0,0,0-1.09,2.69c-.07.57-1.27,1.58-2,1.8s-2.63.58-2.28-.43.73-1.42.86-2.09a4.56,4.56,0,0,1,1.24-2.08L73,31.44Z"/><path class="cls-3" d="M81.68,10.68s-2-.33-3.39,6.2-1.4,7-1.4,7l-5.32,7.94a2.87,2.87,0,0,1,3.14,2.34s4.41-4.58,4.91-6.23S87.8,11.51,81.68,10.68Z"/><path class="cls-4" d="M74.71,34.11a3.16,3.16,0,0,0-.84-1.58c3.34-3,5.82-8.81,5.82-8.81l1.11,1.37c-.6,1.38-1.07,2.42-1.18,2.79C79.12,29.53,74.71,34.11,74.71,34.11Z"/><path class="cls-5" d="M71.31,32.59a7.47,7.47,0,0,0-1.64,1.85c-.27.7-.51,1.37-.31,1.45.47.2.76-.46,1-.93s1-.72,1.4-.85,2-1.16,1.6-2.13l-.69-.38Z"/><path class="cls-6" d="M85.85,67.88s.8,1.86,0,2.34-.9,1-2.18.9-1.09.32-1.52.8-5,2.44-5.81,1.49,1.54-2.08,2.39-2.64S81.6,68,81.66,67.35,85.85,67.88,85.85,67.88Z"/><path class="cls-7" d="M85.85,70.22c-.79.48-.9,1-2.18.9s-1.09.32-1.52.8-5,2.44-5.81,1.49a.72.72,0,0,1,.07-1l1.33.23c1.33.23,3-1.3,3.7-1.87s1.5-.34,2.64-.53,1-1.94,1-1.94L85.9,68C86.06,68.41,86.53,69.81,85.85,70.22Z"/><path class="cls-6" d="M93.91,73.92s.34,2.2-.51,3.39-2.7,3.25-3.5,3.15S89,80,89,80a8,8,0,0,1,.25-3.57,12.17,12.17,0,0,0,.64-2.52Z"/><path class="cls-7" d="M93.4,77.31c-.74,1-2.26,2.76-3.17,3.1,1.19-1.54-.59-1.22.75-2,1.84-1,.66-1.84,1.49-2.07s.22-2.27.22-2.27l.45-.2h.77S94.25,76.12,93.4,77.31Z"/><path class="cls-8" d="M84.13,38.15s-3.79-.41-5.06-3.22a93.73,93.73,0,0,0,.42,13.38c.77,7.2,1.41,19.84,1.41,19.84a3.62,3.62,0,0,0,5,0s.71-8.35,0-13c0,0,.48-8.1-.32-12.15S84.13,38.15,84.13,38.15Z"/><path class="cls-9" d="M80.9,68.15s-.64-12.64-1.41-19.84a103.7,103.7,0,0,1-.42-14.09A7.64,7.64,0,0,0,83.44,38c-.09,2.75-.35,10.84-.31,13.52s.54,13.16.75,17.61A4,4,0,0,1,80.9,68.15Z"/><path class="cls-8" d="M93.06,37.72s.36,4.2.44,10.73a59,59,0,0,0,.71,10,140.46,140.46,0,0,1,.4,15.13s-2.06,3.19-5.31,0c0,0-.56-11.21-1.11-13.76s-3.66-15-4.91-19.39c-.56-2-.69-2.71-.69-2.71S88.06,41.65,93.06,37.72Z"/><path class="cls-9" d="M89.3,73.58s-.56-11.21-1.11-13.76-3.66-15-4.91-19.39A10.47,10.47,0,0,0,81.44,37s3.59,2.52,6.7,2.51c.14,1,1.46,10.11,1.77,14.11s3,17.92,2.29,21.42A4,4,0,0,1,89.3,73.58Z"/><path class="cls-3" d="M89.48,11.63s5.59,3.36,5.71,3.82,1.54,1.64-1,6.58c0,0-3.27,5.33-2.22,11a34.37,34.37,0,0,0,1.24,5s-2.84,3.64-9.89.47A10.44,10.44,0,0,1,79,34a37.9,37.9,0,0,0,.5-10.27C79,18.13,79,10.92,82.17,10.19,82.17,10.19,83,9.29,89.48,11.63Z"/><path class="cls-2" d="M90.44,7.66s-2,2.57-.69,4.49c.71,1.07-1.31,3.35-4.45,2.93,0,0-1.39-.44-1.21-.94a3.15,3.15,0,0,0-.45-2.76C83.2,10.46,90.44,7.66,90.44,7.66Z"/><path class="cls-10" d="M89.75,12.15a.91.91,0,0,1,.14.43A5.93,5.93,0,0,0,86.52,11l3.24-3.11.31-.12.07.3C89.65,8.93,88.8,10.72,89.75,12.15Z"/><path class="cls-11" d="M84.09,14.14c.43-1.83,0-1.83-.45-2.76-.12-.25.34-.64,1.07-1.08a2.11,2.11,0,0,1,.47.61A5.64,5.64,0,0,1,86,15.13a2.89,2.89,0,0,1-.65-.05C84.93,15,84,14.7,84.09,14.14Z"/><path class="cls-2" d="M91.2,6.2s-1,3.51-3.59,5c-2.27,1.28-4.87,2-5.15-.58-.23-2.09-.87-7.41,1-8.34C85.93,1,86.91-.57,89.56.62,89.56.62,92.55,2.27,91.2,6.2Z"/><path class="cls-12" d="M91.2,6.2a8,8,0,0,1-3.58,5,10.48,10.48,0,0,1-2.14,1,9.59,9.59,0,0,0,2.3-2c1-1-1.27-.73.42-3.26.58-.86-2,.12-2.58.07-3.34-.33-3-2.22-3-3A5.55,5.55,0,0,1,83,3l.36-.58.12-.16a10.81,10.81,0,0,1,1.17-1.11c1.43.13,5.49.51,5.57.53s.69,1,1.28,2A5.49,5.49,0,0,1,91.2,6.2Z"/><path class="cls-13" d="M89.49,9.55a6.46,6.46,0,0,0,2.19-5.93A4.18,4.18,0,0,0,88.23.11a4.78,4.78,0,0,0-5.58,2.75c-.43.94-.33,3.49,3.51,2.78.55-.1,1.74-.79,2.21-.3a1.94,1.94,0,0,1,.17,2.06c-.26.63.31.74.39.61s.94-1.9,1.57-1.14S89.56,9.43,89.49,9.55Z"/><path class="cls-14" d="M89.49,9.55c.07-.12,1.58-2,1-2.68S89,7.88,88.93,8s-.65,0-.39-.61a1.94,1.94,0,0,0-.17-2.06c-.43-.45-1.45.08-2,.26a4.83,4.83,0,0,0,2-2,3.69,3.69,0,0,1,2.38-2.13,4.35,4.35,0,0,1,1,2.13A6.46,6.46,0,0,1,89.49,9.55Z"/><path class="cls-15" d="M79,34a37.9,37.9,0,0,0,.5-10.27c-.43-4.66-.5-10.43,1.34-12.65a7.71,7.71,0,0,1,2.31,4.06c.3,2.41,2.9,3.95,4.2,4.36s1.84,2.62.83,6c-.82,2.71-.41,10.13.28,14.28a12.92,12.92,0,0,1-5.1-1.28A10.44,10.44,0,0,1,79,34Z"/><path class="cls-4" d="M93.58,15.24s3.17-.49,2.82,5.42-.35,13.43-2.46,12.87S90.65,32,90.53,25.3C90.42,19.73,90.35,15.17,93.58,15.24Z"/><path class="cls-3" d="M96.4,20.66c-.26,4.3-.33,9.44-1.16,11.71C93.88,31.71,93,30,92.37,24.91c-.52-4.33-.94-8,.45-9.57a2.59,2.59,0,0,1,.76-.1S96.75,14.75,96.4,20.66Z"/><path class="cls-3" d="M95.49,31.54s-3.45-5.16-6-7.14a1.56,1.56,0,0,1-2,.62s3,10,6.75,8.54A2.74,2.74,0,0,0,95.49,31.54Z"/><path class="cls-4" d="M87.47,25h0c3.49,7.18,6.41,7.43,7,8.33a3.05,3.05,0,0,1-.3.21C90.49,35,87.47,25,87.47,25Z"/><path class="cls-2" d="M89.44,24.4s.24-4.66-1.24-5.08-1.65-.56-2.49-.14-.55,1.55,0,1.44c1.05-.21,1.37,1.41,1.23,2a7.82,7.82,0,0,0,.57,2.57C87.63,25.51,89.72,25.46,89.44,24.4Z"/><path class="cls-13" d="M85.24,5.76s-2.78.46-3.95-1.49c-1.46-2.42.88-.78,3.09-3.52C84.38.75,86.23,5.36,85.24,5.76Z"/><polygon class="cls-16" points="156.81 122.44 110.11 149.58 9.09 91.25 55.78 64.12 156.81 122.44"/><path class="cls-2" d="M43.47,31.08s2.51,1.25,3.81,1,3-1.2,2.32-1.61-2.7-.28-2.8-.82,1.14-.41.55-.7-1.71-.4-3.84.72A1.13,1.13,0,0,0,43.47,31.08Z"/><path class="cls-17" d="M30.43,18.26s-2-.74-2,1.56a21.92,21.92,0,0,0,2.72,7.47s2.27,4.38,3.44,4.59,9.63,0,9.63,0a4.15,4.15,0,0,1,0-2.75s-7.42-.8-8-1.38S32.05,18.7,30.43,18.26Z"/><path class="cls-16" d="M15.3,72.57c-5,2.88-5,7.54-.06,10.42s13,2.88,18,0,5-7.54.06-10.42S20.28,69.69,15.3,72.57Z"/><path class="cls-18" d="M30,71.06a5.42,5.42,0,0,0,.88,2.44c.71.85,4,2.78,3.72,3.67s-2.52,1-4-.46-1.86-1.65-2.47-1.78a1.47,1.47,0,0,1-.89-2.24A6.3,6.3,0,0,0,30,71.06Z"/><path class="cls-19" d="M30.78,35s2.66,13.06,1.2,20.3c0,0-.67,5.71-1,7.29s-.27,10.11-.27,10.11-2.41,1-3.62-.1c0,0-1.55-8.79.15-14.4,0,0-2-10.7-2.05-14.19a54.44,54.44,0,0,0-.48-6.48Z"/><path class="cls-20" d="M32,55.29s-.67,5.71-1,7.29-.27,10.11-.27,10.11a8,8,0,0,1-1,.29c-.17-2.55-.49-7-.63-8-.2-1.43,1.42-9.24,1.55-12.15s-3.09-13.79-3.09-13.79l.89-3.1,2.3-1S33.44,48.05,32,55.29Z"/><rect class="cls-21" x="22.22" y="15.48" width="3.35" height="4.59" transform="translate(-1.36 1.99) rotate(-4.63)"/><path class="cls-18" d="M22.69,74.33a5.36,5.36,0,0,0,.81,2.46c.68.87,3.87,2.88,3.63,3.76s-2.55.92-4-.56-1.81-1.71-2.42-1.85a1.46,1.46,0,0,1-.82-2.26A6.36,6.36,0,0,0,22.69,74.33Z"/><path class="cls-20" d="M19.92,39.29S17.34,43,18.58,50.5l.56,9s-1.71,2.88-.49,11.62l1.18,5.25s1.46,1.07,3.07-1.11c0,0-.13-12.92.48-14.91a85,85,0,0,0,3.27-13.4c.29-2.14,3.6-5.68,3.43-7.53Z"/><path class="cls-19" d="M19.83,76.35,18.65,71.1c-1.22-8.74.49-11.62.49-11.62l-.56-9C17.34,43,19.92,39.29,19.92,39.29h.29L23,41.11S20.24,55.35,20.44,59s-.82,7.84-.68,10.09c.08,1.45.73,5.11,1.18,7.55A1.71,1.71,0,0,1,19.83,76.35Z"/><path class="cls-17" d="M18.19,23.53s2.28-4.3,11.63-5.37c0,0,1.48-.62,1.34,4.19a5.31,5.31,0,0,0,1.18,2.5c.49.63,1.78,3-1.05,5.91,0,0-1.09,4.28.21,7.05,1.17,2.47-4.94,4.89-10.14,4.39a2.15,2.15,0,0,1-1.84-2.91c.56-2.23,2.23-5.94,1.18-10S17.5,25.62,18.19,23.53Z"/><path class="cls-22" d="M18.19,23.38c-.69,2.09,1.47,1.6,2.51,5.71s-.62,8-1.18,10.2.8,2.76,1.44,2.82a18.16,18.16,0,0,0,2.76.13c-1.82-4,.77-11.41.89-15.4A6.44,6.44,0,0,0,20.89,21,8.23,8.23,0,0,0,18.19,23.38Z"/><path class="cls-23" d="M31.5,37.81c-1.3-2.77-.21-7-.21-7,2.83-2.88,1.54-5.28,1.05-5.91a5.31,5.31,0,0,1-1.18-2.5,8.77,8.77,0,0,0-.4-3.52c-.54.62-1.62.4-1.26,2.6.21,1.32-.22,3.26-2.25,3.27s-.9,3.27-.78,4.17c.83,6.31-2.53,9.26-1.44,13.24C29,41.58,32.4,39.71,31.5,37.81Z"/><path class="cls-24" d="M27.61,10a51.81,51.81,0,0,0-1.05,9.89c0,.66.39.07,1.58-.34,0,0,4.34-4.46,1.14-9.61a5.16,5.16,0,0,0-7.78-1Z"/><path class="cls-25" d="M29.09,16.17a4.44,4.44,0,0,0-.57,4.09c.26.55,1,2.86-2.67,2.18,0,0-3.85-1.59-2.82-2.79.68-.8,1.31-1.94-.07-5.68Z"/><path class="cls-26" d="M23,19.65a.59.59,0,0,0-.16.38,6.68,6.68,0,0,0,5.6-2.15l-4.71-3.57h0l-.53.45C24.24,17.88,23.66,18.9,23,19.65Z"/><path class="cls-27" d="M28,9.43s1,.26,1.24,3.1c0,.31.56.69.75,1.45s.62,3.93-1.19,4.41a5.68,5.68,0,0,1-6-3.34C21.43,12,23.83,7.64,28,9.43Z"/><path class="cls-28" d="M27.88,10.59s-4.62.13-4.24,8.45l.57,4.15c-6.15-3.45-4.65-10.39-4.65-10.39S20.08,7.52,24.5,8C24.5,8,27.47,8.82,27.88,10.59Z"/><path class="cls-24" d="M27.88,10.59s1.41-.38,2.31,2.18c0,0-.82-7.39-7.65-4.59C22.54,8.18,26.73,8.05,27.88,10.59Z"/><path class="cls-27" d="M24.43,15.47s-.62-1.54-1.49-1c-.27.18-.55.53-.06,1.3A2.52,2.52,0,0,0,25,17.08Z"/><path class="cls-2" d="M6.3,34.68s-2.51,1.25-3.81,1S-.56,34.44.17,34s2.7-.27,2.8-.81-1.14-.41-.55-.7,1.72-.4,3.84.71A1.13,1.13,0,0,1,6.3,34.68Z"/><path class="cls-17" d="M19.34,21.86s2-.75,2,1.56a21.92,21.92,0,0,1-2.72,7.47s-2.27,4.37-3.44,4.59-9.63,0-9.63,0a4.12,4.12,0,0,0,0-2.74s7.42-.82,8-1.39S17.72,22.3,19.34,21.86Z"/><path class="cls-16" d="M112.08,91.25c-7.67,4.43-7.71,11.61-.09,16s20,4.42,27.68,0,7.7-11.6.09-16S119.74,86.83,112.08,91.25Z"/><path class="cls-2" d="M105.78,57.45a18.94,18.94,0,0,0-2.24,2.43c-.23.55-1.3,2.83-.37,4.64.5,1,1-.2,1.47-1.77a2.32,2.32,0,0,1,1.25-1.92,8.41,8.41,0,0,0,2.12-2C108.4,58.26,105.78,57.45,105.78,57.45Z"/><path class="cls-12" d="M108,58.93a9.74,9.74,0,0,0-1.67,2.31c-.33,1-1.46.79-1.65,1.51-.33,1.22-.77,2.22-1.16,2.13.32-.91-.66-1.8.86-3.8a15.85,15.85,0,0,1,3.14-2.72C107.92,58.67,108.1,58.72,108,58.93Z"/><path class="cls-2" d="M107.37,58.33s-.82,3-1.2,3.87-1,1.31-1.09,1.09.9-2.85-.1-2.93C104.45,60.31,107.15,58.73,107.37,58.33Z"/><path class="cls-29" d="M118.44,34.86s-3-1.17-5.14,4.72-2.53,8.26-3.74,10.21S105,58.13,105,58.13a3.44,3.44,0,0,1,2.44,2s6.27-7.6,7.81-11.12S121.37,37,118.44,34.86Z"/><path class="cls-30" d="M109.56,49.79c1.21-1.95,1.56-4.32,3.74-10.21,1.19-3.2,2.6-4.32,3.65-4.67,2.6,2.35-1.88,10.52-3.39,14-1.15,2.64-4.9,7.82-6.73,10.28a3.62,3.62,0,0,0-1.88-1S108.35,51.74,109.56,49.79Z"/><path class="cls-6" d="M125.26,92.35s.82,1.91,0,2.41-.94,1-2.25.93-1.13.33-1.58.82-5.11,2.52-6,1.53,1.59-2.14,2.47-2.71,3-2.88,3-3.53S125.26,92.35,125.26,92.35Z"/><path class="cls-7" d="M125.26,94.76c-.83.49-.94,1-2.25.93s-1.13.33-1.58.82-5.11,2.52-6,1.53c-.3-.33-.21-.69.08-1l1.37.25c1.37.24,3.13-1.34,3.81-1.93s1.54-.36,2.72-.56,1-2,1-2l.87-.3C125.47,92.9,126,94.34,125.26,94.76Z"/><path class="cls-6" d="M133.56,98.57s.35,2.27-.52,3.5-2.79,3.35-3.61,3.25-1-.47-1-.47a8.21,8.21,0,0,1,.26-3.68,11.69,11.69,0,0,0,.65-2.6Z"/><path class="cls-7" d="M133,102.07c-.77,1.07-2.34,2.85-3.27,3.2,1.23-1.59-.62-1.26.77-2,1.91-1,.69-1.9,1.54-2.14s.22-2.34.22-2.34l.46-.21h.8S133.91,100.84,133,102.07Z"/><path class="cls-31" d="M123.48,61.68s-3.91-.42-5.22-3.32a94.68,94.68,0,0,0,.44,13.81c.79,7.41,1.44,20.45,1.44,20.45a3.74,3.74,0,0,0,5.15,0s.74-8.6,0-13.38c0,0,.49-8.35-.32-12.53S123.48,61.68,123.48,61.68Z"/><path class="cls-32" d="M120.14,92.62s-.65-13-1.44-20.45a117.3,117.3,0,0,1-.53-14.78,8.51,8.51,0,0,0,4.6,4.16c-.1,2.83-.36,11.18-.32,14s.56,13.56.78,18.16A4.15,4.15,0,0,1,120.14,92.62Z"/><path class="cls-33" d="M132.68,61.23s.38,4.34.46,11.08a59.4,59.4,0,0,0,.74,10.31,148.89,148.89,0,0,1,.41,15.6s-2.13,3.29-5.48,0c0,0-.57-11.56-1.15-14.19s-3.77-15.41-5.07-20c-.57-2-.7-2.8-.7-2.8S127.53,65.29,132.68,61.23Z"/><path class="cls-32" d="M128.81,98.22s-.57-11.56-1.15-14.19-3.77-15.41-5.07-20a10.87,10.87,0,0,0-1.89-3.59s3.71,2.6,6.91,2.6c.14,1,1.51,10.42,1.82,14.55s3.12,18.48,2.37,22.09A4.14,4.14,0,0,1,128.81,98.22Z"/><path class="cls-30" d="M123.92,34.9s6.38,2.15,6.59,2.59,1.92,1.31.48,6.84c0,0-2.12,6.09.19,11.53a36.5,36.5,0,0,0,2.35,4.76s-2.05,4.29-9.85,2.65a10.69,10.69,0,0,1-5.38-3.52,39,39,0,0,0-1.78-10.46c-1.75-5.52-3.35-12.77-.28-14.22C116.24,35.07,116.91,34,123.92,34.9Z"/><path class="cls-2" d="M122.36,30.1s-.7,3.26,1.33,4.49c1.14.68.26,3.69-2.86,4.69,0,0-1.49.19-1.54-.35-.12-1.24-.81-1.7-1.63-2.37S122.36,30.1,122.36,30.1Z"/><path class="cls-10" d="M123.69,34.59a.75.75,0,0,1,.32.34,6.1,6.1,0,0,0-3.81,0l1.65-4.32.24-.26.19.25C122.18,31.63,122.18,33.67,123.69,34.59Z"/><path class="cls-2" d="M122.43,28.4s.59,3.72-1.17,6.2c-1.56,2.19-3.64,4-5.06,1.72-1.13-1.85-4.07-6.54-2.7-8.23,1.75-2.19,2-4.12,4.94-4.17C118.44,23.92,122,24.13,122.43,28.4Z"/><path class="cls-12" d="M122.43,28.4a8.28,8.28,0,0,1-1.14,6.24,10.51,10.51,0,0,1-1.57,1.82A10.14,10.14,0,0,0,121,33.6c.47-1.32-1.51-.11-1-3.22.16-1.06-1.83,1-2.38,1.19-3.26,1.17-3.73-.77-4.1-1.52a6.75,6.75,0,0,1-.1-1.06l.08-.7a1.17,1.17,0,0,1,0-.2,10.81,10.81,0,0,1,.6-1.56c1.39-.5,5.35-1.94,5.43-2s1.09.65,2.06,1.28A5.67,5.67,0,0,1,122.43,28.4Z"/><path class="cls-34" d="M122.31,32.28a6.68,6.68,0,0,0-.56-6.5A4.32,4.32,0,0,0,117,24a4.92,4.92,0,0,0-4,5c0,1.06.73,2.94,4,.59.47-.34,1.78-1.05,2.43-.8a2,2,0,0,1,1.08,1.85c0,.7.6.55.62.39s0-2.18,1-1.75S122.32,32.13,122.31,32.28Z"/><path class="cls-35" d="M122.31,32.28c0-.15.6-2.56-.24-3s-.94,1.59-1,1.75-.59.31-.62-.39a2,2,0,0,0-1.08-1.85c-.59-.23-1.72.44-2.43.8.45-.62,1.6-1.22,1.64-2.39a3.81,3.81,0,0,1,1.28-3,4.41,4.41,0,0,1,1.85,1.56A6.68,6.68,0,0,1,122.31,32.28Z"/><path class="cls-34" d="M117.18,29.68a5.17,5.17,0,0,0,2-3.65,2.06,2.06,0,0,1,.93-1.72s-1.75-1.16-4.57.17A6.8,6.8,0,0,0,113,27.33C112,29.4,113.44,32.52,117.18,29.68Z"/><path class="cls-29" d="M130.51,37.49c.22.43,1.92,1.31.48,6.84,0,0-2.12,6.09.19,11.53a36.5,36.5,0,0,0,2.35,4.76,6.1,6.1,0,0,1-4.35,2.8c-1.88-4.69-2.82-13.51-3.65-19.54a8.84,8.84,0,0,1,2.13-7.65A12.1,12.1,0,0,1,130.51,37.49Z"/><path class="cls-36" d="M117.58,60.09a27.72,27.72,0,0,0-1.06-10.8c-1.33-4.21-2.57-9.42-1.73-12.3,1,0,2.76.67,5.14,4.22a7.39,7.39,0,0,0,3.67,2.54c1.54.49,1.53,2.73.92,6.37a24.45,24.45,0,0,0,2,13.51,16.38,16.38,0,0,1-2.81-.36C122.1,62.94,118.58,61.61,117.58,60.09Z"/><path class="cls-12" d="M125.52,60.16s-2.11,1.08-2.69.93-1,.62-.27.73a3.54,3.54,0,0,0,1.48-.16s-2.13,1.76-2.8,1.25,1,1.9,2.37,1.61,2.82-.36,3.81-3.63A2.36,2.36,0,0,0,125.52,60.16Z"/><path class="cls-30" d="M126.64,38.55c.22-1.69,2.47-3.66,4.46-.32s5.67,14,4.31,15.51c-.53.6-1.48,1.33-2.36.74-1.38-.92-2.75-3.78-3.29-5.4C128.88,46.43,126.44,40.14,126.64,38.55Z"/><path class="cls-30" d="M135.64,53.12s-1.57,5.53-8.75,9.23a2.78,2.78,0,0,0-1.69-2S133.53,45.26,135.64,53.12Z"/><g class="cls-37"><polygon class="cls-38" points="105.55 143.33 103.31 142.03 103.22 109.4 105.46 110.7 105.55 143.33"/><polygon class="cls-39" points="105.46 110.7 103.22 109.4 106.2 107.68 108.44 108.99 105.46 110.7"/><polygon class="cls-40" points="108.44 108.99 108.53 141.61 105.55 143.33 105.46 110.7 108.44 108.99"/></g><g class="cls-37"><polygon class="cls-38" points="142.74 122.77 140.49 121.47 140.4 88.84 142.64 90.15 142.74 122.77"/><polygon class="cls-39" points="142.64 90.15 140.4 88.84 143.38 87.13 145.62 88.43 142.64 90.15"/><polygon class="cls-40" points="145.62 88.43 145.71 121.05 142.74 122.77 142.64 90.15 145.62 88.43"/></g><g class="cls-37"><polygon class="cls-38" points="20.4 95.29 18.16 93.99 18.07 61.37 20.31 62.67 20.4 95.29"/><polygon class="cls-39" points="20.31 62.67 18.07 61.37 21.04 59.65 23.28 60.95 20.31 62.67"/><polygon class="cls-40" points="23.28 60.95 23.38 93.57 20.4 95.29 20.31 62.67 23.28 60.95"/></g><g class="cls-37"><polygon class="cls-41" points="145.71 88.36 145.7 90.69 105.36 114.13 105.36 111.8 145.71 88.36"/><polygon class="cls-42" points="105.36 111.8 105.36 114.13 18.06 63.73 18.07 61.4 105.36 111.8"/><polygon class="cls-43" points="145.71 88.36 105.36 111.8 18.07 61.4 58.41 37.96 145.71 88.36"/></g><path class="cls-44" d="M85.45,60.85l17.83,10.29L76.52,86.69,58.69,76.4ZM76.41,85,100,71.28,85.32,62.79,61.71,76.52,76.41,85Z"/><path class="cls-44" d="M65,49l17.83,10.3L56.08,74.89,38.25,64.59ZM56,73.2,79.58,59.48,64.87,51,41.26,64.71,56,73.2Z"/><path class="cls-44" d="M106.2,72.83,124,83.12,97.28,98.67,79.45,88.38ZM97.16,97l23.62-13.72-14.7-8.49L82.46,88.5,97.16,97Z"/><polygon class="cls-45" points="79.58 59.48 55.96 73.2 41.26 64.71 64.87 50.98 79.58 59.48"/><polygon class="cls-46" points="100.03 71.28 76.41 85 61.71 76.52 85.33 62.79 100.03 71.28"/><polygon class="cls-47" points="120.78 83.26 97.16 96.98 82.46 88.5 106.08 74.77 120.78 83.26"/><g class="cls-37"><polygon class="cls-48" points="124.91 82.91 125.64 84.57 125.35 84.61 120.06 85.39 118.82 85.57 118.25 85.65 116.12 80.83 118.68 80.46 117.25 80.67 119.38 85.49 124.21 84.78 122.09 79.96 123.51 79.75 124.91 82.91"/><polygon class="cls-49" points="122.09 79.96 124.21 84.78 119.38 85.49 117.25 80.67 118.68 80.46 122.09 79.96"/><polygon class="cls-50" points="116.12 80.83 118.25 85.65 113.53 86.34 113.41 86.36 111.28 81.55 116.12 80.83"/><polygon class="cls-51" points="125.35 84.61 125.56 84.76 121.64 86.55 120.06 85.39 125.35 84.61"/><polygon class="cls-48" points="110.16 81.71 111.28 81.55 113.41 86.36 112.29 86.52 110.16 81.71"/><polygon class="cls-52" points="110.13 81.71 112.29 86.53 107.45 87.23 105.32 82.42 110.13 81.71"/><polygon class="cls-53" points="127.09 84.74 125.17 87.41 121.64 86.55 126.12 84.5 127.09 84.74"/><polygon class="cls-54" points="104.19 82.58 106.32 87.4 105.77 87.48 105.73 87.49 101.48 88.11 99.36 83.29 101.32 83 104.19 82.58"/><polygon class="cls-48" points="104.19 82.58 105.32 82.42 107.45 87.23 107 87.3 106.32 87.4 104.19 82.58"/><polygon class="cls-48" points="124.91 82.91 125.67 83.47 126.71 84.23 126.12 84.5 121.64 86.55 120.6 87.03 116.12 89.07 115.08 89.55 113.97 90.06 106.19 93.61 100.86 89.71 105.72 87.49 101.84 89.26 107.16 93.17 111.08 91.38 105.77 87.48 106.32 87.4 107 87.3 111.99 90.96 115.91 89.17 112.29 86.52 113.41 86.36 113.53 86.34 116.81 88.75 120.73 86.97 118.82 85.57 120.06 85.39 121.64 86.55 125.56 84.76 125.35 84.61 125.64 84.57 124.91 82.91"/><polygon class="cls-48" points="126.12 84.5 126.71 84.23 125.67 83.47 127.65 83.95 124.73 88.03 120.6 87.03 121.64 86.55 125.17 87.41 127.09 84.74 126.12 84.5"/><polygon class="cls-48" points="101.32 83 99.36 83.29 101.48 88.11 100.28 88.28 98.15 83.47 101.32 83"/><polygon class="cls-55" points="118.82 85.57 120.73 86.97 116.81 88.75 113.53 86.34 118.25 85.65 118.82 85.57"/><polygon class="cls-56" points="112.29 86.53 115.91 89.17 111.99 90.96 107 87.3 107.45 87.23 112.29 86.53"/><polygon class="cls-57" points="122.36 91.31 121.11 93.06 120.45 93.98 112.53 92.06 113.97 90.06 115.08 89.55 122.36 91.31"/><polygon class="cls-48" points="121.11 93.06 122.36 91.31 115.08 89.55 116.12 89.07 122.81 90.69 124.33 88.57 121.11 93.06"/><polygon class="cls-58" points="105.77 87.48 111.08 91.38 107.16 93.17 101.84 89.26 105.73 87.49 105.77 87.48"/><polygon class="cls-59" points="120 94.6 118.09 97.27 110.17 95.35 111.61 93.34 112.08 92.68 120 94.6"/><polygon class="cls-48" points="120.45 93.98 117.61 97.94 109.69 96.02 111.61 93.34 110.17 95.35 118.09 97.27 120 94.6 112.08 92.68 113.97 90.06 112.53 92.06 120.45 93.98"/></g><polygon class="cls-60" points="124.73 88.03 124.33 88.57 122.81 90.69 116.12 89.07 120.6 87.03 124.73 88.03"/><path class="cls-61" d="M39.91,68.25c-.94.54-.95,1.42,0,2a3.69,3.69,0,0,0,3.39,0,1,1,0,0,0,0-2A3.73,3.73,0,0,0,39.91,68.25Z"/><polygon class="cls-61" points="44.97 63.36 43.95 69.49 39.24 69.49 38.22 63.36 44.97 63.36"/><path class="cls-62" d="M39.22,62c-1.33.76-1.34,2,0,2.76a5.3,5.3,0,0,0,4.78,0c1.32-.76,1.32-2,0-2.76A5.21,5.21,0,0,0,39.22,62Z"/><path class="cls-63" d="M39.22,62c-1.33.76-1.34,2,0,2.76a5.3,5.3,0,0,0,4.78,0c1.32-.76,1.32-2,0-2.76A5.21,5.21,0,0,0,39.22,62Z"/><path class="cls-61" d="M39.56,62.18a1.25,1.25,0,0,0,0,2.36,4.49,4.49,0,0,0,4.07,0,1.25,1.25,0,0,0,0-2.36A4.51,4.51,0,0,0,39.56,62.18Z"/><path class="cls-64" d="M43.62,64.54a4.49,4.49,0,0,1-4.07,0,1.87,1.87,0,0,1-.71-.68,1.65,1.65,0,0,1,.81-.91,4.51,4.51,0,0,1,4.08,0,1.83,1.83,0,0,1,.7.68A1.61,1.61,0,0,1,43.62,64.54Z"/><path class="cls-65" d="M43.27,68.58s0,0,0,0l-.15-.07.33-.18.14.07,0,0,.08,0h.05l0,0h.27l.06,0h0l.07,0-.32.19h0l-.05,0h-.46l-.08,0Z"/><path class="cls-65" d="M44.56,68.2v-.15a.09.09,0,0,1,0,0s0-.06,0-.09,0-.06,0-.1a.31.31,0,0,0,0-.08s0,0,0-.07l0-.1s0,0,0,0a.88.88,0,0,0,0-.15s0,0,0,0l-.06-.13s0,0,0,0a.61.61,0,0,1-.07-.14h0c0-.05,0-.1-.08-.14l0-.05a.61.61,0,0,0-.07-.1s0,0,0,0L44,66.56l0,0a.71.71,0,0,0-.07-.09l-.05-.06,0,0-.12-.12-.07-.07,0-.05L43.44,66a.1.1,0,0,0,0,0l-.1-.08,0,0a.42.42,0,0,0-.14-.09l.32-.19.15.09,0,0,.1.07,0,0,.09.07,0,0s0,0,.05.05,0,0,0,0l.12.13,0,0h0l.05.07.06.07h0l0,0,.06.08a0,0,0,0,1,0,0,.13.13,0,0,1,0,0l0,0a.21.21,0,0,0,0,.06s0,0,0,0,0,0,0,0l.06.12h0a.54.54,0,0,0,0,.11l0,0s0,0,0,0,0,0,0,0l0,.08s0,0,0,0h0l0,.12v0s0,0,0,0a.64.64,0,0,0,0,.07.09.09,0,0,0,0,0,.13.13,0,0,1,0,.06s0,0,0,0v0s0,.06,0,.09,0,0,0,0v.06s0,0,0,0V68a.91.91,0,0,1-.39.84l-.32.18A.91.91,0,0,0,44.56,68.2Z"/><path class="cls-63" d="M43.11,65.8v.41A2.27,2.27,0,0,1,44.17,68c0,.63-.48.87-1.07.53v.42c.81.46,1.46.14,1.46-.72A3.11,3.11,0,0,0,43.11,65.8Z"/><g class="cls-66"><path class="cls-18" d="M35.81,59.89c1.66,1,1.66,2.5,0,3.45a6.57,6.57,0,0,1-5.95,0c-1.65-1-1.65-2.5,0-3.45A6.57,6.57,0,0,1,35.81,59.89Z"/></g><path class="cls-67" d="M35.1,59.55c1.25.73,1.25,1.9,0,2.62a5,5,0,0,1-4.51,0,1.39,1.39,0,0,1,0-2.62A5,5,0,0,1,35.1,59.55Z"/><polygon class="cls-67" points="28.64 55.82 29.66 61.03 36.03 61.03 37.06 55.69 28.64 55.82"/><path class="cls-68" d="M35.81,54c1.66,1,1.66,2.5,0,3.45a6.57,6.57,0,0,1-5.95,0c-1.65-.95-1.65-2.49,0-3.44A6.54,6.54,0,0,1,35.81,54Z"/><path class="cls-69" d="M34.9,54.43a1.33,1.33,0,0,1,0,2.52,4.8,4.8,0,0,1-4.35,0,1.33,1.33,0,0,1,0-2.51A4.77,4.77,0,0,1,34.9,54.43Z"/><path class="cls-69" d="M29.71,56s-3.1-3.93-.05-11c0,0,2.67,3.38,1.14,12A2.4,2.4,0,0,1,29.71,56Z"/><path class="cls-70" d="M29.69,45.08c.06,2.72.21,7.44.59,11.64a1.93,1.93,0,0,0,.52.35C32.23,49,30,45.51,29.69,45.08Z"/><path class="cls-69" d="M31.23,55.53s-2.48-4.34,1.58-10.87c0,0,2.15,3.74-.66,12.08A2.49,2.49,0,0,1,31.23,55.53Z"/><path class="cls-70" d="M32.6,44.66c-.35,2.69-.9,7.38-1.15,11.59a1.86,1.86,0,0,0,.46.43C34.53,48.91,32.84,45.13,32.6,44.66Z"/><path class="cls-69" d="M31.39,57.24s-3.72-1.31-4.65-7.3c0,0,3.21,1.12,5.83,7.55A2,2,0,0,1,31.39,57.24Z"/><path class="cls-70" d="M26.79,50c1.18,1.79,3.26,4.88,5.28,7.53a1.52,1.52,0,0,0,.5,0C30.13,51.5,27.18,50.11,26.79,50Z"/><path class="cls-69" d="M33,56.66s-2-2.27-.36-6.63c0,0,1.72,2,1,7.24A1.53,1.53,0,0,1,33,56.66Z"/><path class="cls-70" d="M32.71,50.06c.11,1.64.35,4.49.7,7a1.18,1.18,0,0,0,.32.2C34.35,52.35,32.9,50.32,32.71,50.06Z"/><path class="cls-69" d="M33.93,55.2S32,51.74,35.31,46.65c0,0,1.65,3-.67,9.52A1.89,1.89,0,0,1,33.93,55.2Z"/><path class="cls-70" d="M35.33,46.7c-.3,2.12-.8,5.81-1,9.13a1.48,1.48,0,0,0,.36.34C36.8,50.07,35.52,47.08,35.33,46.7Z"/><path class="cls-69" d="M34.42,55.85S34,52.93,37.57,50.2c0,0,.4,2.51-2.9,6.51A1.45,1.45,0,0,1,34.42,55.85Z"/><path class="cls-70" d="M37.58,50.24c-.76,1.41-2,3.87-3.08,6.13a1.2,1.2,0,0,0,.17.34C37.74,53,37.61,50.55,37.58,50.24Z"/><g class="cls-37"><polygon class="cls-48" points="61.89 57.84 62.54 56.37 62.28 56.34 57.6 55.65 56.51 55.49 56.01 55.42 54.12 59.67 56.39 60.01 55.12 59.82 57 55.56 61.28 56.19 59.4 60.45 60.66 60.63 61.89 57.84"/><polygon class="cls-71" points="59.4 60.45 61.28 56.19 57 55.56 55.12 59.82 56.39 60.01 59.4 60.45"/><polygon class="cls-72" points="54.12 59.67 56.01 55.42 51.83 54.8 51.73 54.79 49.85 59.05 54.12 59.67"/><polygon class="cls-73" points="62.28 56.34 62.46 56.2 59 54.62 57.6 55.65 62.28 56.34"/><polygon class="cls-48" points="48.85 58.9 49.85 59.05 51.73 54.79 50.74 54.64 48.85 58.9"/><polygon class="cls-74" points="48.83 58.9 50.73 54.64 46.45 54.02 44.57 58.27 48.83 58.9"/><polygon class="cls-53" points="63.82 56.22 62.13 53.87 59 54.62 62.96 56.43 63.82 56.22"/><polygon class="cls-75" points="43.58 58.13 45.46 53.87 44.97 53.8 44.93 53.79 41.18 53.24 39.3 57.5 41.03 57.76 43.58 58.13"/><polygon class="cls-48" points="43.58 58.13 44.57 58.27 46.45 54.02 46.06 53.96 45.46 53.87 43.58 58.13"/><polygon class="cls-48" points="61.89 57.84 62.56 57.34 63.48 56.67 62.96 56.43 59 54.62 58.08 54.2 54.12 52.39 53.2 51.97 52.22 51.52 45.34 48.38 40.63 51.83 44.93 53.79 41.5 52.22 46.2 48.77 49.67 50.35 44.97 53.8 45.46 53.87 46.06 53.96 50.47 50.72 53.93 52.3 50.74 54.64 51.73 54.79 51.83 54.8 54.74 52.67 58.2 54.25 56.51 55.49 57.6 55.65 59 54.62 62.46 56.2 62.28 56.34 62.54 56.37 61.89 57.84"/><polygon class="cls-48" points="62.96 56.43 63.48 56.67 62.56 57.34 64.32 56.92 61.73 53.32 58.08 54.2 59 54.62 62.13 53.87 63.82 56.22 62.96 56.43"/><polygon class="cls-48" points="41.03 57.76 39.3 57.5 41.18 53.24 40.12 53.09 38.23 57.35 41.03 57.76"/><polygon class="cls-76" points="56.51 55.49 58.2 54.25 54.74 52.67 51.83 54.8 56.01 55.42 56.51 55.49"/><polygon class="cls-77" points="50.73 54.64 53.93 52.3 50.47 50.72 46.06 53.96 46.45 54.02 50.73 54.64"/><polygon class="cls-57" points="59.64 50.41 58.53 48.87 57.95 48.05 50.95 49.75 52.22 51.52 53.2 51.97 59.64 50.41"/><polygon class="cls-48" points="58.53 48.87 59.64 50.41 53.2 51.97 54.12 52.39 60.04 50.96 61.39 52.84 58.53 48.87"/><polygon class="cls-78" points="44.97 53.8 49.67 50.35 46.2 48.77 41.5 52.22 44.93 53.79 44.97 53.8"/><polygon class="cls-59" points="57.55 47.5 55.86 45.14 48.86 46.84 50.13 48.62 50.55 49.2 57.55 47.5"/><polygon class="cls-48" points="57.95 48.05 55.44 44.55 48.44 46.25 50.13 48.62 48.86 46.84 55.86 45.14 57.55 47.5 50.55 49.2 52.22 51.52 50.95 49.75 57.95 48.05"/></g><polygon class="cls-60" points="61.73 53.32 61.39 52.84 60.04 50.96 54.12 52.39 58.08 54.2 61.73 53.32"/><g class="cls-66"><polygon class="cls-18" points="87.36 74.45 76.65 80.68 58.76 70.35 69.47 64.13 87.36 74.45"/></g><path class="cls-79" d="M85.65,73.8c-.13.47-8.22,4.78-8.22,4.78a2.51,2.51,0,0,1-2.11,0C71.66,76.42,61,70.18,61,70.18c-.53-.31-.69-1.1-.17-1.4l8.44-4.63S86.84,69.39,85.65,73.8Z"/><path class="cls-80" d="M85.71,73.43l-8.28,4.81a2.55,2.55,0,0,1-2.11,0c-3.66-2.12-14.44-8.41-14.44-8.41-.53-.31-.54-.8,0-1.11l8.37-4.86Z"/><path class="cls-79" d="M87.89,61.9a1.25,1.25,0,0,0,0-.19.09.09,0,0,1,0-.05l-.06-.19a0,0,0,0,1,0,0s0-.11-.08-.16l0-.07-.08-.12,0,0a.74.74,0,0,0-.12-.13l0,0a.72.72,0,0,0-.15-.11L72.7,52.39l-.17-.07-.06,0h-.3l.41-.1h.36a.67.67,0,0,1,.18.07l14.54,8.4a.72.72,0,0,1,.15.11l0,0L88,61l0,0s0,0,.05.07l0,.06a.25.25,0,0,1,0,.07l0,0,.06.14h0a.88.88,0,0,1,0,.15.07.07,0,0,0,0,.05.09.09,0,0,1,0,0,.11.11,0,0,1,0,0,.68.68,0,0,1,0,.14s0,0,0,0h0V62h0a1,1,0,0,1,0,.25L85.65,73.8,85.3,74l2.57-11.63a1,1,0,0,0,0-.25V61.9Z"/><path class="cls-81" d="M72.7,52.39c-.47-.27-1,0-1.1.6L69.24,63.82l16.15,9.8,2.48-11.24a1.56,1.56,0,0,0-.62-1.59Z"/><polygon class="cls-82" points="87.3 62.7 71.92 53.92 69.88 63.23 85.06 72.53 87.3 62.7"/><polygon class="cls-83" points="71.6 52.99 84.98 73.37 69.24 63.82 71.6 52.99"/><polygon class="cls-84" points="73.51 69.43 72.85 69.81 72.25 69.46 72.91 69.08 73.51 69.43"/><g class="cls-37"><polygon class="cls-84" points="68.67 66.63 68.01 67.02 67.41 66.66 68.06 66.28 68.67 66.63"/><polygon class="cls-84" points="71.44 68.23 70.78 68.61 70.17 68.26 70.83 67.88 71.44 68.23"/><polygon class="cls-84" points="69.6 69.29 68.95 69.68 68.34 69.33 69 68.94 69.6 69.29"/><path class="cls-85" d="M68.66,65.34,83.32,73.8l-4.89,2.85L63.77,68.18ZM75,74.2l.65-.38-6.82-3.95-.66.39L75,74.2Zm-4.34-5.39-.66.38.6.35.66-.38-.6-.35Zm-2.13-.47.66-.38-.61-.35-.66.39.61.34Zm8.3,4.8.66-.39-.61-.34-.66.38.61.35Zm-2-1.93-.66.38.6.35.66-.38-.6-.35Zm4.09,3.12.66-.38-.61-.35-.65.38.6.35ZM72,70.39l.6.35.67-.38L72.68,70l-.66.38Zm0-.78-.66.38.61.35L72.6,70,72,69.61Zm8.24,5.52.66-.38-.6-.35-.66.38.6.35ZM67.79,68l.66-.39-.61-.35-.66.39.61.35Zm6.28,2.86-.66.38.6.35.66-.39-.6-.34Zm-4.21-1.67.66-.38-.6-.35-.66.39.6.34ZM76.14,72l-.66.39.6.35.66-.39-.6-.35Zm2,1.93.66-.38-.61-.35-.66.39.61.34ZM77,75.4l.66-.38-.61-.35-.65.38.6.35Zm-9.46-6.52.66-.38-.6-.36-.66.39.6.35Zm6.28,2.86-.66.38.61.35.66-.38-.61-.35Zm-2.32-3.46-.66.38.61.35.66-.38-.61-.35Zm-2.13-.47.66-.38-.6-.35-.66.38.6.35Zm3,3.08-.61-.35-.65.38.6.35.66-.38Zm.57-1,.6.35.66-.38-.6-.35-.66.38Zm-3.25-.52-.66.39.61.35.66-.39-.61-.35Zm-3,.07.66-.38-.61-.35-.66.38.61.35Zm9,1.26-.66.39.61.35.66-.38-.61-.36Zm2.27,4.19.65-.38-.6-.35-.66.39.61.34Zm-2.08-1.19.66-.38-.61-.35-.66.38.61.35Zm1.83-1.07.66-.38-.6-.35-.66.38.6.35Zm2.08,1.2.66-.38-.61-.35-.66.38.61.35Zm-6.86-4.72-.66.38.6.35.66-.38-.6-.35Zm4.34,5.39.65-.39-.6-.34-.66.38.61.35Zm1.82-1.07.66-.38-.6-.35-.66.38.6.35Zm-5.92-2.06-.66.38.61.35.65-.38-.6-.35Zm-2.37-2.73.66-.38-.61-.35-.66.38.61.35ZM75,70.28l-.66.38.61.35.65-.38-.6-.35Zm-6-.6.65-.39-.6-.35-.66.39.61.35Zm2.12.46-.65.38.6.35.66-.38-.61-.35Zm-3,.07.66-.38-.61-.35-.65.38.6.35Zm7.19,2.33-.66.38.61.35.66-.38-.61-.35Zm1.83-1.07-.65.39.6.35.66-.39-.61-.35Zm1.36,4.73.65-.39-.6-.35-.66.39.61.35ZM66,69l.66-.38L66,68.28l-.66.38L66,69Zm.91-.53.66-.38-.6-.36-.66.39.6.35Zm12.45,7.19.66-.39-.61-.35-.66.39.61.35ZM68.7,67.41l.66-.38-.6-.35-.66.39.6.34ZM76.33,75l.66-.38-.61-.35-.66.38.61.35Zm4.82-.4.66-.38-.61-.35-.66.38.61.35Zm-14.06-7,.66-.39-.6-.35-.66.39.6.35Zm8.36,4.06-.66.38.6.35.66-.38-.6-.35Zm2,1.92.66-.38-.61-.35-.66.38.61.35Zm-8.3-4.79.66-.38L69.22,68l-.65.39.6.34Zm2.13.47-.66.38.6.35.66-.38-.6-.35Zm8.24,5.52.66-.38L79.6,74l-.66.38.6.35Zm-6.83-3.94.61.35.66-.38-.6-.35-.67.38Zm7.75,3.41.66-.38-.61-.35-.66.38.61.35ZM66.18,68.08l.66-.38-.61-.35-.65.38.6.35Zm12.45,7.19.65-.39-.6-.34-.66.38.61.35Zm-8.25-5.53-.66.39.61.35.66-.39-.61-.35Zm-.29-1.53.65-.38-.6-.35-.66.38.61.35Zm2.13.47-.66.38.6.35.66-.38-.6-.35Zm3.42,5.92.65-.38-.6-.35-.66.38.61.35Zm-10.37-6,.65-.38-.6-.35-.66.38.61.35Zm11.28,5.46.66-.38-.6-.35-.66.38.6.35Zm-8.29-4.79.65-.39-.6-.34-.66.38.61.35ZM78.38,73l.66-.38-.6-.35-.66.38.6.35Zm-.67,2.8.66-.39-.61-.34-.65.38.6.35Zm-1.34-4.73-.66.38.6.35.66-.38-.6-.35Zm-9-1.26.66-.38-.61-.35-.66.38.61.35Zm6.29.45.61.35.65-.39-.6-.35-.66.39Zm-.57,1-.6-.35-.66.38.6.35.66-.38ZM68,67l.66-.39-.61-.35-.65.38L68,67Zm6.52,5.12-.66.38.61.35.66-.38-.61-.35Zm-.62-3.38-.46.27.61.35.45-.27-.6-.35Zm4.38,2.53-.46.27.61.35.45-.27-.6-.35Zm-8.53-4.93-.46.27.61.35.45-.27-.6-.35Zm2.53,1.47-.45.27.6.35.46-.27-.61-.35Zm-.92-.53-.46.26.61.35.46-.26-.61-.35Zm9.45,5.45-.46.27.61.35.46-.27-.61-.35Zm.92.54-.45.26.6.35.46-.27-.61-.34Zm-2.38-.85.45-.27-.6-.35-.46.27.61.35ZM69,66.45l.46-.27-.6-.34-.46.26.6.35Zm5.85,2.84-.46.27.61.35.45-.27-.6-.35Z"/><polygon class="cls-84" points="69.44 66.18 68.98 66.45 68.38 66.1 68.84 65.83 69.44 66.18"/><polygon class="cls-84" points="70.36 66.71 69.91 66.98 69.3 66.63 69.76 66.36 70.36 66.71"/><polygon class="cls-84" points="69.36 67.03 68.7 67.41 68.1 67.07 68.76 66.68 69.36 67.03"/><polygon class="cls-84" points="67.75 67.16 67.09 67.55 66.49 67.2 67.15 66.81 67.75 67.16"/><polygon class="cls-84" points="70.05 67.43 69.39 67.81 68.79 67.46 69.45 67.08 70.05 67.43"/><polygon class="cls-84" points="71.98 67.65 71.52 67.91 70.91 67.56 71.37 67.3 71.98 67.65"/><polygon class="cls-84" points="68.45 67.56 67.78 67.95 67.18 67.6 67.84 67.21 68.45 67.56"/><polygon class="cls-84" points="66.84 67.7 66.18 68.08 65.58 67.73 66.23 67.35 66.84 67.7"/><polygon class="cls-84" points="70.74 67.83 70.09 68.21 69.48 67.86 70.14 67.48 70.74 67.83"/><polygon class="cls-84" points="69.14 67.96 68.48 68.34 67.87 68 68.53 67.61 69.14 67.96"/><polygon class="cls-84" points="72.9 68.18 72.44 68.45 71.84 68.1 72.29 67.83 72.9 68.18"/><polygon class="cls-84" points="67.53 68.1 66.87 68.48 66.27 68.13 66.93 67.75 67.53 68.1"/><polygon class="cls-84" points="65.92 68.23 65.27 68.61 64.66 68.26 65.32 67.88 65.92 68.23"/><polygon class="cls-84" points="69.83 68.36 69.17 68.75 68.56 68.4 69.22 68.01 69.83 68.36"/><polygon class="cls-84" points="68.22 68.5 67.56 68.88 66.96 68.53 67.62 68.14 68.22 68.5"/><polygon class="cls-84" points="72.13 68.63 71.47 69.01 70.86 68.66 71.52 68.28 72.13 68.63"/><polygon class="cls-84" points="70.52 68.76 69.86 69.14 69.25 68.8 69.92 68.41 70.52 68.76"/><polygon class="cls-84" points="68.91 68.89 68.25 69.28 67.65 68.93 68.31 68.55 68.91 68.89"/><polygon class="cls-84" points="74.51 69.11 74.06 69.38 73.45 69.03 73.91 68.76 74.51 69.11"/><polygon class="cls-84" points="72.82 69.03 72.16 69.41 71.56 69.06 72.22 68.68 72.82 69.03"/><polygon class="cls-84" points="71.21 69.16 70.55 69.54 69.95 69.19 70.61 68.81 71.21 69.16"/><polygon class="cls-84" points="68 69.43 67.34 69.81 66.73 69.46 67.39 69.08 68 69.43"/><polygon class="cls-84" points="75.43 69.64 74.98 69.91 74.37 69.56 74.83 69.29 75.43 69.64"/><polygon class="cls-84" points="71.9 69.56 71.24 69.94 70.64 69.59 71.3 69.21 71.9 69.56"/><polygon class="cls-84" points="70.3 69.69 69.64 70.08 69.03 69.72 69.69 69.34 70.3 69.69"/><polygon class="cls-84" points="74.2 69.83 73.54 70.21 72.94 69.86 73.6 69.48 74.2 69.83"/><polygon class="cls-84" points="68.69 69.83 68.03 70.21 67.43 69.86 68.08 69.48 68.69 69.83"/><polygon class="cls-84" points="70.99 70.09 70.33 70.48 69.72 70.13 70.38 69.74 70.99 70.09"/><polygon class="cls-84" points="74.89 70.22 74.23 70.61 73.63 70.26 74.29 69.87 74.89 70.22"/><polygon class="cls-84" points="73.28 70.36 72.62 70.74 72.02 70.39 72.68 70.01 73.28 70.36"/><polygon class="cls-84" points="71.68 70.49 71.02 70.87 70.42 70.53 71.07 70.14 71.68 70.49"/><polygon class="cls-84" points="75.58 70.63 74.93 71.01 74.32 70.66 74.98 70.28 75.58 70.63"/><polygon class="cls-84" points="73.97 70.76 73.32 71.14 72.72 70.79 73.38 70.41 73.97 70.76"/><polygon class="cls-84" points="72.37 70.89 71.71 71.27 71.11 70.92 71.76 70.54 72.37 70.89"/><polygon class="cls-84" points="76.28 71.03 75.61 71.41 75.01 71.06 75.67 70.67 76.28 71.03"/><polygon class="cls-84" points="74.67 71.16 74.01 71.54 73.41 71.19 74.06 70.81 74.67 71.16"/><polygon class="cls-84" points="73.06 71.29 72.4 71.67 71.8 71.32 72.46 70.94 73.06 71.29"/><polygon class="cls-84" points="76.97 71.42 76.31 71.8 75.71 71.45 76.36 71.08 76.97 71.42"/><polygon class="cls-84" points="78.89 71.64 78.44 71.91 77.83 71.56 78.29 71.29 78.89 71.64"/><polygon class="cls-84" points="75.36 71.56 74.7 71.94 74.1 71.59 74.75 71.21 75.36 71.56"/><polygon class="cls-84" points="73.75 71.69 73.1 72.07 72.49 71.72 73.15 71.34 73.75 71.69"/><polygon class="cls-84" points="77.66 71.82 77 72.2 76.4 71.86 77.06 71.47 77.66 71.82"/><polygon class="cls-84" points="76.05 71.95 75.39 72.34 74.79 71.99 75.45 71.61 76.05 71.95"/><polygon class="cls-84" points="79.81 72.17 79.36 72.44 78.75 72.09 79.21 71.82 79.81 72.17"/><polygon class="cls-84" points="74.44 72.09 73.79 72.47 73.18 72.12 73.84 71.74 74.44 72.09"/><polygon class="cls-84" points="78.35 72.22 77.69 72.61 77.09 72.25 77.75 71.87 78.35 72.22"/><polygon class="cls-84" points="76.74 72.35 76.08 72.74 75.48 72.39 76.14 72 76.74 72.35"/><polygon class="cls-84" points="75.14 72.49 74.48 72.87 73.88 72.52 74.53 72.14 75.14 72.49"/><polygon class="cls-84" points="79.04 72.62 78.38 73 77.78 72.65 78.44 72.27 79.04 72.62"/><polygon class="cls-84" points="77.44 72.75 76.78 73.14 76.17 72.79 76.83 72.41 77.44 72.75"/><polygon class="cls-84" points="75.83 72.89 75.17 73.27 74.56 72.92 75.22 72.54 75.83 72.89"/><polygon class="cls-84" points="81.43 73.11 80.97 73.37 80.36 73.02 80.82 72.75 81.43 73.11"/><polygon class="cls-84" points="79.73 73.02 79.08 73.41 78.47 73.05 79.13 72.67 79.73 73.02"/><polygon class="cls-84" points="78.13 73.15 77.47 73.53 76.86 73.19 77.53 72.8 78.13 73.15"/><polygon class="cls-84" points="80.42 73.42 79.77 73.8 79.16 73.45 79.82 73.07 80.42 73.42"/><polygon class="cls-84" points="82.35 73.63 81.89 73.9 81.29 73.55 81.74 73.29 82.35 73.63"/><polygon class="cls-84" points="78.82 73.55 78.16 73.93 77.55 73.58 78.22 73.2 78.82 73.55"/><polygon class="cls-84" points="77.21 73.69 76.55 74.07 75.95 73.72 76.61 73.34 77.21 73.69"/><polygon class="cls-84" points="81.11 73.82 80.46 74.2 79.86 73.85 80.51 73.47 81.11 73.82"/><polygon class="cls-84" points="75.6 73.82 74.95 74.2 68.12 70.26 68.78 69.87 75.6 73.82"/><polygon class="cls-84" points="79.51 73.95 78.85 74.33 78.25 73.98 78.91 73.6 79.51 73.95"/><polygon class="cls-84" points="77.9 74.08 77.25 74.47 76.64 74.12 77.3 73.74 77.9 74.08"/><polygon class="cls-84" points="81.81 74.22 81.15 74.6 80.55 74.25 81.2 73.87 81.81 74.22"/><polygon class="cls-84" points="76.29 74.22 75.64 74.6 75.03 74.25 75.69 73.87 76.29 74.22"/><polygon class="cls-84" points="80.2 74.35 79.54 74.73 78.94 74.38 79.6 74 80.2 74.35"/><polygon class="cls-84" points="78.59 74.48 77.94 74.86 77.33 74.52 77.99 74.13 78.59 74.48"/><polygon class="cls-84" points="76.99 74.62 76.33 75 75.72 74.65 76.38 74.27 76.99 74.62"/><polygon class="cls-84" points="80.89 74.75 80.23 75.13 79.63 74.78 80.29 74.4 80.89 74.75"/><polygon class="cls-84" points="79.28 74.88 78.63 75.27 78.02 74.92 78.68 74.54 79.28 74.88"/><polygon class="cls-84" points="77.68 75.02 77.02 75.4 76.42 75.05 77.07 74.67 77.68 75.02"/><polygon class="cls-84" points="79.98 75.28 79.32 75.67 78.71 75.32 79.37 74.93 79.98 75.28"/><polygon class="cls-84" points="78.37 75.41 77.71 75.8 77.11 75.45 77.76 75.07 78.37 75.41"/><polygon class="cls-84" points="79.06 75.81 78.41 76.2 77.8 75.85 78.46 75.46 79.06 75.81"/></g><polygon class="cls-84" points="72.6 69.96 71.94 70.34 71.33 69.99 71.99 69.61 72.6 69.96"/><polygon class="cls-84" points="76.52 73.29 75.86 73.67 75.25 73.32 75.91 72.94 76.52 73.29"/><polygon class="cls-84" points="67.31 69.03 66.65 69.41 66.04 69.06 66.7 68.68 67.31 69.03"/><polygon class="cls-84" points="66.61 68.63 65.96 69.01 65.35 68.66 66.01 68.28 66.61 68.63"/><path class="cls-84" d="M71.61,73.06a.23.23,0,0,1,0,.44l-1.38.79a.82.82,0,0,1-.76,0L67.6,73.22c-.21-.12-.21-.32,0-.45L69,72a.94.94,0,0,1,.77,0Z"/><path class="cls-86" d="M71.61,73.12a.23.23,0,0,1,0,.44l-1.38.8a.85.85,0,0,1-.76,0L67.6,73.28a.23.23,0,0,1,0-.44L69,72a.87.87,0,0,1,.77,0Z"/><path class="cls-16" d="M79.69,120c7.61,4.4,7.65,11.54.08,15.93s-19.87,4.4-27.49,0-7.65-11.53-.09-15.93S72.07,115.65,79.69,120Z"/><polygon class="cls-87" points="79.55 76.91 79.89 77.47 78.86 76.87 78.52 76.31 79.55 76.91"/><path class="cls-6" d="M61.34,120.43s1.69.25,1.28,1.23-2.36,2.46-2.62,3.08-1.85,2.82-2.36,2.62-1.85.1-1.69-2.42S59.08,120.32,61.34,120.43Z"/><path class="cls-6" d="M64.3,129.53s-.83,2.41,1.22,3,1.44-.72,5.91.41,4.87-1.17,4.88-1.7c0-1.2-3.08-1.43-4.06-1.69a23.11,23.11,0,0,1-2.92-1.23l-5.2.51Z"/><path class="cls-88" d="M55.85,87.62s0,14.58,0,16.22S54,118.42,55.1,124.06c0,0,3.17,3.19,6,0,0,0,.89-16.19,1.71-19.84s.54-14.83.54-14.83Z"/><path class="cls-88" d="M61.43,89.69s.73,9.41,1.48,18.75c0,0,.46,18.52.9,21.19,0,0,6,1.48,6.57-1.34,0,0-.15-16.29,0-19.7s.5-12.91-.84-18.4S61.43,89.69,61.43,89.69Z"/><path class="cls-89" d="M63.81,129.63c-.44-2.67-.9-21.19-.9-21.19-.51-6.29-1-12.6-1.27-16.06l3.69.91a48.13,48.13,0,0,1,2.25,17.45c-.31,8.11-.44,16.08-.48,19.28A14.8,14.8,0,0,1,63.81,129.63Z"/><path class="cls-89" d="M55.1,124.06c-1.1-5.64.73-18.58.73-20.22s0-14.86,0-16.11l3.21,2.46s1,10.42,0,16.36c-.93,5.4-.33,15.92-.78,18.93A5.09,5.09,0,0,1,55.1,124.06Z"/><path class="cls-88" d="M61.7,58S58.81,57.3,58,62.16c-.63,3.93-.68,10.17.08,12.74a81.86,81.86,0,0,0,3.31,7.93s3.49.12,3.29-2l-2.66-8.23S65,58.13,61.7,58Z"/><path class="cls-89" d="M61.46,57.94s-3.36.76-2.9,6.27.84,9.08.29,11a87.72,87.72,0,0,1-3.54,9.29s-1.52,4.06,7.45,8.89c0,0,7.68,2.72,7.65-2.78a71.1,71.1,0,0,1,2.2-16c.69-2,2.86-5.64-1.47-9.56S64.7,58.52,61.46,57.94Z"/><path class="cls-90" d="M72.61,74.61a71.1,71.1,0,0,0-2.2,16c0,3.82-3.66,3.68-5.92,3.23-.16-2.49,2.06-6.32,1.63-11.78-.53-6.75.77-10.81,2.68-13.86,1.24-2,2.55-1.73,3.55-1.81C75,69.76,73.22,72.88,72.61,74.61Z"/><path class="cls-91" d="M55.31,84.45a87.72,87.72,0,0,0,3.54-9.29c.55-1.87.12-5.45-.29-11-.39-5.21,1.75-6,2.9-6.27-.08,2.62,8.3,5.79,7.69,7.4-.69,1.8-3.42,3-4.37,6.26a51.06,51.06,0,0,0-1.73,10.93c0,2.26-1.52,7.37-2.55,9.48C54.06,87.79,55.31,84.45,55.31,84.45Z"/><path class="cls-2" d="M65.62,56.29A8.93,8.93,0,0,1,64,60.47c-1.2,1.3,4.73,4.21,5.21,2.84a6.23,6.23,0,0,1,1.59-5.06C71.91,57,65.62,56.29,65.62,56.29Z"/><path class="cls-10" d="M64,60.56a8.1,8.1,0,0,0,1.57-3.7l4,3.39h0c-.17,0-3.45,0-4.66,2.09C64.05,61.73,63.54,61,64,60.56Z"/><path class="cls-2" d="M73.94,50.84a11.79,11.79,0,0,1-.32,4.68c-.75,2.18-.53,2.72-.92,3.68a2.45,2.45,0,0,1-.86,1.34c-.86.5-2.34.4-4.09-.78-2.13-1.42-3.8-5.23-2.1-7.87S71,47.63,73.94,50.84Z"/><path class="cls-12" d="M65,55c1.57-2.37,4.65-4.91,4.67-5.09a8.15,8.15,0,0,1,1.9-.7,5.48,5.48,0,0,1,2.38,1.59,13.27,13.27,0,0,1,.1,1.67c-.71.49-2,.92-2.31,1.4a7,7,0,0,0-.77,4c.16.92-1.63,1.77-1.49,2.58a.18.18,0,0,1,0,.11,6.57,6.57,0,0,1-1.7-.85A7,7,0,0,1,65,55Z"/><path class="cls-35" d="M74.87,50a3.07,3.07,0,0,1-2.45,2.65c-1.37.3-1.75,2.3-1.78,2.68a9.39,9.39,0,0,1-.27,2.31c-.39.34-1-1.18-1.51-1.2-1.22-.06-1,1.14-.25,2.53s-2.25,1.25-3.37-.08c-.6-.7-.78-1.08-1.27-3.21-.72-3.1,0-6.43,3.71-7.4S72.65,50.32,74.87,50Z"/><path class="cls-34" d="M65.24,58.91c-.6-.7-.78-1.08-1.27-3.21-.72-3.1,0-6.43,3.71-7.4s5,2,7.19,1.72a3,3,0,0,1-.22.82c-1.08-.08-4-.21-5.07.82-1.26,1.28-2.14.56-2.52,2.43s-1.4,4,1.36,5.8A3.13,3.13,0,0,1,65.24,58.91Z"/><path class="cls-92" d="M69,62.4l1.62,2.22s-6.8.27-7.9-3.3a1.88,1.88,0,0,1,1.7-1.91S64.06,62,69,62.4Z"/><path class="cls-2" d="M77.58,76.3s.34-1.43.79-1.64A10.18,10.18,0,0,0,80.27,73c.19-.26.89-.53.92-.24a11.89,11.89,0,0,1-1,2.36c-.18.32,1.55.28,2.06-.16s1.18-.9,1.26-.66a3.14,3.14,0,0,1-1.43,3.11,7.88,7.88,0,0,1-3.47,1.2Z"/><path class="cls-88" d="M71.72,67.23a2.47,2.47,0,0,1,1.88,3.12c-.34,2.06-4.25,9.58-4.25,9.58l8.12-4.23s2.06,1.86,1.26,3.48c0,0-12.92,7.82-14.08,7.29C61.52,85.06,67,66.54,71.72,67.23Z"/><path class="cls-91" d="M64.65,86.47c1.16.53,14.08-7.29,14.08-7.29a1.75,1.75,0,0,0,.18-.91l-.1-.55a.93.93,0,0,1,0-.13c-.34.18-10.36,5.39-13,6.17-2.52.73,5.06-14.1,6.28-16.46a1.9,1.9,0,0,0-.28-.07C67,66.54,61.52,85.06,64.65,86.47Z"/><path class="cls-93" d="M125.72,131c-1.78,1-1.79,2.7,0,3.73a7.12,7.12,0,0,0,6.42,0c1.79-1,1.8-2.7,0-3.73A7.08,7.08,0,0,0,125.72,131Z"/><polygon class="cls-93" points="134.43 125.37 133.47 132.81 124.39 133.12 123.42 125.37 134.43 125.37"/><path class="cls-94" d="M125,123.12c-2.15,1.24-2.16,3.26,0,4.5a8.54,8.54,0,0,0,7.78,0c2.16-1.24,2.17-3.26,0-4.5A8.56,8.56,0,0,0,125,123.12Z"/><path class="cls-95" d="M125.6,123.44c-1.84,1.06-1.86,2.79,0,3.86a7.37,7.37,0,0,0,6.66,0c1.85-1.07,1.86-2.8,0-3.86A7.33,7.33,0,0,0,125.6,123.44Z"/><path class="cls-96" d="M128.05,125.72a.94.94,0,0,0,1,.86h0a.93.93,0,0,0,1-.86V110.1a.93.93,0,0,0-1-.86h0a.94.94,0,0,0-1,.86Z"/><path class="cls-97" d="M127.57,110.2s-1.87,1.53,4.81,4,8.91,3.92,9,5.48,1.4-10.79-8.68-11.36C132.73,108.31,129.21,108.09,127.57,110.2Z"/><path class="cls-98" d="M127.63,111.52a7.89,7.89,0,0,1,4.15-1c5.5.31,7.61,4.14,8.38,7.29-1.29-1-3.71-2.13-7.78-3.63C129.41,113.1,128.14,112.19,127.63,111.52Z"/><path class="cls-97" d="M130.27,109.56s1.88,1.52-4.8,4-8.91,3.92-9,5.48-1.41-10.79,8.68-11.35C125.12,107.67,128.63,107.45,130.27,109.56Z"/><path class="cls-98" d="M125.47,113.54c-4,1.48-6.42,2.6-7.73,3.59.81-3.1,3-6.75,8.33-7.06a8,8,0,0,1,4.05.92C129.55,111.65,128.26,112.52,125.47,113.54Z"/><path class="cls-98" d="M130,110.94s-.89,1.73-3.95-3.1-4.59-6.34-5.83-6.16,8.23-2.93,10.39,4.89C130.62,106.57,131.38,109.29,130,110.94Z"/><path class="cls-97" d="M128.43,109.19s-2-.12.66,5,3.11,7.21,2.33,8.19,6.75-5.6,1.1-11.47C132.52,110.9,130.56,108.85,128.43,109.19Z"/><path class="cls-97" d="M128.05,110.56s.53,2,4.29-2.61,5.45-5.94,6.61-5.54-7.32-4.52-10.72,3.41C128.23,105.82,127,108.58,128.05,110.56Z"/><path class="cls-98" d="M129.05,110.92a7.45,7.45,0,0,1,.5-3.81c1.92-4.46,5.43-4.86,7.94-4.42-1.12.64-2.7,2.25-5.15,5.26C130.71,109.94,129.69,110.7,129.05,110.92Z"/></svg>