<svg xmlns="http://www.w3.org/2000/svg" xmlns:xlink="http://www.w3.org/1999/xlink" viewBox="0 0 102.68 101.12"><defs><style>.cls-1{isolation:isolate;}.cls-2{fill:#e3e5ef;mix-blend-mode:multiply;}.cls-3{fill:#505b5c;}.cls-4{fill:#e8f0fa;}.cls-5{fill:#636c6d;}.cls-6{fill:#495556;}.cls-7{fill:#798282;}.cls-8{fill:#764655;}.cls-9{fill:#dde9f7;}.cls-10{fill:#f8c6c7;}.cls-11{fill:#f0999b;}.cls-12{fill:url(#_ÂÁ_Ï_ÌÌ_È_ËÂÌÚ_7);}.cls-13{fill:#fff;}.cls-14{fill:#f08dab;}.cls-15{fill:url(#_ÂÁ_Ï_ÌÌ_È_ËÂÌÚ_6);}.cls-16{fill:url(#_ÂÁ_Ï_ÌÌ_È_ËÂÌÚ_25);}.cls-17{fill:#ef7e9e;}.cls-18{fill:#e38181;}.cls-19{fill:#383938;}.cls-20{fill:url(#_ÂÁ_Ï_ÌÌ_È_ËÂÌÚ_4);}.cls-21{fill:url(#_ÂÁ_Ï_ÌÌ_È_ËÂÌÚ_3);}.cls-22{fill:#e6e1dd;}.cls-23{fill:#b2a696;}.cls-24{fill:#845b36;}.cls-25{fill:#c2a570;}.cls-26{fill:#6c6265;}.cls-27{fill:#f5e09d;}.cls-28{fill:#c6bdb1;}.cls-29{fill:#8e7d66;}.cls-30{fill:#d5cec6;}</style><linearGradient id="_ÂÁ_Ï_ÌÌ_È_ËÂÌÚ_7" x1="76.88" y1="10.91" x2="73.98" y2="13.73" gradientUnits="userSpaceOnUse"><stop offset="0.12" stop-color="#f8c6c7"/><stop offset="0.97" stop-color="#f4abb7"/></linearGradient><linearGradient id="_ÂÁ_Ï_ÌÌ_È_ËÂÌÚ_6" x1="80.44" y1="9.48" x2="81.62" y2="9.49" gradientUnits="userSpaceOnUse"><stop offset="0.12" stop-color="#f8c6c7"/><stop offset="0.99" stop-color="#fbdada"/></linearGradient><linearGradient id="_ÂÁ_Ï_ÌÌ_È_ËÂÌÚ_25" x1="80.32" y1="9.51" x2="81.47" y2="9.51" gradientUnits="userSpaceOnUse"><stop offset="0.01" stop-color="#f9cacb"/><stop offset="0.88" stop-color="#fbdbdb"/></linearGradient><linearGradient id="_ÂÁ_Ï_ÌÌ_È_ËÂÌÚ_4" x1="74.12" y1="8.76" x2="72.48" y2="8.76" gradientUnits="userSpaceOnUse"><stop offset="0.12" stop-color="#f7b8b9"/><stop offset="1" stop-color="#fbdede"/></linearGradient><linearGradient id="_ÂÁ_Ï_ÌÌ_È_ËÂÌÚ_3" x1="73.96" y1="8.52" x2="72.71" y2="8.52" gradientUnits="userSpaceOnUse"><stop offset="0.12" stop-color="#f3a2b4"/><stop offset="0.99" stop-color="#f4abb7"/></linearGradient></defs><g class="cls-1"><g id="Layer_1" data-name="Layer 1"><path class="cls-2" d="M86.76,93.44c-5.7,3.3-15,3.28-20.72,0s-5.76-8.67-.06-12,15-3.28,20.71,0S92.46,90.15,86.76,93.44Z"/><path class="cls-3" d="M78.36,81.25c-.41.3-.39.4-.38.76a3.36,3.36,0,0,0,.13,1.21,3.59,3.59,0,0,0,1.71,1c.79.26,1,.2,1.11.17a.7.7,0,0,1,.6,0,2.35,2.35,0,0,1,1.12.86,2.86,2.86,0,0,0,.4.75,9.11,9.11,0,0,0,2.26,1.33,3.73,3.73,0,0,0,3,.2,1.71,1.71,0,0,0,1.1-1.43,5.06,5.06,0,0,0-.17-.87,1.8,1.8,0,0,0-.92-.89C87.83,84.07,78.36,81.25,78.36,81.25Z"/><path class="cls-3" d="M72.47,83.25c.34.08.49.08.58.38a5.78,5.78,0,0,1,.3.84,2,2,0,0,1-.72,1.23,3.55,3.55,0,0,1-1,.8,1.11,1.11,0,0,0-.48.28,3,3,0,0,0-.44.71c-.09.31-.36,1.33-.56,1.88a5,5,0,0,1-3,2.63,2.44,2.44,0,0,1-2.75-1A3.45,3.45,0,0,1,64.25,90a3.57,3.57,0,0,1,.59-1.68C65.24,87.71,72.47,83.25,72.47,83.25Z"/><path class="cls-4" d="M87.05,16.55a4.1,4.1,0,0,1,1.49,2.7c.34,1.57,2.14,10.55,2.29,12.5s-1.87,4.52-4.17,2-2.93-12.54-2.93-12.54Z"/><path class="cls-5" d="M83.68,80c.1.7,1.63,2.07,2.33,2.46a6.59,6.59,0,0,1,2.75,2.18c.62,1.12.27,1.75.12,1.92a2.25,2.25,0,0,1-1.82.56,8.31,8.31,0,0,1-4.24-2.27,8.76,8.76,0,0,0-3.53-2c-.87-.3-1.07-.68-1.1-1.2a6.29,6.29,0,0,1,.2-1.69c.13-.55,2-.67,2-.67Z"/><path class="cls-5" d="M72.13,82.24A7.14,7.14,0,0,1,73,83.7a4.08,4.08,0,0,1-1.42,1.78c-.72.44-1.33,2.58-1.57,3.23s-1.91,3.2-4.11,2.8-1.14-3.17-.94-3.41,1.46-2.32,1.85-3,.83-1.67,1-1.77S72.13,82.24,72.13,82.24Z"/><path class="cls-6" d="M82.77,37.29c1,.88,1.57,1,1.78,1.79a36.88,36.88,0,0,1,.82,9.82c-.25,4.76-1,13.88-1.06,15.75s-.09,15.51,0,16.43c-1.6,1.53-4.83,1.66-5.11,0S78.34,67,78,64.83s-1.54-13.76-1.91-15.76-1-6.79-.13-7.85S82.77,37.29,82.77,37.29Z"/><path class="cls-6" d="M77.9,42.14a74.78,74.78,0,0,1-.2,9.37c-.26.78-1.35.85-1.45,1.25S74.38,65.46,74,67.46,72.46,83,72.37,83.78s-4,1.4-4.78-.26c0-1.25-.12-17.21-.45-22.8s.26-18.14,1.12-21.13S77.9,42.14,77.9,42.14Z"/><path class="cls-7" d="M70.31,47.27a6.13,6.13,0,0,1-2.57-.68l.1-.23c1.58.76,2.89.87,3.88.32a2.81,2.81,0,0,0,1.39-2l.24,0a3,3,0,0,1-1.51,2.17A3.23,3.23,0,0,1,70.31,47.27Z"/><path class="cls-7" d="M83.31,45.93a1.61,1.61,0,0,1-.54-.09,2.13,2.13,0,0,1-1.19-1.64l.24,0a1.89,1.89,0,0,0,1,1.45,2.51,2.51,0,0,0,2.3-.77l.16.19A3.34,3.34,0,0,1,83.31,45.93Z"/><path class="cls-7" d="M77.31,51.26h0a1.67,1.67,0,0,1-1.46-1.8c-.07-1.76.12-5.06.12-5.09v-.11l2.12-.13v.13s0,4.37-.16,6.56h0C77.9,51.08,77.65,51.26,77.31,51.26Zm-1.12-6.77c0,.59-.18,3.39-.12,5,0,1.13.76,1.55,1.22,1.56.18,0,.37,0,.39-.21h0c.18-2,.16-5.67.16-6.41Z"/><path class="cls-8" d="M84.61,39.32c-.32.7-2.23,3.25-7,3.71s-9.35-2-9.44-3.13a4.65,4.65,0,0,0-.3,1.73s.88,2.21,6.72,3a12.78,12.78,0,0,0,10.22-3.47C85,40.9,84.61,39.32,84.61,39.32Z"/><path class="cls-6" d="M81.12,42c.07.26.15,2.52.15,2.52l-.63.18-.15-2.44Z"/><polygon class="cls-6" points="74.2 42.8 75.07 42.89 74.71 45.35 73.84 45.27 74.2 42.8"/><path class="cls-7" d="M79.59,81.89c0-.14-.66-14.66-1.06-16.77s-1.26-9.18-1.68-14l.24,0c.42,4.84,1.25,11.78,1.68,14s1,16.21,1.07,16.81Z"/><path class="cls-9" d="M77.62,13a18.18,18.18,0,0,1,4.67,1.55c1.61.63,4.07,1.55,4.76,2s-1,5.61-1.71,8.66-.54,11.5-.72,13.57S78.5,44,72.94,42.36C68.3,41,68.25,39.7,68.25,39.7s.46-5.08.5-8.42c.22-2.79-.83-6.38-1.3-8s-1.73-6.56-.87-7,5-1.72,6.23-2.47S77.62,13,77.62,13Z"/><path class="cls-4" d="M88.38,31.49c1.52-.3,2.19-.34,2.44.09s6.09,10,7,10.77a5.6,5.6,0,0,1-2.78,3.13c-.7.15-8.06-9.64-8.94-12.57C86.58,32.12,88.38,31.49,88.38,31.49Z"/><path class="cls-10" d="M94.63,43.49s.47,1.2.65,1.74A5.66,5.66,0,0,0,96.36,47c.12.16.22.3.32.42a10.09,10.09,0,0,0,.75.85,1.77,1.77,0,0,0,1,.57,2.14,2.14,0,0,0,1.06,0l.28.33c.09.12.12.39.57.42a.52.52,0,0,0,.35-.06.29.29,0,0,0,.16-.16v0a1.29,1.29,0,0,0,.27.34.55.55,0,0,0,.6,0,.27.27,0,0,0,.11-.24,1,1,0,0,0-.16-.52c-.07-.1-.48-.63-.67-.85l-1-1.25.14,0s.84.87,1.24,1.35.57.63.73.69.41-.1.41-.44a3.18,3.18,0,0,0-.64-1.29,11.13,11.13,0,0,0-1.15-1.33,8.51,8.51,0,0,1-.87-1.17s-.11-.24.06-.28a2.72,2.72,0,0,1,1.24.44,1.42,1.42,0,0,0,1.27,0,.31.31,0,0,0,.14-.52,8.77,8.77,0,0,1-1-.44c-.18-.12-1.46-.8-1.67-.94a7.89,7.89,0,0,0-1.49-.3,6.34,6.34,0,0,1-1.84-1s-.53-.19-1.44.6A1.36,1.36,0,0,0,94.63,43.49Z"/><path class="cls-4" d="M65.69,17.5c.63-1.26.64-1.15.89-1.27s.74,3,1.31,6.15.51,2.58.24,3.84-.95,4.37-2.23,6-4.36-1.46-3.72-3.67S65.69,17.5,65.69,17.5Z"/><path class="cls-4" d="M50.52,32.8c-.91.18-1,1-.82,2.29s.84,1.91,1.58,2,13.08-2.77,14.37-4.59c.23-2.22-2.5-4.76-3.47-3.91S50.52,32.8,50.52,32.8Z"/><path class="cls-10" d="M47.79,32.13c.64.21,2.23.65,2.44.76a2.62,2.62,0,0,1,.62,1.25,6.27,6.27,0,0,1,.2,1.85c0,.35-.1.32-.24.35s-.87.43-1.19.5a17.38,17.38,0,0,1-2.38,0,3.24,3.24,0,0,1-.8-.62l0-.13a4.6,4.6,0,0,1-.46-.31.88.88,0,0,1-.16-.41c0-.1-.2-.08-.28-.13a.92.92,0,0,1-.36-.35,3.67,3.67,0,0,1-.11-.49.35.35,0,0,1-.24,0,.41.41,0,0,1-.24-.22.66.66,0,0,1-.09-.43,1.89,1.89,0,0,1,.14-.62.39.39,0,0,1,.26-.22s.23-.27.06-.37A.88.88,0,0,1,44.5,32c0-.26-.08-.34.06-.46s.44,0,.56.07a2.82,2.82,0,0,0,.54.28A15.31,15.31,0,0,0,47.79,32.13Z"/><path class="cls-11" d="M46.7,36.5c-.09-.07-.1-.48-.18-.78a6.42,6.42,0,0,1,.17-1.39c0-.12.22-.32.22-.32v-.15a1.21,1.21,0,0,0-.32.38,14,14,0,0,0-.15,1.59A1.29,1.29,0,0,0,46.7,36.5Z"/><path class="cls-11" d="M46.25,33.59a7,7,0,0,0-.41,1,4.07,4.07,0,0,0-.07.8l-.12-.09s0-.63.06-.75.38-.91.43-1a.59.59,0,0,0,0-.34A.31.31,0,0,1,46.25,33.59Z"/><path class="cls-11" d="M45.42,33.33a.75.75,0,0,0-.23.31,5.44,5.44,0,0,0-.17.78s-.08.07-.13.07a.24.24,0,0,1-.11-.06A1,1,0,0,0,45,34c0-.21,0-.27,0-.33s.19-.21.21-.31a.32.32,0,0,0,0-.2S45.4,33.22,45.42,33.33Z"/><path class="cls-11" d="M47.42,34.74a3.73,3.73,0,0,0,0,.4c0,.1.35.19.47.27a1.44,1.44,0,0,1,.35.35c0,.08.33,0,.33,0s.59.17.66.17.18-.3.13-.39-.94-.85-1.08-1-.15-.48-.36-.55a2.79,2.79,0,0,1-.78-.29c-.15-.13.2-.29.2-.45s-.06-.3-.67-.33a2.86,2.86,0,0,1-1.46-.42c-.39-.26-.71-.7-.7-.62a.94.94,0,0,0,.1.42c.09.12.81.8.81.8l.65,0,.76.46.69.65Z"/><path class="cls-11" d="M98.94,47.36l.24,0c.08,0,.21.33.46.63a5.18,5.18,0,0,0,.84.73c.19.15.3.24.34.34a.65.65,0,0,1-.08.44.29.29,0,0,0,.16-.16v0a1.29,1.29,0,0,0,.27.34.55.55,0,0,0,.6,0,.27.27,0,0,0,.11-.24c-.11.23-.32.19-.49.19s-.33-.22-.41-.31-.18-.42-.29-.48a4.75,4.75,0,0,1-1-.87,2.39,2.39,0,0,1-.42-.7,2.34,2.34,0,0,0-.29.06Z"/><path class="cls-11" d="M96.68,47.41a10.09,10.09,0,0,0,.75.85,1.77,1.77,0,0,0,1,.57,2.14,2.14,0,0,0,1.06,0l.28.33c.09.12.12.39.57.42s.49-.17.51-.22v-.08l-.13.08a.51.51,0,0,1-.45,0,1.6,1.6,0,0,1-.48-.35,1,1,0,0,1-.18-.49.39.39,0,0,0-.29-.33,3.78,3.78,0,0,0-.45,0s-.34-.36-.41-.47a.28.28,0,0,1-.05-.22.46.46,0,0,0-.28,0,2.53,2.53,0,0,1,.2.19c.05.07.39.54.55.53s.48,0,.54.07a.38.38,0,0,1,0,.4c-.08.12-.37.06-.65.08a3.13,3.13,0,0,1-1-.24C97.74,48.47,96.81,47.46,96.68,47.41Z"/><path class="cls-12" d="M80,11.69c-.36,1.81-.2,3.15-.46,3.83a2.74,2.74,0,0,1-3,1.62,4.15,4.15,0,0,1-2.76-2.79,27.81,27.81,0,0,1,.13-3.19c0-1.52-1-3.64-.51-4.32S80,11.69,80,11.69Z"/><path class="cls-13" d="M78.59,15.8A8.45,8.45,0,0,0,80,14.52c.19-.29.74-1.75.77-1.63a7.61,7.61,0,0,1,.8,2c-.07.37-1.32,1.9-1.46,2.25a9.37,9.37,0,0,1-.71,1.1s-.6-.49-.58-.92-.1-.51-.1-.51-1.57.8-1.49.61S78.59,15.8,78.59,15.8Z"/><path class="cls-10" d="M80.28,1.93c1,.18,1.56,1.12,1.7,2.47a15,15,0,0,1,.19,3c-.09.56-.1,1.64-.22,3.13s-1.13,3.84-1.75,4.15S75.87,14.23,75,12.1a11.08,11.08,0,0,1-.86-3.77c-.2-.92-.86-3.48-.48-4.65S77.87,2,77.87,2Z"/><path class="cls-14" d="M78.94,12.65a1.71,1.71,0,0,0,1.45.22,1,1,0,0,0,.73-.77L80,12.36Z"/><path class="cls-8" d="M80.81,7.69a5.54,5.54,0,0,1,.68-.25l.35-.11.19,0h.18v.14H82l-.16,0-.33.12c-.22.09-.45.17-.66.27Z"/><path class="cls-8" d="M79.67,8c0,.07,0,.06,0,.06h-.06L79.5,8l-.17,0-.33,0a2.52,2.52,0,0,0-.67,0c-.44.12-.88.22-1.33.31l0-.14c.44-.14.89-.27,1.34-.39a2.82,2.82,0,0,1,.71,0l.35,0,.17,0h.16s0,0,0,.07Z"/><path class="cls-15" d="M80.6,7.8c-.17.65.55,2.11.75,2.66.14.39-.08.69-1,.7Z"/><path class="cls-16" d="M80.32,11.24v-.17c.63,0,.86-.14.93-.25a.34.34,0,0,0,0-.33l-.17-.43a4.9,4.9,0,0,1-.58-2.28l.16,0A5,5,0,0,0,81.25,10l.18.44a.53.53,0,0,1,0,.48C81.24,11.13,80.89,11.23,80.32,11.24Z"/><path class="cls-17" d="M81.12,12.1a1.17,1.17,0,0,1-.69.24,1,1,0,0,0-.43.16,4.58,4.58,0,0,1-1.06.15,7,7,0,0,1,1.2-.52,1.48,1.48,0,0,1,.37-.06c.07,0,.2-.13.24-.13a1.28,1.28,0,0,1,.34.1C81.16,12.07,81.12,12.1,81.12,12.1Z"/><path class="cls-18" d="M78.21,8.68a.28.28,0,0,0,.31.27.29.29,0,0,0,.28-.31.3.3,0,1,0-.59,0Z"/><path class="cls-18" d="M81.05,8.2a.29.29,0,0,0,.31.28.3.3,0,0,0,.28-.31.3.3,0,0,0-.32-.28A.29.29,0,0,0,81.05,8.2Z"/><path class="cls-13" d="M73.75,13.05a4,4,0,0,0,1,1.86c.41.4,1.3,1,1.39,1.15s.5,1.36.5,1.36-.78-.69-1.15-.7-.61,1-.94,1-.8-1-1.21-1.7a2.88,2.88,0,0,1-.6-2,4.2,4.2,0,0,1,.82-1.63.2.2,0,0,1,.23,0Z"/><path class="cls-13" d="M78.05,42.72l-.24,0c.2-2.22-.08-8.08-.3-12.78-.11-2.31-.21-4.31-.24-5.56a31.91,31.91,0,0,0-.59-6.49l0-.16.24-.05,0,.16a33,33,0,0,1,.6,6.53c0,1.26.12,3.25.23,5.56C78,34.62,78.26,40.48,78.05,42.72Z"/><path class="cls-8" d="M73.64,9.41a5.8,5.8,0,0,1-1.19-2.62c-.45-2-1.58-5.26,2-5.9C75.91-.2,76.88-.15,79,.31A4.37,4.37,0,0,1,82,3.1a10.18,10.18,0,0,1,.35,2.54,1.53,1.53,0,0,1-.15.6S82,4.78,82,4.63a1.57,1.57,0,0,0-1.46-.58,23.61,23.61,0,0,1-3.16.11c-.89-.08-.94.36-.94.36a14.31,14.31,0,0,1,0,2.08c-.1.15-1,.4-1.21.89a2,2,0,0,0-.16,1.09l-.64-.17s-.06-1.28-.8-1.48,0,1.74,0,1.74Z"/><path class="cls-19" d="M43.45,31.29c.14.1,5.86,3.85,6.07,4.06s-.16.45-.24.5-.06.08-.8-.4-1.06-.71-1.06-.71a1,1,0,0,0-.06-.51A.51.51,0,0,0,47,34h-.07a.56.56,0,0,0-.07-.38.34.34,0,0,0-.36-.14.74.74,0,0,0-.23.1s.07-.36-.21-.44a.65.65,0,0,0-.56.11l-.06.07a1,1,0,0,0-.27-.24,1.39,1.39,0,0,0-.27-.13s-1.64-1.07-1.81-1.23S43.21,31.14,43.45,31.29Z"/><path class="cls-20" d="M72.89,7.17a1.08,1.08,0,0,1,.88.41,1.32,1.32,0,0,1,.32.84A15.42,15.42,0,0,1,74.27,10a.49.49,0,0,1-.43.38c-.26.05-.46.06-.63-.53s-.49-.72-.73-1.45S72.5,7.22,72.89,7.17Z"/><path class="cls-21" d="M73.61,7.75a.71.71,0,0,0-.81-.27c-.27.13-.1.62,0,.94a3.57,3.57,0,0,0,.48,1.07c.11.15,1,.21.8-.11a1.31,1.31,0,0,1-.16-.75,1.07,1.07,0,0,0-.06-.51A1.83,1.83,0,0,0,73.61,7.75Z"/><path class="cls-22" d="M28.82,13.72l-.39.23-.12.06Z"/><path class="cls-22" d="M29.25,13.47l-.36.22-.07,0Z"/><path class="cls-22" d="M30.7,12.64l.28-.16-.21.12Z"/><path class="cls-22" d="M31.89,11.94l-.2.13-.17.09Z"/><path class="cls-22" d="M32.42,11.64l-.1.07-.07,0A1,1,0,0,0,32.42,11.64Z"/><path class="cls-22" d="M33.4,11.07l-.13.09-.12.06Z"/><path class="cls-22" d="M33.56,11l-.12.07,0,0Z"/><path class="cls-22" d="M33.84,10.82h0Z"/><path class="cls-22" d="M29.25,13.47l-.36.22-.46.26-.45.26.33-.2.51-.29Z"/><path class="cls-22" d="M30.7,12.64l.28-.16-.21.12Z"/><path class="cls-22" d="M32,11.88l-.32.19-.36.21.19-.12.37-.22Z"/><path class="cls-22" d="M32.42,11.64l-.1.07-.31.17.24-.14A1,1,0,0,0,32.42,11.64Z"/><path class="cls-22" d="M33.59,11l-.15.08-.17.11-.26.15.14-.09.25-.15.16-.09Z"/><path class="cls-22" d="M33.84,10.82h0l-.13.07.14-.08Z"/><path class="cls-22" d="M34.58,10.11h0l-.07,0Z"/><path class="cls-23" d="M11.38,23.5l-.41,1L6.8,37.89S6.35,26,8.28,24.38a.59.59,0,0,1,.27-.16.48.48,0,0,1,.2,0C9,24.18,11.2,23.47,11.38,23.5Z"/><polygon class="cls-2" points="16.62 101.12 46.59 83.82 29.97 74.22 0 91.52 16.62 101.12"/><polygon class="cls-24" points="29.67 78.11 32 76.76 32.24 75.56 36.88 13.9 34.98 12.34 29.67 78.11"/><polygon class="cls-25" points="34.26 12.1 34.75 15.12 39.84 83.98 41.83 85.13 41.83 85.13 36.17 12.74 34.76 12.27 34.26 12.1"/><polygon class="cls-24" points="41.83 85.13 44.16 83.78 38.5 11.4 36.17 12.74 41.83 85.13"/><polygon class="cls-25" points="27.68 76.95 27.68 76.95 29.67 78.11 34.75 15.12 35.25 12.67 34.76 12.27 33.34 11.11 27.68 76.95"/><polygon class="cls-26" points="35.68 9.77 7.84 25.84 10.66 27.47 38.5 11.4 35.68 9.77"/><polygon class="cls-24" points="4.17 92.83 6.5 91.48 6.74 90.28 11.38 28.62 9.47 27.06 4.17 92.83"/><polygon class="cls-27" points="7.83 53.94 17.94 63.07 19.07 62.41 8.98 53.29 7.83 53.94"/><polygon class="cls-25" points="8.75 26.82 9.25 29.84 14.34 98.7 16.32 99.85 16.33 99.85 10.66 27.47 9.44 26.76 8.75 26.82"/><polygon class="cls-24" points="16.33 99.85 18.66 98.51 12.99 26.12 10.66 27.47 16.33 99.85"/><polygon class="cls-25" points="2.17 91.68 2.17 91.68 4.17 92.83 9.25 29.84 9.83 26.99 7.84 25.84 2.17 91.68"/><polygon class="cls-25" points="7.54 55.45 17.94 64.75 17.94 63.07 7.83 53.94 7.54 55.45"/><polygon class="cls-28" points="41.86 54.35 14.02 70.42 10.66 27.47 38.5 11.4 41.86 54.35"/><polygon class="cls-22" points="40.72 51.81 14.87 66.74 11.74 26.85 37.6 11.92 40.72 51.81"/><path class="cls-29" d="M9.48,24.89,8,25.76A2.16,2.16,0,0,1,8.81,25h0l.13,0,.12,0,.14,0a.86.86,0,0,1,.23,0Z"/><path class="cls-22" d="M10.68,24.2l0,0s0,0,0,0A.47.47,0,0,1,10.68,24.2Z"/><path class="cls-22" d="M11.5,23.72v0l-.19.1Z"/><path class="cls-22" d="M11.5,23.72l.36-.2-.12.07Z"/><path class="cls-22" d="M11.91,23.49l0,0h0Z"/><path class="cls-22" d="M12.17,23.34l-.16.09-.06,0Z"/><path class="cls-22" d="M12.88,22.93h0l-.23.13Z"/><path class="cls-22" d="M15.9,21.19l-.18.1-.1.06Z"/><path class="cls-22" d="M16.62,20.76l-.25.15-.31.18C16.25,21,16.43,20.87,16.62,20.76Z"/><path class="cls-22" d="M17,20.53l-.17.1-.24.13Z"/><path class="cls-22" d="M19.58,19.06l-.13.08-.26.14Z"/><path class="cls-22" d="M22.61,17.3l-.45.27-.15.09Z"/><path class="cls-22" d="M11.88,23.5h0l0,0Z"/><path class="cls-30" d="M34.58,10.12l-.07,0L8.75,25l.06,0h0l.13,0,.12,0,.14,0a.86.86,0,0,1,.23,0h0c1.22.15,2.27,2,2.27,2L37.6,11.92S36.08,9.3,34.58,10.12Z"/><path class="cls-22" d="M10.68,24.2l0,0s0,0,0,0A.47.47,0,0,1,10.68,24.2Z"/><path class="cls-22" d="M11.5,23.72l.36-.2-.12.07-.25.15-.19.1Z"/><path class="cls-22" d="M12.17,23.34l-.16.09-.06,0Z"/><path class="cls-22" d="M12.88,22.93h0l-.23.13Z"/><path class="cls-22" d="M14.31,22.1l-.18.11,0,0Z"/><path class="cls-22" d="M15.9,21.19l-.18.1-.1.06Z"/><path class="cls-22" d="M17,20.53l-.17.1-.49.28-.47.28.16-.1c.19-.1.37-.22.56-.33Z"/><path class="cls-22" d="M20,18.83l-.53.31-.26.14.39-.22Z"/><path class="cls-22" d="M23.21,17l-1.05.61-.54.31.39-.22.6-.36Z"/><path class="cls-22" d="M37.6,11.92l-2.24,1.3L32.8,14.7,16.9,23.88l-5.15,3A3.48,3.48,0,0,0,9.6,24.3h0l-.27-.07a3.27,3.27,0,0,0-.57-.05.48.48,0,0,0-.2,0l.87-.5h0L34.28,9.34h0a.73.73,0,0,1,.33-.08,2.86,2.86,0,0,1,1.14.22A3.63,3.63,0,0,1,37.6,11.92Z"/></g></g></svg>