<svg xmlns="http://www.w3.org/2000/svg" xmlns:xlink="http://www.w3.org/1999/xlink" viewBox="0 0 94.86 93.56"><defs><style>.cls-1{isolation:isolate;}.cls-2{fill:#e3e5ef;}.cls-2,.cls-50,.cls-54{mix-blend-mode:multiply;}.cls-3{fill:#845b36;}.cls-4{fill:#f5e09d;}.cls-5{fill:#c2a570;}.cls-6{fill:#505b5c;}.cls-7{fill:#636c6d;}.cls-8{fill:#495556;}.cls-9{fill:#252430;}.cls-10{fill:#393942;}.cls-11{fill:#3c3c45;}.cls-12{fill:#2a2a35;}.cls-13{fill:#b2b7cb;}.cls-14{fill:#dadbe6;}.cls-15{fill:#c5c9d8;}.cls-16{fill:#76767d;}.cls-17{fill:#5c5c64;}.cls-18{fill:#2e2d38;}.cls-19{fill:#798282;}.cls-20{fill:#764655;}.cls-21{fill:#e2ccbd;}.cls-22{fill:#896c4d;}.cls-23{fill:#f6e8df;}.cls-24{fill:#9a6c61;}.cls-25{fill:#58575f;}.cls-26{fill:#69575d;}.cls-27{fill:#b7bbc9;}.cls-28{fill:url(#_ÂÁ_Ï_ÌÌ_È_ËÂÌÚ_17);}.cls-29{fill:#f1f1f6;}.cls-30{fill:#544146;}.cls-31{fill:#5f4d53;}.cls-32{fill:url(#_ÂÁ_Ï_ÌÌ_È_ËÂÌÚ_232);}.cls-33{fill:url(#_ÂÁ_Ï_ÌÌ_È_ËÂÌÚ_16);}.cls-34{fill:#a4cce7;}.cls-35{fill:url(#_ÂÁ_Ï_ÌÌ_È_ËÂÌÚ_17-2);}.cls-36{fill:#62c2db;}.cls-37{fill:#f3f5fa;}.cls-38{fill:#f8c6c7;}.cls-39{fill:#f5adb8;}.cls-40{fill:url(#_ÂÁ_Ï_ÌÌ_È_ËÂÌÚ_7);}.cls-41{fill:#dde9f7;}.cls-42{fill:#bcd1da;}.cls-43{fill:#fff;}.cls-44{fill:url(#_ÂÁ_Ï_ÌÌ_È_ËÂÌÚ_205);}.cls-45{fill:#c7c8ca;}.cls-46{fill:#9b9ea1;}.cls-47{fill:#3a4047;}.cls-48{fill:#5c6370;}.cls-49{fill:#bec2d5;}.cls-50{fill:#8e939c;}.cls-51{fill:#2f343d;}.cls-52{fill:#484c54;}.cls-53{fill:#565a61;}.cls-54{fill:#e6d5d6;}</style><linearGradient id="_ÂÁ_Ï_ÌÌ_È_ËÂÌÚ_17" x1="35.29" y1="34.54" x2="61.22" y2="34.54" gradientUnits="userSpaceOnUse"><stop offset="0.24" stop-color="#c8cad3"/><stop offset="0.38" stop-color="#c8cad3"/><stop offset="0.44" stop-color="#caccd5"/><stop offset="0.47" stop-color="#d2d3db"/><stop offset="0.47" stop-color="#d5d5dd"/><stop offset="0.73" stop-color="#d5d5dd"/><stop offset="0.89" stop-color="#d5d5dd"/></linearGradient><linearGradient id="_ÂÁ_Ï_ÌÌ_È_ËÂÌÚ_232" x1="35.49" y1="35.42" x2="30.24" y2="26.33" gradientUnits="userSpaceOnUse"><stop offset="0.11" stop-color="#e7e8f1"/><stop offset="0.27" stop-color="#e7e8f1"/><stop offset="0.53" stop-color="#e7e8f1"/><stop offset="0.53" stop-color="#e4e5ef"/><stop offset="0.56" stop-color="#dcdde8"/><stop offset="0.62" stop-color="#dadbe6"/><stop offset="0.76" stop-color="#dadbe6"/><stop offset="0.76" stop-color="#d9dae6"/><stop offset="0.77" stop-color="#ced0de"/><stop offset="0.79" stop-color="#c7cbd9"/><stop offset="0.84" stop-color="#c5c9d8"/><stop offset="1" stop-color="#c5c9d8"/></linearGradient><linearGradient id="_ÂÁ_Ï_ÌÌ_È_ËÂÌÚ_16" x1="35.58" y1="35.36" x2="30.34" y2="26.28" gradientUnits="userSpaceOnUse"><stop offset="0.11" stop-color="#65555a"/><stop offset="0.27" stop-color="#65555a"/><stop offset="0.53" stop-color="#5f4e54"/><stop offset="0.53" stop-color="#5e4d54"/><stop offset="0.56" stop-color="#56464f"/><stop offset="0.62" stop-color="#54444e"/><stop offset="0.76" stop-color="#54444e"/><stop offset="0.77" stop-color="#504048"/><stop offset="0.78" stop-color="#4b3b41"/><stop offset="0.84" stop-color="#4a3a3f"/><stop offset="1" stop-color="#4a3a3f"/></linearGradient><linearGradient id="_ÂÁ_Ï_ÌÌ_È_ËÂÌÚ_17-2" x1="43.32" y1="42.2" x2="65.37" y2="42.2" xlink:href="#_ÂÁ_Ï_ÌÌ_È_ËÂÌÚ_17"/><linearGradient id="_ÂÁ_Ï_ÌÌ_È_ËÂÌÚ_7" x1="2315.4" y1="25.17" x2="2319.43" y2="32.17" gradientTransform="matrix(-1, 0, 0, 1, 2381.93, 0)" gradientUnits="userSpaceOnUse"><stop offset="0.12" stop-color="#f8c6c7"/><stop offset="0.97" stop-color="#f4abb7"/></linearGradient><linearGradient id="_ÂÁ_Ï_ÌÌ_È_ËÂÌÚ_205" x1="89.08" y1="67.49" x2="78.4" y2="49" gradientUnits="userSpaceOnUse"><stop offset="0.29" stop-color="#2a2a35"/><stop offset="0.77" stop-color="#2e2d38"/></linearGradient></defs><g class="cls-1"><g id="Layer_1" data-name="Layer 1"><polygon class="cls-2" points="58.11 43.29 0 76.84 28.96 93.56 87.07 60.01 58.11 43.29"/><polygon class="cls-3" points="62.24 48.92 60.31 47.8 60.11 46.8 59.86 45.56 55.69 25.05 57.27 23.76 61.8 46.67 62.24 48.92"/><polygon class="cls-4" points="61.38 46.43 52.9 51.33 51.96 50.78 60.43 45.89 61.38 46.43"/><polygon class="cls-5" points="58.44 25.69 58.03 28.2 53.81 53.78 52.17 54.73 52.16 54.74 56.86 26.23 58.03 25.83 58.44 25.69"/><polygon class="cls-3" points="52.16 54.74 50.23 53.62 54.93 25.11 56.86 26.23 52.16 54.74"/><polygon class="cls-5" points="63.9 47.96 63.89 47.96 62.24 48.92 58.03 28.2 57.62 26.17 58.03 25.83 59.2 24.88 63.9 47.96"/><polygon class="cls-5" points="61.63 47.68 60.6 48.27 52.9 52.72 52.9 51.33 59.84 47.32 61.38 46.43 61.63 47.68"/><polygon class="cls-3" points="56.67 49.41 77.17 61.25 77.17 62.27 56.67 50.43 56.67 49.41"/><polygon class="cls-5" points="57.59 48.88 78.09 60.72 77.17 61.25 56.67 49.41 57.59 48.88"/><polygon class="cls-3" points="83.38 61.12 81.45 60.01 81.25 59.01 80.99 57.76 76.82 37.26 78.4 35.97 82.94 58.87 83.38 61.12"/><polygon class="cls-4" points="82.52 58.63 74.03 63.53 73.1 62.98 81.57 58.09 82.52 58.63"/><polygon class="cls-5" points="79.58 37.9 79.17 40.4 74.95 65.99 73.3 66.94 73.3 66.94 78 38.43 79.17 38.04 79.58 37.9"/><polygon class="cls-3" points="73.3 66.94 71.37 65.82 76.06 37.31 78 38.43 73.3 66.94"/><polygon class="cls-5" points="85.03 60.17 85.03 60.17 83.38 61.12 79.17 40.4 78.75 38.37 79.17 38.04 80.33 37.08 85.03 60.17"/><polygon class="cls-5" points="82.76 59.88 81.74 60.47 74.03 64.92 74.03 63.53 80.98 59.52 82.52 58.63 82.76 59.88"/><polygon class="cls-3" points="15.92 73.43 13.98 72.32 13.78 71.32 13.53 70.08 9.36 49.57 10.94 48.28 15.47 71.18 15.92 73.43"/><polygon class="cls-4" points="15.05 70.94 6.57 75.84 5.64 75.3 14.11 70.4 15.05 70.94"/><polygon class="cls-5" points="12.11 50.21 11.7 52.71 7.49 78.3 5.84 79.25 5.84 79.25 10.53 50.74 11.7 50.35 12.11 50.21"/><polygon class="cls-3" points="5.84 79.25 3.9 78.14 8.6 49.63 10.53 50.74 5.84 79.25"/><polygon class="cls-5" points="17.57 72.48 17.57 72.48 15.92 73.43 11.7 52.71 11.29 50.69 11.7 50.35 12.87 49.39 17.57 72.48"/><polygon class="cls-5" points="15.3 72.19 14.27 72.79 6.57 77.23 6.57 75.84 13.52 71.83 15.05 70.94 15.3 72.19"/><polygon class="cls-3" points="10.35 73.92 30.84 85.76 30.84 86.79 10.35 74.95 10.35 73.92"/><polygon class="cls-5" points="11.27 73.39 31.76 85.23 30.84 85.76 10.35 73.92 11.27 73.39"/><polygon class="cls-3" points="37.05 85.64 35.12 84.52 34.92 83.52 34.66 82.28 30.49 61.77 32.08 60.48 36.61 83.39 37.05 85.64"/><polygon class="cls-4" points="36.19 83.15 27.71 88.05 26.77 87.5 35.24 82.61 36.19 83.15"/><polygon class="cls-5" points="33.25 62.41 32.84 64.91 28.62 90.5 26.98 91.45 26.97 91.45 31.67 62.95 32.84 62.55 33.25 62.41"/><polygon class="cls-3" points="26.97 91.45 25.04 90.34 29.74 61.83 31.67 62.95 26.97 91.45"/><polygon class="cls-5" points="38.7 84.68 38.7 84.68 37.05 85.64 32.84 64.91 32.43 62.89 32.84 62.55 34.01 61.6 38.7 84.68"/><polygon class="cls-5" points="36.44 84.4 35.41 84.99 27.71 89.44 27.71 88.05 34.65 84.04 36.19 83.15 36.44 84.4"/><path class="cls-2" d="M80.37,75.87C73.65,72,62.72,72,56,75.92s-6.8,10.22-.08,14.1,17.66,3.86,24.43,0S87.1,79.75,80.37,75.87Z"/><path class="cls-6" d="M65.07,75.92c.23.34.48.49.43.84s.08,1-.18,1.25a3.56,3.56,0,0,1-2.94.41A2.14,2.14,0,0,1,61,77.17c-.07-.13-.09-.44-.18-.55s-.67-.72-1.14-.7a4.45,4.45,0,0,1-2.44-1c-.85-.72-1-1.13-1.07-1.42s.15-.55.18-.68.25-.23.25-.23Z"/><path class="cls-7" d="M59.35,72a10.81,10.81,0,0,0-1.22-.21c-.42,0-1.19.08-1.46.58a1.46,1.46,0,0,0-.28.81c0,.14.15.68,1.06,1.18s2.29.82,2.74,1.18a12,12,0,0,0,2.22,1.79,3.79,3.79,0,0,0,2.72-.58c.38-.38.1-2,0-2.2s0-.63-.25-1a5.94,5.94,0,0,0-2.28-1C62.19,72.61,59.35,72,59.35,72Z"/><path class="cls-8" d="M65,52.12c-3.86-1-5.13-1.35-6.19-.54a3.59,3.59,0,0,0-1.18,3.6c.19,1.59,1.12,7.14,1.29,9.49s.08,7.66.08,7.66a3.75,3.75,0,0,0,2.12.75c1.22,0,2.7,0,3-.54s-.29-8.54-.31-10.2S65,52.12,65,52.12Z"/><path class="cls-8" d="M48.53,57.24c.07,1.82,2.32,17.9,2.69,19.31s3.8,1.83,4.9.37C56,74.45,55,62.28,55,61A4.64,4.64,0,0,0,48.53,57.24Z"/><path class="cls-9" d="M75.81,73.47a.59.59,0,0,1,.57,0h0l.73.34-.86,2.32-.79-.35h0a.75.75,0,0,1-.36-.64A1.82,1.82,0,0,1,75.81,73.47Z"/><path class="cls-10" d="M76.53,73.8c.46-.28.87,0,.93.59A1.79,1.79,0,0,1,76.74,76c-.45.28-.86,0-.92-.58A1.82,1.82,0,0,1,76.53,73.8Z"/><path class="cls-9" d="M54.11,87a2.06,2.06,0,0,1,.94-1.62.67.67,0,0,1,.66-.07h0l.85.55L55.18,88.1l-.8-.51h0A.68.68,0,0,1,54.11,87Z"/><path class="cls-10" d="M54.94,87.51c0,.6.42.84.93.54a2.06,2.06,0,0,0,.94-1.62c0-.59-.42-.83-.94-.53A2.07,2.07,0,0,0,54.94,87.51Z"/><path class="cls-9" d="M82.25,83.8a1.08,1.08,0,0,1,2.16-.07h0v.66h-.18a1.07,1.07,0,0,1-1.8,0h-.18Z"/><path class="cls-11" d="M82.25,84.39a1.08,1.08,0,1,0,1.08-1.08A1.08,1.08,0,0,0,82.25,84.39Z"/><path class="cls-10" d="M57.27,74.39h0a.67.67,0,0,1,.66.06,2.08,2.08,0,0,1,.94,1.62.67.67,0,0,1-.25.58h0l-.76.53L56.54,74.9Z"/><path class="cls-9" d="M56.25,75.51a2.08,2.08,0,0,0,.94,1.62c.51.3.93.06.93-.54A2.06,2.06,0,0,0,57.19,75C56.67,74.68,56.25,74.92,56.25,75.51Z"/><path class="cls-12" d="M72,89.63h0s.07,0,.11.15a6.68,6.68,0,0,1,.2,1.67c0,.41,0,.64-.11.63h0L71,92.22l-.21-2.46Z"/><path class="cls-9" d="M70.89,89.92a6.55,6.55,0,0,1,.2,1.67c0,.59-.09.8-.2.48a6.68,6.68,0,0,1-.2-1.67C70.69,89.8,70.78,89.59,70.89,89.92Z"/><path class="cls-13" d="M66.27,79.05a4.49,4.49,0,0,0,4.07,0c1.12-.65,1.13-1.7,0-2.34a4.47,4.47,0,0,0-4.06,0A1.23,1.23,0,0,0,66.27,79.05Z"/><path class="cls-14" d="M69.38,77l1.87,6.17,0,.11v0l.66,6.27a.45.45,0,0,1-.37.48h0a.44.44,0,0,1-.5-.34l-1.33-6.17,0,.14-2.53-5.93Z"/><path class="cls-14" d="M68.44,76.26,78.85,78.2l.14,0,.08.07,4.55,3.9a.66.66,0,0,1,.07.93h0a.17.17,0,0,1-.24,0l-4.92-4.22.22.1-10.57-.59Z"/><path class="cls-13" d="M83.57,83.19h0a.15.15,0,0,1-.11,0L78.64,79l-8.79-.48L69.38,77l-1.07.38h0l.58-1,2.25.42a10.77,10.77,0,0,0-1,1.32l8.5.6,4.67,4A1.79,1.79,0,0,0,83.57,83.19Z"/><polygon class="cls-15" points="67.64 76.61 73.8 71.8 74.02 71.63 74.25 71.73 77.02 72.93 76.69 73.69 73.92 72.49 74.36 72.42 68.98 78.09 67.64 76.61"/><path class="cls-14" d="M67.6,78.59l-7.06-5.25.38,0-3.33,1.49a.35.35,0,0,1-.44-.17h0a.5.5,0,0,1,.26-.66l3.17-1.42.17-.07.21.09L69,76.12Z"/><path class="cls-13" d="M57.15,74.68a.51.51,0,0,1,0-.2.54.54,0,0,1,.06-.25c.1.21.29.38.4.38s3-1.45,3-1.45l.28.2,0,0,5,3.59-.2.22h0l-5-3.73-3.11,1.39A.35.35,0,0,1,57.15,74.68Z"/><path class="cls-14" d="M68.74,78.53l-9.37,2.54.18-.12-4.19,5.1a.29.29,0,0,1-.4,0h0a.54.54,0,0,1-.07-.77l4-4.9.05-.07.12-.06,8.8-4.12Z"/><path class="cls-13" d="M71.18,89.82l0,.11a.48.48,0,0,1-.13-.23l-1.3-6L67.7,78.81l-8.24,2.24-4.11,5a.27.27,0,0,1-.39,0,.59.59,0,0,1-.2-.36c.26.54.58.15.58.15l4.07-5s7.63-2.3,7.84-2.35.28.08.39.16a.42.42,0,0,0,.13.09s0,0,0,.05c.27.45,2,4.06,2.19,4.52S71.18,89.82,71.18,89.82Z"/><path class="cls-14" d="M66.27,78a4.52,4.52,0,0,0,4.07,0,1.24,1.24,0,0,0,0-2.35,4.5,4.5,0,0,0-4.06,0A1.24,1.24,0,0,0,66.27,78Z"/><path class="cls-16" d="M66.45,76.58h0V73.43h.42a.57.57,0,0,1,.13-.08,2.9,2.9,0,0,1,2.63,0l.14.09h.41v3.15h0a.92.92,0,0,1-.54.76,2.92,2.92,0,0,1-2.64,0A.93.93,0,0,1,66.45,76.58Z"/><path class="cls-17" d="M67,74.19a2.92,2.92,0,0,0,2.64,0,.8.8,0,0,0,0-1.52,2.9,2.9,0,0,0-2.63,0C66.27,73.09,66.26,73.77,67,74.19Z"/><path class="cls-15" d="M66.74,73.18h0V68.54h.36l.1-.07a2.47,2.47,0,0,1,2.23,0l.11.08h.34v4.64h0a.8.8,0,0,1-.46.64,2.45,2.45,0,0,1-2.22,0A.77.77,0,0,1,66.74,73.18Z"/><path class="cls-14" d="M67.2,69.18a2.48,2.48,0,0,0,2.22,0c.61-.36.62-.93,0-1.29a2.47,2.47,0,0,0-2.23,0A.68.68,0,0,0,67.2,69.18Z"/><path class="cls-10" d="M88.36,67.88,76.25,74.67l-3,1.69s-.66.62-2.91.34a57,57,0,0,1-8.21-2.48,24.54,24.54,0,0,1-2.46-1c-.5-.28-4.71-2.43-5-2.67h0a1.91,1.91,0,0,1-.49-.61,2.52,2.52,0,0,1-.22-.73,15.34,15.34,0,0,1,0-3.07,1.28,1.28,0,0,1,.74-1l.25-.15h0l14-8a3.2,3.2,0,0,1,1.13-.37,4.6,4.6,0,0,1,1,0l.37,0a5,5,0,0,1,1.82.57l13.61,7.6a1,1,0,0,1,.58.79h0a1.3,1.3,0,0,0,.47.68Z"/><path class="cls-18" d="M63.07,70.1A77,77,0,0,0,71,72.53l-2.35,1.16a63.29,63.29,0,0,1-6.49.53,24.54,24.54,0,0,1-2.46-1c-.5-.28-4.71-2.43-5-2.67h0a1.91,1.91,0,0,1-.49-.61,2.52,2.52,0,0,1-.22-.73,15.34,15.34,0,0,1,0-3.07,1.28,1.28,0,0,1,.74-1l.25-.15h0l14-8a3.2,3.2,0,0,1,1.13-.37,4.6,4.6,0,0,1,1,0,7.38,7.38,0,0,0-2.66,1c-2.24,1.33-13.06,7.41-13.5,7.8s-.43.7.19,1.08A59.29,59.29,0,0,0,63.07,70.1Z"/><path class="cls-9" d="M76.25,74.67l-3,1.69s-.67.62-2.91.34a62.45,62.45,0,0,1-10.67-3.49c-.5-.27-4.71-2.42-5-2.66h0a2.06,2.06,0,0,1-.49-.61,2.52,2.52,0,0,1-.22-.73,15.34,15.34,0,0,1,0-3.07c.11.91,13.73,6.32,15.91,6.54S74,69.77,74,69.77A7.78,7.78,0,0,1,76.25,74.67Z"/><path class="cls-15" d="M85.41,64.77c0-.28-.77-6.84-.83-8.19-.21-.73-4.72-2.94-8.77-4.56l.33-.83c3.46,1.38,9.28,3.92,9.34,5.35s.81,8.07.82,8.13Z"/><path class="cls-9" d="M75.29,49.4l1.24.38a1.88,1.88,0,0,1,1.08.17l1.21.55c3.59,1.15,8.62,2.82,8.68,3.2a4.28,4.28,0,0,1,0,1.12v0h0a.82.82,0,0,1-.44.52,2.11,2.11,0,0,1-1.89.08l-9.56-4.35a.66.66,0,0,1-.29-.31.3.3,0,0,1,0-.1A1.92,1.92,0,0,1,75.29,49.4Z"/><path class="cls-17" d="M87.17,53.2l-9.56-4.35a2.11,2.11,0,0,0-1.89.07h0c-.55.33-.62.81-.13,1.09l9.56,4.36A2.14,2.14,0,0,0,87,54.29C87.59,54,87.65,53.48,87.17,53.2Z"/><path class="cls-6" d="M56.73,79.93c.27.34.52.43.54.71a7.61,7.61,0,0,1,0,1.21,2.57,2.57,0,0,1-1.86,1A3.57,3.57,0,0,1,52.73,82c-.49-.4-.57-.45-.57-.61a1,1,0,0,0,0-.31,2,2,0,0,0-.91-.46A4.81,4.81,0,0,1,50,80.49a5.82,5.82,0,0,1-2.15-1.23,1.87,1.87,0,0,1-.46-1.12,3.46,3.46,0,0,1,.14-.89c0-.17.58-.49.58-.49Z"/><path class="cls-7" d="M52,76.11c-1.09-.21-2.34-.58-3-.11s-1.31.77-1.45,1.39a2.09,2.09,0,0,0,1.12,1.9c.7.4,3,1,3.45,1.31s1.89,1.5,3.49.93,1.43-.89,1.46-1.16a6.92,6.92,0,0,0-.38-2.61,3.84,3.84,0,0,0-1.48-1.17C54.67,76.45,52,76.11,52,76.11Z"/><path class="cls-8" d="M76.48,54.8a8.7,8.7,0,0,1-1,6.67,4.81,4.81,0,0,1-3,2.3,9.47,9.47,0,0,1-7.23,1.94c-4.69-.42-10-3.85-12.15-4.93s-4.07-2-4.42-2.9a2.91,2.91,0,0,1,1.47-3.41c1.56-1,3.51-.69,5.44-.56s7.05.56,7.05.56Z"/><path class="cls-19" d="M51.8,77.44s-.29-2-.64-3.71c-.19-1-.4-2.47-.59-3.94-.16-1.2-.33-2.45-.49-3.36a66.94,66.94,0,0,1-.92-6.67c.09-1.94.39-2,.49-2a29.18,29.18,0,0,1,4.46,1.55,14.93,14.93,0,0,0,5.79,1.23c1.57-.06,1.78-.43,2.48-1.63l0-.09.22.12-.06.09c-.71,1.23-1,1.69-2.68,1.76A15.11,15.11,0,0,1,54,59.49,26.64,26.64,0,0,0,49.71,58a4.2,4.2,0,0,0-.3,1.81,63.67,63.67,0,0,0,.91,6.62c.16.91.33,2.16.49,3.37.2,1.46.4,3,.59,3.92.35,1.7.65,3.71.65,3.73Z"/><path class="cls-8" d="M60.36,59c-.42-.34-.13-1.54,0-2.29Z"/><path class="cls-20" d="M61.46,56.46A4.25,4.25,0,0,0,61.32,59c.42,1,2.82,2.32,5.1,2.88s5.9.27,7.65-1.08a8.38,8.38,0,0,0,2.64-3.19A4.09,4.09,0,0,0,76.65,56Z"/><path class="cls-8" d="M65.14,59.48a14.68,14.68,0,0,0-1.16,2,4,4,0,0,1-.66-.38L64.44,59Z"/><polygon class="cls-8" points="72.89 59.87 72.74 61.91 73.38 61.68 73.48 59.65 72.89 59.87"/><path class="cls-8" d="M61.46,56.46c0,1-.15,1.64,3.18,3.19a10.31,10.31,0,0,0,8.55.35,5.7,5.7,0,0,0,3.46-4l-.06-.52Z"/><polygon class="cls-21" points="87.07 30.5 28.96 64.06 28.96 72.36 87.07 38.81 87.07 30.5"/><polygon class="cls-22" points="85.81 32.38 30.22 64.47 30.22 70.48 85.81 38.39 85.81 32.38"/><polygon class="cls-5" points="85.46 32.62 30.25 64.5 30.25 70.01 85.46 38.13 85.46 32.62"/><polygon class="cls-23" points="58.11 13.79 0 47.34 28.96 64.06 87.07 30.5 58.11 13.79"/><polygon class="cls-24" points="0 47.34 28.96 64.06 28.96 72.36 0 55.64 0 47.34"/><path class="cls-25" d="M13.34,46.11a.39.39,0,0,1-.05.14,0,0,0,0,1,0,0l-.08.13a.79.79,0,0,1-.17.2,1.07,1.07,0,0,1-.16.14l0,0-.18.12-.05,0a2.84,2.84,0,0,1-1,.33h-.12l-.12,0h-.09l-.25,0h-.42l-.23,0h0a3.22,3.22,0,0,1-.63-.15A1.78,1.78,0,0,1,9.42,47h0l-.15-.08h0a1.05,1.05,0,0,1,0-2,3.79,3.79,0,0,1,3.44,0C13.22,45.23,13.45,45.68,13.34,46.11Z"/><path class="cls-24" d="M9.21,45.78a3.82,3.82,0,0,1,3.44,0,1.51,1.51,0,0,1,.59.55c.29-.49.09-1.05-.59-1.44a3.82,3.82,0,0,0-3.44,0c-.67.39-.86,1-.58,1.44A1.63,1.63,0,0,1,9.21,45.78Z"/><path class="cls-26" d="M40.75,45.73S38.09,44.17,37.86,44c-.54-.41-.42-.63-.2-.93a3.56,3.56,0,0,1,3-.91,4.81,4.81,0,0,1,2.91,2.27c.11.36,0,.64-.55.93A2.5,2.5,0,0,1,40.75,45.73Z"/><path class="cls-2" d="M42.34,42.5l-7.06-4.08c-.23-.13-.23-.34,0-.47L53.35,27.51a.91.91,0,0,1,.82,0l7.06,4.09c.23.13.23.34,0,.47L43.16,42.5A.91.91,0,0,1,42.34,42.5Z"/><path class="cls-27" d="M61.22,31.71h0v-.34h-.36l-6.7-3.87a.9.9,0,0,0-.8,0L35.64,37.73h-.35v.34h0a.29.29,0,0,0,.16.24l6.89,4a.89.89,0,0,0,.81,0L61.06,31.94a.26.26,0,0,0,.16-.22h0Z"/><path class="cls-28" d="M42.34,41.94l-6.89-4c-.22-.12-.22-.33,0-.46L53.36,27.15a.87.87,0,0,1,.8,0l6.9,4a.25.25,0,0,1,0,.47L43.15,41.94A1,1,0,0,1,42.34,41.94Z"/><path class="cls-29" d="M61,31.49,43.07,41.84a.73.73,0,0,1-.66,0l-6.89-4c-.19-.1-.19-.28,0-.38L53.44,27.12a.76.76,0,0,1,.66,0l6.89,4C61.18,31.21,61.18,31.38,61,31.49Z"/><path class="cls-30" d="M38.73,37.88v-.09h-.08l-.78-.45a.3.3,0,0,0-.29,0l-.78.46h-.07v.08h0a.09.09,0,0,0,.06.08l.8.46a.3.3,0,0,0,.29,0l.79-.46A.11.11,0,0,0,38.73,37.88Z"/><path class="cls-30" d="M43.76,40.79V40.7h-.07l-.78-.45a.3.3,0,0,0-.29,0l-.79.45h-.07v.09h0a.21.21,0,0,0,.06.08l.8.46a.37.37,0,0,0,.29,0l.79-.46A.12.12,0,0,0,43.76,40.79Z"/><path class="cls-30" d="M45,40.07V40h-.08l-.78-.45a.3.3,0,0,0-.29,0l-.79.45H43v.09h0a.1.1,0,0,0,.06.07l.79.46a.3.3,0,0,0,.29,0l.8-.46A.09.09,0,0,0,45,40.07Z"/><path class="cls-30" d="M46.25,39.35v-.1h-.08l-.78-.45a.37.37,0,0,0-.29,0l-.78.46h-.07v.09h0a.09.09,0,0,0,.06.08l.8.46a.3.3,0,0,0,.29,0l.79-.46A.09.09,0,0,0,46.25,39.35Z"/><path class="cls-30" d="M47.49,38.63v-.1h-.08l-.78-.45a.33.33,0,0,0-.29,0l-.78.46h-.07v.09h0a.09.09,0,0,0,.06.08l.8.46a.3.3,0,0,0,.29,0l.79-.46A.09.09,0,0,0,47.49,38.63Z"/><path class="cls-30" d="M40,37.16v-.09h-.08l-.78-.45a.3.3,0,0,0-.29,0l-.78.45H38v.09h0s0,0,.06.08l.8.46a.37.37,0,0,0,.29,0l.79-.46A.12.12,0,0,0,40,37.16Z"/><path class="cls-30" d="M41.92,37.48v-.1h-.07l-.79-.45a.34.34,0,0,0-.28,0l-.79.46h-.07v.09h0a.16.16,0,0,0,.06.08l.8.46a.3.3,0,0,0,.29,0l.79-.46A.09.09,0,0,0,41.92,37.48Z"/><path class="cls-30" d="M43.17,36.75v-.09h-.08l-.78-.45a.3.3,0,0,0-.29,0l-.79.46h-.06v.08h0a.09.09,0,0,0,.06.08l.79.46a.3.3,0,0,0,.29,0l.8-.46A.11.11,0,0,0,43.17,36.75Z"/><path class="cls-30" d="M43.81,37.85v-.1h-.08L43,37.3a.37.37,0,0,0-.29,0l-.78.46h-.07v.09h0a.12.12,0,0,0,.06.08l.8.46a.3.3,0,0,0,.29,0l.79-.46A.09.09,0,0,0,43.81,37.85Z"/><path class="cls-30" d="M45.08,38.58v-.09H45L44.22,38a.37.37,0,0,0-.29,0l-.78.46h-.07v.09h0a.09.09,0,0,0,.06.08l.8.46a.3.3,0,0,0,.29,0l.79-.46A.09.09,0,0,0,45.08,38.58Z"/><path class="cls-30" d="M46.32,37.86v-.1h-.08l-.78-.45a.37.37,0,0,0-.29,0l-.78.46h-.07v.09h0a.09.09,0,0,0,.06.08l.8.46a.3.3,0,0,0,.29,0l.79-.46A.09.09,0,0,0,46.32,37.86Z"/><path class="cls-30" d="M47.56,37.13V37h-.07l-.78-.45a.3.3,0,0,0-.29,0l-.79.46h-.07v.08h0a.1.1,0,0,0,0,.08l.8.46a.3.3,0,0,0,.29,0l.79-.46A.11.11,0,0,0,47.56,37.13Z"/><path class="cls-30" d="M48.81,36.41v-.09h-.08L48,35.87a.3.3,0,0,0-.29,0l-.79.45h-.06v.09h0s0,0,.06.08l.79.46A.37.37,0,0,0,48,37l.8-.46A.12.12,0,0,0,48.81,36.41Z"/><path class="cls-30" d="M50.05,35.69V35.6H50l-.78-.45a.3.3,0,0,0-.29,0l-.78.45h-.07v.09h0a.1.1,0,0,0,.06.07l.8.46a.33.33,0,0,0,.29,0l.79-.47A.09.09,0,0,0,50.05,35.69Z"/><path class="cls-30" d="M51.29,35v-.09h-.08l-.78-.46a.37.37,0,0,0-.29,0l-.78.46h-.07V35h0a.09.09,0,0,0,.06.08l.8.46a.3.3,0,0,0,.29,0l.79-.46A.09.09,0,0,0,51.29,35Z"/><path class="cls-30" d="M52.53,34.25v-.1h-.07l-.79-.45a.34.34,0,0,0-.28,0l-.79.46h-.07v.09h0a.16.16,0,0,0,.06.08l.8.46a.3.3,0,0,0,.29,0l.79-.46A.09.09,0,0,0,52.53,34.25Z"/><path class="cls-30" d="M53.78,33.52v-.09H53.7L52.92,33a.3.3,0,0,0-.29,0l-.79.46h-.06v.08h0a.09.09,0,0,0,.06.08l.79.46a.3.3,0,0,0,.29,0l.8-.46A.11.11,0,0,0,53.78,33.52Z"/><path class="cls-30" d="M55,32.8v-.09h-.08l-.78-.45a.3.3,0,0,0-.29,0l-.78.45H53v.09h0s0,0,.06.08l.8.46a.37.37,0,0,0,.29,0l.79-.46A.12.12,0,0,0,55,32.8Z"/><path class="cls-30" d="M56.35,33.48v-.1h-.08l-.78-.45a.37.37,0,0,0-.29,0l-.78.46h-.07v.09h0a.09.09,0,0,0,.06.08l.8.46a.3.3,0,0,0,.29,0l.79-.46A.09.09,0,0,0,56.35,33.48Z"/><path class="cls-30" d="M57.59,32.76v-.1h-.08l-.78-.45a.37.37,0,0,0-.29,0l-.78.46h-.07v.09h0a.12.12,0,0,0,.06.08l.8.46a.3.3,0,0,0,.29,0l.79-.46A.09.09,0,0,0,57.59,32.76Z"/><path class="cls-30" d="M60.11,31.29V31.2H60l-.78-.45a.3.3,0,0,0-.29,0l-.78.46h-.07v.08h0a.09.09,0,0,0,.06.08l.8.46a.34.34,0,0,0,.28,0l.8-.46A.12.12,0,0,0,60.11,31.29Z"/><path class="cls-30" d="M58.78,30.48,58,30a.3.3,0,0,0-.29,0l-.11.06h0l-.68.39h-.06v0l0,0h-.06v.09h0a.09.09,0,0,0,.06.08l.79.46a.3.3,0,0,0,.29,0l.91-.52a.12.12,0,0,0,.06-.09v-.09Z"/><path class="cls-30" d="M56.26,32.08V32h-.08l-.78-.45a.3.3,0,0,0-.29,0l-.78.45h-.07v.09h0a.1.1,0,0,0,.06.07l.8.46a.33.33,0,0,0,.29,0l.79-.47A.09.09,0,0,0,56.26,32.08Z"/><path class="cls-30" d="M57.5,31.36v-.09h-.07l-.79-.46a.34.34,0,0,0-.28,0l-.79.46H55.5v.09h0a.16.16,0,0,0,.06.08l.8.46a.3.3,0,0,0,.29,0l.79-.46A.09.09,0,0,0,57.5,31.36Z"/><path class="cls-30" d="M45.05,37.12V37H45l-.78-.45a.3.3,0,0,0-.29,0l-.79.46h-.07v.08h0a.1.1,0,0,0,0,.08l.8.46a.3.3,0,0,0,.29,0l.79-.46A.1.1,0,0,0,45.05,37.12Z"/><path class="cls-30" d="M46.3,36.4v-.09h-.08l-.78-.45a.3.3,0,0,0-.29,0l-.79.45H44.3v.09h0s0,.05.06.08l.79.46a.37.37,0,0,0,.29,0l.8-.46A.12.12,0,0,0,46.3,36.4Z"/><path class="cls-30" d="M47.54,35.68v-.09h-.08l-.78-.45a.3.3,0,0,0-.29,0l-.78.45h-.07v.09h0a.1.1,0,0,0,.06.07l.8.47a.37.37,0,0,0,.29,0l.79-.47A.09.09,0,0,0,47.54,35.68Z"/><path class="cls-30" d="M48.78,35v-.09H48.7l-.78-.46a.37.37,0,0,0-.29,0l-.78.46h-.07V35h0a.09.09,0,0,0,.06.08l.8.46a.3.3,0,0,0,.29,0l.79-.46A.09.09,0,0,0,48.78,35Z"/><path class="cls-30" d="M50,34.24v-.1H50l-.79-.45a.34.34,0,0,0-.28,0l-.79.46H48v.09h0a.16.16,0,0,0,.06.08l.8.46a.3.3,0,0,0,.29,0l.79-.46A.09.09,0,0,0,50,34.24Z"/><path class="cls-30" d="M51.27,33.51v-.09h-.08L50.41,33a.3.3,0,0,0-.29,0l-.79.46h-.06v.08h0a.09.09,0,0,0,.06.08l.79.46a.3.3,0,0,0,.29,0l.8-.46A.1.1,0,0,0,51.27,33.51Z"/><path class="cls-30" d="M52.51,32.79V32.7h-.08l-.78-.45a.3.3,0,0,0-.29,0l-.78.45h-.07v.09h0s0,.05.06.08l.8.46a.37.37,0,0,0,.29,0l.79-.46A.12.12,0,0,0,52.51,32.79Z"/><path class="cls-30" d="M53.75,32.07V32h-.08l-.78-.45a.3.3,0,0,0-.29,0l-.78.45h-.07v.09h0a.1.1,0,0,0,.06.07l.8.47a.37.37,0,0,0,.29,0l.79-.47A.09.09,0,0,0,53.75,32.07Z"/><path class="cls-30" d="M55,31.35v-.09h-.07l-.79-.46a.34.34,0,0,0-.28,0l-.79.46H53v.09h0a.16.16,0,0,0,.06.08l.8.46a.3.3,0,0,0,.29,0l.79-.46A.09.09,0,0,0,55,31.35Z"/><path class="cls-30" d="M44.41,36v-.09h-.08l-.78-.45a.3.3,0,0,0-.29,0l-.78.45h-.07V36h0s0,.05.06.08l.8.46a.37.37,0,0,0,.29,0l.79-.46A.12.12,0,0,0,44.41,36Z"/><path class="cls-30" d="M45.65,35.31v-.09h-.08l-.78-.45a.3.3,0,0,0-.29,0l-.78.45h-.07v.09h0a.1.1,0,0,0,.06.07l.8.46a.33.33,0,0,0,.29,0l.79-.47A.09.09,0,0,0,45.65,35.31Z"/><path class="cls-30" d="M46.89,34.59V34.5h-.07L46,34a.34.34,0,0,0-.28,0L45,34.5h-.07v.09h0a.16.16,0,0,0,.06.08l.8.46a.3.3,0,0,0,.29,0l.79-.46A.09.09,0,0,0,46.89,34.59Z"/><path class="cls-30" d="M48.14,33.87v-.1h-.08l-.78-.45a.37.37,0,0,0-.29,0l-.79.46h-.06v.09h0a.09.09,0,0,0,.06.08l.79.46a.3.3,0,0,0,.29,0l.8-.46A.09.09,0,0,0,48.14,33.87Z"/><path class="cls-30" d="M49.38,33.14v-.09H49.3l-.78-.45a.3.3,0,0,0-.29,0l-.78.46h-.07v.08h0a.09.09,0,0,0,.06.08l.8.46a.37.37,0,0,0,.29,0l.79-.46A.12.12,0,0,0,49.38,33.14Z"/><path class="cls-30" d="M50.62,32.42v-.09h-.08l-.78-.45a.3.3,0,0,0-.29,0l-.78.45h-.07v.09h0s0,0,.06.08l.8.46a.37.37,0,0,0,.29,0l.79-.46A.12.12,0,0,0,50.62,32.42Z"/><path class="cls-30" d="M51.86,31.7v-.09h-.07L51,31.16a.28.28,0,0,0-.28,0l-.79.45h-.07v.09h0a.19.19,0,0,0,.06.07l.8.46a.3.3,0,0,0,.29,0l.79-.46A.09.09,0,0,0,51.86,31.7Z"/><path class="cls-30" d="M53.1,31v-.09H53l-.78-.46a.37.37,0,0,0-.29,0l-.79.46h-.06V31h0a.09.09,0,0,0,.06.08l.79.46a.3.3,0,0,0,.29,0l.8-.46S53.11,31,53.1,31Z"/><path class="cls-30" d="M54.35,30.26v-.1h-.08l-.78-.45a.37.37,0,0,0-.29,0l-.78.46h-.07v.09h0a.09.09,0,0,0,.06.08l.8.46a.3.3,0,0,0,.29,0l.79-.46A.09.09,0,0,0,54.35,30.26Z"/><path class="cls-30" d="M41.21,36.44v-.09h-.07l-.79-.45a.28.28,0,0,0-.28,0l-.79.45h-.07v.09h0a.19.19,0,0,0,.06.07l.8.46a.33.33,0,0,0,.29,0l.79-.47A.09.09,0,0,0,41.21,36.44Z"/><path class="cls-30" d="M42.46,35.72v-.09h-.08l-.78-.46a.37.37,0,0,0-.29,0l-.79.46h-.06v.09h0a.09.09,0,0,0,.06.08l.79.46a.3.3,0,0,0,.29,0l.8-.46A.09.09,0,0,0,42.46,35.72Z"/><path class="cls-30" d="M43.7,35v-.1h-.08l-.78-.45a.37.37,0,0,0-.29,0l-.78.46H41.7V35h0a.09.09,0,0,0,.06.08l.8.46a.3.3,0,0,0,.29,0l.79-.46A.09.09,0,0,0,43.7,35Z"/><path class="cls-30" d="M44.94,34.27v-.09h-.08l-.78-.45a.3.3,0,0,0-.29,0l-.78.46h-.07v.08h0a.09.09,0,0,0,.06.08l.8.46a.3.3,0,0,0,.29,0l.79-.46A.11.11,0,0,0,44.94,34.27Z"/><path class="cls-30" d="M46.18,33.55v-.09h-.07L45.32,33A.28.28,0,0,0,45,33l-.79.45h-.07v.09h0a.21.21,0,0,0,.06.08l.8.46a.37.37,0,0,0,.29,0l.79-.46A.12.12,0,0,0,46.18,33.55Z"/><path class="cls-30" d="M47.43,32.83v-.09h-.08l-.78-.45a.3.3,0,0,0-.29,0l-.79.45h-.06v.09h0a.1.1,0,0,0,.06.07l.79.46a.3.3,0,0,0,.29,0l.8-.46A.09.09,0,0,0,47.43,32.83Z"/><path class="cls-30" d="M48.67,32.11V32h-.08l-.78-.46a.37.37,0,0,0-.29,0l-.78.46h-.07v.09h0a.09.09,0,0,0,.06.08l.8.46a.3.3,0,0,0,.29,0l.79-.46A.09.09,0,0,0,48.67,32.11Z"/><path class="cls-30" d="M49.91,31.39v-.1h-.08l-.78-.45a.37.37,0,0,0-.29,0L48,31.3h-.07v.09h0a.09.09,0,0,0,.06.08l.8.46a.3.3,0,0,0,.29,0l.79-.46A.09.09,0,0,0,49.91,31.39Z"/><path class="cls-30" d="M51.15,30.66v-.09h-.07l-.79-.45a.28.28,0,0,0-.28,0l-.79.46h-.07v.08h0a.16.16,0,0,0,.06.08l.8.46a.37.37,0,0,0,.29,0l.79-.46A.12.12,0,0,0,51.15,30.66Z"/><path class="cls-30" d="M52.39,29.94v-.09h-.07l-.78-.45a.3.3,0,0,0-.29,0l-.79.45H50.4v.09h0s0,.05.06.08l.79.46a.37.37,0,0,0,.29,0l.8-.46S52.4,30,52.39,29.94Z"/><path class="cls-30" d="M53.64,29.22v-.09h-.08l-.78-.45a.3.3,0,0,0-.29,0l-.78.45h-.07v.09h0a.1.1,0,0,0,.06.07l.8.46a.3.3,0,0,0,.29,0l.79-.46A.09.09,0,0,0,53.64,29.22Z"/><path class="cls-30" d="M55.07,28.29H55l-.78-.45a.37.37,0,0,0-.29,0l-1,.56h-.08v.08h0a.1.1,0,0,0,.06.07l.8.46A.3.3,0,0,0,54,29l1-.57a.11.11,0,0,0,.06-.09h0Z"/><path class="cls-30" d="M55.11,34.2v-.09H55l-.78-.45a.28.28,0,0,0-.22,0s-.05,0-.07,0l-.78.45h-.07v0l-5.52,3.21h0l-.79.45h-.07v.08h0v0h0v0h0l0,0h0l.8.46.07,0h.08a.32.32,0,0,0,.14,0l.79-.46h0l6.38-3.71A.09.09,0,0,0,55.11,34.2Z"/><path class="cls-30" d="M38.91,36.33h0v-.09h-.06l-.21-.13a.3.3,0,0,0-.29,0l-.74.43-.11,0v.09a.09.09,0,0,0,.06.08l.21.12a.3.3,0,0,0,.29,0l.79-.46a.09.09,0,0,0,.06-.08Z"/><path class="cls-30" d="M40.15,35.61h0v-.09h-.06l-.21-.12a.3.3,0,0,0-.29,0l-.73.43-.12,0V36a.09.09,0,0,0,.06.08l.21.12a.3.3,0,0,0,.29,0l.8-.46a.1.1,0,0,0,0-.08Z"/><path class="cls-30" d="M41.4,34.89h0V34.8h-.06l-.22-.12a.3.3,0,0,0-.29,0l-.73.42-.12,0v.1a.1.1,0,0,0,.06.07l.22.13a.28.28,0,0,0,.28,0l.8-.46a.09.09,0,0,0,.06-.08Z"/><path class="cls-30" d="M42.64,34.16h0v-.09l0,0h0L42.36,34a.33.33,0,0,0-.29,0l-.73.43-.12,0v.09a.16.16,0,0,0,.06.08l.22.13a.37.37,0,0,0,.29,0l.79-.46s.06-.06.06-.08h0Z"/><path class="cls-30" d="M43.88,33.44h0v-.09h-.06l-.21-.13a.37.37,0,0,0-.29,0l-.74.43-.11,0v.09a.09.09,0,0,0,.06.08l.21.12A.33.33,0,0,0,43,34l.79-.47a.09.09,0,0,0,.06-.08Z"/><path class="cls-30" d="M45.12,32.72h0v-.09h-.06l-.21-.13a.3.3,0,0,0-.29,0l-.73.43-.12,0v.09a.09.09,0,0,0,.06.08l.21.12a.3.3,0,0,0,.29,0l.79-.46a.09.09,0,0,0,.06-.08Z"/><path class="cls-30" d="M46.37,32h0v-.09h-.06l-.22-.12a.3.3,0,0,0-.29,0l-.73.43-.12,0v.1s0,0,.06.08l.22.12a.28.28,0,0,0,.28,0l.8-.46a.09.09,0,0,0,.06-.08Z"/><path class="cls-30" d="M47.61,31.28h0v-.08h-.06l-.22-.12a.3.3,0,0,0-.29,0l-.73.42-.12,0v.1a.19.19,0,0,0,.06.07l.22.13a.3.3,0,0,0,.29,0l.79-.46a.09.09,0,0,0,.06-.08Z"/><path class="cls-30" d="M48.85,30.55h0v-.09l-.05,0h0l-.21-.12a.33.33,0,0,0-.29,0l-.74.43-.12,0v.09a.09.09,0,0,0,.06.08l.21.13a.37.37,0,0,0,.29,0l.79-.46a.12.12,0,0,0,.06-.09Z"/><path class="cls-30" d="M50.09,29.83h0v-.09H50l-.21-.13a.37.37,0,0,0-.29,0l-.73.43-.12,0v.09a.09.09,0,0,0,.06.08l.21.12a.33.33,0,0,0,.29,0l.79-.47a.09.09,0,0,0,.06-.08Z"/><path class="cls-30" d="M51.34,29.11h0V29h-.06l-.22-.13a.3.3,0,0,0-.29,0l-.73.43-.12,0v.09a.09.09,0,0,0,.06.08l.22.12a.28.28,0,0,0,.28,0l.8-.46a.09.09,0,0,0,.06-.08Z"/><path class="cls-30" d="M52.58,28.39h0V28.3h-.06l-.22-.12a.3.3,0,0,0-.29,0l-.73.42-.12,0v.1a.14.14,0,0,0,.06.08l.22.12a.3.3,0,0,0,.29,0l.79-.46a.09.09,0,0,0,.06-.08Z"/><path class="cls-30" d="M53.82,27.67h0v-.08h-.06l-.21-.12a.3.3,0,0,0-.29,0l-.74.42-.12,0V28a.1.1,0,0,0,.06.07l.21.13a.3.3,0,0,0,.29,0l.79-.46a.09.09,0,0,0,.06-.08Z"/><path class="cls-30" d="M40.69,38.11h-.06l-.8-.46a.3.3,0,0,0-.29,0l-1.47.86H38v.08h0a.1.1,0,0,0,.06.07l.8.47a.34.34,0,0,0,.28,0l1.5-.87a.12.12,0,0,0,.06-.09h0Z"/><path class="cls-30" d="M42.57,38.48h-.06l-.8-.47a.37.37,0,0,0-.29,0l-2.07,1.21-.1,0v.09h0a.09.09,0,0,0,.06.08l.79.46a.3.3,0,0,0,.29,0l2.12-1.23a.09.09,0,0,0,.06-.08h0Z"/><path class="cls-30" d="M43.84,39.21h-.06l-.8-.46a.3.3,0,0,0-.29,0L40.62,40l-.11,0v.09h0a.12.12,0,0,0,.06.08l.8.46a.3.3,0,0,0,.29,0l2.12-1.23a.09.09,0,0,0,.06-.08h0Z"/><path class="cls-30" d="M56.33,29h-.06l-.8-.46a.3.3,0,0,0-.29,0l-1.5.87H53.6v.09h0a.09.09,0,0,0,.06.08l.8.46a.3.3,0,0,0,.29,0l1.52-.88a.12.12,0,0,0,.06-.09h0Z"/><path class="cls-30" d="M57.53,29.76l-.8-.46a.3.3,0,0,0-.29,0L54.3,30.54c-.08.05-.08.12,0,.17l.79.46a.3.3,0,0,0,.29,0l2.15-1.25a.08.08,0,0,0,0-.16Z"/><path class="cls-30" d="M58.25,31.7h0v-.09h-.06L58,31.49a.3.3,0,0,0-.29,0l-.74.43-.12,0V32a.09.09,0,0,0,.06.08l.21.12a.3.3,0,0,0,.29,0l.79-.46a.09.09,0,0,0,.06-.08Z"/><path class="cls-30" d="M58.83,32h0v-.09l0,0h0l-.21-.12a.3.3,0,0,0-.29,0l-.73.42-.12,0v.09a.09.09,0,0,0,.06.08l.21.13a.37.37,0,0,0,.29,0l.79-.46s.06,0,.06-.08Z"/><path class="cls-30" d="M45,38.5l-.8-.47a.37.37,0,0,0-.29,0l-.79.47a.08.08,0,0,0,0,.16l.8.46a.3.3,0,0,0,.29,0l.79-.46a.08.08,0,0,0,0-.16Z"/><path class="cls-30" d="M37.67,37.05h0V37l-.06,0h0l-.22-.13a.37.37,0,0,0-.29,0l-.91.53-.13,0v.1h0a.13.13,0,0,0,.06.07l.22.13a.37.37,0,0,0,.29,0l1-.58A.09.09,0,0,0,37.67,37.05Z"/><path class="cls-26" d="M38.67,37.71l-.8-.46a.37.37,0,0,0-.29,0l-.79.46c-.08,0-.08.12,0,.17l.8.46a.3.3,0,0,0,.29,0l.79-.46c.08-.05.08-.12,0-.17Z"/><path class="cls-26" d="M39.91,37l-.8-.46a.3.3,0,0,0-.29,0L38,37c-.08,0-.08.12,0,.17l.8.46a.37.37,0,0,0,.29,0l.79-.46c.08,0,.08-.12,0-.17Z"/><path class="cls-26" d="M41.15,36.27l-.8-.46a.28.28,0,0,0-.28,0l-.8.46c-.08,0-.08.12,0,.17l.8.46a.37.37,0,0,0,.29,0l.79-.46c.08,0,.08-.13,0-.17Z"/><path class="cls-26" d="M42.39,35.55l-.79-.46a.3.3,0,0,0-.29,0l-.79.46a.08.08,0,0,0,0,.16l.79.46a.3.3,0,0,0,.29,0l.8-.46c.08,0,.08-.12,0-.16Z"/><path class="cls-26" d="M43.64,34.82l-.8-.46a.37.37,0,0,0-.29,0l-.79.46c-.08,0-.08.13,0,.17l.8.46a.3.3,0,0,0,.29,0l.79-.46c.08,0,.08-.12,0-.17Z"/><path class="cls-26" d="M44.88,34.1l-.8-.46a.37.37,0,0,0-.29,0L43,34.1c-.08,0-.08.12,0,.17l.8.46a.3.3,0,0,0,.29,0l.79-.46c.08-.05.08-.12,0-.17Z"/><path class="cls-26" d="M46.12,33.38l-.8-.46a.28.28,0,0,0-.28,0l-.8.46c-.08,0-.08.12,0,.17L45,34a.37.37,0,0,0,.29,0l.79-.46c.08,0,.08-.12,0-.17Z"/><path class="cls-26" d="M47.36,32.66l-.79-.46a.3.3,0,0,0-.29,0l-.79.46c-.08,0-.08.12,0,.17l.79.46a.37.37,0,0,0,.29,0l.8-.46a.09.09,0,0,0,0-.17Z"/><path class="cls-26" d="M48.61,31.94l-.8-.46a.3.3,0,0,0-.29,0l-.79.46a.08.08,0,0,0,0,.16l.8.46a.3.3,0,0,0,.29,0l.79-.46a.08.08,0,0,0,0-.16Z"/><path class="cls-26" d="M49.85,31.21l-.8-.46a.37.37,0,0,0-.29,0l-.79.46c-.08.05-.08.13,0,.17l.8.46a.3.3,0,0,0,.29,0l.79-.46c.08,0,.08-.12,0-.17Z"/><path class="cls-26" d="M51.09,30.49l-.8-.46A.37.37,0,0,0,50,30l-.79.46c-.08.05-.08.12,0,.17l.8.46a.3.3,0,0,0,.29,0l.79-.46c.08-.05.08-.12,0-.17Z"/><path class="cls-26" d="M43.11,36.58l-.8-.46a.37.37,0,0,0-.29,0l-.79.46c-.08.05-.08.12,0,.17l.79.46a.3.3,0,0,0,.29,0l.8-.46c.08,0,.08-.12,0-.17Z"/><path class="cls-26" d="M44.35,35.86l-.8-.46a.3.3,0,0,0-.29,0l-.79.46c-.08,0-.08.12,0,.17l.8.46a.37.37,0,0,0,.29,0l.79-.46c.08-.05.08-.12,0-.17Z"/><path class="cls-26" d="M45.59,35.14l-.8-.46a.3.3,0,0,0-.29,0l-.79.46c-.08,0-.08.12,0,.17l.8.46a.37.37,0,0,0,.29,0l.79-.46c.08-.05.08-.13,0-.17Z"/><path class="cls-26" d="M46.83,34.42,46,34a.28.28,0,0,0-.28,0l-.8.46a.08.08,0,0,0,0,.16l.8.46A.3.3,0,0,0,46,35l.79-.46a.08.08,0,0,0,0-.16Z"/><path class="cls-26" d="M48.07,33.69l-.79-.46a.37.37,0,0,0-.29,0l-.79.46c-.08.05-.08.13,0,.17l.79.46a.3.3,0,0,0,.29,0l.8-.46c.08,0,.07-.12,0-.17Z"/><path class="cls-26" d="M49.32,33l-.8-.46a.37.37,0,0,0-.29,0l-.79.46c-.08.05-.08.12,0,.17l.8.46a.3.3,0,0,0,.29,0l.79-.46c.08,0,.08-.12,0-.17Z"/><path class="cls-26" d="M50.56,32.25l-.8-.46a.3.3,0,0,0-.29,0l-.79.46c-.08,0-.08.12,0,.17l.8.46a.37.37,0,0,0,.29,0l.79-.46c.08-.05.08-.12,0-.17Z"/><path class="cls-26" d="M51.8,31.53l-.8-.46a.28.28,0,0,0-.28,0l-.8.46c-.08,0-.08.12,0,.17l.8.46a.37.37,0,0,0,.29,0l.79-.46c.08-.05.08-.13,0-.17Z"/><path class="cls-26" d="M53,30.81l-.79-.46a.3.3,0,0,0-.29,0l-.8.46a.09.09,0,0,0,0,.16l.79.46a.3.3,0,0,0,.29,0l.8-.46c.08,0,.07-.12,0-.16Z"/><path class="cls-26" d="M54.29,30.08l-.8-.46a.37.37,0,0,0-.29,0l-.79.46c-.08.05-.08.13,0,.17l.8.46a.3.3,0,0,0,.29,0l.79-.46c.08,0,.08-.12,0-.17Z"/><path class="cls-26" d="M52.33,29.77l-.79-.46a.3.3,0,0,0-.29,0l-.8.46c-.07.05-.08.12,0,.17l.79.46a.37.37,0,0,0,.29,0l.8-.46c.07-.05.07-.12,0-.17Z"/><path class="cls-26" d="M53.58,29.05l-.8-.46a.3.3,0,0,0-.29,0l-.79.46c-.08,0-.08.12,0,.17l.8.46a.37.37,0,0,0,.29,0l.79-.46c.08,0,.08-.13,0-.17Z"/><path class="cls-26" d="M43.7,40.62l-.79-.46a.3.3,0,0,0-.29,0l-.8.46c-.08.05-.08.12,0,.17l.8.46a.37.37,0,0,0,.29,0l.79-.46c.08,0,.08-.12,0-.17Z"/><path class="cls-26" d="M45,39.9l-.8-.46a.3.3,0,0,0-.29,0l-.79.46a.08.08,0,0,0,0,.16l.79.47a.37.37,0,0,0,.29,0l.8-.47a.08.08,0,0,0,0-.16Z"/><path class="cls-26" d="M46.19,39.18l-.8-.47a.37.37,0,0,0-.29,0l-.79.47a.08.08,0,0,0,0,.16l.8.46a.3.3,0,0,0,.29,0l.79-.46a.08.08,0,0,0,0-.16Z"/><path class="cls-26" d="M47.43,38.45l-.8-.46a.37.37,0,0,0-.29,0l-.79.46c-.08,0-.08.12,0,.17l.8.46a.3.3,0,0,0,.29,0l.79-.46c.08,0,.08-.12,0-.17Z"/><path class="cls-26" d="M41.86,37.3l-.8-.46a.34.34,0,0,0-.28,0l-.8.46c-.08.05-.08.13,0,.17l.8.46a.3.3,0,0,0,.29,0l.79-.46c.08,0,.08-.12,0-.17Z"/><path class="cls-26" d="M55,28.21l-.8-.46a.37.37,0,0,0-.29,0l-1,.58a.08.08,0,0,0,0,.16l.8.46A.3.3,0,0,0,54,29l1-.57c.08,0,.08-.12,0-.17Z"/><path class="cls-26" d="M55.05,34l-.8-.46a.3.3,0,0,0-.29,0l-7.17,4.16c-.08.05-.08.12,0,.17l.8.46a.3.3,0,0,0,.29,0l7.17-4.16c.08-.05.08-.13,0-.17Z"/><path class="cls-26" d="M38.85,36.16,38.64,36a.37.37,0,0,0-.29,0l-.8.46c-.07,0-.07.12,0,.17l.21.12a.3.3,0,0,0,.29,0l.79-.46a.08.08,0,0,0,0-.16Z"/><path class="cls-26" d="M40.09,35.43l-.21-.12a.3.3,0,0,0-.29,0l-.79.46c-.08,0-.08.12,0,.17l.21.12a.3.3,0,0,0,.29,0l.8-.46c.07,0,.07-.12,0-.17Z"/><path class="cls-26" d="M41.34,34.71l-.22-.12a.3.3,0,0,0-.29,0l-.79.46c-.08.05-.08.12,0,.17l.22.12a.28.28,0,0,0,.28,0l.8-.46c.08-.05.08-.12,0-.17Z"/><path class="cls-26" d="M42.58,34l-.22-.12a.3.3,0,0,0-.29,0l-.79.46a.08.08,0,0,0,0,.16l.22.13a.3.3,0,0,0,.29,0l.79-.46c.08,0,.08-.12,0-.17Z"/><path class="cls-26" d="M43.82,33.27l-.21-.13a.37.37,0,0,0-.29,0l-.8.46a.09.09,0,0,0,0,.17l.21.13a.37.37,0,0,0,.29,0l.79-.46c.08,0,.08-.12,0-.17Z"/><path class="cls-26" d="M45.06,32.55l-.21-.13a.37.37,0,0,0-.29,0l-.79.46c-.08,0-.08.12,0,.17l.21.12a.3.3,0,0,0,.29,0l.79-.46a.08.08,0,0,0,0-.16Z"/><path class="cls-26" d="M46.31,31.82l-.22-.12a.3.3,0,0,0-.29,0l-.79.46c-.08.05-.08.12,0,.17l.22.12a.28.28,0,0,0,.28,0l.8-.46c.08,0,.08-.12,0-.17Z"/><path class="cls-26" d="M47.55,31.1,47.33,31A.3.3,0,0,0,47,31l-.79.46c-.08,0-.08.12,0,.17l.22.12a.3.3,0,0,0,.29,0l.79-.46c.08-.05.08-.12,0-.17Z"/><path class="cls-26" d="M48.79,30.38l-.21-.12a.3.3,0,0,0-.29,0l-.8.46c-.08,0-.08.12,0,.16l.21.13A.37.37,0,0,0,48,31l.79-.46c.08-.05.08-.12,0-.17Z"/><path class="cls-26" d="M50,29.66l-.21-.13a.37.37,0,0,0-.29,0l-.79.47a.08.08,0,0,0,0,.16l.21.13a.37.37,0,0,0,.29,0l.79-.46c.08,0,.08-.13,0-.17Z"/><path class="cls-26" d="M51.28,28.94l-.22-.13a.37.37,0,0,0-.29,0l-.79.46c-.08.05-.08.12,0,.17l.21.12a.3.3,0,0,0,.29,0l.8-.46a.08.08,0,0,0,0-.16Z"/><path class="cls-26" d="M52.52,28.21l-.22-.12a.3.3,0,0,0-.29,0l-.79.46c-.08.05-.08.12,0,.17l.22.12a.3.3,0,0,0,.29,0l.79-.46c.08,0,.08-.12,0-.17Z"/><path class="cls-26" d="M53.76,27.49l-.21-.12a.3.3,0,0,0-.29,0l-.8.46c-.08.05-.08.12,0,.17l.22.12a.3.3,0,0,0,.29,0l.79-.46c.08-.05.08-.12,0-.17Z"/><path class="cls-26" d="M37.61,36.88l-.22-.13a.37.37,0,0,0-.29,0l-1,.58a.08.08,0,0,0,0,.16l.22.13a.37.37,0,0,0,.29,0l1-.57c.08,0,.08-.12,0-.17Z"/><path class="cls-26" d="M40.63,38l-.8-.46a.3.3,0,0,0-.29,0l-1.49.87c-.08.05-.08.12,0,.17l.8.46a.34.34,0,0,0,.28,0l1.5-.87c.08-.05.08-.12,0-.17Z"/><path class="cls-26" d="M42.51,38.4l-.8-.46a.3.3,0,0,0-.29,0l-2.11,1.23a.08.08,0,0,0,0,.16l.79.46a.3.3,0,0,0,.29,0l2.12-1.23a.08.08,0,0,0,0-.16Z"/><path class="cls-26" d="M43.78,39.13l-.8-.46a.3.3,0,0,0-.29,0L40.57,39.9a.08.08,0,0,0,0,.16l.8.47a.37.37,0,0,0,.29,0l2.12-1.23c.08,0,.08-.13,0-.17Z"/><path class="cls-26" d="M56.27,28.94l-.8-.46a.3.3,0,0,0-.29,0l-1.52.89a.08.08,0,0,0,0,.16l.8.47a.37.37,0,0,0,.29,0l1.52-.89c.08-.05.08-.12,0-.17Z"/><path class="cls-26" d="M57.53,29.67l-.8-.46a.3.3,0,0,0-.29,0L54.3,30.45c-.08.05-.08.13,0,.17l.79.46a.3.3,0,0,0,.29,0l2.15-1.24c.08-.05.08-.13,0-.17Z"/><path class="cls-26" d="M58.19,31.53,58,31.4a.3.3,0,0,0-.29,0l-.8.46c-.08.05-.07.12,0,.17l.21.12a.3.3,0,0,0,.29,0l.79-.46a.08.08,0,0,0,0-.16Z"/><path class="cls-26" d="M58.77,31.86l-.21-.12a.3.3,0,0,0-.29,0l-.79.46c-.08,0-.08.12,0,.17l.21.12a.3.3,0,0,0,.29,0l.79-.46c.08-.05.08-.12,0-.17Z"/><path class="cls-26" d="M53.69,31.9l-.8-.46a.3.3,0,0,0-.29,0l-.79.46c-.08.05-.08.12,0,.17l.8.46a.37.37,0,0,0,.29,0l.79-.46c.08,0,.08-.12,0-.17Z"/><path class="cls-26" d="M54.93,31.18l-.8-.46a.28.28,0,0,0-.28,0l-.8.46a.08.08,0,0,0,0,.16l.8.46a.3.3,0,0,0,.29,0l.79-.46a.08.08,0,0,0,0-.16Z"/><path class="cls-26" d="M55,32.63l-.8-.46a.3.3,0,0,0-.29,0l-.79.46c-.08,0-.08.12,0,.17l.8.46a.37.37,0,0,0,.29,0L55,32.8c.08,0,.08-.12,0-.17Z"/><path class="cls-26" d="M56.2,31.91l-.8-.46a.3.3,0,0,0-.29,0l-.79.46c-.08,0-.08.12,0,.17l.8.46a.37.37,0,0,0,.29,0l.79-.46c.08,0,.08-.13,0-.17Z"/><path class="cls-26" d="M57.44,31.19l-.8-.46a.28.28,0,0,0-.28,0l-.8.46a.08.08,0,0,0,0,.16l.8.46a.3.3,0,0,0,.29,0l.79-.46a.08.08,0,0,0,0-.16Z"/><path class="cls-26" d="M58.8,30.4l-.8-.46a.3.3,0,0,0-.29,0l-.9.52c-.08.05-.08.13,0,.17l.79.46a.3.3,0,0,0,.29,0l.91-.52c.08-.05.08-.12,0-.17Z"/><path class="cls-26" d="M51.21,33.34l-.8-.46a.37.37,0,0,0-.29,0l-.79.46c-.08,0-.08.12,0,.17l.79.46a.3.3,0,0,0,.29,0l.8-.46c.08,0,.08-.12,0-.17Z"/><path class="cls-26" d="M52.45,32.62l-.8-.46a.3.3,0,0,0-.29,0l-.79.46c-.08.05-.08.12,0,.17l.8.46a.3.3,0,0,0,.29,0l.79-.46c.08,0,.08-.12,0-.17Z"/><path class="cls-26" d="M52.47,34.07l-.8-.46a.34.34,0,0,0-.28,0l-.8.46c-.08,0-.08.13,0,.17l.8.46a.3.3,0,0,0,.29,0l.79-.46c.08,0,.08-.12,0-.17Z"/><path class="cls-26" d="M53.72,33.35l-.8-.46a.37.37,0,0,0-.29,0l-.79.46c-.08,0-.08.12,0,.17l.79.46a.3.3,0,0,0,.29,0l.8-.46c.08-.05.07-.12,0-.17Z"/><path class="cls-26" d="M48.72,34.79l-.8-.46a.3.3,0,0,0-.29,0l-.79.46a.08.08,0,0,0,0,.16l.8.46a.3.3,0,0,0,.29,0l.79-.46a.08.08,0,0,0,0-.16Z"/><path class="cls-26" d="M50,34.06l-.79-.46a.37.37,0,0,0-.29,0l-.8.46c-.08,0-.08.13,0,.17l.8.46a.3.3,0,0,0,.29,0l.79-.46c.08,0,.08-.12,0-.17Z"/><path class="cls-26" d="M50,35.52l-.8-.46a.3.3,0,0,0-.29,0l-.79.46c-.08,0-.08.12,0,.17l.8.46a.37.37,0,0,0,.29,0l.79-.46c.08,0,.08-.13,0-.17Z"/><path class="cls-26" d="M51.23,34.8l-.8-.46a.3.3,0,0,0-.29,0l-.79.46a.08.08,0,0,0,0,.16l.8.46a.3.3,0,0,0,.29,0l.79-.46a.08.08,0,0,0,0-.16Z"/><path class="cls-26" d="M46.24,36.23l-.8-.46a.3.3,0,0,0-.29,0l-.79.46c-.08.05-.08.12,0,.17l.8.46a.28.28,0,0,0,.28,0l.8-.46c.08,0,.08-.12,0-.17Z"/><path class="cls-26" d="M47.48,35.51l-.8-.46a.3.3,0,0,0-.29,0l-.79.46c-.08.05-.08.12,0,.17l.8.46a.37.37,0,0,0,.29,0l.79-.46c.08,0,.08-.12,0-.17Z"/><path class="cls-26" d="M47.5,37l-.79-.46a.37.37,0,0,0-.29,0l-.8.46c-.08,0-.08.12,0,.17l.8.46a.3.3,0,0,0,.29,0l.79-.46c.08-.05.08-.12,0-.17Z"/><path class="cls-26" d="M48.75,36.24l-.8-.46a.3.3,0,0,0-.29,0l-.79.46c-.08,0-.08.12,0,.17l.79.46a.33.33,0,0,0,.29,0l.8-.46c.08,0,.08-.12,0-.17Z"/><path class="cls-26" d="M43.75,37.67l-.8-.46a.37.37,0,0,0-.29,0l-.79.47a.08.08,0,0,0,0,.16l.8.46a.3.3,0,0,0,.29,0l.79-.46c.08,0,.08-.12,0-.17Z"/><path class="cls-26" d="M45,37l-.79-.46a.37.37,0,0,0-.29,0l-.8.46c-.08,0-.08.12,0,.17l.79.46a.3.3,0,0,0,.29,0l.79-.46c.08,0,.08-.12,0-.17Z"/><path class="cls-26" d="M45,38.41l-.8-.46a.3.3,0,0,0-.29,0l-.79.46a.08.08,0,0,0,0,.16l.8.46a.3.3,0,0,0,.29,0l.79-.46a.08.08,0,0,0,0-.16Z"/><path class="cls-26" d="M46.26,37.68l-.8-.46a.37.37,0,0,0-.29,0l-.79.46c-.08,0-.08.13,0,.17l.8.46a.3.3,0,0,0,.29,0l.79-.46c.08,0,.08-.12,0-.17Z"/><path class="cls-26" d="M56.29,33.31l-.8-.47a.37.37,0,0,0-.29,0l-.79.47a.08.08,0,0,0,0,.16l.8.46a.3.3,0,0,0,.29,0l.79-.46a.08.08,0,0,0,0-.16Z"/><path class="cls-26" d="M57.53,32.58l-.8-.46a.37.37,0,0,0-.29,0l-.79.46c-.08.05-.08.12,0,.17l.8.46a.3.3,0,0,0,.29,0l.79-.46c.08,0,.08-.12,0-.17Z"/><path class="cls-26" d="M60.05,31.12l-.8-.46a.37.37,0,0,0-.29,0l-.79.46c-.08.05-.08.12,0,.17l.8.46a.28.28,0,0,0,.28,0l.8-.46c.08-.05.08-.12,0-.17Z"/><path class="cls-30" d="M44.81,18.71l-.09-1.43h0L43.7.58a.5.5,0,0,0,0-.12l.57-.19L43.35,0h0a.64.64,0,0,0-.49.08L19.12,13.81a1.64,1.64,0,0,0-.73,1.38l1,16.7.07,1.33c0,.51.41.73.84.48L44.08,20.1A1.65,1.65,0,0,0,44.81,18.71Z"/><path class="cls-30" d="M45.08,18.83,45,17.39,44,.7v0l.28-.4L43.8.15a.4.4,0,0,0-.35.07L19.72,13.93A1.61,1.61,0,0,0,19,15.31l1.1,18.08a.62.62,0,0,0,.4.62h0l.35.14.4-.59L44.36,20.21A1.6,1.6,0,0,0,45.08,18.83Z"/><path class="cls-31" d="M45.26,18.92l-.08-1.43-1-16.7v0l.1-.49L44,.21a.48.48,0,0,0-.39.11L19.9,14a1.61,1.61,0,0,0-.73,1.38L20.24,33a3.86,3.86,0,0,1,2.18,0L44.54,20.31A1.61,1.61,0,0,0,45.26,18.92Z"/><polygon class="cls-30" points="20.35 32.14 19.9 32.03 19.85 33.78 20.84 34.15 20.35 32.14"/><path class="cls-31" d="M20.19,32.1l.08,1.38a.75.75,0,0,0,.25.55l.32.12-.49-2Z"/><path class="cls-2" d="M20.25,36.3l16.8-9.7a4.9,4.9,0,0,1,4.43,0L45.3,28.8c1.21.7,1.21,1.84,0,2.55l-16.8,9.7a4.88,4.88,0,0,1-4.42,0l-3.82-2.21C19,38.15,19,37,20.25,36.3Z"/><path class="cls-32" d="M38.07,32.6l-3.62-1.49-1.57-.64a.58.58,0,0,1-.26-.56l.64-2.73,1.85-2.3-.72-.94-4.2,2.49-2.13,5.72.47,1.1.41,0,2.82,2.62a2.14,2.14,0,0,0,2.55.28l3.85-2.29A.68.68,0,0,0,38.07,32.6Z"/><path class="cls-33" d="M29.07,29.67l-.65,2.73a.61.61,0,0,0,.27.56l1.47,1.37,1.6,1.49a2.14,2.14,0,0,0,2.55.28l3.85-2.29.08-.05v0l.06-.05,0,0,0,0,0,0,0,0a.16.16,0,0,0,0-.07v0a.43.43,0,0,0,0,0h0a.66.66,0,0,0-.39-.82l-3.62-1.49-1.57-.64a.58.58,0,0,1-.26-.56l.64-2.73,1.85-2.3-.72-.94-4.2,2.49.72.95Z"/><path class="cls-31" d="M38.11,32.62a.61.61,0,0,1,.29.71s0,0,0,0v0l0,.06,0,0,0,0,0,0,0,0,0,0h0l-.06,0L34.27,36a2.05,2.05,0,0,1-1.05.29h0a2.08,2.08,0,0,1-1.42-.56l-3.07-2.87h0a.54.54,0,0,1-.23-.49l.64-2.71,1.4-1.75h0l-1.43,1.78-.65,2.73a.61.61,0,0,0,.27.56l1.47,1.37,1.6,1.49a2.14,2.14,0,0,0,2.55.28l3.85-2.29.08-.05v0l.06-.05,0,0,0,0,0,0,0,0a.16.16,0,0,0,0-.07v0a.43.43,0,0,0,0,0A.66.66,0,0,0,38.11,32.62Z"/><path class="cls-30" d="M38.46,33.42a.61.61,0,0,1-.3.39L34.31,36.1a2.14,2.14,0,0,1-2.55-.28l-.69-.64L28.69,33a.61.61,0,0,1-.27-.56l.65-2.73,1.84-2.29-.72-.95-1.82,2.5,0,.05v0l-.65,3.18a1.15,1.15,0,0,0,.54,1.06l3.54,3h0a2.14,2.14,0,0,0,2.55.28l3.85-2.29A.66.66,0,0,0,38.46,33.42Z"/><path class="cls-26" d="M45.75,19l-.09-1.44L20.35,32.14l.09,1.44c0,.51.41.73.84.48L45,20.35A1.64,1.64,0,0,0,45.75,19Z"/><path class="cls-26" d="M43.8.36,20.06,14.07a1.64,1.64,0,0,0-.73,1.38l1,16.69L45.66,17.53,44.64.84c0-.51-.41-.73-.84-.48Z"/><path class="cls-34" d="M44.09,1,19.86,15l1,16.7,24.22-14L44.09,1Z"/><polygon class="cls-31" points="44.09 1 43.68 1.23 44.68 17.53 20.86 31.28 20.89 31.68 45.11 17.7 44.09 1"/><path class="cls-14" d="M33.3,25.47l-.5.29a.56.56,0,0,0-.24.47l0,.58a.18.18,0,0,0,.29.16l.5-.29a.56.56,0,0,0,.24-.47l0-.58c0-.17-.14-.24-.29-.16Z"/><path class="cls-2" d="M52,49l-8.72-5c-.23-.13-.23-.34,0-.47l12.55-7.24a.89.89,0,0,1,.81,0l8.73,5a.25.25,0,0,1,0,.47L52.85,49A.91.91,0,0,1,52,49Z"/><path class="cls-27" d="M65.37,41.44h0V41.1H65l-8.35-4.82a.87.87,0,0,0-.8,0l-12.19,7h-.35v.34h0a.27.27,0,0,0,.16.24L52,48.81a.9.9,0,0,0,.8,0l12.38-7.15a.27.27,0,0,0,.16-.23Z"/><path class="cls-35" d="M52,48.47l-8.55-4.93a.25.25,0,0,1,0-.47l12.38-7.14a.87.87,0,0,1,.8,0l8.55,4.93c.22.13.22.34,0,.46L52.83,48.47A.87.87,0,0,1,52,48.47Z"/><path class="cls-29" d="M65.15,41.21l-12.4,7.16a.76.76,0,0,1-.66,0l-8.54-4.94c-.19-.1-.19-.27,0-.38L55.94,35.9a.7.7,0,0,1,.66,0l8.54,4.93C65.33,40.94,65.33,41.11,65.15,41.21Z"/><path class="cls-36" d="M49.67,39.55l0,0h0l.49.29s0,0,0,0l0,0a0,0,0,0,1-.05,0l-.49-.29s0,0,0,0Z"/><path class="cls-26" d="M65,41.06c-2.61,1.52-9.9,5.72-12.52,7.23a.17.17,0,0,1-.17,0l-7.68-4.43s0-.07,0-.1l12.52-7.23a.19.19,0,0,1,.18,0L65,41S65.06,41,65,41.06Z"/><path class="cls-37" d="M53,47.59l-.26.15a.17.17,0,0,1-.14,0l-.29-.17,0,0,.32.18a.14.14,0,0,0,.09,0,.17.17,0,0,0,.1,0l.29-.17Zm-7.4-3.91h0l.3-.18-.06,0-.26.15a.08.08,0,0,0,0,.07.08.08,0,0,0,0,.08l.33.19.06,0-.37-.21A0,0,0,0,1,45.55,43.68Zm18.57-2.62-.29-.16-.06,0,.32.19,0,0,0,0-.29.17.06,0,.26-.15s0,0,0-.07A.1.1,0,0,0,64.12,41.06Zm-7.18-4-.3.17.07,0,.26-.15h.13l.33.2.07,0L57.13,37A.21.21,0,0,0,56.94,37Z"/><path class="cls-26" d="M45,43.32l-.09,0a.81.81,0,0,1-.74,0l0,0c-.19-.11-.17-.31.06-.43l.08,0a.81.81,0,0,1,.74,0l0,0C45.19,43,45.17,43.19,45,43.32Z"/><path class="cls-26" d="M56.65,36.56l-.08,0a.86.86,0,0,1-.75,0l0,0c-.19-.11-.17-.3,0-.43l.08,0a.83.83,0,0,1,.75,0l.05,0C56.9,36.24,56.87,36.43,56.65,36.56Z"/><path class="cls-38" d="M44.58,43.49a9.43,9.43,0,0,0-1.67-2,4.84,4.84,0,0,0-.94-.36c-.15,0-1.2.12-1.2.12l-.59.19a1.15,1.15,0,0,0-.51.1A3.32,3.32,0,0,0,39,42l-.1.6.23.11a1.28,1.28,0,0,0-.3.37,1.17,1.17,0,0,0,0,.34l-.36.49a3.45,3.45,0,0,0,.06.71.24.24,0,0,0,.31.14c.11,0,.2-.25.2-.25l.09-.17a2,2,0,0,1,.54.18c.28.15,1.17.73,1.17.73a5.36,5.36,0,0,0,1.15.42C42.25,45.65,45.39,45.23,44.58,43.49Z"/><path class="cls-39" d="M38.8,43.49a.77.77,0,0,1,.61-.11c.18,0,.6.11.6.11l-.42-.33-.51.09-.24.08Z"/><path class="cls-39" d="M39.15,42.71a.56.56,0,0,1,.19-.24,1.26,1.26,0,0,1,.67-.1c.11,0,.43.12.63.16s-.52-.33-.63-.42a.68.68,0,0,0-.47-.09c-.09,0-.32.35-.39.43a.81.81,0,0,1-.23.15Z"/><path class="cls-39" d="M40.18,41.4l.89.2a2.56,2.56,0,0,0,.53.34c.17.05.19-.1.19-.1l-.49-.44a5.53,5.53,0,0,0-.57-.17Z"/><path class="cls-38" d="M71.05,22.39c.35-.15.45.22.41.63s-.35,2.13-.7,2.33-.57-.82-.48-1.62A2.19,2.19,0,0,1,71.05,22.39Z"/><path class="cls-40" d="M65,31.14a10.66,10.66,0,0,0-.26-2,1.72,1.72,0,0,1-1-.55A4.09,4.09,0,0,1,62.49,26a40.4,40.4,0,0,1-.39-4.79c0-.72.11-2.06,1.09-2.43S71,20.12,71,22.26a13.36,13.36,0,0,1-.65,3.89,11.15,11.15,0,0,0,.57,4.24C69.58,31.07,65,31.14,65,31.14Z"/><path class="cls-38" d="M62.91,23.67c.38.19.68,1.11.73,1.3a4.57,4.57,0,0,1,.14.77,4.34,4.34,0,0,1-.06.88c0,.22-.27.15-.49-.44A3.6,3.6,0,0,1,63,24.93a10.73,10.73,0,0,0-.28-1.09C62.68,23.6,62.68,23.56,62.91,23.67Z"/><path class="cls-20" d="M62.24,23.81c.24.25.31.22.31.22s0-.93.68-.7a3.56,3.56,0,0,1,2,2.51,3.78,3.78,0,0,0,3.71.92c.65-.14,1.22-.2,1.4-.45a8.52,8.52,0,0,0,.94-2.69c.25-1.54,1-5.29-1.9-5.83a4.87,4.87,0,0,0-5.46-.36A3.35,3.35,0,0,0,62,20.78c0,.79.14,1,.15,1.68A11.36,11.36,0,0,0,62.24,23.81Z"/><path class="cls-41" d="M59.5,43.17s0,.06,0,.08C59.57,44.6,61,49.71,61,51.6s-.38,5.28.16,6.23h0c.54,1,5.33,3.1,9.33,2.74s5.88-2.94,6.13-4.75-.27-4.86-.46-6.69.28-3.41.93-5.73a38.84,38.84,0,0,0,1.3-7.67c.26-3.13-1.37-4.29-1.7-4.45s-3.19-.41-4.19-.66a5.1,5.1,0,0,0-2.62-.2l-4.58.71a6.89,6.89,0,0,1-2.82,2.45,20.1,20.1,0,0,0-4,2.41C58.18,36.27,59.39,41.69,59.5,43.17Z"/><path class="cls-42" d="M59.51,43.25C59.57,44.6,61,49.71,61,51.6s-.38,5.28.16,6.23h0a2.4,2.4,0,0,0,.73.27s-.49-4.32-.55-5.35.22-3,.14-4.78-.46-2.79.19-5.09c0,0-1.1.11-2.15.29C59.5,43.2,59.51,43.23,59.51,43.25Z"/><path class="cls-43" d="M59.52,36c1.32.72,2.3,2.43,2.35,4.81S60.48,44,59.73,44.68s-7.2,5-9.3,5.18-2.78-3.62-1.37-4.67,5.79-4.51,6.71-5.76,2-2.84,2.41-3.2A1.19,1.19,0,0,1,59.52,36Z"/><path class="cls-43" d="M50.51,44.8a6.59,6.59,0,0,1-3.73-.6,10,10,0,0,0-2.68-1.15,2.25,2.25,0,0,0-2.31,1.23A1.7,1.7,0,0,0,42,46.17c.11.15,5.9,3.78,8.1,3.68S52.16,44.67,50.51,44.8Z"/><path class="cls-43" d="M61.75,57.38a9,9,0,0,1,.39-3.14c.12-.48.22-.94.28-1.3a5.36,5.36,0,0,0-.13-1.64A15.29,15.29,0,0,1,62,47.8a14.88,14.88,0,0,0-.49-4.2,12.67,12.67,0,0,1-.31-1.68l.24,0a12.75,12.75,0,0,0,.32,1.66,15.59,15.59,0,0,1,.49,4.26,15,15,0,0,0,.28,3.45A5.19,5.19,0,0,1,62.66,53a13.38,13.38,0,0,1-.28,1.33,8.94,8.94,0,0,0-.39,3Z"/><path class="cls-43" d="M68.41,29.88a8.65,8.65,0,0,0,1.85-.48.61.61,0,0,0,.24-.46s.31-.22.48-.19a4.76,4.76,0,0,1,.84,1.58c0,.2-.75.74-1.71,1a17,17,0,0,1-3.37.43,9.16,9.16,0,0,0-2.33.56,2.87,2.87,0,0,1-.07-1.49c.11-.33.87-.56,1.47-.63S67.59,30,68.41,29.88Z"/><path class="cls-9" d="M93.08,45.38,87.3,59.68s2.16,6.51,1.62,7.55c-.45.86-11.33,6.82-14.28,8.4a2.63,2.63,0,0,1-1,.55h0a1.17,1.17,0,0,1-.67,0l-.2-.09a6.62,6.62,0,0,1-2.72-3,.72.72,0,0,1-.14-.39l0-5.33c0-2.25,4.88-14.24,4.88-14.24l-.21-5.19a3.85,3.85,0,0,1,.56-2.2,2.51,2.51,0,0,1,.84-.87l13.33-7.46a.73.73,0,0,1,.22-.09.48.48,0,0,1,.14-.06,1.77,1.77,0,0,1,.52-.07c1.51,0,3.41,1.56,3.41,1.56a3.73,3.73,0,0,1,1.21,2.09c0,.06,0,.13,0,.19Z"/><path class="cls-10" d="M94.86,41l-1.78,4.37C88.69,49,81.26,51.45,80.25,49.6c-1.1-2-3.38-3.22-5.11-3.88a2.51,2.51,0,0,1,.84-.87l13.33-7.46a.73.73,0,0,1,.22-.09.48.48,0,0,1,.14-.06,1.77,1.77,0,0,1,.52-.07c1.51,0,3.41,1.56,3.41,1.56a3.73,3.73,0,0,1,1.21,2.09C94.83,40.88,94.84,41,94.86,41Z"/><path class="cls-17" d="M94,39.4s.35.1.6.86a1.37,1.37,0,0,0-.86,0c-.21.06-13.11,7.07-13.11,7.07a6.45,6.45,0,0,0-1,.89c-.49-.3,0-.84,0-.84a2.67,2.67,0,0,1,.58-.39C80.6,46.77,94,39.4,94,39.4Z"/><path class="cls-44" d="M94.86,41,89.69,61.28s-.23,4.91-.77,6c-.45.86-11.33,6.82-14.28,8.4a2.71,2.71,0,0,1-1,.55h0a1.21,1.21,0,0,1-.68,0,32.21,32.21,0,0,1,0-6.44c.2-1.94,2.88-9.89,4.47-14s1.14-5.9,2-7S90.75,42.22,92.78,41c1.51-.89,1.92-.47,2-.19A.81.81,0,0,1,94.86,41Z"/><path class="cls-15" d="M68.47,73.45a.48.48,0,0,1-.24-.38c0-.18,0-.37-.06-.56-.06-.49-.11-1-.16-1.46-.2-1.83-.45-3.67-.53-5.5-.08-.25-.38-.44-.58-.58a22.31,22.31,0,0,0-3.39-1.87q-1.15-.56-2.34-1.08l-1.24-.53c-.35-.15-.81-.22-.93-.65a1.33,1.33,0,0,1,0-.4c0-.07,0-.23.11-.25s.17.06.22.08l.48.19c1.27.52,2.53,1.06,3.77,1.65a26.24,26.24,0,0,1,3.34,1.81,6.25,6.25,0,0,1,1.07.85,1.22,1.22,0,0,1,.41.74c0,1,.17,2,.27,3s.21,2,.32,3c0,.4.09.81.13,1.22,0,.21.15.5,0,.69A.48.48,0,0,1,68.47,73.45Z"/><path class="cls-9" d="M58.18,58.36l1.24.39a1.88,1.88,0,0,1,1.08.17l1.22.55c3.58,1.15,8.62,2.82,8.67,3.2a4.42,4.42,0,0,1,0,1.12v.05h0a.87.87,0,0,1-.45.52,2.09,2.09,0,0,1-1.88.08l-9.57-4.35a.59.59,0,0,1-.28-.31.18.18,0,0,1,0-.1A2,2,0,0,1,58.18,58.36Z"/><path class="cls-10" d="M70.07,62.17,60.5,57.81a2.12,2.12,0,0,0-1.88.08h0c-.56.32-.62.81-.14,1.09l9.57,4.35a2.09,2.09,0,0,0,1.88-.07C70.49,62.94,70.55,62.45,70.07,62.17Z"/><path class="cls-45" d="M3.26,22.32c0,.36-.26.51-.58.33a1.27,1.27,0,0,1-.57-1c0-.37.25-.51.57-.33A1.26,1.26,0,0,1,3.26,22.32Z"/><path class="cls-46" d="M3.13,22.4c0,.36-.25.51-.57.33a1.27,1.27,0,0,1-.57-1c0-.37.25-.51.57-.33A1.25,1.25,0,0,1,3.13,22.4Z"/><polygon class="cls-47" points="6.75 45.67 4.82 44.55 4.48 44.75 4.48 43.96 9.01 44.16 9.01 44.36 6.75 45.67"/><polygon class="cls-48" points="6.75 45.47 4.48 43.96 6.74 42.65 9.01 44.16 6.75 45.47"/><polygon class="cls-49" points="6.37 44.71 4.91 43.73 6.37 42.89 7.83 43.86 6.37 44.71"/><path class="cls-50" d="M6.62,44.23a6.21,6.21,0,0,1-1.18-.09,2.33,2.33,0,0,1-.69-.34l1-.59.89,1Z"/><path class="cls-45" d="M7.14,43.88V44l-.08,0H7l-.51-.3L6,43.43a.76.76,0,0,1,0-.21.44.44,0,0,1,.1-.31.29.29,0,0,1,.23-.1h.09a.71.71,0,0,1,.16.07A1.24,1.24,0,0,1,7.14,43.88Z"/><path class="cls-46" d="M7,44v0l-.51-.3L6,43.43l-.14-.08a.13.13,0,0,1,0-.06.36.36,0,0,1,.22-.38.34.34,0,0,1,.2,0l.11,0,0,0A1.26,1.26,0,0,1,7,44Z"/><path class="cls-51" d="M17.33,22.8,7.47,28.88a2.63,2.63,0,0,1-.92.32,2,2,0,0,1-1.79-.37A.79.79,0,0,1,5.12,28l10.3-6.33a1.05,1.05,0,0,1,.48-.16,2.37,2.37,0,0,1,1.29.22l.11-.19C18.13,22.24,17.62,22.63,17.33,22.8Z"/><path class="cls-47" d="M17.21,22.62l-9.74,6a2.63,2.63,0,0,1-.92.32,2,2,0,0,1-1.79-.37.77.77,0,0,1,.36-.81l10.3-6.34a1.05,1.05,0,0,1,.48-.16,2.37,2.37,0,0,1,1.29.22h0C18,22.05,17.5,22.45,17.21,22.62Z"/><path class="cls-51" d="M5.4,27.8a.51.51,0,0,0,.22.9,2.72,2.72,0,0,0,.93.24,2,2,0,0,1-1.79-.37.77.77,0,0,1,.36-.81l10.3-6.34a1.05,1.05,0,0,1,.48-.16,8.08,8.08,0,0,0-1,.54C14.33,22.2,5.4,27.8,5.4,27.8Z"/><path class="cls-52" d="M7,27.86c-.12,0-.11-.25.38-.68l.3-.21,8.59-5.3a1,1,0,0,1,.46-.09c.29,0,.54,0,0,.37L8.88,26.78A17.54,17.54,0,0,1,7,27.86Z"/><path class="cls-45" d="M11.25,24.64h0l-.12.09h0a4.46,4.46,0,0,0-.46-.16,2.78,2.78,0,0,0-.53.11l-.11,0a.76.76,0,0,1,0-.21.47.47,0,0,1,.11-.33.4.4,0,0,1,.27-.14h.1a.43.43,0,0,1,.19,0A1,1,0,0,1,11.25,24.64Z"/><path class="cls-46" d="M11.11,24.74h0a4.46,4.46,0,0,0-.46-.16,2.78,2.78,0,0,0-.53.11l-.11,0-.17-.06v-.06a.42.42,0,0,1,.25-.42.45.45,0,0,1,.23,0l.13,0,.06,0A1.07,1.07,0,0,1,11.11,24.74Z"/><path class="cls-53" d="M9.63,24.73A.59.59,0,0,1,10,24.5L2.53,22,6.78,44.09,7,44,3,22.57Z"/><path class="cls-53" d="M5.86,43.57l-4-21.77a.38.38,0,0,1,.51-.43L11,24.29l.07.46L2.2,21.7h0a0,0,0,0,0,0,0L6.21,43.51Z"/><path class="cls-51" d="M9.52,25a.6.6,0,0,1,.19-.31L2.36,22.21,6.41,44l.37.08L2.83,22.77Z"/><path class="cls-51" d="M5.66,43.59,1.65,22a.38.38,0,0,1,.51-.43l8.66,2.9.07.43L2,21.9H2a0,0,0,0,0,0,0L6,43.71Z"/><path class="cls-45" d="M2.86,22.57c0,.36-.26.51-.58.33a1.3,1.3,0,0,1-.57-1c0-.37.26-.51.57-.33A1.26,1.26,0,0,1,2.86,22.57Z"/><path class="cls-46" d="M2.74,22.65c0,.36-.26.51-.58.33a1.3,1.3,0,0,1-.57-1c0-.37.26-.51.57-.33A1.26,1.26,0,0,1,2.74,22.65Z"/><path class="cls-45" d="M6.75,44.1a.17.17,0,0,1,0,.07l-.08,0h0l-.51-.3-.49-.28a1.5,1.5,0,0,1,0-.22.39.39,0,0,1,.1-.3.26.26,0,0,1,.23-.1H6a.37.37,0,0,1,.16.07A1.25,1.25,0,0,1,6.75,44.1Z"/><path class="cls-46" d="M6.62,44.18v0l-.51-.3-.49-.28-.14-.08v-.06c0-.21.08-.35.22-.38a.25.25,0,0,1,.19,0l.11,0,0,0A1.24,1.24,0,0,1,6.62,44.18Z"/><path class="cls-45" d="M10.79,24.92l-.15.1a3.31,3.31,0,0,0-.45-.15,2.2,2.2,0,0,0-.57.12h0l-.1,0a.76.76,0,0,1,0-.21.46.46,0,0,1,.12-.32.4.4,0,0,1,.27-.14.17.17,0,0,1,.1,0l.19,0A1.16,1.16,0,0,1,10.79,24.92Z"/><path class="cls-46" d="M10.64,25a3.31,3.31,0,0,0-.45-.15,2.2,2.2,0,0,0-.57.12h0l-.27.16v-.26a.09.09,0,0,1,0-.05.42.42,0,0,1,.26-.42.35.35,0,0,1,.23,0,.32.32,0,0,1,.13,0H10A1.08,1.08,0,0,1,10.64,25Z"/><polygon class="cls-53" points="11.02 24.29 10.82 24.47 10.89 24.9 11.09 24.75 11.02 24.29"/><path class="cls-52" d="M7,27.86a1.62,1.62,0,0,1-.7.12H5.86a6.91,6.91,0,0,0,.9-.42l.75-.5Z"/><polygon class="cls-51" points="6.75 45.47 6.75 45.67 4.82 44.55 4.48 44.75 4.48 43.96 6.75 45.47"/><polygon class="cls-54" points="6.75 45.67 6.37 45.67 4.22 44.9 4.82 44.55 6.75 45.67"/><polygon class="cls-29" points="24.35 26.32 21.89 27.74 21.23 16.71 23.68 15.3 24.35 26.32"/><polygon class="cls-29" points="43.64 14.36 41.18 15.78 40.51 4.76 42.97 3.34 43.64 14.36"/><polygon class="cls-29" points="38.79 18.77 26.88 25.65 26.11 13.2 38.02 6.32 38.79 18.77"/></g></g></svg>